<?xml version="1.0" encoding="UTF-8"?><svg id="Layer_1" xmlns="http://www.w3.org/2000/svg" viewBox="0 0 60.94 60.94"><defs><style>.cls-1{fill:#e84339;}</style></defs><path class="cls-1" d="m30.47,0C13.64,0,0,13.64,0,30.47s13.64,30.47,30.47,30.47,30.47-13.64,30.47-30.47S47.29,0,30.47,0Zm16.73,32.97h-14.23v14.23c0,1.38-1.12,2.5-2.5,2.5s-2.5-1.12-2.5-2.5v-14.23h-14.23c-1.38,0-2.5-1.12-2.5-2.5s1.12-2.5,2.5-2.5h14.23v-14.23c0-1.38,1.12-2.5,2.5-2.5s2.5,1.12,2.5,2.5v14.23h14.23c1.38,0,2.5,1.12,2.5,2.5s-1.12,2.5-2.5,2.5Z"/></svg>