<?xml version="1.0" encoding="UTF-8"?><svg id="Layer_1" xmlns="http://www.w3.org/2000/svg" viewBox="0 0 1600.67 349.3"><defs><style>.cls-1{fill:#fbd11c;}.cls-2{fill:#f18fbb;}.cls-3{fill:#fefefc;}.cls-4{fill:#018b70;}</style></defs><g><path class="cls-4" d="m1583.93,290.42c-.04.73-.4,1.29-.92,1.77-2.83,2.6-5.95,4.74-9.63,5.98-.52.17-1.02.38-1.53.57-.9.33-1.28.89-1.47,1.93-.57,3.2-.47,6.47-1.13,9.67-.4,1.96,0,4.07-.23,6.09-.32,2.72.27,5.41.05,8.11-.28,3.44-.58,6.92-.12,10.31.29,2.13-.11,4.28.52,6.41.45,1.53-.05,3.23.12,4.87.1.94-.02,1.89-.04,2.84h-5.32c.19-1.87-.27-3.76.15-5.62.04-.19.09-.45,0-.59-.83-1.28-.4-2.61-.23-3.95.31-2.47-.44-4.59-1.81-6.7-1.65-2.54-3.96-4.49-5.67-6.95-.35-.5-.78-1.03-1.3-1.28-2.02-.96-3.57-2.53-5.31-3.86-.48-.37-1.09-.6-1.52-1.01-.64-.62-1.36-.69-2.2-.82-2.88-.46-5.73-1.08-8.58-1.68-.87-.18-1.03-.76-.7-1.55.29-.7.79-1.05,1.53-1.17.74-.12,1.62-.11,2.16-.52,2.28-1.71,4.68-.74,7.06-.52.2.02.39.17.59.16,1.97-.1,3.71.51,5.36,1.85.18-1.13-.1-1.95-.49-2.73-.34-.68-.5-1.4-.68-2.13-.13-.55,0-.95.38-1.27.42-.36.91-.29,1.32.03,1.06.82,2.4,1.3,3.04,2.65.22.47.67.87,1.09,1.19,1.05.8,1.81,1.81,2.44,2.96.62,1.13,1.52,2.04,2.77,3.17.24-2.77.56-5.24.63-7.72.1-3.13.78-6.19.99-9.31.04-.61.17-1.2-.05-1.8-.24-.66-.42-1.4-.07-1.99.61-1.06.1-1.66-.67-2.22-.44-.32-.89-.63-1.36-.89-1.1-.59-2.02-1.3-2.58-2.49-.53-1.12-1.5-1.92-2.43-2.72-1.29-1.11-1.91-2.45-1.53-4.17.13-.15.25-.31.4-.45,1.31-1.27,1.69-1.27,3.07-.12.9.75,1.71,1.54,2.31,2.57.51.88,1.2,1.61,2.31,1.85.15-1.13,0-2.12-.25-3.12-.21-.83-.08-1.63.33-2.37.82-1.44,2.4-1.62,3.57-.43.73.74.98,1.61.92,2.61-.07,1.09-.11,2.17-.23,3.25-.04.38-.02.72.28.9.42.26.77-.05,1.05-.33.24-.24.42-.54.63-.8.84-1.07,1.73-2.11,2.53-3.21.67-.92,1.55-.86,2.36-.5.81.35,1.15,1.1.89,2.03-.34,1.24-.46,2.56-1.47,3.52-.31.3-.56.68-.25,1.07.36.46.87.31,1.29.04.28-.18.51-.45.77-.67.74-.6,1.47-1.22,2.24-1.78,2.5-1.82,3.33-1.62,4.64,1.04Z"/><path class="cls-3" d="m1594.17,278.05c.27,0,.57.1.79,0,1.32-.59,2.48-.25,3.61.5.39.26.83.43,1.24.64,1.04,1.13,1.13,2.36.36,3.67-1.28,1.94-3.52,2.58-5.25,3.9-2.52,1.25-5,2.56-7.86,2.96-1.04.14-1.99.83-3.11.71-1.32-2.66-2.14-2.85-4.64-1.04-.77.56-1.5,1.18-2.24,1.78-.26.21-.49.48-.77.67-.42.27-.92.42-1.29-.04-.31-.39-.06-.77.25-1.07,1.01-.96,1.13-2.29,1.47-3.52.26-.94-.07-1.68-.89-2.03-.82-.35-1.7-.41-2.36.5-.8,1.1-1.68,2.14-2.53,3.21-.21.27-.39.56-.63.8-.28.29-.63.6-1.05.33-.3-.18-.32-.52-.28-.9.12-1.08.16-2.17.23-3.25.06-1-.2-1.87-.92-2.61-1.17-1.19-2.76-1.01-3.57.43-.42.74-.55,1.54-.33,2.37.26.99.41,1.99.25,3.12-1.11-.25-1.8-.98-2.31-1.85-.6-1.02-1.41-1.82-2.31-2.57-1.38-1.14-1.75-1.15-3.07.12-.14.14-.27.3-.4.45-2.09-1.33-3.72-2.98-5.1-5.14-1.41-2.21-2.25-4.81-4.25-6.68-.95-.89-.97-5.33-.24-6.44.8-1.21,2.18-1.7,3.81-1.05,2.03.82,3.87,2.02,5.3,3.7,1.42,1.65,3.16,3,4.4,4.82.21.32.56.69,1.02.49.4-.17.55-.62.58-1.01.08-1.29.13-2.59.16-3.88.05-2.1,0-4.2.3-6.31.27-1.91,1.08-3.53,2.13-5.01,1.7-2.4,4.28-2.04,5.67.59,1.07,2.03,1.25,4.13,1.47,6.4.35,3.79-.31,7.64.84,11.49.97-1.35,2.04-2.59,2.85-4.05.73-1.31,1.47-2.61,2.21-3.92.48-.84,1.12-1.56,1.9-2.11.85-.6,1.53-1.34,2.06-2.23.87-1.49,2.43-1.92,3.91-2.37,1.01-.31,1.89.13,2.36,1.14.76,1.63.8,3.29.07,4.94-.71,1.61-1.61,3.15-1.78,4.97-.05.47-.31.92-.68,1.24-1.18,1.02-1.93,2.26-2.23,3.79-.09.46-.66.7-.65,1.46,3.91-.48,7.61-1.93,11.53-2.11Zm-10.11-9.31c-.13-.34-.36-.46-.65-.33-.6.26-.87.82-1.19,1.34-1.83,3.01-3.67,6.02-5.5,9.03-.24.4-.56.79-.55,1.29,0,.18.09.44.22.52.13.07.41.02.54-.09.2-.16.35-.41.5-.63,2.37-3.4,4.31-7.05,6.43-10.6.1-.17.14-.37.19-.53Zm-.82,16.45c.89.41,1.67.24,2.46.08,1.73-.36,3.46-.69,5.18-1.05,1.26-.26,2.52-.54,3.77-.82.27-.06.55-.22.54-.52-.02-.43-.39-.5-.73-.51-.27,0-.54.02-.81.07-3.19.65-6.37,1.31-9.56,1.96-.34.07-.64.21-.85.79Zm-16.18-20.78c-.92.52-.69,1.34-.7,2.05-.02,3.06-.01,6.12,0,9.19,0,.41,0,.82.05,1.22.04.35.18.67.63.61.33-.05.4-.34.44-.61.04-.34.05-.68.05-1.02,0-3.27,0-6.53,0-9.8,0-.52.14-1.09-.45-1.64Zm-7.55,15.49c0-.14.05-.3,0-.39-2.07-2.89-4.86-5.14-7.09-7.89-.21-.26-.6-.47-.9-.24-.43.33-.19.74.08,1.06,2.15,2.46,4.25,4.97,6.66,7.19.34.31.74.66,1.26.27Z"/><path class="cls-2" d="m1584.05,268.74c-.06.16-.09.36-.19.53-2.11,3.55-4.06,7.21-6.43,10.6-.15.22-.3.46-.5.63-.13.1-.42.16-.54.09-.13-.08-.22-.34-.22-.52-.01-.5.3-.89.55-1.29,1.83-3.01,3.67-6.02,5.5-9.03.32-.52.6-1.08,1.19-1.34.29-.13.51-.01.65.33Z"/><path class="cls-2" d="m1583.24,285.19c.21-.58.51-.72.85-.79,3.18-.66,6.37-1.31,9.56-1.96.26-.05.54-.08.81-.07.34,0,.71.08.73.51.01.3-.27.46-.54.52-1.26.28-2.51.56-3.77.82-1.73.36-3.46.69-5.18,1.05-.79.16-1.57.33-2.46-.08Z"/><path class="cls-2" d="m1567.06,264.41c.59.55.45,1.12.45,1.64.02,3.27,0,6.53,0,9.8,0,.34,0,.68-.05,1.02-.03.27-.11.56-.44.61-.44.06-.59-.26-.63-.61-.05-.4-.05-.81-.05-1.22,0-3.06-.01-6.13,0-9.19,0-.71-.22-1.53.7-2.05Z"/><path class="cls-2" d="m1559.51,279.9c-.52.39-.92.05-1.26-.27-2.41-2.22-4.51-4.73-6.66-7.19-.28-.32-.51-.73-.08-1.06.31-.23.69-.02.9.24,2.24,2.75,5.03,4.99,7.09,7.89.06.08,0,.25,0,.39Z"/></g><g><path class="cls-4" d="m47.03,290.42c-.04.73-.4,1.29-.92,1.77-2.83,2.6-5.95,4.74-9.63,5.98-.52.17-1.02.38-1.53.57-.9.33-1.28.89-1.47,1.93-.57,3.2-.47,6.47-1.13,9.67-.4,1.96,0,4.07-.23,6.09-.32,2.72.27,5.41.05,8.11-.28,3.44-.58,6.92-.12,10.31.29,2.13-.11,4.28.52,6.41.45,1.53-.05,3.23.12,4.87.1.94-.02,1.89-.04,2.84h-5.32c.19-1.87-.27-3.76.15-5.62.04-.19.09-.45,0-.59-.83-1.28-.4-2.61-.23-3.95.31-2.47-.44-4.59-1.81-6.7-1.65-2.54-3.96-4.49-5.67-6.95-.35-.5-.78-1.03-1.3-1.28-2.02-.96-3.57-2.53-5.31-3.86-.48-.37-1.09-.6-1.52-1.01-.64-.62-1.36-.69-2.2-.82-2.88-.46-5.73-1.08-8.58-1.68-.87-.18-1.03-.76-.7-1.55.29-.7.79-1.05,1.53-1.17.74-.12,1.62-.11,2.16-.52,2.28-1.71,4.68-.74,7.06-.52.2.02.39.17.59.16,1.97-.1,3.71.51,5.36,1.85.18-1.13-.1-1.95-.49-2.73-.34-.68-.5-1.4-.68-2.13-.13-.55,0-.95.38-1.27.42-.36.91-.29,1.32.03,1.06.82,2.4,1.3,3.04,2.65.22.47.67.87,1.09,1.19,1.05.8,1.81,1.81,2.44,2.96.62,1.13,1.52,2.04,2.77,3.17.24-2.77.56-5.24.63-7.72.1-3.13.78-6.19.99-9.31.04-.61.17-1.2-.05-1.8-.24-.66-.42-1.4-.07-1.99.61-1.06.1-1.66-.67-2.22-.44-.32-.89-.63-1.36-.89-1.1-.59-2.02-1.3-2.58-2.49-.53-1.12-1.5-1.92-2.43-2.72-1.29-1.11-1.91-2.45-1.53-4.17.13-.15.25-.31.4-.45,1.31-1.27,1.69-1.27,3.07-.12.9.75,1.71,1.54,2.31,2.57.51.88,1.2,1.61,2.31,1.85.15-1.13,0-2.12-.25-3.12-.21-.83-.08-1.63.33-2.37.82-1.44,2.4-1.62,3.57-.43.73.74.98,1.61.92,2.61-.07,1.09-.11,2.17-.23,3.25-.04.38-.02.72.28.9.42.26.77-.05,1.05-.33.24-.24.42-.54.63-.8.84-1.07,1.73-2.11,2.53-3.21.67-.92,1.55-.86,2.36-.5.81.35,1.15,1.1.89,2.03-.34,1.24-.46,2.56-1.47,3.52-.31.3-.56.68-.25,1.07.36.46.87.31,1.29.04.28-.18.51-.45.77-.67.74-.6,1.47-1.22,2.24-1.78,2.5-1.82,3.33-1.62,4.64,1.04Z"/><path class="cls-3" d="m57.26,278.05c.27,0,.57.1.79,0,1.32-.59,2.48-.25,3.61.5.39.26.83.43,1.24.64,1.04,1.13,1.13,2.36.36,3.67-1.28,1.94-3.52,2.58-5.25,3.9-2.52,1.25-5,2.56-7.86,2.96-1.04.14-1.99.83-3.11.71-1.32-2.66-2.14-2.85-4.64-1.04-.77.56-1.5,1.18-2.24,1.78-.26.21-.49.48-.77.67-.42.27-.92.42-1.29-.04-.31-.39-.06-.77.25-1.07,1.01-.96,1.13-2.29,1.47-3.52.26-.94-.07-1.68-.89-2.03-.82-.35-1.7-.41-2.36.5-.8,1.1-1.68,2.14-2.53,3.21-.21.27-.39.56-.63.8-.28.29-.63.6-1.05.33-.3-.18-.32-.52-.28-.9.12-1.08.16-2.17.23-3.25.06-1-.2-1.87-.92-2.61-1.17-1.19-2.76-1.01-3.57.43-.42.74-.55,1.54-.33,2.37.26.99.41,1.99.25,3.12-1.11-.25-1.8-.98-2.31-1.85-.6-1.02-1.41-1.82-2.31-2.57-1.38-1.14-1.75-1.15-3.07.12-.14.14-.27.3-.4.45-2.09-1.33-3.72-2.98-5.1-5.14-1.41-2.21-2.25-4.81-4.25-6.68-.95-.89-.97-5.33-.24-6.44.8-1.21,2.18-1.7,3.81-1.05,2.03.82,3.87,2.02,5.3,3.7,1.42,1.65,3.16,3,4.4,4.82.21.32.56.69,1.02.49.4-.17.55-.62.58-1.01.08-1.29.13-2.59.16-3.88.05-2.1,0-4.2.3-6.31.27-1.91,1.08-3.53,2.13-5.01,1.7-2.4,4.28-2.04,5.67.59,1.07,2.03,1.25,4.13,1.47,6.4.35,3.79-.31,7.64.84,11.49.97-1.35,2.04-2.59,2.85-4.05.73-1.31,1.47-2.61,2.21-3.92.48-.84,1.12-1.56,1.9-2.11.85-.6,1.53-1.34,2.06-2.23.87-1.49,2.43-1.92,3.91-2.37,1.01-.31,1.89.13,2.36,1.14.76,1.63.8,3.29.07,4.94-.71,1.61-1.61,3.15-1.78,4.97-.05.47-.31.92-.68,1.24-1.18,1.02-1.93,2.26-2.23,3.79-.09.46-.66.7-.65,1.46,3.91-.48,7.61-1.93,11.53-2.11Zm-10.11-9.31c-.13-.34-.36-.46-.65-.33-.6.26-.87.82-1.19,1.34-1.83,3.01-3.67,6.02-5.5,9.03-.24.4-.56.79-.55,1.29,0,.18.09.44.22.52.13.07.41.02.54-.09.2-.16.35-.41.5-.63,2.37-3.4,4.31-7.05,6.43-10.6.1-.17.14-.37.19-.53Zm-.82,16.45c.89.41,1.67.24,2.46.08,1.73-.36,3.46-.69,5.18-1.05,1.26-.26,2.52-.54,3.77-.82.27-.06.55-.22.54-.52-.02-.43-.39-.5-.73-.51-.27,0-.54.02-.81.07-3.19.65-6.37,1.31-9.56,1.96-.34.07-.64.21-.85.79Zm-16.18-20.78c-.92.52-.69,1.34-.7,2.05-.02,3.06-.01,6.12,0,9.19,0,.41,0,.82.05,1.22.04.35.18.67.63.61.33-.05.4-.34.44-.61.04-.34.05-.68.05-1.02,0-3.27,0-6.53,0-9.8,0-.52.14-1.09-.45-1.64Zm-7.55,15.49c0-.14.05-.3,0-.39-2.07-2.89-4.86-5.14-7.09-7.89-.21-.26-.6-.47-.9-.24-.43.33-.19.74.08,1.06,2.15,2.46,4.25,4.97,6.66,7.19.34.31.74.66,1.26.27Z"/><path class="cls-2" d="m47.15,268.74c-.06.16-.09.36-.19.53-2.11,3.55-4.06,7.21-6.43,10.6-.15.22-.3.46-.5.63-.13.1-.42.16-.54.09-.13-.08-.22-.34-.22-.52-.01-.5.3-.89.55-1.29,1.83-3.01,3.67-6.02,5.5-9.03.32-.52.6-1.08,1.19-1.34.29-.13.51-.01.65.33Z"/><path class="cls-2" d="m46.33,285.19c.21-.58.51-.72.85-.79,3.18-.66,6.37-1.31,9.56-1.96.26-.05.54-.08.81-.07.34,0,.71.08.73.51.01.3-.27.46-.54.52-1.26.28-2.51.56-3.77.82-1.73.36-3.46.69-5.18,1.05-.79.16-1.57.33-2.46-.08Z"/><path class="cls-2" d="m30.15,264.41c.59.55.45,1.12.45,1.64.02,3.27,0,6.53,0,9.8,0,.34,0,.68-.05,1.02-.03.27-.11.56-.44.61-.44.06-.59-.26-.63-.61-.05-.4-.05-.81-.05-1.22,0-3.06-.01-6.13,0-9.19,0-.71-.22-1.53.7-2.05Z"/><path class="cls-2" d="m22.6,279.9c-.52.39-.92.05-1.26-.27-2.41-2.22-4.51-4.73-6.66-7.19-.28-.32-.51-.73-.08-1.06.31-.23.69-.02.9.24,2.24,2.75,5.03,4.99,7.09,7.89.06.08,0,.25,0,.39Z"/></g><g><path class="cls-3" d="m116.84,75.99c-.16-.25-.29-.54-.5-.75-.33-.34-.76-.79-1.24-.38-.4.34-.03.89.21,1.11,1.37,1.22.95,3.04,1.52,4.53.61,1.59,1.21,3.28,1.38,5.04.19,1.92.63,3.81.59,5.74-.02.76.11,1.44.61,2.03-.17,1.93-.62,3.84-.21,5.8.15.72.08,1.46-.19,2.16-.09.23-.19.47-.19.7.07,4.16-2.13,7.52-3.92,11.01-.81,1.58-1.69,1.67-3.34.91-1.92-.89-3.34-2.14-3.89-4.28-.62-2.41-1.38-4.78-2.06-7.18-.48-1.71-.53-3.53-.57-5.25-.1-4.45-.54-8.89-.51-13.34.01-1.7-.57-3.35-.31-5.04-.9-.23-1.35.26-1.55.82-.6,1.65-1.68,2.89-2.89,4.14-.86.89-1.27,2.2-2.09,3.19-1.83,2.2-3.71,4.36-5.49,6.61-1.61,2.03-3.76,3.45-5.65,5.13-1.98,1.75-4.27,3.27-7.08,3.59-.54.06-1.06.28-1.57.47-2.21.82-4.47-.21-5.27-2.42-.21-.58-.36-1.17-.35-1.79.03-2.22.36-4.35,1.7-6.24.78-1.09,1.48-2.25,1.61-3.64.05-.57.35-1.05.73-1.45,2.46-2.63,4.25-5.78,6.68-8.44.61-.67,1.12-1.44,1.95-1.91.48-.27.86-.7,1.08-1.22.59-1.39,1.55-2.46,2.78-3.32.44-.3.85-.69,1.04-1.4-1.06-.24-1.95.13-2.81.44-1.45.51-2.89.98-4.46.83-.18-.02-.39-.03-.54.04-2.55,1.15-5.27,1.45-8.01,1.59-2.12.11-4.2.7-6.36.5-.66-.06-1.39-.07-1.99.15-1.49.52-2.95.62-4.49.29-.76-.17-1.59.06-2.37-.05-2.51-.35-5.09-.46-7.23-2.1-1.64-1.26-2.08-2.78-1.26-4.66.58-1.32,1.44-2.42,2.72-3.11,1.23-.67,2.5-1.28,3.73-1.95,1.87-1.01,4.02-.93,6-1.53,3.22-.97,6.58-1.24,9.89-1.73,1.93-.28,3.87-.42,5.77-.89.65-.16,1.35-.17,2,0,1.04.25,2.04.27,3.04-.16.46-.2.95-.21,1.44-.07.96.26,1.94.29,2.9.03.57-.15,1.1-.04,1.61.14,1.25.44,2.51.35,3.92.24-.24-.83-.85-1.25-1.4-1.66-2.42-1.76-4.8-3.57-6.94-5.67-.09-.09-.18-.19-.28-.23-2.29-.73-3.43-2.82-5.05-4.33-1.1-1.03-2.38-1.84-3.46-2.93-1.23-1.26-2.3-2.66-3.53-3.91-2.38-2.42-4.84-4.8-6.66-7.72-1.62-2.6-2.89-5.35-3.77-8.28-.62-2.07.12-4,.79-5.88.47-1.3,2.68-1.98,3.93-1.3,1.4.76,2.89,1.28,4.36,1.88,1.35.55,2.28,1.78,3.36,2.75,1.85,1.67,3.79,3.26,5.36,5.24.59.74,1.48,1.27,2.31,1.78,1.18.73,2.13,1.65,2.74,2.88.89,1.79,2.54,2.95,3.7,4.51.17.23.46.44.74.52,1.12.31,1.74,1.07,2.09,2.11.08.23.18.49.36.63,2.34,1.78,3.69,4.41,5.5,6.63.6-.33.58-.8.35-1.16-1.25-2.01-.99-4.25-.98-6.42.01-3.06-.21-6.08-.7-9.09-.02-.12-.06-.25-.04-.36.52-2.15-.19-4.35.3-6.49.07-.3.13-.61.11-.91-.21-2.95.45-5.83.74-8.73.08-.81.35-1.54.64-2.28.38-.97.54-2.01.87-2.97.8-2.33,1.46-4.79,3.41-6.52.9-.81,2.06-1.05,3.25-.98,2.07.11,4.31,2.23,4.52,4.31.07.65.34,1.14.7,1.65.67.93.99,1.94.7,3.1-.09.34-.16.77-.04,1.07.8,2.02.82,4.18,1.14,6.28.18,1.14.2,2.31.18,3.47-.03,2.45.36,4.86.57,7.28.14,1.56-.11,3.16-.3,4.71-.21,1.69.1,3.37-.2,5.06-.15.83-.3,1.67-.37,2.52-.02.24,0,.51.23.65.34.2.63-.02.76-.29.74-1.58,1.83-2.94,2.32-4.72.55-2,1.52-3.91,3.01-5.53,1.3-1.42,2.4-3.04,3.26-4.79.54-1.11,1.16-2.13,2.07-2.99.48-.45.92-1,1.24-1.58,1.36-2.47,2.95-4.86,4.86-6.85,2.14-2.23,4.3-4.65,7.54-5.52,2.38-.64,4.32.31,5.03,2.65.6,1.98.52,3.92-.08,5.93-1.14,3.81-2.62,7.48-4.4,11-.89,1.76-1.6,3.66-2.93,5.22-.85,1-1.26,2.37-2.02,3.47-2.94,4.26-5.67,8.68-9.46,12.29-.73.7-1.24,1.62-1.97,2.59,3.31-.17,6.38-.67,9.32-1.79.69-.26,1.36-.51,2.11-.5.94.02,1.81-.28,2.61-.75.59-.35,1.2-.68,1.88-.66,3.23.11,6.41-.51,9.64-.54,2.3-.02,4.62-.23,6.93-.19,2.45.05,4.85.42,7.15,1.36,2.94,1.21,3.42,3.79,1.09,6-.13.13-.26.26-.42.35-2.7,1.63-5.23,3.57-8.32,4.42-1.78.49-3.39,1.37-5.14,1.92-1.75.55-3.49,1.09-5.31,1.4-1.14.19-2.29.39-3.32.99-.49.28-1.04.31-1.6.3-1.96-.04-3.88.36-5.81.6-1.99.25-4.01.33-6.01.49-.65.05-1.31.12-1.91.18-.19.64.25.74.53.9.94.57,1.85,1.18,2.66,1.93.31.29.65.63,1.03.74,2.69.78,4.35,3.05,6.56,4.51.91.6,1.81,1.25,2.25,2.34.14.34.41.62.76.76,1.39.55,2.23,1.68,3.04,2.83.68.96,1.42,1.83,2.38,2.51.29.21.61.46.77.77,1.61,3.07,3.36,6.11,3.18,9.77,0,.06,0,.12,0,.18-.17,3.31-1.72,4.61-5.19,4.35-2.03-.16-4.05-.77-5.5-2.54-1.05-1.28-2.74-1.74-4.01-2.81-2.47-2.08-4.86-4.27-7.26-6.43-1.04-.94-2.02-1.93-3.17-2.76-1.73-1.25-3.36-2.64-4.57-4.44-.34-.5-.75-.97-1.33-1.23Zm-7.82-3.82c1.95.36,3.68-.42,5.09-1.74,1.09-1.03,2.03-2.29,2.81-3.58.8-1.31.29-3.13,1.54-4.35.18-.18.02-.7.02-1.07-.02-1.96-.84-3.79-.97-5.74-.11-1.6-1-2.54-2.41-3.12-1.58-.65-3.13-1.37-4.51-2.39-.85-.62-1.82-.57-2.81-.51-1.71.1-3.06,1.19-4.63,1.61-1.17.31-2.09.93-2.91,1.79-.55.57-1.16,1.08-1.75,1.61-1.13,1.03-2.33,5.31-1.87,6.75.11.34.31.66.49.98.23.43.51.86.46,1.37-.13,1.37.56,2.38,1.24,3.51.96,1.59,2.65,2.29,3.79,3.62.14.17.43.26.66.29,1.92.2,3.68,1.3,5.78.98Zm-14.47-22.84c.03-.64-.46-.97-.84-1.34-4.65-4.56-8.85-9.59-13.81-13.84-.41-.35-.71-.83-1.09-1.23-1.3-1.37-2.59-2.75-3.91-4.1-.28-.29-.65-.67-1.09-.28-.43.38-.06.78.1,1.16.05.11.12.21.21.3,2.01,2.12,3.93,4.34,6.06,6.34,2.13,2,4.28,3.99,6.29,6.11,1.93,2.03,3.86,4.06,5.79,6.09.47.49.96.96,1.61,1.17.31.1.6,0,.69-.39Zm-28.88,19.23c2.46-.31,4.88-.53,7.28-.93,3.73-.61,7.49-.82,11.23-1.33,1.87-.26,3.74-.49,5.61-.75.38-.05.74-.18.69-.66-.04-.35-.34-.51-.64-.56-.29-.06-.61-.06-.91-.02-3.32.43-6.63.83-9.97,1.14-4.48.41-8.93,1.11-13.39,1.7-.69.09-1.86-.06-1.81.76.06,1.15,1.28.35,1.91.66Zm60.6-9.52c.69-.1,1.48-.21,2.26-.34,6-1.02,12.01-2.04,18.01-3.07,1.38-.24,2.76-.46,4.14-.73.56-.11,1.48-.12,1.33-.89-.14-.74-1.01-.42-1.59-.39-.42.02-.84.13-1.26.2-7.69,1.28-15.38,2.57-23.06,3.84-.61.1-1.37.13-1.26.97.12.89.89.25,1.44.42Zm14.56,28.18c.02-.33-.1-.6-.32-.82-.43-.43-.86-.87-1.34-1.24-5.87-4.55-11.26-9.67-16.94-14.45-.47-.4-1.03-1.37-1.61-.82-.82.79.21,1.41.74,1.89,1.3,1.19,2.71,2.26,4.02,3.43,4.4,3.93,8.84,7.83,13.45,11.5.43.34.88.65,1.36.91.35.18.56-.06.62-.41Zm-36.63-59s.05,0,.07,0c0,4.26,0,8.53,0,12.79,0,.43.02.85.06,1.28.02.26.19.46.46.48.26.02.45-.13.59-.35.31-.5.24-1.06.23-1.6-.11-4.32,0-8.63-.2-12.95-.2-4.36-.49-8.76.11-13.13.07-.48-.05-.91-.54-1-.55-.11-.72.33-.75.8-.02.43-.02.85-.02,1.28,0,4.14,0,8.28,0,12.43Zm15,15.14c.61-.03.94-.48,1.26-.92,2.52-3.51,5.06-7.01,7.24-10.75,1.26-2.15,2.5-4.32,3.74-6.49.28-.49.51-1.19.01-1.5-.67-.42-.85.41-1.16.81-.11.14-.2.31-.29.47-3.21,5.89-6.85,11.5-10.78,16.93-.18.24-.36.5-.46.78-.11.34.07.58.43.68Zm-36.79,49.25c.12-.06.37-.11.54-.26.36-.32.71-.67,1.01-1.05,1.71-2.14,3.38-4.32,5.11-6.44,2.19-2.69,4.43-5.34,6.65-8.01.35-.42.77-.81.75-1.42-.02-.47-.32-.67-.74-.47-.26.12-.47.38-.66.61-1.21,1.45-2.43,2.89-3.62,4.35-2.97,3.62-5.94,7.25-8.91,10.87-.31.38-.69.71-.64,1.26.02.24.09.48.51.55Zm30.96,6.71c-.03-.51-.01-.82-.06-1.12-.8-5.35-1.29-10.73-1.52-16.15-.05-1.14-.19-2.3-.29-3.44-.03-.36-.09-.78-.57-.79-.55-.01-.69.42-.74.86-.03.24-.01.49.01.73.32,3.57.78,7.13.93,10.71.13,3.05.67,6.04.91,9.07.04.54.21,1.07.37,1.6.04.12.29.26.43.25.14,0,.34-.16.4-.3.23-.52.12-1.08.12-1.41Z"/><path class="cls-1" d="m174.46,282.5c-.07.46-.43.96-.82,1.42-1.21,1.45-2.44,2.88-3.7,4.29-5.1,5.73-10.19,11.46-15.34,17.15-1.39,1.53-2.98,2.88-4.48,4.31-.13.12-.27.25-.43.33-.34.18-.71.28-1.02-.01-.36-.33-.11-.68.08-.98.17-.25.39-.46.61-.68,4.4-4.31,8.58-8.81,12.62-13.46,3.03-3.49,6.2-6.87,9.3-10.3.69-.77,1.28-1.63,1.94-2.42.24-.29.59-.44.98-.26.18.08.26.24.25.61Z"/><path class="cls-1" d="m140.37,158.62c-.08.45-.25.87-.82.56-.42-.23-.82-.54-1.13-.91-2.57-3.04-5.64-5.54-8.56-8.21-1.93-1.77-3.74-3.66-5.76-5.34-.05-.04-.09-.08-.13-.13-.37-.4-.92-.83-.39-1.38.44-.46.9,0,1.26.31,1.6,1.4,3.25,2.76,4.77,4.24,2.31,2.25,4.72,4.4,7.1,6.58,1.12,1.03,2.12,2.19,3.16,3.29.25.27.46.57.49.98Z"/><path class="cls-2" d="m136,315.88c-.12.2-.3.51-.5.35-.28-.21-.11-.54.09-.79.14.14.28.29.42.43Z"/><g><path class="cls-4" d="m200.15,160.12c.61,2.17.41,2.82-1.05,3.76-.55.36-1.13.44-1.75.38-1.93-.19-3.83-.35-5.74-.88-1.34-.37-2.48-.78-3.48-1.71-.3-.28-.72-.46-1.11-.63-1.18-.52-1.92-.33-2.35.85-.4,1.06-1.15,1.57-2.02,2.19-1.86,1.33-3.66,2.78-5.22,4.48-1.72,1.88-3.38,3.83-5.06,5.75-.08.09-.19.17-.23.28-.96,2.81-3.43,4.58-4.87,7.06-1.45,2.51-3.05,4.94-4.24,7.59-.1.22-.17.48-.32.65-2.66,2.96-3.05,6.92-4.55,10.38-.7,1.61-1.55,3.17-1.97,4.91-.56,2.3-1.32,4.55-1.86,6.85-.37,1.58-.72,3.2-.31,4.85.07.29.1.62.03.9-.75,2.99-.75,6.01-.39,9.05.1.88.05,1.69-.31,2.49-.42.94-.43,1.89.02,2.83.19.39.43.85.28,1.22-.59,1.46-.4,3.02-.48,4.51-.12,2.17-.99,4.31-.53,6.47.58,2.73-.03,5.31-.52,7.92-.06.3-.25.64-.16.88.76,2-.32,3.81-.53,5.71-.29,2.65-.66,5.3-.96,7.95-.16,1.4-1.05,2.64-.95,4.07.2,3.01-1.38,5.61-1.89,8.45-.27,1.49-.93,2.91-.87,4.47.01.33-.23.69-.43.99-.41.63-.61,1.31-.67,2.06-.13,1.72-.63,3.35-1.44,4.87-.55,1.03-.98,2.1-.85,3.31.02.18.02.38-.05.54-1.7,4.02-2.24,8.45-4.26,12.36-.22.42-.32.92-.42,1.39-.07.36-.03.78-.31,1.03-1.5,1.38-1.71,3.45-2.77,5.06-.19.25-.37.58-.09.79.21.15.38-.16.5-.35,1.68-2.48,3.82-4.58,5.86-6.74,3.31-3.51,5.46-7.71,7.78-11.85,1.4-2.5,2.52-5.12,3.67-7.73.37-.84.59-1.69.76-2.6.24-1.34.69-2.68,1.25-3.92.72-1.61,2.54-1.64,3.45-.14.66,1.1.79,2.36.84,3.89,1.97-1.77,3.56-3.49,4.95-5.41,1.24-1.72,2.13-3.68,3.51-5.31.04-.05.09-.09.1-.15.55-2.36,2.39-4.08,3.17-6.32.42-1.2.62-2.48,1.42-3.53.22-.29.38-.61.77-.73,1-.3,1.68.12,1.93,1.2.26,1.14.36,2.27.26,3.44-.09,1.02-.02,2.06-.02,3.07.67.29,1-.16,1.32-.47,1.36-1.32,2.94-2.38,4.39-3.59,2.57-2.15,5.36-4.03,7.63-6.51.28-.31.66-.58,1.04-.72,1.7-.64,2.82.29,2.53,2.09-.14.85-.54,1.61-.96,2.36-1.91,3.41-4.06,6.7-6.54,9.68-1.72,2.05-3.21,4.28-5.01,6.25-1.02,1.12-1.57,2.61-2.86,3.54-.41.3-.28.79.35.86.67.07,1.34.08,2,.17.72.1,1.27.52,1.5,1.19.26.75-.28,1.25-.76,1.73-.44.45-1.02.66-1.56.94-2.05,1.08-3.85,2.49-5.58,4.11.55.53,1.21.32,1.75.53,1.24.48,1.44,1.49.46,2.4-.78.73-1.78,1.05-2.74,1.43-1.47.59-3.08.88-4.4,1.76-1.87,1.24-3.8,2.41-5.65,3.68-.94.65-1.93,1.21-3.08,1.8.83.78,1.67.84,2.5.92,1.33.14,2.67.25,3.99.41.54.06,1.09.18,1.6.36.58.21,1.15.53,1.16,1.26.01.7-.42,1.17-1.06,1.33-2.47.63-4.81,1.8-7.43,1.79-.87,0-1.73.16-2.48.54-2.01,1.04-4.15,1.78-6.24,2.61-3.18,1.27-6.12,3.01-9.21,4.44-4.74,2.2-8.44,5.71-12.39,8.94-1.62,1.33-2.56,2.89-3.17,4.75-.26.79-.65,1.42-1.25,1.97-1.2,1.11-1.97,2.46-2.33,4.06-.19.84-.5,1.62-1.28,2.14-.46.31-.69.84-.89,1.36-.29.75-.69,1.45-1.37,1.91-1.4.94-1.77,2.34-1.89,3.88h-5.13c-.31-1.4.84-2.23,1.37-3.27.57-1.13,1.22-2.23,1.85-3.34.6-1.06,1.27-2.07,2.17-2.93,1.08-1.04,1.57-2.47,2.19-3.77.57-1.19,1.38-2.29,1.64-3.63.02-.12.07-.25.16-.32,1.26-1.05,1.73-2.6,2.54-3.93,1.37-2.25,2.54-4.56,3.39-7.03.36-1.05.8-2,1.5-2.89.78-.99,1.21-2.19,1.68-3.4.54-1.4,1.16-2.8,1.62-4.22.57-1.74,2-3.04,2.33-4.84.24-1.33.57-2.6,1.38-3.71.21-.28.34-.66.41-1.01.37-1.78,1.05-3.42,1.78-5.09.72-1.65.88-3.62,1.47-5.41.38-1.15.69-2.3.73-3.55.04-1.13.29-2.29.83-3.34.11-.22.28-.46.27-.67-.21-3.24,1.63-6.06,1.84-9.2,0-.06,0-.13.03-.18,1.44-3.22.68-6.74,1.33-10.06.02-.12.06-.27.01-.36-1-1.92-.32-4.09-.94-6.07-.23-.74-.25-1.56-.27-2.35-.06-3.22-1.52-6.12-2.09-9.23-.29-1.57-.78-3.15-1.09-4.75-.15-.77-.51-1.47-.89-2.17-.73-1.37-1.25-2.86-1.86-4.3-.85-2.01-1.51-4.14-2.63-5.99-1.41-2.33-2.56-4.81-4.24-6.99-1.47-1.92-2.26-4.3-3.76-6.22-.11-.14-.12-.38-.25-.48-1.82-1.43-2.59-3.75-4.41-5.18-.29-.22-.66-.41-.82-.71-.96-1.8-2.7-2.96-3.78-4.66-.22-.36-.49-.76-.84-.95-1.15-.64-2.01-1.56-2.71-2.65-.48-.74-1-.82-1.85-.44-1.55.68-3.16,1.28-4.81,1.69-1.54.38-3.01-.08-4.24-1.11-.57-.48-.59-1.17-.43-1.86,1-.73,2.06-1.2,3.36-1.13,1.02.05,1.87-.49,2.63-1.13.63-.53.62-.86-.13-1.15-1.25-.49-2.08-1.46-2.98-2.35-.65-.64-.68-1.41-.3-2.18.36-.72,1.36-1.08,2.22-.84.71.21,1.29.66,1.91,1.05.78.49,1.45,1.24,2.46,1.37.25-.83.46-1.57.2-2.26-.69-1.86.07-3.17,1.46-4.29,1.68.17,2.46,1.2,2.57,2.8.13,1.88.37,3.78-.41,5.59-.39.91-.21,1.63.54,2.28,1.43,1.22,2.47,2.88,4.21,3.75.26.13.53.35.68.6.74,1.16,1.7,2.12,2.61,3.14.8.9,1.58,1.81,2.44,2.67,1.47,1.47,2.46,3.32,3.72,4.96,2.41,3.15,4.24,6.69,6.46,9.97,1.77,2.62,2.82,5.62,4.65,8.2.2.28.35.68.34,1.03-.02,1.6.73,2.9,1.47,4.24,1.04,1.88,1.68,3.93,2.15,6.01.39,1.72.9,3.4,1.57,5.37.44-1.29.75-2.31.56-3.42-.07-.42-.26-.89-.06-1.25.82-1.55.4-3.22.54-4.84.12-1.39-.02-2.81.54-4.15.09-.21.12-.48.1-.7-.45-3.7-.24-7.4.11-11.1.08-.87-.2-1.81-.47-2.67-.26-.81-.25-1.51.14-2.28.48-.94.5-1.93.29-3.01-.28-1.48-.34-3.02-.06-4.52.16-.86.27-1.68-.05-2.52-.09-.22-.2-.51-.14-.71.7-2.17-.24-4.34,0-6.52.27-2.49-.26-4.98-.52-7.46-.18-1.74-.17-3.52-.88-5.19-.28-.66-.2-1.45-.07-2.18.33-1.86.38-3.66-.37-5.48-.66-1.59-.41-3.37-.65-5.05-.39-2.84-1.69-5.11-3.98-6.72-2.03-1.42-4-2.93-6.16-4.21-2.67-1.59-5.4-2.38-8.38-2.7-.87-.09-1.64-.49-2.35-.96-1.01-.67-1.02-1.63-.04-2.39.38-.29.86-.45,1.28-.7.95-.56,1.04-1.01.07-1.56-1.9-1.08-3.84-2.11-5.93-2.77-1.4-.44-2.8-.86-4.13-1.49-.5-.24-.98-.52-1.21-1.06-.47-1.1.12-2.14,1.31-2.23.67-.05,1.35-.03,1.97-.31.56-.25.8-.68.22-1.09-1.76-1.24-2.65-3.15-3.86-4.82-1.28-1.78-2.81-3.36-3.79-5.36-.29-.6-.66-1.16-.73-1.85-.08-.73.09-1.35.78-1.71.64-.33,1.11,0,1.64.39,2.23,1.66,4.74,2.89,7.01,4.7.39-.96.09-1.77.36-2.52.45-1.25,1.13-1.53,2.19-.78.34.24.68.55.9.9,1.33,2.13,3.23,3.8,4.72,5.8,1.15,1.54,2.62,2.87,3.72,4.43.23-.08.38-.08.43-.15,1.19-1.99,2.13-2.04,3.42-.09.8,1.22,1.48,2.52,2.25,3.77.54.88,1.12,1.73,1.93,2.44.63-.46.72-1.2.55-1.66-.43-1.25-.46-2.51-.48-3.79-.01-.63-.27-1.21-.67-1.67-.83-.97-1.16-2.13-1.41-3.33-.5-2.44-1.38-4.76-2.16-7.11-1.12-3.4-2.36-6.75-3.33-10.21-.37-1.32-.81-2.65-1.23-3.98-.39-1.25-1.38-2.22-1.86-3.47-.32-.85-.63-1.69-.87-2.58-.65-2.41-1.73-4.67-3.02-6.81-.79-1.31-1.43-2.61-1.84-4.13-.69-2.59-2.18-4.89-3.35-7.3-.12-.25-.45-.39-.68-.59-.49-.59-.62-1.27-.61-2.03.04-1.94-.4-3.83-.59-5.74-.18-1.76-.77-3.44-1.38-5.04-.57-1.49-.15-3.31-1.52-4.53-.24-.22-.61-.77-.21-1.11.48-.41.9.04,1.24.38.21.21.33.5.5.75-.18.51,0,.95.26,1.38.83,1.42,1.7,2.82,2.44,4.29.65,1.29,1.07,2.71,2.22,3.7.04.04.07.11.08.16.3,1.87,1.12,3.48,2.14,5.08.57.89.91,1.96,1.6,2.83.92,1.16,1.64,2.43,2.07,3.85,1.09,3.55,2.64,6.93,4.05,10.35.19.47.48.84.82,1.19.35.36.61.78.66,1.28.26,2.59,1.2,4.91,2.62,7.07.16.24.3.61.23.86-.62,2.03,1.15,3.25,1.37,4.99.14-.02.27-.03.41-.05.08-.64.24-1.27.22-1.91-.06-1.85.46-3.62.78-5.41.26-1.49,1.65-2.37,2.4-3.62.27-.44.88-.37,1.36-.24.53.15.81.52.82,1.08,0,.54,0,1.09,0,1.57.29.16.5.19.6.03,1.43-2.14,3.54-3.69,4.91-5.89.99-1.59,2.52-2.62,4.35-3.16.5-.15.96-.25,1.35.16.4.42.25.9.04,1.36-.42.93-.83,1.86-1.31,2.94,1.17-.24,2.15-.48,3.15-.63,2.08-.31,4.13,0,6.18.39.62.12.99.42,1,1.09,0,.68-.4,1.04-1,1.08-1.14.06-2.08.62-3.07,1.09-.54.26-1.14.48-1.73.56-4.18.61-7.42,2.96-9.86,6.12-1.63,2.11-3.12,4.48-3.93,7.14-.04.12-.14.24-.11.34.47,2.23-.91,4.22-.82,6.39,0,.12.01.25-.03.36-1.19,3.45.11,6.52,1.45,9.59.07.17.24.35.22.5-.3,1.85.91,3.43.92,5.21,0,1,.21,1.95.67,2.82,1.15,2.15,1.49,4.49,1.77,6.85.06.5.14.94.42,1.37.5.79.66,1.62.53,2.59-.17,1.28.55,2.46.77,3.72.45,2.62.59,5.33,1.69,7.82.41.94-.06,1.89.2,2.87.26.98.09,2.05.68,2.99.14.22.15.62.07.88-.8,2.63-.13,5.23.24,7.79.39,2.74.41,5.54,1.1,8.33,1.04-.3,1.34-1.2,1.35-2.07.01-1.26.43-2.24,1.36-3.06.22-.19.42-.49.45-.77.22-2.04,1.42-3.59,2.56-5.15.45-.61.52-1.35.9-1.98,1.6-2.64,3.07-5.34,5.08-7.72.86-1.02,1.57-2.17,2.22-3.35.86-1.56,1.98-2.9,3.35-4.07,2.37-2.02,4.23-4.55,6.38-6.8,1.18-1.24,2.44-2.39,3.69-3.55,1.66-1.55,2.18-3.35,1.32-5.44-.77-1.89-.85-3.9-1.18-5.86-.16-.95,1.28-2.8,2.49-3.34.46-.2.92-.31,1.42-.23.94.58,2.01,1.12,1.87,2.44-.14,1.39.32,2.73.1,4.15-.15.92.33,2.2,1.02,2.54.87.43,1.21-.89,1.75-1.49.04-.04.06-.11.09-.16.97-1.58,2.53-2.53,3.96-3.59.63-.47,1.34-.49,2.02.05,1.55,1.24,1.68,3.31.19,4.6-1.46,1.26-2.3,3.07-3.89,4.22-.21.15-.42.45-.34.79,1.01.96,2.22,1.48,3.59,1.56,1.61.1,3.09.6,4.55,1.22Zm-25.69,122.39c0-.37-.07-.53-.25-.61-.39-.18-.74-.03-.98.26-.66.79-1.25,1.66-1.94,2.42-3.11,3.43-6.27,6.82-9.3,10.3-4.05,4.65-8.22,9.15-12.62,13.46-.22.21-.44.43-.61.68-.19.29-.44.64-.08.98.31.29.69.19,1.02.01.16-.08.3-.21.43-.33,1.5-1.43,3.09-2.78,4.48-4.31,5.15-5.68,10.24-11.42,15.34-17.15,1.26-1.41,2.48-2.84,3.7-4.29.39-.46.75-.96.82-1.42Zm-34.08-123.88c-.04-.41-.24-.71-.49-.98-1.05-1.11-2.04-2.26-3.16-3.29-2.38-2.18-4.79-4.33-7.1-6.58-1.52-1.49-3.17-2.84-4.77-4.24-.36-.32-.82-.77-1.26-.31-.52.55.02.98.39,1.38.04.04.08.09.13.13,2.02,1.67,3.84,3.56,5.76,5.34,2.91,2.68,5.99,5.18,8.56,8.21.31.36.71.68,1.13.91.57.31.74-.1.82-.56Z"/><path class="cls-3" d="m200.15,160.12c-1.46-.62-2.94-1.13-4.55-1.22-1.37-.08-2.58-.6-3.59-1.56-.08-.34.13-.64.34-.79,1.58-1.14,2.43-2.95,3.89-4.22,1.49-1.29,1.36-3.36-.19-4.6-.68-.54-1.38-.52-2.02-.05-1.44,1.07-2.99,2.02-3.96,3.59-.03.05-.05.11-.09.16-.54.6-.88,1.92-1.75,1.49-.69-.34-1.17-1.62-1.02-2.54.23-1.41-.24-2.76-.1-4.15.13-1.32-.94-1.86-1.87-2.44.26-.62.57-1.22.77-1.85,1.39-4.41,4.62-6.62,8.96-7.5,1.01-.2,2.03-.39,3.05-.55,1.56-.24,2.23-.04,2.73,1.45.62,1.86,1.74,2.4,3.54,2.14.65-.09,1.34.04,2.01.07,2.12.1,2.97.9,3.09,3.03.07,1.27.14,2.57-.35,3.79-.28.69-.12,1.14.5,1.52,1.32.82,1.59,2.09,1.38,3.51-.44,2.93-1.88,5.23-4.38,6.85-2.09,1.35-4.39,2.36-6.39,3.88Z"/><path class="cls-3" d="m114.08,185.44c-1.39,1.12-2.15,2.43-1.46,4.29.26.69.05,1.44-.2,2.26-1.01-.13-1.67-.88-2.46-1.37-.62-.39-1.2-.84-1.91-1.05-.85-.25-1.86.11-2.22.84-.38.76-.35,1.54.3,2.18.91.89,1.73,1.86,2.98,2.35.75.29.76.63.13,1.15-.76.63-1.61,1.18-2.63,1.13-1.29-.06-2.36.4-3.36,1.13-.47-.29-.99-.45-1.54-.54-2.76-.42-4.79-1.9-6.18-4.3-.24-.42-.53-.82-.85-1.18-1.87-2.08-1.62-4.73.7-6.41.6-.44.73-.82.62-1.51-.47-3.14,1.46-5.17,4.52-4.63.96.17,1.59-.18,2.12-.71,1.21-1.21,2.44-.98,3.99-.69,2.94.54,4.54,2.67,6.36,4.57.61.64.82,1.62,1.06,2.5Z"/><path class="cls-1" d="m109.02,72.17c-2.09.32-3.86-.78-5.78-.98-.23-.02-.52-.12-.66-.29-1.14-1.33-2.83-2.03-3.79-3.62-.68-1.13-1.37-2.14-1.24-3.51.05-.51-.22-.94-.46-1.37-.17-.32-.38-.63-.49-.98-.46-1.44.74-5.73,1.87-6.75.59-.53,1.2-1.04,1.75-1.61.82-.85,1.74-1.47,2.91-1.79,1.58-.42,2.93-1.51,4.63-1.61.99-.06,1.95-.11,2.81.51,1.39,1.02,2.94,1.74,4.51,2.39,1.41.58,2.31,1.52,2.41,3.12.13,1.94.95,3.77.97,5.74,0,.36.16.89-.02,1.07-1.25,1.22-.74,3.04-1.54,4.35-.79,1.29-1.72,2.55-2.81,3.58-1.4,1.33-3.14,2.1-5.09,1.74Z"/><path class="cls-2" d="m94.55,49.33c-.08.39-.38.49-.69.39-.66-.21-1.15-.68-1.61-1.17-1.93-2.03-3.87-4.06-5.79-6.09-2.01-2.13-4.16-4.11-6.29-6.11-2.13-2-4.05-4.22-6.06-6.34-.08-.09-.16-.19-.21-.3-.16-.38-.53-.78-.1-1.16.44-.4.81-.01,1.09.28,1.32,1.35,2.62,2.72,3.91,4.1.38.4.68.88,1.09,1.23,4.97,4.25,9.16,9.27,13.81,13.84.38.37.88.7.84,1.34Z"/><path class="cls-2" d="m65.67,68.56c-.62-.3-1.84.49-1.91-.66-.04-.82,1.13-.67,1.81-.76,4.46-.59,8.91-1.29,13.39-1.7,3.33-.31,6.65-.71,9.97-1.14.3-.04.61-.03.91.02.3.06.6.21.64.56.05.48-.31.61-.69.66-1.87.25-3.74.49-5.61.75-3.74.51-7.5.71-11.23,1.33-2.4.4-4.83.62-7.28.93Z"/><path class="cls-2" d="m126.28,59.04c-.55-.17-1.32.47-1.44-.42-.11-.84.65-.87,1.26-.97,7.69-1.28,15.38-2.56,23.06-3.84.42-.07.84-.17,1.26-.2.58-.03,1.45-.34,1.59.39.15.78-.77.78-1.33.89-1.37.27-2.76.5-4.14.73-6,1.03-12.01,2.05-18.01,3.07-.78.13-1.56.24-2.26.34Z"/><path class="cls-2" d="m140.84,87.22c-.07.35-.28.59-.63.41-.48-.25-.94-.57-1.36-.91-4.62-3.68-9.05-7.57-13.45-11.5-1.31-1.17-2.72-2.25-4.02-3.43-.53-.48-1.56-1.11-.74-1.89.58-.55,1.14.42,1.61.82,5.68,4.78,11.06,9.9,16.94,14.45.48.37.9.82,1.34,1.24.22.22.34.5.32.82Z"/><path class="cls-2" d="m104.21,28.22c0-4.14,0-8.28,0-12.43,0-.43,0-.85.02-1.28.03-.47.19-.9.75-.8.49.09.61.52.54,1-.6,4.37-.31,8.77-.11,13.13.2,4.32.1,8.64.2,12.95.01.54.08,1.1-.23,1.6-.14.22-.33.37-.59.35-.27-.02-.43-.22-.46-.48-.04-.42-.06-.85-.06-1.28,0-4.26,0-8.53,0-12.79-.02,0-.05,0-.07,0Z"/><path class="cls-2" d="m119.21,43.36c-.36-.11-.54-.35-.43-.68.09-.28.28-.54.46-.78,3.93-5.43,7.57-11.04,10.78-16.93.09-.16.17-.32.29-.47.31-.4.48-1.23,1.16-.81.5.31.27,1.01-.01,1.5-1.23,2.17-2.48,4.33-3.74,6.49-2.18,3.74-4.72,7.24-7.24,10.75-.32.45-.65.9-1.26.92Z"/><path class="cls-2" d="m82.41,92.61c-.43-.07-.49-.31-.51-.55-.05-.55.33-.88.64-1.26,2.98-3.62,5.94-7.25,8.91-10.87,1.2-1.46,2.41-2.91,3.62-4.35.19-.23.4-.49.66-.61.42-.2.72,0,.74.47.03.61-.4,1-.75,1.42-2.22,2.67-4.46,5.32-6.65,8.01-1.73,2.12-3.4,4.3-5.11,6.44-.3.38-.65.72-1.01,1.05-.17.15-.42.21-.54.26Z"/></g><path class="cls-2" d="m113.37,99.32c0,.33.11.89-.12,1.41-.06.14-.26.29-.4.3-.14,0-.39-.13-.43-.25-.16-.52-.33-1.06-.37-1.6-.24-3.03-.78-6.02-.91-9.07-.15-3.58-.61-7.14-.93-10.71-.02-.24-.04-.49-.01-.73.05-.44.2-.87.74-.86.48,0,.54.43.57.79.1,1.15.24,2.31.29,3.44.23,5.41.72,10.79,1.52,16.15.04.3.03.61.06,1.12Z"/></g><g><path class="cls-4" d="m1446.92,283.99c-.57-1.26-.35-2.16.75-3,1.12-.86,2.2-1.54,3.75-1.26.71.13,1.5-.23,2.26-.36,1.02-.17,2.03-.57,3.09-.23.24.08.43-.04.47-.3.02-.16,0-.33-.17-.43-.67-.38-1.32-.8-2.01-1.14-1.37-.68-2.46-1.67-3.26-2.95-.99-1.59-.32-3.14,1.53-3.44,1.08-.18,2.19-.31,3.13.54.27.25.67.35,1.03.5.97.39,1.97.71,2.7,1.54.23.26.53.45.87.28.31-.16.14-.47.15-.73.04-1.84-.57-3.57-.84-5.36-.35-2.32.59-3.82,2.69-4.1,1.03-.14,1.62.08,2.03,1,.58,1.29,1.32,2.52,1.2,4.06-.09,1.17.78,2.14.93,3.35.79-.48.67-1.29.94-1.91.82-1.89,1.99-3.54,3.29-5.11.69-.83,1.14-1.9,2.36-2.16,2.13.49,2.52.87,2.55,2.78.01.93-.01,1.89-.25,2.78-.39,1.46-1.02,2.88-1.67,4.21-.81,1.66-1.61,3.36-2.57,4.96-.56.93-1.27,1.8-1.52,2.91-.08.38-.3.72-.02,1.09.79,1.03,1.07,2.29,1.55,3.45.94,2.23,2.13,4.34,2.94,6.64.62,1.77.75,3.66,1.6,5.36.69,1.38,1.14,2.86,1.11,4.45,0,.37.09.8.29,1.1.77,1.2,1.11,2.49,1.06,3.92-.02.37.11.78.29,1.11.74,1.34.91,2.8,1.02,4.29.09,1.2.33,2.39.35,3.61,0,.39-.05.96.59,1.22.34-.92.53-1.9,1.03-2.74.69-1.16,1.41-1.26,2.37-.35.23.22.32.6.72.62,2.01-4,3.55-8.25,6.5-11.73.73-.86,1.34-1.33,2.04-1.08.95.34.82,1.18.85,1.95.02.56-.14,1.19.38,1.61.14-.03.21-.03.24-.06,3.8-3.9,8.28-6.88,12.9-9.68,1.23-.74,2.55-1.32,3.92-1.73.64-.19,1.24-.04,1.63.5.38.53.42,1.25.02,1.7-.81.91-1.35,2.01-2.14,2.91-1.76,2.01-3.9,3.69-5.07,6.18-.13.28-.52.47-.31.84.19.35.57.25.89.27.89.07,1.71-.44,2.61-.34.68.08,1.36.12,1.55.94.17.72-.3,1.05-.83,1.43-3.28,2.39-6.64,4.68-9.58,7.51-.24.23-.49.45-.69.72-.34.45-.3.82.31.97.27.06.56.02.82.1.57.17.93.58,1.03,1.17.09.56-.19.96-.62,1.25-.27.19-.56.34-.86.49-2.74,1.31-5.26,2.94-7.74,4.71-2.64,1.88-4.52,4.48-6.89,6.6-.08.07-.13.18-.18.27-1.66,3.01-3.08,6.12-3.29,9.6-.17,2.73-.74,5.38-1.32,8.03h-3.97c-.02-1.43-.05-2.85-.05-4.28,0-1.26-.1-2.53.21-3.78.06-.25.02-.54-.01-.81-.21-1.54.12-3.17-.73-4.61-.07-.12-.06-.34,0-.49.51-1.39.19-2.83.3-4.25.29-4.01-.16-7.99-.5-11.96-.37-4.3-1.19-8.57-1.8-12.85-.07-.52-.29-.97-.62-1.32-1.3-1.38-1.44-3.25-1.66-4.9-.34-2.47-1.06-4.83-1.78-7.14-.78-2.48-2.28-4.74-3.53-7.06-.48-.91-.82-1.02-1.74-.55-.94.48-1.89.53-2.89.41-.55-.07-1.14-.17-1.61.16-1,.69-2.08.58-3.19.48-.71-.06-1.48-.2-2.12.13-1.18.62-2.3.62-3.48.07-.19-.09-.46-.17-.64-.11-1.47.55-2.55-.17-3.59-1.04-.23-.57-.83-.84-1.09-1.42Zm49.34,25.6c-1.86,1.87-3.8,3.65-5.37,5.81-2.04,2.81-3.72,5.84-5.72,8.68-.41.58-1.02,1.29-.41,2.09.29.38.94-.18,1.57-1.32,2.26-4.11,4.93-7.94,7.96-11.52.95-1.13,2.14-2.05,3.21-3.08.31-.3.67-.59.71-1.07.03-.33-.1-.52-.58-.51-.51.08-.96.53-1.37.94Z"/><path class="cls-3" d="m1398.86,280.88c-.5-1.6-.24-2.23,1.16-3.16.54-.36,1.22-.5,1.66-1.03,1.69-.56,3.18-1.59,4.89-2.11.18-.05.3-.3.45-.45,2.54-.42,4.98-1.41,7.55-1.56,2.3-.14,4.52-.89,6.84-.79.91.04,1.74-.23,2.54-.61.73-.34,1.45-.49,2.24-.21.21.07.46.18.64.12,2.48-.78,5.03.36,7.51-.26.42-.1.88-.04,1.3.11.53.19,1.09.27,1.63.15,1.13-.26,2.24-.52,3.39.02-.33-.4-3.13-1.94-3.46-1.96-1.04-.07-1.9-.53-2.69-1.15-1.75-1.36-3.63-2.49-5.75-3.19-.37-.12-.74-.27-.98-.59-.86-1.13-2.08-1.78-3.26-2.48-2.47-1.47-4.74-3.19-6.87-5.1-1.12-1-2.58-1.44-3.72-2.42-.63-.54-1.28-1.02-1.79-1.68,0-.82-.77-.87-1.24-1.12-.93-.5-1.77-1.06-2.36-1.95-.51-.95-1.56-1.36-2.21-2.21-1.26-1.64-2.16-3.58-3.93-4.81-.17-.12-.33-.34-.35-.54-.19-1.37-.25-2.75-.05-4.12.04-.25.2-.59.41-.69,1.49-.77,2.91-1.93,4.75-1.44,1.3.34,2.6.45,3.92.39.87,1.41,2.3,1.84,3.79,2.15.92.48,1.69,1.27,2.76,1.46.85.15,1.58.48,2.12,1.17.3.38.73.46,1.14.62,2.21.86,4.41,1.74,6.27,3.26.99.81,2.23,1.16,3.29,1.83,1.35.84,2.58,1.89,3.95,2.7,3.32,1.96,6.46,4.18,9.57,6.44.33.24.65.61,1.43.28-.98-1.18-1.18-2.73-2.34-3.73-.61-.53-1.04-1.15-1.33-1.86-.8-1.98-2.05-3.79-2.28-5.99-.03-.32-.13-.69-.34-.92-1.32-1.49-1.61-3.48-2.56-5.15-.51-.9-.83-1.93-1.09-2.94-.61-2.45-2.19-4.56-2.46-7.12-.02-.15-.13-.3-.21-.45-1.61-3.13-2.39-6.48-2.81-9.96-.21-1.75.56-2.96,1.76-4.04.53-.48,1.15-.59,1.85-.38.95.29,1.95.43,2.87.8,3,1.21,5.77,2.73,7.41,5.73.21.38.45.79.77,1.06,2.23,1.92,3.79,4.37,4.85,7.02.9,2.24,2.38,4.09,3.59,6.07,1.26,2.06,1.81,4.51,3.51,6.31.14.15.18.4.24.61.28,1.03.8,1.95,1.48,2.75.78.91,1.24,1.94,1.55,3.07.08.29,0,.7.46.77.21-.15.2-.38.18-.58-.25-2.78-.23-5.57.07-8.34.14-1.31.28-2.62.39-3.94.13-1.64-.25-3.28.22-4.91.41-1.42.96-2.81,1.2-4.29.64-3.94,2-7.66,3.75-11.23.94-1.9,3.22-2.77,5.14-1.99,1.68.68,2.5,2.19,3.35,3.62.38.65.51,1.45,1.05,2.04.36.39.43.86.49,1.37.46,3.99,1,7.96,1.25,11.97.11,1.7.16,3.43-.04,5.11-.15,1.27-.37,2.54-.18,3.78.31,2.08-.18,4.08-.54,6.04-.63,3.45-.99,6.99-2.32,10.3-.12.3-.2.65-.19.97.09,1.77-.4,3.5-.35,5.27-1.21.26-1.67,1.33-2.36,2.16-1.31,1.57-2.47,3.22-3.29,5.11-.27.61-.15,1.42-.94,1.91-.15-1.21-1.02-2.17-.93-3.35.12-1.54-.62-2.77-1.2-4.06-.41-.92-1-1.14-2.03-1-2.1.28-3.04,1.78-2.69,4.1.27,1.79.89,3.52.84,5.36,0,.26.16.58-.15.73-.34.18-.64-.02-.87-.28-.72-.83-1.73-1.14-2.7-1.54-.35-.14-.76-.25-1.03-.5-.94-.86-2.05-.72-3.13-.54-1.85.3-2.52,1.85-1.53,3.44.8,1.28,1.89,2.27,3.26,2.95.69.34,1.34.76,2.01,1.14.17.1.2.27.17.43-.04.26-.23.38-.47.3-1.06-.34-2.07.06-3.09.23-.76.13-1.55.49-2.26.36-1.55-.28-2.63.4-3.75,1.26-1.1.84-1.32,1.74-.75,3,.26.58.86.85,1.09,1.42-.57.24-1.16.35-1.78.27-.55-.07-1.14-.12-1.63.12-1.31.62-2.63.74-4.09.8-1.72.07-3.53.18-5.22.52-4.04.79-8.11.01-12.14.58-.21.03-.44-.02-.66-.03-2.13-.1-4.27-.33-6.39-.24-1.54.06-3.06.05-4.59-.03-1.02-.06-1.92-.56-2.88-.61-1.75-.1-3.35-.63-4.93-1.27-.41-.43-.89-.89-1.44-.98-1.08-.18-1.82-.85-2.59-1.5-.27-.71-.57-1.41-.8-2.14Zm42.65-49.3c2.84,5.66,5.39,11.45,8.02,17.2,1.62,3.54,3.46,7.01,5.66,10.25.12.18.23.38.37.54.33.39.73.79,1.25.39.45-.34.18-.81-.03-1.19-.87-1.53-1.72-3.07-2.63-4.58-2.3-3.84-4.08-7.93-5.87-12.01-1.68-3.83-3.71-7.5-5.35-11.34-.2-.47-.53-.84-1.03-1.01-.5-.16-.87.14-.83.81.11.23.25.58.43.93Zm3.37,33.49c.21-.56-.18-.82-.59-1.01-2.29-1.12-4.4-2.52-6.54-3.89-5.76-3.69-11.29-7.72-16.91-11.61-.45-.31-.91-.63-1.39-.89-.4-.22-.86-.35-1.15.17-.23.42.02.75.34,1,.52.41,1.06.79,1.6,1.18,6.98,5.12,14.1,10.05,21.54,14.49.72.43,1.43.83,2.21.95.39,0,.75-.01.89-.39Zm24.62-38.18c0-.41.04-.99-.6-.96-.53.03-.66.49-.71.96-.23,2.08-.22,4.17-.37,6.25-.2,2.68-.16,5.38-.5,8.06-.27,2.07-.42,4.16-.43,6.25-.02,2.98-.5,5.91-.85,8.85-.02.16-.08.32-.08.49-.02.55-.08,1.21.65,1.31.77.1.83-.59.91-1.12.22-1.47.51-2.93.57-4.41.08-2.03.31-4.06.42-6.09.22-3.84.43-7.68.87-11.5.16-1.41.03-2.86.03-4.29.03,0,.07,0,.1,0,0-1.27.02-2.53,0-3.8Zm-35.11,53.07c2.14-.14,4.27-.43,6.41-.69.59-.07,1.2-.2,1.71-.58.18-.14.32-.32.3-.55-.02-.32-.25-.51-.54-.54-.55-.05-1.11-.11-1.65-.04-5.52.77-11.05,1.26-16.63,1.31-1.31.01-2.63.28-3.95.25-.32,0-.66.09-.97.19-.34.11-.54.37-.51.75.03.4.3.61.65.62.83.03,1.65.01,2.48.01,0-.01,0-.02,0-.03,4.23-.23,8.47-.43,12.7-.71Z"/><path class="cls-1" d="m1497.63,308.66c-.51.08-.96.53-1.37.94-1.86,1.87-3.8,3.65-5.37,5.81-2.04,2.81-3.72,5.84-5.72,8.68-.41.58-1.02,1.29-.41,2.09.29.38.94-.18,1.57-1.32,2.26-4.11,4.93-7.94,7.96-11.52.95-1.13,2.14-2.05,3.21-3.08.31-.3.67-.59.71-1.07.03-.33-.1-.52-.58-.51Z"/><path class="cls-2" d="m1441.08,230.66c.11.23.25.58.43.93,2.84,5.66,5.39,11.45,8.02,17.2,1.62,3.54,3.46,7.01,5.66,10.25.12.18.23.38.37.54.33.39.73.79,1.25.39.45-.34.18-.81-.03-1.19-.87-1.53-1.72-3.07-2.63-4.58-2.3-3.84-4.08-7.93-5.87-12.01-1.68-3.83-3.71-7.5-5.35-11.34-.2-.47-.53-.84-1.03-1.01-.5-.16-.87.14-.83.81Z"/><path class="cls-2" d="m1443.99,265.47c.39,0,.75-.01.89-.39.21-.56-.18-.82-.59-1.01-2.29-1.12-4.4-2.52-6.54-3.89-5.76-3.69-11.29-7.72-16.91-11.61-.45-.31-.91-.63-1.39-.89-.4-.22-.86-.35-1.15.17-.23.42.02.75.34,1,.52.41,1.06.79,1.6,1.18,6.98,5.12,14.1,10.05,21.54,14.49.72.43,1.43.83,2.21.95Z"/><path class="cls-2" d="m1469.51,230.69c0-1.27.02-2.53,0-3.8,0-.41.04-.99-.6-.96-.53.03-.66.49-.71.96-.23,2.08-.22,4.17-.37,6.25-.2,2.68-.16,5.38-.5,8.06-.27,2.07-.42,4.16-.43,6.25-.02,2.98-.5,5.91-.85,8.85-.02.16-.08.32-.08.49-.02.55-.08,1.21.65,1.31.77.1.83-.59.91-1.12.22-1.47.51-2.93.57-4.41.08-2.03.31-4.06.42-6.09.22-3.84.43-7.68.87-11.5.16-1.41.03-2.86.03-4.29.03,0,.07,0,.1,0Z"/><path class="cls-2" d="m1421.69,280.67c4.23-.23,8.47-.43,12.7-.71,2.14-.14,4.27-.43,6.41-.69.59-.07,1.2-.2,1.71-.58.18-.14.32-.32.3-.55-.02-.32-.25-.51-.54-.54-.55-.05-1.11-.11-1.65-.04-5.52.77-11.05,1.26-16.63,1.31-1.31.01-2.63.28-3.95.25-.32,0-.66.09-.97.19-.34.11-.54.37-.51.75.03.4.3.61.65.62.83.03,1.65.01,2.48.01,0-.01,0-.02,0-.03Z"/></g></svg>