<?xml version="1.0" encoding="UTF-8"?><svg id="Layer_1" xmlns="http://www.w3.org/2000/svg" viewBox="0 0 83.37 84.91"><defs><style>.cls-1{fill:#e83d38;}</style></defs><path class="cls-1" d="m52.7,31.99l-16.55,17.15-5.45-5.99c-.77-.85-2.08-.9-2.92-.11-.84.79-.89,2.12-.11,2.97l8.39,9.22,19.58-20.3c.8-.83.79-2.16-.03-2.98-.81-.81-2.12-.8-2.92.03Z"/><path class="cls-1" d="m41.68,0C18.66,0,0,19.01,0,42.45s18.66,42.45,41.68,42.45,41.68-19.01,41.68-42.45S64.7,0,41.68,0Zm27.99,49.81c-.46,2.04-4.03,2.97-4.9,4.82-.89,1.87.62,5.3-.64,6.91-1.27,1.62-4.88.88-6.47,2.17-1.58,1.29-1.67,5.04-3.51,5.95-1.81.89-4.75-1.37-6.75-.9-1.94.45-3.63,3.79-5.7,3.79s-3.76-3.34-5.7-3.79c-2.01-.46-4.94,1.79-6.75.9-1.84-.9-1.93-4.66-3.51-5.94-1.59-1.29-5.2-.55-6.47-2.17-1.26-1.61.24-5.03-.64-6.91-.87-1.84-4.45-2.77-4.9-4.82-.44-1.98,2.37-4.39,2.37-6.51s-2.82-4.53-2.37-6.51c.46-2.04,4.03-2.97,4.9-4.82.89-1.88-.62-5.3.64-6.91,1.27-1.62,4.88-.88,6.47-2.17,1.58-1.29,1.67-5.04,3.51-5.95,1.81-.89,4.75,1.37,6.75.9,1.94-.45,3.63-3.79,5.7-3.79s3.76,3.34,5.7,3.79c2.01.46,4.94-1.79,6.75-.9,1.84.9,1.93,4.66,3.51,5.95,1.59,1.29,5.2.55,6.47,2.17,1.26,1.61-.24,5.03.64,6.91.87,1.84,4.45,2.77,4.9,4.82.44,1.98-2.37,4.39-2.37,6.51s2.82,4.53,2.37,6.51Z"/></svg>