<?xml version="1.0" encoding="UTF-8"?><svg id="Layer_1" xmlns="http://www.w3.org/2000/svg" viewBox="0 0 83.37 84.91"><defs><style>.cls-1{fill:#e83d38;}</style></defs><path class="cls-1" d="m39.48,58.46c0,.73.14,2.34,1.65,2.34.5,0,1.29-.26,2.16-.81-.79-2.45-1.15-5.01-1.22-6.84-.57.48-2.59,2.23-2.59,5.31Z"/><path class="cls-1" d="m26.13,38.8c0,2.3,1.43,2.82,2.86,2.82s5.44-.89,5.44-5.68v-1.97c-1.01.47-2.03.66-3.83,1.03-2.95.66-4.47,1.27-4.47,3.8Z"/><path class="cls-1" d="m48.18,54.91c1.08-1.57,1.87-3.59,2.34-4.72-1.58.04-2.01.11-2.59.26,0,2.49.14,3.62.25,4.46Z"/><path class="cls-1" d="m41.68,0C18.66,0,0,19.01,0,42.45s18.66,42.45,41.68,42.45,41.68-19.01,41.68-42.45S64.7,0,41.68,0Zm12.03,67.46c-2.26,0-3.05-1.35-3.05-2.96,0-2.49,1.4-2.63,3.13-2.82,3.52-.33,5.89-1.61,5.89-5.45,0-1.72-.5-2.78-1.08-3.55-.86-1.1-1.72-1.35-2.48-1.57-1.47,3.66-3.56,7.17-5.89,9.7.11.26.36.81.36,1.5,0,1.57-1.4,3.11-3.2,3.11-1.08,0-1.47-.4-1.8-.69-1.26.84-3.41,1.68-5.28,1.68-3.49,0-6.4-2.85-6.4-7.72,0-6.73,5.03-10.14,8.05-11.56,0-.51.07-2.67.07-3.11h-.51l-17.81,17.45c-.17.17-.39.25-.6.25-.23,0-.46-.09-.63-.27-.33-.35-.32-.92.02-1.26l13.37-13.1c-.69-.51-1.03-1.29-1.26-2.36-1.06,1.13-3.18,3.1-8.07,3.1-8.02,0-9.17-6.38-9.17-9.3,0-7.42,6.45-8.4,11.25-9.11,4.52-.66,5.95-.84,5.95-2.63,0-.56-.28-2.53-3.73-2.53-2.81,0-3.27.8-4.61,3.15-.78,1.36-2.4,1.83-3.96,1.83-1.24,0-4.1-.33-4.1-3.15,0-2.11,1.94-8.64,12.77-8.64,1.98,0,11.94,0,11.94,9.34v13.44l13.95-13.67c.35-.34.9-.33,1.23.02.33.35.32.92-.02,1.26l-9.54,9.34c0,.26,0,.52-.02.78,1.47-.04,3.09-.04,5.46-.15,1.26-.04,7.19-.4,7.91-.4.79,0,3.16,0,3.16,3.04,0,1.5-.65,2.6-2.26,2.85-2.05.29-11.68.51-14.59.59,0,.26-.07,1.28-.07,1.5.57-.07,1.8-.26,3.63-.26,5.93,0,8.41,1.32,10.24,2.71,3.56,2.74,4.06,6.33,4.06,8.64,0,8.6-7.22,10.98-12.29,10.98Z"/></svg>