<?xml version="1.0" encoding="UTF-8"?><svg id="Layer_1" xmlns="http://www.w3.org/2000/svg" viewBox="0 0 83.37 84.91"><defs><style>.cls-1{fill:#e83d38;}</style></defs><path class="cls-1" d="m41.68,0C18.66,0,0,19.01,0,42.45s18.66,42.45,41.68,42.45,41.68-19.01,41.68-42.45S64.7,0,41.68,0Zm24.45,39.51c-.21,4.14-1.91,7.68-4.23,10.98-2.83,4.04-6.11,7.65-10,10.66-1.9,1.47-3.86,2.85-6.1,3.78-2.6,1.08-5.1.89-7.62-.34-3.46-1.69-6.42-4.07-9.17-6.75-3.08-3.01-5.74-6.36-7.93-10.08-1.96-3.33-2.73-6.95-2.46-10.81.17-2.49.81-4.84,2.16-6.95,1.88-2.95,4.44-4.96,7.89-5.65,2.8-.56,5.47-.07,8,1.24,2.1,1.09,3.87,2.6,5.32,4.49.1.13.2.24.35.42.41-.47.77-.88,1.13-1.3,2.07-2.44,4.63-4.07,7.74-4.75,5.07-1.1,9.79.9,12.61,5.38,1.86,2.95,2.49,6.21,2.32,9.68Z"/></svg>