<?xml version="1.0" encoding="UTF-8"?><svg id="Layer_1" xmlns="http://www.w3.org/2000/svg" viewBox="0 0 83.37 84.91"><defs><style>.cls-1{fill:#e83d38;}</style></defs><path class="cls-1" d="m40.45,55.97c-.29-1.24-1.15-2.09-2.41-2.33-.35-.07-.89.14-1.14.41-1.33,1.46-2.6,2.99-3.89,4.49-.43.5-.64,1.04-.42,1.71.28.86,1.57,1.89,2.59,2.1.38-.26.84-.45,1.14-.79,1.19-1.35,2.37-2.72,3.49-4.13.33-.41.73-1.05.64-1.47Z"/><path class="cls-1" d="m40.26,59.76c-.95,1.07-1.83,2.2-2.75,3.29-.42.49-.42,1.01-.16,1.54.4.81,1.04,1.31,2.16,1.41.15-.07.56-.13.78-.38.94-1.07,1.84-2.19,2.74-3.31.72-.9.61-1.59-.34-2.48-.8-.75-1.76-.81-2.42-.07Z"/><path class="cls-1" d="m39.95,47.43c.19-.23.29-.54.43-.81-.06-1.31-.77-2.1-1.67-2.71-1.22-.83-2.22-.58-3.11.55-1.04,1.31-2.13,2.58-3.21,3.86-1.58,1.87-3.19,3.72-4.75,5.61-.2.25-.27.69-.24,1.03.13,1.37,1,2.18,2.18,2.68,1,.43,1.61.25,2.31-.6.37-.46.75-.91,1.13-1.36,2.32-2.75,4.64-5.5,6.94-8.25Z"/><path class="cls-1" d="m27.17,41.27c.8-.98,1.69-1.82,3.03-1.66.8.09,1.58.43,2.33.64-.08-.12-.22-.31-.35-.5-.84-1.28-.93-3.22.07-4.44,1.77-2.15,3.59-4.26,5.4-6.37,1.07-1.25,1.08-1.24-.19-2.28-.02-.02-.04-.03-.06-.05-2.81-2.55-6.11-3.7-9.86-3.46-2.87.19-5.36,1.33-7.32,3.45-3.89,4.21-3.89,10.19-1.23,14.81,1.06,1.84,2.51,3.29,4.15,4.66,1.35-1.6,2.72-3.19,4.05-4.8Z"/><path class="cls-1" d="m32.61,45.14c.44-.5.37-1,.2-1.52-.1-.3-.32-.56-.49-.84-.89-1.46-2.54-1.63-3.63-.38-1.79,2.07-3.6,4.14-5.36,6.24-.43.52-.99,1.13-1.03,1.73-.1,1.42,1.6,2.91,2.79,2.96.34-.19.74-.31,1.01-.58.57-.57,1.06-1.22,1.59-1.84,1.64-1.93,3.25-3.87,4.92-5.78Z"/><path class="cls-1" d="m62.01,24.98c-3.19-2.88-6.92-4.08-11.15-3.55-2.54.32-4.84,1.27-6.74,3.03-1.06.98-2,2.1-2.95,3.19-2.28,2.63-4.53,5.28-6.78,7.93-.52.61-1.06,1.2-1.01,2.13.05,1.04.92,2.01,1.77,1.76,1.7-.5,3.22-1.39,4.46-2.67,1.15-1.19,2.17-2.51,3.26-3.76.93-1.07,1.09-1.07,2.28-.32,3.8,2.4,7.88,3.55,12.33,2.54,2.17-.49,4.3-1.17,6.43-1.83.67-.21,1.05.11,1.24.6.19.49-.08.9-.61,1.12-2.38.99-4.83,1.76-7.39,2.07-1.5.18-3.02.23-4.53.34,3.86,3.46,7.74,6.93,11.76,10.53.77-1.02,1.71-2.11,2.47-3.31,1.58-2.5,2.16-5.28,1.96-8.25-.23-3.31-1.45-6.19-3.63-8.62-.96-1.07-2.09-1.97-3.16-2.93Z"/><path class="cls-1" d="m45.13,59.83c.74,2.04-.28,3.45-1.54,4.74.45.4.83.74,1.22,1.08,1.05.9,2.15.81,3.07-.09.88-.86.94-2.37.13-3.1-.97-.87-1.93-1.76-2.89-2.63Z"/><path class="cls-1" d="m41.68,0C18.66,0,0,19.01,0,42.45s18.66,42.45,41.68,42.45,41.68-19.01,41.68-42.45S64.7,0,41.68,0Zm26.14,46.65c-.85,1.18-1.82,2.27-2.72,3.41-.17.22-.38.49-.4.75-.18,2.47-2.1,4.16-4.57,3.95-.22-.02-.44,0-.67,0,.1,2.77-1.76,4.37-4.42,4.23-.18,2.9-1.6,4.61-4.63,4.72-.02,1.11-.29,2.11-1.04,2.94-1.78,1.95-4.19,1.98-6.06.18-.02-.02-.02-.05-.04-.06-.76-.78-.79-.81-1.48-.05-1,1.1-2.2,1.41-3.55.96-1.37-.46-2.39-1.34-2.75-2.85-.05-.22-.12-.43-.19-.69-1.17-.11-2.23-.51-3.13-1.38-.73-.7-1.19-1.49-1.47-2.45-.06-.22-.31-.53-.49-.55-2.23-.24-4.38-2.06-4.7-4.6-2.28-.15-3.95-1.2-4.84-3.43-.7-1.75.07-3.02,1.17-4.17-.88-.9-1.75-1.77-2.62-2.66-1.61-1.66-2.66-3.68-3.31-5.87-1.25-4.24-.83-8.33,1.64-12.05,1.9-2.87,4.57-4.66,7.92-5.4,4.46-.98,8.44.15,12.11,2.74.65.46,1.22,1.06,1.81,1.61.3.28.53.32.79-.04.99-1.32,2.09-2.52,3.41-3.5,1.46-1.08,3.08-1.85,4.82-2.35,4.47-1.29,8.73-.63,12.6,1.86,2.63,1.69,5.01,3.78,6.82,6.41,3.75,5.46,3.86,12.93-.04,18.34Z"/><path class="cls-1" d="m58.13,44.99c-2.46-2.18-4.9-4.38-7.36-6.55-.81-.72-1.58-1.51-2.49-2.06-1.18-.72-2.48-1.25-3.75-1.83-.18-.08-.54-.02-.66.12-.6.65-1.16,1.35-1.72,2.04-2.21,2.68-4.78,4.68-8.42,4.72.24.41.5.85.77,1.3.19-.13.39-.2.51-.35.79-.92,1.85-.97,2.86-.75,2.15.48,3.63,1.77,4.19,4.02.08.3.25.63.48.83,1.17,1.08,2.38,2.13,3.57,3.19,2.11,1.87,4.23,3.76,6.35,5.62.81.71,1.56,1.53,2.67,1.8,1.45.36,2.69-.79,2.48-2.29-.15-1.07-.84-1.71-1.58-2.36-2.08-1.83-4.15-3.67-6.21-5.51-1.7-1.52-3.37-3.07-5.08-4.58-.51-.45-.51-.88-.09-1.35.4-.46.82-.36,1.23,0,.87.76,1.75,1.52,2.61,2.28,2.09,1.86,4.18,3.73,6.28,5.58,1.36,1.2,2.7,2.4,4.1,3.54,1.05.85,2.59.66,3.38-.21,1.11-1.23.64-2.97-.35-3.88-1.23-1.13-2.51-2.2-3.76-3.31Z"/><path class="cls-1" d="m45.86,51.92c-1.37-1.22-2.74-2.43-4.14-3.67-1,1.19-1.97,2.35-2.82,3.37.95.8,1.82,1.47,2.62,2.22.81.76,1.52,1.64,2.34,2.4,1.49,1.39,3.01,2.73,4.54,4.07.57.5,1.13,1.08,1.8,1.37,1.05.45,2.13-.13,2.7-1.24.47-.91.16-2.13-.65-2.85-2.14-1.88-4.27-3.78-6.4-5.68Z"/></svg>