<?xml version="1.0" encoding="UTF-8"?><svg id="Layer_1" xmlns="http://www.w3.org/2000/svg" viewBox="0 0 595.28 841.89"><defs><style>.cls-1{letter-spacing:-.07em;}.cls-2{letter-spacing:-.03em;}.cls-3{letter-spacing:-.03em;}.cls-4{letter-spacing:-.05em;}.cls-5{letter-spacing:-.01em;}.cls-6,.cls-7{font-family:ShinMGoPro-Regular-90ms-RKSJ-H, 'A-OTF Shin Maru Go Pro';}.cls-6,.cls-7,.cls-8,.cls-9,.cls-10,.cls-11,.cls-12,.cls-13,.cls-14,.cls-15,.cls-16,.cls-17,.cls-18,.cls-19,.cls-20,.cls-21,.cls-22,.cls-23,.cls-24,.cls-25,.cls-26,.cls-27,.cls-28,.cls-29,.cls-30,.cls-31,.cls-32,.cls-33,.cls-34,.cls-35,.cls-36{fill:#1d1d1b;}.cls-6,.cls-37{font-size:9px;}.cls-38{letter-spacing:-.08em;}.cls-39{letter-spacing:-.16em;}.cls-40,.cls-41,.cls-42,.cls-43{fill:#fff;}.cls-44{letter-spacing:-.15em;}.cls-7,.cls-21,.cls-45{font-size:12px;}.cls-46{letter-spacing:-.1em;}.cls-41{font-size:26.45px;}.cls-41,.cls-10,.cls-21,.cls-43,.cls-47{font-weight:700;}.cls-41,.cls-43{font-family:ShinMGoPro-Bold-90ms-RKSJ-H, 'A-OTF Shin Maru Go Pro';}.cls-48{letter-spacing:-.04em;}.cls-49{letter-spacing:-.05em;}.cls-8{letter-spacing:-.26em;}.cls-50{letter-spacing:-.03em;}.cls-51{letter-spacing:-.04em;}.cls-52{letter-spacing:-.07em;}.cls-9{letter-spacing:-.14em;}.cls-42{fill-rule:evenodd;}.cls-53{letter-spacing:-.07em;}.cls-54{fill:#bfdba4;}.cls-54,.cls-55,.cls-56,.cls-57,.cls-58{stroke:#1d1d1b;stroke-miterlimit:10;}.cls-10,.cls-21,.cls-47{font-family:ShinMGoPro-DeBold-90ms-RKSJ-H, 'A-OTF Shin Maru Go Pro';}.cls-59{letter-spacing:-.26em;}.cls-60{letter-spacing:-.02em;}.cls-61,.cls-62{fill:#e3711d;}.cls-11{letter-spacing:-.19em;}.cls-63{letter-spacing:-.09em;}.cls-64{letter-spacing:-.02em;}.cls-12{letter-spacing:-.06em;}.cls-65{letter-spacing:-.04em;}.cls-66{letter-spacing:-.02em;}.cls-13{letter-spacing:-.36em;}.cls-67{letter-spacing:-.04em;}.cls-68{letter-spacing:-.06em;}.cls-69{letter-spacing:-.04em;}.cls-14{letter-spacing:-.05em;}.cls-70{letter-spacing:-.06em;}.cls-71{letter-spacing:-.09em;}.cls-72{letter-spacing:-.09em;}.cls-73{letter-spacing:-.1em;}.cls-74{letter-spacing:-.05em;}.cls-75{letter-spacing:-.05em;}.cls-76{letter-spacing:-.03em;}.cls-77{fill:#8cc1da;}.cls-15{letter-spacing:-.06em;}.cls-78{letter-spacing:-.06em;}.cls-79{letter-spacing:-.13em;}.cls-16{letter-spacing:-.19em;}.cls-80{letter-spacing:-.19em;}.cls-81{letter-spacing:0em;}.cls-17,.cls-62{letter-spacing:-.03em;}.cls-82{letter-spacing:-.29em;}.cls-18{letter-spacing:-.04em;}.cls-55{fill:none;}.cls-83{letter-spacing:-.02em;}.cls-84{letter-spacing:-.09em;}.cls-85{letter-spacing:0em;}.cls-86{letter-spacing:-.03em;}.cls-87{letter-spacing:0em;}.cls-88{letter-spacing:0em;}.cls-89{letter-spacing:0em;}.cls-19{letter-spacing:-.06em;}.cls-90{letter-spacing:-.11em;}.cls-91{letter-spacing:0em;}.cls-20{letter-spacing:0em;}.cls-92{letter-spacing:-.03em;}.cls-93{letter-spacing:-.02em;}.cls-94{letter-spacing:-.35em;}.cls-95{letter-spacing:-.04em;}.cls-96{letter-spacing:-.03em;}.cls-97{letter-spacing:-.05em;}.cls-22{letter-spacing:0em;}.cls-23{letter-spacing:-.18em;}.cls-98{letter-spacing:-.05em;}.cls-99{letter-spacing:0em;}.cls-100{letter-spacing:-.02em;}.cls-24{letter-spacing:-.27em;}.cls-25{letter-spacing:-.07em;}.cls-26{letter-spacing:-.08em;}.cls-27{letter-spacing:-.53em;}.cls-101{letter-spacing:-.05em;}.cls-102{letter-spacing:-.02em;}.cls-103{letter-spacing:-.39em;}.cls-43{font-size:13.76px;}.cls-104{letter-spacing:-.05em;}.cls-105{letter-spacing:-.03em;}.cls-106{letter-spacing:-.1em;}.cls-47{font-size:14px;}.cls-107{fill:#ef7d00;}.cls-108{letter-spacing:-.08em;}.cls-109{letter-spacing:-.06em;}.cls-110{letter-spacing:-.19em;}.cls-111{letter-spacing:-.14em;}.cls-112{letter-spacing:-.09em;}.cls-113{letter-spacing:-.05em;}.cls-114{letter-spacing:-.01em;}.cls-115{letter-spacing:-.12em;}.cls-116{letter-spacing:-.43em;}.cls-117{letter-spacing:-.44em;}.cls-118{letter-spacing:-.03em;}.cls-28{letter-spacing:-.37em;}.cls-119{letter-spacing:-.04em;}.cls-120{letter-spacing:-.06em;}.cls-121{letter-spacing:0em;}.cls-122{letter-spacing:-.01em;}.cls-123{letter-spacing:-.51em;}.cls-29{letter-spacing:-.37em;}.cls-124{letter-spacing:-.13em;}.cls-125{letter-spacing:-.44em;}.cls-126{letter-spacing:-.06em;}.cls-127{letter-spacing:-.05em;}.cls-56{fill:#f5cfb3;}.cls-128{letter-spacing:-.06em;}.cls-129{letter-spacing:-.03em;}.cls-130{letter-spacing:0em;}.cls-131{letter-spacing:-.1em;}.cls-132{letter-spacing:-.07em;}.cls-30{letter-spacing:-.01em;}.cls-133{letter-spacing:-.09em;}.cls-134{letter-spacing:-.04em;}.cls-31{letter-spacing:-.15em;}.cls-135{letter-spacing:-.02em;}.cls-136{letter-spacing:-.04em;}.cls-137{letter-spacing:-.36em;}.cls-138{letter-spacing:-.05em;}.cls-139{letter-spacing:0em;}.cls-140{letter-spacing:-.04em;}.cls-141{letter-spacing:-.07em;}.cls-142{letter-spacing:-.05em;}.cls-143{letter-spacing:-.09em;}.cls-144{letter-spacing:-.01em;}.cls-32{letter-spacing:-.36em;}.cls-145{letter-spacing:-.06em;}.cls-146{letter-spacing:-.09em;}.cls-33{letter-spacing:-.19em;}.cls-147{letter-spacing:-.02em;}.cls-148{letter-spacing:-.07em;}.cls-149{fill:#89c1db;}.cls-150{letter-spacing:-.13em;}.cls-151{letter-spacing:-.04em;}.cls-152{letter-spacing:-.07em;}.cls-153{letter-spacing:-.15em;}.cls-34{letter-spacing:-.19em;}.cls-154{letter-spacing:-.02em;}.cls-155{letter-spacing:-.06em;}.cls-156{letter-spacing:-.03em;}.cls-157{letter-spacing:-.01em;}.cls-158{letter-spacing:-.26em;}.cls-159{letter-spacing:-.02em;}.cls-57{fill:#f0f8f9;}.cls-160{letter-spacing:-.02em;}.cls-161{letter-spacing:-.02em;}.cls-162{letter-spacing:-.07em;}.cls-58{fill:#cee9f1;}.cls-163{letter-spacing:-.09em;}.cls-164{letter-spacing:-.02em;}.cls-36{letter-spacing:-.02em;}.cls-165{letter-spacing:-.09em;}.cls-166{letter-spacing:0em;}</style></defs><rect class="cls-57" x="12.8" y="694.46" width="131.58" height="22.27"/><rect class="cls-57" x="12.8" y="716.73" width="131.58" height="22.27"/><rect class="cls-57" x="12.8" y="610.05" width="131.58" height="22.27"/><rect class="cls-57" x="12.8" y="632.32" width="131.58" height="22.27"/><rect class="cls-57" x="12.8" y="739" width="131.58" height="68.71"/><rect class="cls-57" x="12.8" y="438.46" width="113.58" height="22.27"/><rect class="cls-57" x="12.8" y="460.73" width="113.58" height="66.81"/><rect class="cls-58" x="12.8" y="399.69" width="227.16" height="38.77"/><rect class="cls-56" x="239.96" y="399.69" width="166.58" height="38.77"/><rect class="cls-54" x="406.54" y="399.69" width="173.67" height="38.77"/><rect class="cls-77" width="595.28" height="63.64"/><rect class="cls-77" y="825.75" width="595.28" height="16.14"/><text class="cls-41" transform="translate(12.8 45.38)"><tspan x="0" y="0">2023 Spring School 料金表</tspan></text><text class="cls-43" transform="translate(399.15 47.79)"><tspan x="0" y="0">(税込み</tspan><tspan class="cls-94" x="46.63" y="0">）</tspan></text><text class="cls-47" transform="translate(12.8 95.13)"><tspan class="cls-61" x="0" y="0">◆</tspan><tspan class="cls-35" x="14" y="0">小学</tspan><tspan class="cls-8" x="42" y="0">生・</tspan><tspan class="cls-35" x="62.8" y="0">幼</tspan><tspan class="cls-18" x="76.8" y="0">児</tspan><tspan class="cls-36" x="90.26" y="0">コ</tspan><tspan class="cls-17" x="104.02" y="0">ース</tspan><tspan class="cls-35" x="131.24" y="0">共通</tspan><tspan class="cls-13" x="159.24" y="0">　</tspan><tspan class="cls-35" x="168.18" y="0">（午前</tspan><tspan class="cls-11" x="210.18" y="0"> </tspan><tspan class="cls-28" x="212.25" y="0">１</tspan><tspan class="cls-27" x="221.07" y="0">０：</tspan><tspan class="cls-28" x="234.32" y="0">０</tspan><tspan class="cls-34" x="243.14" y="0">０～</tspan><tspan class="cls-28" x="265.82" y="0">１</tspan><tspan class="cls-27" x="274.64" y="0">３：</tspan><tspan class="cls-28" x="287.88" y="0">３</tspan><tspan class="cls-23" x="296.7" y="0">０</tspan><tspan class="cls-35" x="308.11" y="0" xml:space="preserve"> / 午後</tspan><tspan class="cls-23" x="352.44" y="0"> </tspan><tspan class="cls-28" x="354.51" y="0">１</tspan><tspan class="cls-27" x="363.33" y="0">３：</tspan><tspan class="cls-29" x="376.57" y="0">３</tspan><tspan class="cls-16" x="385.39" y="0">０～</tspan><tspan class="cls-28" x="408.07" y="0">１</tspan><tspan class="cls-27" x="416.89" y="0">８：</tspan><tspan class="cls-28" x="430.14" y="0">３</tspan><tspan class="cls-33" x="438.96" y="0">０</tspan><tspan class="cls-32" x="450.37" y="0">）</tspan></text><text class="cls-47" transform="translate(12.8 388.12)"><tspan class="cls-62" x="0" y="0">◆</tspan><tspan class="cls-19" x="13.61" y="0">ス</tspan><tspan class="cls-9" x="26.84" y="0">ポ</tspan><tspan class="cls-24" x="38.88" y="0">ッ</tspan><tspan class="cls-14" x="49.13" y="0">ト</tspan><tspan class="cls-35" x="62.47" y="0">利</tspan><tspan class="cls-32" x="76.47" y="0">用</tspan><tspan class="cls-11" x="85.41" y="0">（１</tspan><tspan class="cls-35" x="108.23" y="0">回</tspan><tspan class="cls-22" x="122.23" y="0">あ</tspan><tspan class="cls-26" x="136.12" y="0">た</tspan><tspan class="cls-15" x="149.03" y="0">り</tspan><tspan class="cls-35" x="162.15" y="0">の金額</tspan><tspan class="cls-32" x="204.15" y="0">）</tspan></text><text class="cls-47" transform="translate(12.8 597.88)"><tspan class="cls-61" x="0" y="0">◆</tspan><tspan class="cls-35" x="14" y="0">延長料金 (8:3</tspan><tspan class="cls-20" x="102.16" y="0">0～</tspan><tspan class="cls-35" x="124.84" y="0">10:00 / 18:3</tspan><tspan class="cls-20" x="211.72" y="0">0～</tspan><tspan class="cls-35" x="234.4" y="0">20:30)　</tspan></text><text class="cls-47" transform="translate(12.8 682.2)"><tspan class="cls-62" x="0" y="0">◆</tspan><tspan class="cls-25" x="13.61" y="0">オ</tspan><tspan class="cls-12" x="26.64" y="0">プ</tspan><tspan class="cls-9" x="39.82" y="0">シ</tspan><tspan class="cls-31" x="51.86" y="0">ョ</tspan><tspan class="cls-30" x="63.7" y="0">ン</tspan></text><text class="cls-6" transform="translate(300.21 595.88)"><tspan x="0" y="0">※新浦安校の前延長</tspan><tspan class="cls-93" x="81" y="0">は</tspan><tspan x="89.83" y="0">9:0</tspan><tspan class="cls-85" x="103.49" y="0">0～</tspan><tspan class="cls-117" x="117.9" y="0">、</tspan><tspan x="122.98" y="0">南町田校</tspan><tspan class="cls-93" x="158.98" y="0">は</tspan><tspan x="167.81" y="0">前延長対</tspan><tspan class="cls-114" x="203.81" y="0">応</tspan><tspan class="cls-142" x="212.72" y="0">がご</tspan><tspan class="cls-139" x="229.88" y="0">ざ</tspan><tspan class="cls-50" x="238.8" y="0">い</tspan><tspan class="cls-127" x="247.54" y="0">ま</tspan><tspan class="cls-91" x="256.13" y="0">せん</tspan><tspan class="cls-103" x="273.95" y="0">。</tspan></text><text class="cls-6" transform="translate(273.14 647.61)"><tspan x="0" y="0">※幼児</tspan><tspan class="cls-93" x="27" y="0">は</tspan><tspan x="35.83" y="0">後延</tspan><tspan class="cls-85" x="53.83" y="0">長～</tspan><tspan class="cls-121" x="71.74" y="0">19:3</tspan><tspan class="cls-92" x="90.9" y="0">0</tspan><tspan class="cls-101" x="96.15" y="0">ま</tspan><tspan class="cls-136" x="104.73" y="0">で</tspan><tspan class="cls-120" x="113.4" y="0">と</tspan><tspan class="cls-139" x="121.81" y="0">さ</tspan><tspan x="130.73" y="0">せて</tspan><tspan class="cls-91" x="148.73" y="0">い</tspan><tspan class="cls-154" x="157.64" y="0">た</tspan><tspan class="cls-95" x="166.46" y="0">だ</tspan><tspan class="cls-128" x="175.12" y="0">きま</tspan><tspan class="cls-91" x="192.11" y="0">す</tspan><tspan class="cls-103" x="201.02" y="0">。</tspan></text><rect class="cls-58" x="12.8" y="107.17" width="113.58" height="44.54"/><rect class="cls-56" x="126.38" y="107.17" width="173.58" height="44.54"/><rect class="cls-54" x="299.96" y="107.17" width="280.25" height="22.27"/><rect class="cls-54" x="299.96" y="129.44" width="93.58" height="22.27"/><rect class="cls-54" x="393.54" y="129.44" width="93.33" height="22.27"/><rect class="cls-54" x="486.88" y="129.44" width="93.33" height="22.27"/><rect class="cls-57" x="12.8" y="151.71" width="113.58" height="22.27"/><rect class="cls-55" x="126.38" y="151.71" width="173.58" height="22.27"/><rect class="cls-55" x="299.96" y="151.71" width="93.58" height="22.27"/><rect class="cls-55" x="393.54" y="151.71" width="93.33" height="22.27"/><rect class="cls-55" x="486.88" y="151.71" width="93.33" height="22.27"/><rect class="cls-57" x="12.8" y="173.98" width="113.58" height="22.27"/><rect class="cls-55" x="126.38" y="173.98" width="173.58" height="22.27"/><rect class="cls-55" x="299.96" y="173.98" width="93.58" height="22.27"/><rect class="cls-55" x="393.54" y="173.98" width="93.33" height="22.27"/><rect class="cls-55" x="486.88" y="173.98" width="93.33" height="22.27"/><rect class="cls-57" x="12.8" y="196.25" width="113.58" height="22.27"/><rect class="cls-55" x="126.38" y="196.25" width="173.58" height="22.27"/><rect class="cls-55" x="299.96" y="196.25" width="93.58" height="22.27"/><rect class="cls-55" x="393.54" y="196.25" width="93.33" height="22.27"/><rect class="cls-55" x="486.88" y="196.25" width="93.33" height="22.27"/><rect class="cls-57" x="12.8" y="218.52" width="113.58" height="22.27"/><rect class="cls-55" x="126.38" y="218.52" width="173.58" height="22.27"/><rect class="cls-55" x="299.96" y="218.52" width="93.58" height="22.27"/><rect class="cls-55" x="393.54" y="218.52" width="93.33" height="22.27"/><rect class="cls-55" x="486.88" y="218.52" width="93.33" height="22.27"/><rect class="cls-57" x="12.8" y="240.79" width="113.58" height="23.27"/><rect class="cls-55" x="126.38" y="240.79" width="173.58" height="23.27"/><rect class="cls-55" x="299.96" y="240.79" width="93.58" height="23.27"/><rect class="cls-55" x="393.54" y="240.79" width="93.33" height="23.27"/><rect class="cls-55" x="486.88" y="240.79" width="93.33" height="23.27"/><rect class="cls-57" x="12.8" y="264.06" width="113.58" height="22.27"/><rect class="cls-55" x="126.38" y="264.06" width="173.58" height="22.27"/><rect class="cls-55" x="299.96" y="264.06" width="93.58" height="22.27"/><rect class="cls-55" x="393.54" y="264.06" width="93.33" height="22.27"/><rect class="cls-55" x="486.88" y="264.06" width="93.33" height="22.27"/><text class="cls-21" transform="translate(51.79 134.12)"><tspan class="cls-160" x="0" y="0">コ</tspan><tspan class="cls-50" x="11.8" y="0">ース</tspan></text><text class="cls-21" transform="translate(108.58 423.42)"><tspan class="cls-160" x="0" y="0">コ</tspan><tspan class="cls-50" x="11.8" y="0">ース</tspan></text><text class="cls-10" transform="translate(186.17 129.12)"><tspan class="cls-45"><tspan x="0" y="0" xml:space="preserve"> 会員料金</tspan></tspan><tspan class="cls-37"><tspan x="-52.37" y="10.8">(通学</tspan><tspan class="cls-158" x="-30.87" y="10.8">生・</tspan><tspan x="-17.5" y="10.8">予約</tspan><tspan class="cls-158" x=".5" y="10.8">生・</tspan><tspan x="13.88" y="10.8">予約</tspan><tspan class="cls-133" x="31.88" y="10.8">キ</tspan><tspan class="cls-124" x="40.04" y="10.8">ャ</tspan><tspan class="cls-67" x="47.84" y="10.8">ン</tspan><tspan class="cls-50" x="56.45" y="10.8">セ</tspan><tspan x="65.2" y="10.8">ル</tspan><tspan class="cls-164" x="74.2" y="10.8">待</tspan><tspan class="cls-154" x="83.05" y="10.8">ち</tspan><tspan x="91.87" y="10.8">生)</tspan></tspan></text><text class="cls-10" transform="translate(296.6 419.08)"><tspan class="cls-45"><tspan x="0" y="0" xml:space="preserve"> 会員料金</tspan></tspan><tspan class="cls-37"><tspan x="-52.37" y="10.8">(通学</tspan><tspan class="cls-158" x="-30.87" y="10.8">生・</tspan><tspan x="-17.5" y="10.8">予約</tspan><tspan class="cls-158" x=".5" y="10.8">生・</tspan><tspan x="13.88" y="10.8">予約</tspan><tspan class="cls-133" x="31.88" y="10.8">キ</tspan><tspan class="cls-124" x="40.04" y="10.8">ャ</tspan><tspan class="cls-67" x="47.84" y="10.8">ン</tspan><tspan class="cls-50" x="56.45" y="10.8">セ</tspan><tspan x="65.2" y="10.8">ル</tspan><tspan class="cls-164" x="74.2" y="10.8">待</tspan><tspan class="cls-154" x="83.05" y="10.8">ち</tspan><tspan x="91.87" y="10.8">生)</tspan></tspan></text><text class="cls-21" transform="translate(412.45 123.12)"><tspan x="0" y="0">非会員料金</tspan></text><text class="cls-21" transform="translate(421.45 145.77)"><tspan x="0" y="0">帽子代</tspan></text><text class="cls-21" transform="translate(323.64 145.77)"><tspan x="0" y="0">基本料金</tspan></text><text class="cls-7" transform="translate(321.53 167.04)"><tspan x="0" y="0">30,000円</tspan></text><text class="cls-7" transform="translate(186.06 167.04)"><tspan x="0" y="0">18,700円</tspan></text><text class="cls-7" transform="translate(508.01 167.04)"><tspan x="0" y="0">31,100円</tspan></text><text class="cls-7" transform="translate(417.2 167.04)"><tspan x="0" y="0">1,100円</tspan></text><text class="cls-7" transform="translate(41.71 167.04)"><tspan x="0" y="0">5</tspan><tspan class="cls-140" x="7.33" y="0">回</tspan><tspan class="cls-5" x="18.84" y="0">コ</tspan><tspan class="cls-50" x="30.66" y="0">ース</tspan></text><text class="cls-7" transform="translate(321.53 189.89)"><tspan x="0" y="0">55,000円</tspan></text><text class="cls-7" transform="translate(186.06 189.89)"><tspan x="0" y="0">33,000円</tspan></text><text class="cls-7" transform="translate(508.01 189.89)"><tspan x="0" y="0">56,100円</tspan></text><text class="cls-7" transform="translate(417.2 189.89)"><tspan x="0" y="0">1,100円</tspan></text><text class="cls-7" transform="translate(38.04 189.89)"><tspan x="0" y="0">10</tspan><tspan class="cls-140" x="14.66" y="0">回</tspan><tspan class="cls-5" x="26.17" y="0">コ</tspan><tspan class="cls-50" x="37.99" y="0">ース</tspan></text><text class="cls-7" transform="translate(321.53 212.74)"><tspan x="0" y="0">80,000円</tspan></text><text class="cls-7" transform="translate(186.06 212.74)"><tspan x="0" y="0">49,500円</tspan></text><text class="cls-7" transform="translate(508.01 212.74)"><tspan x="0" y="0">81,100円</tspan></text><text class="cls-7" transform="translate(417.2 212.74)"><tspan x="0" y="0">1,100円</tspan></text><text class="cls-7" transform="translate(38.04 212.74)"><tspan x="0" y="0">15</tspan><tspan class="cls-140" x="14.66" y="0">回</tspan><tspan class="cls-5" x="26.17" y="0">コ</tspan><tspan class="cls-50" x="37.99" y="0">ース</tspan></text><text class="cls-7" transform="translate(317.87 234.58)"><tspan x="0" y="0">100,000円</tspan></text><text class="cls-7" transform="translate(186.06 234.58)"><tspan x="0" y="0">66,000円</tspan></text><text class="cls-7" transform="translate(504.34 234.58)"><tspan x="0" y="0">101,100円</tspan></text><text class="cls-7" transform="translate(417.2 234.58)"><tspan x="0" y="0">1,100円</tspan></text><text class="cls-7" transform="translate(38.04 234.58)"><tspan x="0" y="0">20</tspan><tspan class="cls-140" x="14.66" y="0">回</tspan><tspan class="cls-5" x="26.17" y="0">コ</tspan><tspan class="cls-50" x="37.99" y="0">ース</tspan></text><text class="cls-7" transform="translate(287.48 476.72)"><tspan x="0" y="0">4,216円</tspan><tspan class="cls-110" x="44.88" y="0">/１</tspan><tspan x="58.22" y="0">回</tspan></text><text class="cls-7" transform="translate(287.48 520.72)"><tspan x="0" y="0">4,400円</tspan><tspan class="cls-110" x="44.88" y="0">/１</tspan><tspan x="58.22" y="0">回</tspan></text><text class="cls-7" transform="translate(144.35 520.72)"><tspan x="0" y="0">13:3</tspan><tspan class="cls-89" x="25.55" y="0">0～</tspan><tspan x="44.76" y="0">18:30</tspan></text><text class="cls-7" transform="translate(144.35 498.99)"><tspan x="0" y="0">15:0</tspan><tspan class="cls-89" x="25.55" y="0">0～</tspan><tspan x="44.76" y="0">18:30</tspan></text><text class="cls-7" transform="translate(458.26 487.5)"><tspan x="0" y="0">6,600円</tspan><tspan class="cls-110" x="44.88" y="0">/１</tspan><tspan x="58.22" y="0">回</tspan></text><text class="cls-7" transform="translate(56.7 498.99)"><tspan x="0" y="0">幼児</tspan></text><text class="cls-7" transform="translate(66.7 648.51)"><tspan x="0" y="0">幼児</tspan></text><text class="cls-7" transform="translate(317.87 257.43)"><tspan x="0" y="0">120,000円</tspan></text><text class="cls-7" transform="translate(186.06 257.43)"><tspan x="0" y="0">82,500円</tspan></text><text class="cls-7" transform="translate(504.34 257.43)"><tspan x="0" y="0">121,100円</tspan></text><text class="cls-7" transform="translate(417.2 257.43)"><tspan x="0" y="0">1,100円</tspan></text><text class="cls-7" transform="translate(38.04 257.43)"><tspan x="0" y="0">25</tspan><tspan class="cls-140" x="14.66" y="0">回</tspan><tspan class="cls-5" x="26.17" y="0">コ</tspan><tspan class="cls-50" x="37.99" y="0">ース</tspan></text><text class="cls-7" transform="translate(317.87 280.28)"><tspan x="0" y="0">140,000円</tspan></text><text class="cls-7" transform="translate(186.06 280.28)"><tspan x="0" y="0">99,000円</tspan></text><text class="cls-7" transform="translate(504.34 280.28)"><tspan x="0" y="0">141,100円</tspan></text><text class="cls-7" transform="translate(417.2 280.28)"><tspan x="0" y="0">1,100円</tspan></text><text class="cls-7" transform="translate(38.04 280.28)"><tspan x="0" y="0">30</tspan><tspan class="cls-140" x="14.66" y="0">回</tspan><tspan class="cls-5" x="26.17" y="0">コ</tspan><tspan class="cls-50" x="37.99" y="0">ース</tspan></text><rect class="cls-55" x="299.96" y="286.33" width="280.25" height="22.27"/><text class="cls-7" transform="translate(339.12 302.55)"><tspan x="0" y="0">非会</tspan><tspan class="cls-84" x="24" y="0">員</tspan><tspan class="cls-44" x="34.88" y="0">リ</tspan><tspan class="cls-64" x="45.11" y="0">ピ</tspan><tspan class="cls-156" x="56.89" y="0">ー</tspan><tspan class="cls-119" x="68.51" y="0">タ</tspan><tspan x="80" y="0">ー割引　10,000円OFF</tspan></text><text class="cls-21" transform="translate(509.03 145.77)"><tspan x="0" y="0">合計金額</tspan></text><text class="cls-7" transform="translate(51.59 453.64)"><tspan x="0" y="0">小学生</tspan></text><text class="cls-7" transform="translate(61.59 626.16)"><tspan x="0" y="0">小学生</tspan></text><text class="cls-7" transform="translate(156.64 453.64)"><tspan x="0" y="0">午</tspan><tspan class="cls-82" x="12" y="0">前・</tspan><tspan x="29.06" y="0">午後</tspan></text><text class="cls-7" transform="translate(171.17 476.72)"><tspan x="0" y="0">午前</tspan></text><text class="cls-7" transform="translate(154.79 648.51)"><tspan x="0" y="0">550円/30</tspan><tspan class="cls-137" x="54.66" y="0">分</tspan><tspan x="62.33" y="0">（</tspan><tspan class="cls-140" x="74.33" y="0">1</tspan><tspan class="cls-105" x="81.17" y="0">コ</tspan><tspan class="cls-166" x="92.86" y="0">マ</tspan><tspan x="104.76" y="0">) </tspan></text><text class="cls-7" transform="translate(154.79 626.16)"><tspan x="0" y="0">440円/30</tspan><tspan class="cls-137" x="54.66" y="0">分</tspan><tspan x="62.33" y="0">（</tspan><tspan class="cls-140" x="74.33" y="0">1</tspan><tspan class="cls-105" x="81.17" y="0">コ</tspan><tspan class="cls-166" x="92.86" y="0">マ</tspan><tspan x="104.76" y="0">)</tspan></text><text class="cls-7" transform="translate(154.79 733.12)"><tspan x="0" y="0">165円/1食 (通学生</tspan><tspan class="cls-152" x="103.99" y="0">の</tspan><tspan class="cls-51" x="115.1" y="0">レ</tspan><tspan class="cls-143" x="126.66" y="0">ギ</tspan><tspan class="cls-115" x="137.54" y="0">ュ</tspan><tspan class="cls-97" x="148.1" y="0">ラ</tspan><tspan x="159.55" y="0">ー通</tspan><tspan class="cls-64" x="183.55" y="0">学</tspan><tspan class="cls-60" x="195.34" y="0">日</tspan><tspan x="207.11" y="0">以外</tspan><tspan class="cls-64" x="231.11" y="0">の</tspan><tspan class="cls-66" x="242.89" y="0">日</tspan><tspan x="254.66" y="0">)</tspan></text><text class="cls-7" transform="translate(25.37 733.12)"><tspan x="0" y="0">午</tspan><tspan class="cls-48" x="12" y="0">後</tspan><tspan class="cls-159" x="23.51" y="0">コ</tspan><tspan class="cls-50" x="35.33" y="0">ース</tspan><tspan x="58.66" y="0">おやつ代</tspan></text><text class="cls-7" transform="translate(38.71 709.5)"><tspan x="0" y="0">昼</tspan><tspan class="cls-50" x="12" y="0">食</tspan><tspan class="cls-128" x="23.66" y="0">ま</tspan><tspan class="cls-130" x="34.99" y="0">た</tspan><tspan class="cls-98" x="46.87" y="0">は</tspan><tspan class="cls-65" x="58.22" y="0">夕</tspan><tspan x="69.76" y="0">食</tspan></text><text class="cls-7" transform="translate(154.79 709.5)"><tspan x="0" y="0">660円/1食</tspan></text><text class="cls-21" transform="translate(463.38 425.44)"><tspan x="0" y="0">非会員料金</tspan></text><rect class="cls-55" x="126.38" y="438.46" width="113.58" height="22.27"/><rect class="cls-55" x="126.38" y="460.73" width="113.58" height="22.27"/><rect class="cls-55" x="126.38" y="483" width="113.58" height="22.27"/><rect class="cls-55" x="126.38" y="505.27" width="113.58" height="22.27"/><rect class="cls-55" x="239.96" y="438.46" width="166.58" height="66.81"/><rect class="cls-55" x="239.96" y="505.27" width="166.58" height="22.27"/><rect class="cls-55" x="406.54" y="438.46" width="173.67" height="89.08"/><rect class="cls-55" x="144.38" y="610.05" width="435.83" height="22.27"/><rect class="cls-55" x="144.38" y="632.32" width="435.83" height="22.27"/><rect class="cls-55" x="144.38" y="694.46" width="435.83" height="22.27"/><rect class="cls-55" x="144.38" y="716.73" width="435.83" height="22.27"/><text class="cls-7" transform="translate(154.79 778.87)"><tspan x="0" y="0">1100円</tspan></text><text class="cls-6" transform="translate(218.43 755.24)"><tspan x="0" y="0">※午前中</tspan><tspan class="cls-86" x="36" y="0">の</tspan><tspan class="cls-96" x="44.69" y="0">プ</tspan><tspan class="cls-162" x="53.41" y="0">ロ</tspan><tspan class="cls-148" x="61.73" y="0">グ</tspan><tspan class="cls-4" x="70.07" y="0">ラ</tspan><tspan class="cls-91" x="78.62" y="0">ム</tspan><tspan x="87.53" y="0">の</tspan><tspan class="cls-91" x="96.53" y="0">みが</tspan><tspan x="114.35" y="0">対象</tspan><tspan class="cls-91" x="132.35" y="0">です</tspan><tspan class="cls-103" x="150.17" y="0">。</tspan><tspan class="cls-50" x="0" y="10.8">※</tspan><tspan class="cls-133" x="8.75" y="10.8">ア</tspan><tspan class="cls-78" x="16.91" y="10.8">ク</tspan><tspan class="cls-90" x="25.33" y="10.8">テ</tspan><tspan class="cls-80" x="33.38" y="10.8">ィ</tspan><tspan class="cls-128" x="40.67" y="10.8">ビ</tspan><tspan class="cls-90" x="49.17" y="10.8">テ</tspan><tspan class="cls-150" x="57.21" y="10.8">ィ</tspan><tspan x="65.01" y="10.8">内</tspan><tspan class="cls-50" x="74.01" y="10.8">容</tspan><tspan class="cls-127" x="82.76" y="10.8">に</tspan><tspan class="cls-146" x="91.34" y="10.8">よ</tspan><tspan class="cls-162" x="99.52" y="10.8">り</tspan><tspan x="107.85" y="10.8">枚</tspan><tspan class="cls-91" x="116.85" y="10.8">数が</tspan><tspan x="134.67" y="10.8">異</tspan><tspan class="cls-113" x="143.67" y="10.8">な</tspan><tspan class="cls-127" x="152.25" y="10.8">る</tspan><tspan x="160.83" y="10.8">場</tspan><tspan class="cls-91" x="169.83" y="10.8">合</tspan><tspan class="cls-113" x="178.74" y="10.8">がご</tspan><tspan class="cls-87" x="195.89" y="10.8">ざ</tspan><tspan class="cls-76" x="204.81" y="10.8">い</tspan><tspan class="cls-68" x="213.56" y="10.8">ま</tspan><tspan class="cls-144" x="222.06" y="10.8">す</tspan><tspan class="cls-103" x="230.97" y="10.8">。</tspan><tspan x="0" y="21.6" xml:space="preserve">  </tspan><tspan class="cls-50" x="5.99" y="21.6"> </tspan><tspan class="cls-128" x="8.74" y="21.6">ま</tspan><tspan class="cls-144" x="17.24" y="21.6">た</tspan><tspan class="cls-123" x="26.14" y="21.6">、</tspan><tspan class="cls-39" x="30.56" y="21.6">レ</tspan><tspan class="cls-79" x="38.15" y="21.6">ッ</tspan><tspan class="cls-53" x="45.98" y="21.6">ス</tspan><tspan class="cls-122" x="54.33" y="21.6">ン</tspan><tspan x="63.23" y="21.6">の様</tspan><tspan class="cls-102" x="81.23" y="21.6">子を</tspan><tspan x="98.9" y="21.6">撮影</tspan><tspan class="cls-91" x="116.9" y="21.6">い</tspan><tspan class="cls-78" x="125.81" y="21.6">た</tspan><tspan class="cls-104" x="134.24" y="21.6">し</tspan><tspan class="cls-128" x="142.8" y="21.6">ま</tspan><tspan class="cls-91" x="151.3" y="21.6">す</tspan><tspan x="160.21" y="21.6">ので</tspan><tspan class="cls-117" x="178.21" y="21.6">、</tspan><tspan x="183.29" y="21.6">集合写真</tspan><tspan class="cls-102" x="219.29" y="21.6">の</tspan><tspan class="cls-145" x="228.13" y="21.6">よ</tspan><tspan class="cls-128" x="236.64" y="21.6">う</tspan><tspan class="cls-93" x="245.13" y="21.6">な</tspan><tspan x="253.96" y="21.6">写真で</tspan><tspan class="cls-93" x="280.96" y="21.6">は</tspan><tspan class="cls-141" x="289.79" y="21.6">あ</tspan><tspan class="cls-73" x="298.13" y="21.6">り</tspan><tspan class="cls-127" x="306.21" y="21.6">ま</tspan><tspan class="cls-91" x="314.79" y="21.6">せん</tspan><tspan class="cls-103" x="332.61" y="21.6">。</tspan><tspan class="cls-136" x="0" y="32.4">※</tspan><tspan class="cls-93" x="8.67" y="32.4">ご</tspan><tspan x="17.5" y="32.4">参加</tspan><tspan class="cls-91" x="35.5" y="32.4">い</tspan><tspan class="cls-154" x="44.41" y="32.4">た</tspan><tspan class="cls-113" x="53.23" y="32.4">だ</tspan><tspan class="cls-163" x="61.8" y="32.4">く</tspan><tspan class="cls-135" x="69.97" y="32.4">全</tspan><tspan class="cls-93" x="78.8" y="32.4">日</tspan><tspan x="87.63" y="32.4">程のお写</tspan><tspan class="cls-102" x="123.63" y="32.4">真を</tspan><tspan x="141.31" y="32.4">1,100円</tspan><tspan class="cls-129" x="174.97" y="32.4">で</tspan><tspan class="cls-70" x="183.68" y="32.4">ダ</tspan><tspan class="cls-108" x="192.13" y="32.4">ウ</tspan><tspan class="cls-100" x="200.4" y="32.4">ン</tspan><tspan class="cls-91" x="209.21" y="32.4">ロ</tspan><tspan class="cls-39" x="218.12" y="32.4">ー</tspan><tspan class="cls-106" x="225.7" y="32.4">ド</tspan><tspan class="cls-154" x="233.79" y="32.4">し</tspan><tspan x="242.61" y="32.4">て</tspan><tspan class="cls-91" x="251.61" y="32.4">い</tspan><tspan class="cls-154" x="260.52" y="32.4">た</tspan><tspan class="cls-91" x="269.34" y="32.4">だ</tspan><tspan class="cls-50" x="278.25" y="32.4">け</tspan><tspan class="cls-128" x="287" y="32.4">ま</tspan><tspan class="cls-91" x="295.5" y="32.4">す</tspan><tspan class="cls-103" x="304.41" y="32.4">。</tspan><tspan x="0" y="43.2">※土</tspan><tspan class="cls-102" x="18" y="43.2">曜</tspan><tspan class="cls-93" x="26.84" y="43.2">日</tspan><tspan class="cls-50" x="35.67" y="43.2">のス</tspan><tspan class="cls-104" x="53.16" y="43.2">ペ</tspan><tspan class="cls-106" x="61.73" y="43.2">シ</tspan><tspan class="cls-63" x="69.82" y="43.2">ャ</tspan><tspan class="cls-91" x="77.99" y="43.2">ルデ</tspan><tspan x="95.81" y="43.2">ーのみ</tspan><tspan class="cls-117" x="122.81" y="43.2">、</tspan><tspan x="127.9" y="43.2">午後</tspan><tspan class="cls-134" x="145.9" y="43.2">の</tspan><tspan class="cls-2" x="154.58" y="43.2">プ</tspan><tspan class="cls-162" x="163.31" y="43.2">ロ</tspan><tspan class="cls-148" x="171.63" y="43.2">グ</tspan><tspan class="cls-4" x="179.96" y="43.2">ラ</tspan><tspan class="cls-91" x="188.52" y="43.2">ム</tspan><tspan x="197.43" y="43.2">のお写</tspan><tspan class="cls-91" x="224.43" y="43.2">真</tspan><tspan class="cls-119" x="233.34" y="43.2">が</tspan><tspan class="cls-70" x="241.97" y="43.2">ダ</tspan><tspan class="cls-38" x="250.42" y="43.2">ウ</tspan><tspan class="cls-83" x="258.69" y="43.2">ン</tspan><tspan class="cls-91" x="267.49" y="43.2">ロ</tspan><tspan class="cls-39" x="276.4" y="43.2">ー</tspan><tspan class="cls-113" x="283.99" y="43.2">ド</tspan><tspan class="cls-50" x="292.56" y="43.2">で</tspan><tspan class="cls-109" x="301.31" y="43.2">きま</tspan><tspan class="cls-91" x="318.3" y="43.2">す</tspan><tspan class="cls-103" x="327.21" y="43.2">。</tspan></text><text class="cls-7" transform="translate(39.99 778.87)"><tspan class="cls-111" x="0" y="0">フ</tspan><tspan class="cls-59" x="10.27" y="0">ォ</tspan><tspan class="cls-49" x="19.16" y="0">ト</tspan><tspan class="cls-88" x="30.6" y="0">サ</tspan><tspan class="cls-128" x="42.6" y="0">ー</tspan><tspan class="cls-132" x="53.93" y="0">ビ</tspan><tspan class="cls-3" x="65.14" y="0">ス</tspan></text><rect class="cls-55" x="144.38" y="739" width="435.83" height="68.71"/><text class="cls-7" transform="translate(12.8 550.37)"><tspan x="0" y="0">会員の方:幼児午</tspan><tspan class="cls-69" x="87.55" y="0">後</tspan><tspan class="cls-60" x="99.11" y="0">ご</tspan><tspan x="110.88" y="0">利用希望で15:0</tspan><tspan class="cls-64" x="196.43" y="0">0</tspan><tspan class="cls-112" x="203.54" y="0">よ</tspan><tspan class="cls-52" x="214.45" y="0">り</tspan><tspan class="cls-50" x="225.55" y="0">前</tspan><tspan class="cls-1" x="237.22" y="0">に</tspan><tspan class="cls-66" x="248.44" y="0">ご</tspan><tspan x="260.21" y="0">入</tspan><tspan class="cls-147" x="272.21" y="0">室</tspan><tspan class="cls-75" x="283.99" y="0">を</tspan><tspan class="cls-60" x="295.33" y="0">ご</tspan><tspan x="307.1" y="0">希望の場合</tspan><tspan class="cls-66" x="367.1" y="0">は</tspan><tspan class="cls-125" x="378.88" y="0">、</tspan><tspan x="0" y="14.4">13:3</tspan><tspan class="cls-81" x="25.55" y="14.4">0～</tspan><tspan x="44.76" y="14.4">18:3</tspan><tspan class="cls-140" x="70.31" y="14.4">0</tspan><tspan class="cls-161" x="77.15" y="14.4">コ</tspan><tspan class="cls-50" x="88.97" y="14.4">ー</tspan><tspan class="cls-128" x="100.63" y="14.4">ス</tspan><tspan class="cls-50" x="111.96" y="14.4">に</tspan><tspan x="123.62" y="14.4">てお申込</tspan><tspan class="cls-64" x="171.62" y="14.4">みを</tspan><tspan x="195.19" y="14.4">お願い</tspan><tspan class="cls-157" x="231.19" y="14.4">い</tspan><tspan class="cls-155" x="243.07" y="14.4">た</tspan><tspan class="cls-74" x="254.3" y="14.4">し</tspan><tspan class="cls-128" x="265.73" y="14.4">ま</tspan><tspan class="cls-157" x="277.06" y="14.4">す</tspan><tspan class="cls-103" x="288.94" y="14.4">。</tspan></text><g><g><path class="cls-40" d="m554.44,35.05c0-1.29,0-2.58,0-3.87,0-.63.35-1.18.91-1.4,1.05-.42,2.09.34,2.08,1.38,0,2.46,0,4.92,0,7.39,0,.48.04.95.18,1.41.13.44.33.84.71,1.13.31.23.66.36,1.03.42.57.09,1.14.09,1.71-.06.77-.2,1.24-.69,1.46-1.44.14-.49.19-.99.19-1.49,0-2.45,0-4.9,0-7.35,0-.7.43-1.25,1.04-1.45.93-.29,1.85.33,1.95,1.25.02.15.02.29.02.44,0,2.31,0,4.62,0,6.93,0,.86-.08,1.71-.33,2.54-.35,1.14-1.04,2-2.11,2.54-.63.32-1.29.49-1.99.57-.49.06-.98.09-1.47.07-.93-.03-1.84-.15-2.7-.52-1.21-.52-2.01-1.41-2.38-2.67-.16-.53-.24-1.06-.28-1.61-.08-1.08-.02-2.15-.04-3.23,0-.33,0-.66,0-1Z"/><path class="cls-40" d="m567.92,36.75c0-1.87,0-3.74,0-5.61,0-.75.49-1.32,1.18-1.47.13-.03.26-.04.4-.04,1.53,0,3.06,0,4.59,0,.87,0,1.72.15,2.51.55.67.34,1.21.83,1.56,1.5.22.42.35.87.43,1.34.04.26.05.52.05.78,0,.4.02.81-.01,1.2-.07.9-.3,1.74-.91,2.44-.32.37-.72.62-1.16.82-.57.26-1.18.4-1.81.46-.76.07-1.53.02-2.29.04-.38,0-.73.1-1.02.35-.37.32-.54.73-.54,1.21,0,.7,0,1.39,0,2.09,0,.6-.28,1.04-.8,1.31-.54.28-1.08.23-1.57-.13-.41-.3-.6-.72-.6-1.22,0-1.88,0-3.75,0-5.63Zm5.1-.46s0,0,0,0c.19,0,.38,0,.57,0,.21,0,.42-.02.63-.06.73-.16,1.23-.57,1.4-1.31.12-.49.11-.99,0-1.49-.11-.51-.41-.86-.88-1.08-.4-.18-.82-.22-1.25-.23-.34-.01-.68,0-1.01,0-.14,0-.28.01-.42.05-.71.17-1.15.71-1.17,1.44-.01.41-.01.82,0,1.22.02.78.56,1.38,1.32,1.46.26.03.54,0,.8,0Z"/><path class="cls-40" d="m523.54,36.02c.17-.27.33-.55.5-.82.62-1,1.29-1.97,1.97-2.93.23-.32.46-.64.69-.96.11-.16.27-.23.46-.21.37.05.53.44.32.76-.14.22-.3.42-.46.64-.88,1.24-1.74,2.5-2.53,3.8-.32.52-.61,1.06-.88,1.61-.08.16-.05.22.12.24.25.03.49.06.74.08.51.03,1,.17,1.5.29,1,.25,1.97.6,2.94.95.29.1.58.2.87.3.32.11.45.46.27.74-.11.17-.33.25-.54.18-.35-.12-.69-.25-1.04-.37-1.06-.37-2.11-.76-3.21-.99-.49-.1-.98-.16-1.47-.21-.05,0-.1-.02-.13,0,0,.17,0,.33,0,.48.01.35.02.7.04,1.05.04.62.06,1.24.08,1.87,0,.15.03.3.02.46-.01.22-.17.42-.37.46-.21.04-.45-.08-.55-.27-.03-.05-.04-.11-.04-.17-.01-.35-.02-.7-.04-1.05-.02-.4-.02-.8-.06-1.2-.01-.13,0-.25-.01-.38-.01-.33-.02-.66-.04-.99,0-.15-.04-.29-.03-.44,0-.06-.03-.09-.07-.12-.24-.18-.26-.42-.16-.68.02-.06.04-.12.07-.18.13-.21.11-.43.09-.66-.02-.14-.01-.28-.02-.42,0-.41-.05-.83-.05-1.24,0-.2-.04-.41-.03-.61.05-.81.01-1.62.05-2.43.02-.57.03-1.15.01-1.72-.01-.5-.02-1-.09-1.5-.02-.14-.02-.28.07-.4.13-.18.3-.25.51-.2.21.05.34.19.37.41.04.39.06.77.08,1.16.04.59.03,1.19.02,1.78-.02.72-.02,1.44-.04,2.16-.01.33-.01.66-.02.99,0,.25.05.49.06.75Z"/><path class="cls-40" d="m541.21,37.12s.01-.08.01-.13c0-1.33,0-2.67.02-4,.02-1,.03-2,.03-3,0-.34-.03-.67-.07-1.01,0-.07-.01-.14-.01-.21,0-.25.2-.44.45-.46.23-.02.46.16.5.4.02.12.03.24.04.36.04.78.08,1.56.04,2.35,0,0,0,.01,0,.02.02.63-.03,1.26-.03,1.89,0,.94.01,1.89-.01,2.83-.02.69-.01,1.39-.04,2.08-.02.47-.01.94-.04,1.41-.02.41-.02.81-.04,1.22-.02.36-.01.71-.04,1.07-.03.45-.01.89-.02,1.34,0,.29-.15.47-.39.52-.27.06-.56-.15-.56-.43,0-.22-.02-.44.02-.67.02-.16,0-.32,0-.48-.06-.04-.11,0-.16.03-.38.14-.78.21-1.18.2-.98-.03-1.9-.27-2.67-.92-.63-.53-.98-1.22-1.05-2.05-.05-.58.03-1.14.25-1.68.3-.71.78-1.26,1.49-1.56.75-.32,1.51-.25,2.24.09.39.18.74.42,1.07.7.03.03.07.06.1.08,0,0,.02,0,.04,0Zm-1.48,4.38c.47,0,.89-.12,1.29-.35.07-.04.08-.08.08-.15.01-.36.01-.71.03-1.07.02-.37.01-.75.02-1.13,0-.07,0-.14.02-.21.03-.07,0-.12-.05-.17-.21-.23-.42-.46-.66-.66-.45-.38-.94-.69-1.55-.75-.46-.04-.87.07-1.21.39-.41.38-.64.84-.72,1.39-.13.91.19,1.62.92,2.15.54.39,1.18.52,1.84.55Z"/><path class="cls-40" d="m547.35,41.49c0-.54-.17-1.04-.39-1.52-.39-.82-.91-1.55-1.44-2.27-.43-.58-.86-1.17-1.22-1.8-.28-.49-.5-1-.56-1.57-.04-.38-.04-.77,0-1.15.03-.39.1-.78.21-1.16.24-.78.65-1.44,1.36-1.88.88-.55,1.79-.56,2.7-.06.77.42,1.26,1.1,1.57,1.9.03.08.06.17.09.25.1.26-.11.55-.33.6-.25.07-.5-.05-.6-.31-.09-.25-.18-.49-.32-.71-.23-.4-.54-.72-.97-.92-.66-.32-1.27-.24-1.84.21-.47.37-.69.89-.81,1.45-.07.35-.11.7-.14,1.06-.06.69.15,1.3.5,1.88.35.58.75,1.12,1.15,1.67.54.74,1.07,1.49,1.48,2.32.2.42.38.85.47,1.31.09.5.09,1-.03,1.5-.15.61-.52,1.06-1.06,1.39-.29.17-.6.29-.93.32-.47.04-.87-.13-1.22-.44-.38-.34-.61-.78-.79-1.25-.14-.36-.23-.74-.3-1.12-.03-.16-.04-.32.05-.46.1-.15.23-.23.41-.22.19,0,.33.09.42.26.07.13.07.27.1.41.1.48.23.94.49,1.36.08.13.17.24.28.34.19.17.4.21.64.15.56-.14.95-.59,1.02-1.16.01-.11.03-.23.03-.34Z"/><path class="cls-40" d="m533.11,42.42c0-.32.01-.64,0-.96-.04-.93-.01-1.86-.04-2.79-.02-.5-.01-1.01-.04-1.51-.02-.4-.02-.8-.04-1.2-.02-.31-.01-.61-.04-.91-.04-.56-.05-1.13-.09-1.69-.02-.32-.04-.63-.06-.95-.04-.55-.07-1.1-.13-1.65-.02-.13-.04-.27.02-.4.09-.2.3-.32.51-.29.21.03.37.18.41.4.02.11.03.23.04.34.02.44.07.87.09,1.31.04.64.08,1.28.11,1.92.03.6.05,1.19.08,1.79.02.39.02.78.04,1.16.03.53.02,1.07.04,1.6.04.85.02,1.71.04,2.56.01.75.03,1.5.03,2.25,0,.12-.02.23-.08.33-.14.22-.34.26-.55.21-.19-.04-.33-.24-.33-.44,0-.36,0-.73,0-1.09Z"/><path class="cls-40" d="m533.51,27.89s.03-.09.03-.14c0-.13-.01-.26.04-.38.03-.07-.02-.1-.07-.13-.06-.03-.08,0-.1.05-.05.1-.17.15-.21.26-.02.05-.08.06-.13.04-.09-.03-.17-.06-.22-.14-.06-.1-.11-.19-.14-.31-.05-.18,0-.31.14-.41.15-.11.27-.24.44-.32.12-.06.21-.19.29-.32.13-.2.24-.23.44-.1.26.16.41.41.53.68.12.28.17.57.15.87-.02.24-.12.45-.26.65-.06.08-.14.13-.24.14-.15.02-.29.09-.41.19-.14.11-.29.22-.48.21-.17,0-.25-.09-.26-.26,0-.15.02-.28.13-.38,0,0,.02-.02.03-.03.06-.14.17-.2.31-.18Z"/><path class="cls-40" d="m532.41,28.59c.24.19.56.31,1.11.4-.45.14-.87.08-1.27-.12-.26-.13-.4-.39-.54-.63-.07-.12-.13-.25-.13-.41,0-.14-.07-.28-.06-.43.01-.19.09-.22.27-.18.34.09.56.34.8.56.08.07.13.15.18.25.02.04.04.08.07.11.11.12.1.27-.04.36-.07.05-.15.06-.24.07-.05,0-.1-.02-.15.02Z"/><path class="cls-40" d="m533.18,25.75s.09,0,.15,0c.13.01.16.05.13.17-.02.1-.11.18-.2.16-.05-.01-.11-.04-.15-.07-.07-.04-.12-.04-.17.02-.14.17-.33.31-.42.54-.09.22-.31.33-.5.46-.11.07-.2-.01-.29-.08-.08-.07-.09-.14-.05-.24.26-.62.96-.99,1.49-.95Z"/></g><g><ellipse class="cls-40" cx="495.5" cy="35.23" rx="17.68" ry="16.88"/><g><g><path class="cls-149" d="m478.73,35.24c0,8.79,7.52,15.91,16.8,15.9l-.02-31.83c-9.27,0-16.78,7.13-16.78,15.92Z"/><path class="cls-107" d="m512.27,35.22c0-8.79-7.52-15.91-16.8-15.9l.02,31.83c9.27,0,16.78-7.13,16.78-15.92Z"/></g><path class="cls-40" d="m510.48,35.22s-.12.01-.34.03c-.22.02-.54.05-.95.08-.41.03-.91.07-1.48.11-.57.04-1.22.08-1.92.11-.7.04-1.46.08-2.27.1-.81.03-1.66.06-2.53.08-.88.02-1.79.04-2.71.05-.92.01-1.86.02-2.8.02-.94,0-1.88,0-2.8-.02-.92,0-1.83-.03-2.71-.05-.88-.02-1.73-.05-2.53-.08-.81-.02-1.57-.06-2.27-.1-.7-.03-1.35-.07-1.92-.11-.57-.03-1.07-.07-1.48-.11-.41-.03-.73-.06-.95-.08-.22-.02-.34-.03-.34-.03,0,0,.12-.01.34-.03.22-.02.54-.05.95-.08.41-.03.91-.07,1.48-.11.57-.04,1.22-.08,1.92-.11.7-.04,1.46-.08,2.27-.1.81-.03,1.66-.06,2.53-.08.88-.02,1.79-.04,2.71-.05.92-.01,1.86-.02,2.8-.02.94,0,1.88,0,2.8.02.92,0,1.83.03,2.71.05.88.02,1.73.05,2.53.08.81.02,1.57.06,2.27.1.7.03,1.35.07,1.92.11.57.03,1.07.07,1.48.11.41.03.73.06.95.08.22.02.34.03.34.03Z"/><path class="cls-40" d="m506.56,25.12s-.07.05-.21.15c-.14.1-.34.24-.61.42-.27.17-.61.35-1,.57-.05.03-.1.05-.15.08-.05.02-.1.05-.16.07-.11.05-.22.1-.33.15-.23.1-.47.21-.72.32-.26.09-.53.19-.8.29-.07.03-.14.05-.21.08l-.11.04-.12.04c-.14.04-.29.08-.44.13-.3.08-.6.17-.92.25-.32.08-.66.13-1,.2-.68.15-1.39.22-2.11.3-.36.05-.72.06-1.09.07-.37.01-.74.03-1.12.04-.36-.01-.72-.03-1.08-.04-.36-.01-.71-.02-1.08-.07-.73-.08-1.44-.15-2.11-.3-.34-.07-.67-.12-.99-.2-.32-.09-.63-.17-.94-.26-.15-.04-.3-.08-.45-.13l-.06-.02h-.03s-.03-.01-.03-.01h-.01s-.11-.04-.11-.04c-.07-.02-.14-.05-.21-.07-.27-.1-.54-.2-.79-.29-.25-.1-.5-.22-.73-.32-.11-.05-.23-.1-.33-.15-.05-.02-.11-.05-.16-.07-.05-.03-.1-.05-.15-.08-.39-.22-.73-.4-1-.57-.27-.18-.47-.32-.61-.42-.14-.1-.21-.15-.21-.15,0,0,.09.03.24.09.16.06.39.15.68.27.14.06.31.11.49.17.18.06.37.12.58.19.2.08.43.12.66.19.23.06.47.14.73.2.26.06.54.12.82.19.07.02.14.03.21.05l.11.03.1.02c.15.02.29.05.44.08.3.05.61.11.92.17.32.05.64.08.97.12.16.02.33.04.5.06.08.01.17.02.25.03l.25.02c.34.02.68.05,1.02.08.34.04.7.03,1.06.04.36,0,.72.02,1.08.03.35,0,.69-.02,1.04-.03.35-.01.7,0,1.05-.04.35-.03.69-.05,1.03-.08l.25-.02c.08,0,.17-.02.25-.03.16-.02.33-.04.49-.06.33-.04.64-.08.96-.12.32-.06.63-.12.94-.17.15-.03.3-.05.45-.08l.1-.02.11-.03c.07-.02.14-.03.21-.05.28-.06.55-.13.81-.18.26-.06.5-.14.74-.2.23-.07.46-.12.66-.19.21-.07.4-.13.57-.19.18-.06.35-.1.49-.17.29-.12.53-.21.68-.27.16-.06.24-.09.24-.09Z"/><path class="cls-40" d="m495.49,50.23s-.01-.12-.03-.34c-.02-.22-.05-.54-.08-.95-.03-.41-.07-.91-.11-1.48-.04-.57-.08-1.22-.11-1.92-.04-.7-.08-1.46-.1-2.27-.03-.81-.06-1.66-.08-2.53-.02-.88-.04-1.79-.05-2.71-.01-.92-.02-1.86-.02-2.8,0-.94,0-1.88.02-2.8,0-.92.03-1.83.05-2.71.02-.88.05-1.73.08-2.53.02-.81.06-1.57.1-2.27.03-.7.07-1.35.11-1.92.03-.57.07-1.07.11-1.48.03-.41.06-.73.08-.95.02-.22.03-.34.03-.34,0,0,.01.12.03.34.02.22.05.54.08.95.03.41.07.91.11,1.48.04.57.08,1.22.11,1.92.04.7.08,1.46.1,2.27.03.81.06,1.66.08,2.53.02.88.04,1.79.05,2.71.01.92.02,1.86.02,2.8,0,.94,0,1.88-.02,2.8,0,.92-.03,1.83-.05,2.71-.02.88-.05,1.73-.08,2.53-.02.81-.06,1.57-.1,2.27-.03.7-.07,1.35-.11,1.92-.03.57-.07,1.07-.11,1.48-.03.41-.06.73-.08.95-.02.22-.03.34-.03.34Z"/><path class="cls-40" d="m495.48,20.23s-.18.02-.53.05c-.09,0-.18.02-.29.02-.1.01-.22.03-.34.05-.12.02-.26.04-.4.06-.14.02-.29.05-.45.08-.63.11-1.38.3-2.22.59-.84.29-1.75.69-2.69,1.23-.93.54-1.88,1.23-2.79,2.07-.44.43-.88.88-1.29,1.38l-.16.19-.15.19c-.1.13-.2.25-.29.38-.19.27-.38.54-.56.82-.72,1.12-1.28,2.39-1.68,3.73-.19.67-.35,1.36-.45,2.06-.09.7-.14,1.41-.14,2.12v.54c.01.19.03.35.04.53.02.34.07.7.11,1.05.1.7.26,1.39.45,2.05.4,1.33.96,2.6,1.68,3.73.17.28.37.55.56.82.1.13.2.26.3.39.1.13.2.26.3.38.1.12.21.26.3.36.11.12.22.24.33.36.11.12.22.23.33.34.11.11.22.21.33.32.9.83,1.85,1.52,2.79,2.06.94.54,1.85.94,2.69,1.23.84.28,1.59.48,2.22.58.16.03.31.06.45.08.14.02.27.04.4.05.12.02.24.03.34.05.11,0,.2.02.29.02.34.03.53.05.53.05,0,0-.18,0-.53.02-.09,0-.18,0-.29,0-.11,0-.22,0-.35,0-.13,0-.26,0-.41,0-.14,0-.3-.02-.46-.04-.65-.05-1.43-.16-2.32-.39-.88-.22-1.87-.56-2.88-1.06-1.01-.5-2.06-1.16-3.05-2.01-.12-.11-.25-.22-.37-.33-.12-.11-.25-.23-.36-.34-.12-.11-.23-.23-.35-.35-.13-.13-.23-.25-.35-.38-.46-.51-.89-1.06-1.29-1.66-.4-.59-.77-1.22-1.08-1.89-.32-.66-.6-1.36-.82-2.08-.22-.72-.39-1.46-.51-2.21-.05-.38-.1-.75-.13-1.14-.01-.19-.03-.39-.03-.57l-.02-.57c0-.76.07-1.53.18-2.28.11-.75.29-1.49.5-2.21.21-.72.5-1.41.82-2.08.32-.67.69-1.29,1.08-1.89.2-.3.41-.58.62-.86.11-.14.22-.28.33-.41l.17-.2.17-.18c.45-.51.95-.97,1.43-1.4.99-.85,2.04-1.51,3.05-2.01,1.01-.51,1.99-.84,2.88-1.07.88-.23,1.67-.34,2.32-.39.16-.01.31-.03.46-.04.14,0,.28,0,.41,0,.13,0,.24,0,.35,0,.11,0,.2,0,.29,0,.35.01.53.02.53.02Z"/><path class="cls-40" d="m495.49,50.23s.14-.02.41-.06c.03,0,.07,0,.11-.01.04,0,.07-.02.11-.03.08-.02.17-.04.26-.07.09-.02.19-.06.29-.1.1-.04.21-.08.33-.13.45-.2.96-.53,1.47-.98.51-.45,1.01-1.04,1.48-1.74.46-.7.88-1.52,1.26-2.41.09-.23.18-.45.27-.69.08-.23.17-.48.24-.71.08-.25.15-.5.23-.76.07-.25.13-.5.2-.75.25-1.02.44-2.11.57-3.21.05-.55.11-1.11.14-1.68.01-.28.04-.56.04-.85v-.84c0-1.17-.06-2.26-.18-3.38-.13-1.11-.33-2.18-.58-3.21-.07-.26-.13-.51-.2-.76-.07-.25-.15-.49-.22-.74l-.02-.08-.03-.09-.06-.18c-.04-.12-.08-.24-.13-.36-.08-.24-.18-.46-.26-.68-.37-.89-.79-1.71-1.26-2.41-.47-.7-.97-1.29-1.48-1.74-.51-.45-1.02-.77-1.47-.98-.11-.05-.22-.09-.33-.13-.1-.04-.2-.08-.29-.1-.09-.02-.18-.05-.26-.07-.04-.01-.08-.02-.11-.03-.04,0-.07-.01-.11-.01-.27-.04-.41-.06-.41-.06,0,0,.15,0,.42,0,.27,0,.68.04,1.18.18.5.15,1.08.42,1.67.84.59.42,1.19.99,1.74,1.7.55.7,1.07,1.52,1.51,2.45.11.23.23.47.32.71.05.12.1.24.15.36l.07.18.04.09.04.1c.09.25.18.51.27.76.09.26.16.52.24.79.08.26.15.54.22.81.03.14.07.27.1.41.03.14.06.28.09.42.05.28.12.56.16.84.04.28.09.57.13.86.15,1.14.23,2.36.24,3.5l-.02.9c0,.29-.03.59-.04.88-.03.59-.1,1.17-.17,1.74-.04.29-.09.57-.13.86-.04.28-.11.56-.16.84-.03.14-.05.28-.09.42-.03.14-.07.27-.1.41-.07.27-.13.54-.22.81.09.38-.05.55-.13.81-.09.25-.18.51-.27.75-.1.27-.15.48-.31.76-.1.24-.26.57-.36.8-.44.92-.68,1.47-1.23,2.17-.55.7-1.48,1.41-2.07,1.83-.59.43-1.17.69-1.67.85-.5.14-.91.18-1.18.19-.27,0-.42,0-.42,0Z"/><path class="cls-40" d="m495.48,20.23s-.14.02-.41.06c-.03,0-.07,0-.11.02-.04,0-.07.02-.11.03-.08.02-.17.04-.26.07-.09.02-.19.06-.29.1-.1.04-.21.08-.33.13-.45.2-.96.53-1.47.98-.51.45-1.01,1.04-1.48,1.74-.46.7-.88,1.52-1.26,2.41-.09.23-.18.45-.27.69-.08.23-.17.48-.24.71-.08.25-.15.5-.23.76-.07.25-.13.5-.2.76-.23.95-.24,2.18-.52,3.18-.05.16-.07.33-.07.5,0,1.06-.17,1.85-.17,2.9,0,1.15.07,2.26.19,3.37.13,1.11.33,2.18.58,3.21.07.26.13.51.2.76.08.25.15.49.22.74l.02.08.03.09.06.18c.04.12.08.24.13.36.08.24.18.46.26.68.37.89,1.64,1.29,2.11,1.99.47.7.12,1.7.63,2.15.51.45,1.02.77,1.47.98.11.05.22.09.33.13.1.04.2.08.29.1.09.02.18.05.26.07.04.01.08.02.11.03.04,0,.07.01.11.01.27.04.41.06.41.06,0,0-.15,0-.42,0-.27,0-.68-.04-1.18-.18-.5-.15-1.08-.42-1.67-.84-.59-.42-1.19-.99-1.74-1.7-.55-.7-1.07-1.52-1.51-2.45-.11-.23-.22-.47-.32-.71-.05-.12-.1-.24-.15-.36l-.07-.18-.04-.09-.04-.1c-.09-.25-.18-.51-.27-.76-.09-.26-.16-.52-.24-.79-.09-.26-.15-.54-.22-.81-.03-.14-.07-.27-.1-.41-.03-.14-.06-.28-.09-.42-.05-.28-.12-.56-.16-.84-.04-.28-.09-.57-.13-.86-.15-1.15-.23-2.35-.24-3.51.01-1.18.08-2.36.23-3.51.04-.29.09-.57.13-.86.04-.28.11-.56.16-.84.03-.14.05-.28.09-.42.03-.14.07-.27.1-.41.07-.27.13-.54.22-.81.08-.27.16-.54.24-.79.09-.25.18-.5.27-.74.1-.27.2-.5.3-.74.1-.24.22-.47.32-.7.44-.92.95-1.74,1.51-2.45.55-.7,1.15-1.28,1.74-1.7.59-.43,1.17-.69,1.67-.85.5-.14.91-.18,1.18-.19.27,0,.42,0,.42,0Z"/><path class="cls-40" d="m496.01,50.25s-.04-.06,0-.07c0,0,0,0,.01,0,.09,0,.18-.02.29-.02h0c.1-.02.22-.03.34-.05.12-.02.26-.04.4-.06.14-.02.29-.05.45-.08.63-.11,1.38-.3,2.22-.59.84-.29,1.75-.69,2.69-1.23.93-.54,1.88-1.23,2.78-2.07.44-.43.88-.88,1.29-1.38l.16-.19.15-.19c.1-.13.2-.25.29-.38.19-.27.38-.54.56-.82.72-1.12,1.28-2.39,1.68-3.73.19-.67.35-1.36.45-2.06.04-.35.09-.7.11-1.05.01-.18.03-.35.03-.53v-.52c0-.76-.04-1.42-.14-2.13-.1-.7-.26-1.39-.45-2.06-.4-1.33-.96-2.6-1.68-3.73-.17-.28-.37-.55-.56-.82-.1-.13-.2-.26-.3-.39-.1-.13-.2-.26-.3-.38-.1-.12-.21-.26-.3-.36-.11-.12-.22-.24-.33-.36-.11-.12-.22-.23-.33-.34-.11-.11-.22-.21-.33-.32-.9-.83-1.77-1.62-2.79-2.06,0,0,0,0,0,0-.94-.54-1.85-.94-2.69-1.22-.84-.28-1.59-.48-2.22-.58-.16-.03-.31-.06-.45-.08-.14-.02-.27-.04-.4-.05-.12-.02-.24-.03-.34-.05h0c-.1,0-.2-.02-.29-.02,0,0,0,0-.01,0-.04,0-.04-.06,0-.07,0,0,0,0,.01,0,.09,0,.18,0,.29,0,0,0,0,0,0,0,.11,0,.22,0,.35,0,.13,0,.26,0,.41,0,.14,0,.3.02.46.04.65.05,1.43.16,2.32.39.88.22,2.67.79,3.68,1.3,0,0,0,0,0,0,1.02.66,1.25.92,2.24,1.77.12.11.25.22.37.33.12.11.25.23.36.34.12.11.23.23.35.35.13.13.23.25.35.38.46.51.89,1.06,1.29,1.66.4.59.77,1.22,1.08,1.89.32.66.6,1.36.82,2.08.22.72.49,1.34.6,2.09.11.74.08,1.67.08,2.39l-.02.59c0,.19-.02.38-.03.57-.02.38-.08.76-.13,1.14-.11.75-.29,1.49-.5,2.21-.21.72-.45,1.69-.77,2.36-.32.67-.74,1.01-1.13,1.61-.19.3-.41.58-.62.86-.11.14-.22.28-.33.41l-.17.2-.17.18c-.45.51-.95.97-1.43,1.4-.99.85-2.04,1.51-3.05,2.01-1.01.51-1.99.84-2.88,1.07-.88.23-1.67.34-2.32.39-.16.01-.31.03-.46.04-.14,0-.28,0-.41,0-.13,0-.24,0-.35,0-.11,0-.2,0-.29,0,0,0,0,0-.01,0Z"/><path class="cls-40" d="m484.41,45.35s.07-.05.21-.15c.14-.1.34-.24.61-.42.27-.17.61-.35,1-.57.05-.03.1-.05.15-.08.05-.02.11-.05.16-.07.11-.05.22-.1.33-.15.23-.1.47-.21.72-.32.26-.09.53-.19.81-.29.07-.03.14-.05.21-.08l.11-.04.12-.03c.14-.04.29-.08.44-.13.3-.08.6-.17.92-.25.32-.08.66-.13,1-.2.68-.15,1.39-.22,2.11-.3.36-.05.72-.06,1.09-.07.37-.01.73-.03,1.1-.04.37.01.73.03,1.1.04.36.01.71.02,1.08.07.73.08,1.44.15,2.11.29.34.07.67.12.99.2.32.09.63.17.94.26.15.04.3.08.45.13l.06.02h.03s.03.01.03.01h.01s.11.04.11.04c.07.03.14.05.21.07.27.1.54.2.79.29.25.1.5.22.73.32.11.05.23.1.33.15.05.02.11.05.16.07.05.03.1.05.15.08.39.22.73.4,1,.57.27.18.47.32.61.42.14.1.21.15.21.15,0,0-.09-.03-.24-.09-.16-.06-.39-.15-.68-.27-.14-.06-.31-.11-.49-.17-.18-.06-.37-.12-.58-.19-.2-.08-.43-.12-.66-.19-.23-.06-.47-.14-.73-.2-.26-.06-.54-.12-.82-.19-.07-.02-.14-.03-.21-.05l-.11-.03-.1-.02c-.15-.02-.29-.05-.44-.08-.3-.05-.6-.11-.92-.17-.32-.05-.64-.08-.97-.12-.16-.02-.33-.04-.5-.06-.08-.01-.17-.02-.25-.03l-.25-.02c-.34-.02-.68-.05-1.02-.08-.34-.04-.7-.03-1.06-.04-.35,0-.71-.02-1.06-.03-.35,0-.7.02-1.06.03-.35.01-.7,0-1.05.04-.35.03-.69.05-1.03.08l-.25.02c-.08,0-.17.02-.25.03-.16.02-.33.04-.49.06-.33.04-.64.08-.96.12-.32.06-.63.11-.94.17-.15.03-.3.05-.45.08l-.1.02-.11.03c-.07.02-.14.03-.21.05-.28.06-.55.13-.81.18-.26.06-.5.14-.74.2-.23.07-.46.12-.66.19-.2.07-.4.13-.57.19-.18.06-.35.1-.49.17-.29.12-.53.21-.68.27-.16.06-.24.09-.24.09Z"/><g><path class="cls-40" d="m501.25,25.31s.08-.07.11-.1l.1-.09s-.08-.07-.12-.09c-.08-.04-.18-.09-.29-.1-.1-.01-.19,0-.28.04-.11-.14-.31-.32-.67-.37-.04,0-.08,0-.11-.01-.65-.06-1.22.22-1.58.74-.71.39-1.03,1.27-.94,1.92.08.56.28,1.6.73,2.3.33.52.52.91.45,1.28-.04,0-.06-.03-.08-.06,0,0-.02-.01-.03-.01l-.11.02s-.03,0-.04-.02c-.02-.03-.03-.05-.05-.07,0,0,0-.02,0-.03-.01-.1,0-.24.11-.34l-.08-.15c-.2.06-.51.25-.55.54l-.02-.05c-.23.05-.65.35-.52.77.13.41.56.69.89.73.08.01.15,0,.21,0,.05,0,.12-.02.18-.04.13.04.25.05.36.03.27-.05.89-.16,1.11-.81.09-.16.14-.34.15-.54,0-.07,0-.15-.02-.23.02-.09.04-.18.04-.27,0-.34-.14-.7-.32-1.1-.22-.5-.47-1.07-.5-1.8,0-.05,0-.11.01-.16.07-.31.34-1.36.67-1.54-.11.15-.14.3.07.53.02.02.03.04.05.05l.3-.27c.24-.25.49-.44.75-.68Zm-3.3,5.91s-.08.01-.14-.15c0-.01,0-.02,0-.03v-.09c-.01-.06.02-.19.04-.22,0,.01.03.16.03.17,0,.03,0,.05.03.09.03.03.06.22.05.23Z"/><path class="cls-42" d="m508.8,33.6c-.24-.11-.94.11-1.01.17-.2.2-.33.53-.31.66.03.25-.26.47-1.31.9-.51.2-.67-.06-.79-.47-.3-1.07-.21-1.12-1.05-1.92-.48-.45-.64-.6-.35-.73.03-.01.06-.02.09-.01.4.04,1.11-.1,1.6-.46.02-.01.04-.03.07-.06.1-.08.24-.19.29-.23,0,0,0,0,0,0,1.49-1.3.51-1.91.65-3.5,0-.09.1-.14.11-.27l.08-.4c.03-.32-.02-.49-.07-.61-.61-1.53-1.97-1.9-3.46-1.87-1.39.03-2.07.16-3.15,1.47,0,0,0,0,0,.01-.42.6-.77,1.49-.78,2.18,0,0,.01.6.06.9,0,0,0,0,0,.01,0,.04.02.08.02.12,0,0,0,0,0,.01.1.47.14.7.46,1.16.04.06.13.15.18.2.32.27.53.62,1.1.99.19.12.39.22.58.3.16.06.14.3-.02.34-1.63.4-4.73,1.22-4.92,2.38-.18,1.08-1.76.62-1.44,2.81.09.58.61.52,1.08.29,1.07-.52.64-.59.63-1.31-.04-1.31,1.83-2.12,3.07-2.37.14-.03.26.12.2.25-.26.57.13,2.17-.87,3.44-1.34,1.71-3.09,1.34-2.64,1.59.55.3,1.76,1.95.3,2.11-1.02.1-.8-1.46-1.38-1.74-.37-.18-1.36,1.07-1.48,1.87-.1.69-.01,1.08.1,1.27.02.04.16.24.2.25.41.09.71-.63.88-1.19.05-.15.25-.17.32-.03.58,1.07,1.39,1.87,2.43.46.26-.36,1.2-.81,1.63-.48.85.67,3.3,1.02,4.33.21.09-.07.21-.04.26.06.14.26.39.74.65,1.25.4.76.03,1.78.5,2.05.16.09,1.05.05,1.69-.3,2.62-1.44.56-2.2-.56-1.51-.12.07-.28-.02-.27-.16.03-.47.05-1.24-.05-1.72-.16-.72-1.07-1.24-.69-1.39.38-.15.85-.52.5-.65-.36-.12-2.18-1.26-2.27-2.2-.07-.69.3-1.56.5-1.97.05-.11.2-.13.29-.04,1.1,1.17,2,1.11,2.94-.36.02-.04.06-.07.11-.08.21-.05.86-.24,1.12-.82.17-.37.12-.73-.15-.84Z"/><path class="cls-42" d="m491.12,39.04c1.52,1.03,1.23,3.16,1.45,4.97.02.16.67-.39,1.64.24.6.39-3.66,1.89-3.51.85.3-2.04-.29-4.77-2.57-5.52-.05-.02-.1.01-.11.06-.52,2.04-2.48,3.13-4.44,2.39-.95-.35-1.51-1.45-1.76-1.39-.11.03-.55.82-.65,1.22-.09.39-.72.8-.65-.66.04-.85.34-2,.72-2.53.85-1.19.97.19,1.52,1.01.36.55,1.38.97,1.94.76.83-.31,1.47-1.38,1.47-1.73s-.16-.74.46-2.04c.42-.88.31-1.71.5-1.95.05-.06,0-.15-.08-.14-.55.09-1.98.36-2.49.83-.64.57-.43.28-.81.14-.69-.28-.48,1.94-1.79.77-.99-.89.32-1.9.94-1.89.2,0,.73-.13.9-.42.76-1.3,3.33-.99,4.53-1.47.33-.13.62-.38.76-.51.04-.04.04-.1-.01-.13-.04-.02-.07-.05-.11-.07,0,0-.02,0-.03-.01-1.04-.26-1.13-.26-1.7-.77-.07-.06-.11.47-.34.25-.01-.01-.55-.37-.66-1.35-.07-.7-.33-1.8.06-3.01.44-1.36,1.63-2.62,3.39-2.95.07-.01.12.05.1.11,0,.02,0,.03-.01.05-.02.08.08.14.14.08.4-.37.84-.61,1.39-.62.07,0,.08.23.03.28-.07.08-.1.18-.08.29.01.09.1.04.17-.02.18-.15.53-.05.9-.1.14-.02.11.1.05.15,0,0,0,0,0,0-.05.05-.09.11-.02.12,1.21.11.18,1.11,2.14.94.6-.05.49.94-.52,1.53-.03.02-.05.03-.06.06-.32,1.09.23,2.33-.05,3.29-.46,1.55-1.85,1.85-3.12,1.9-.09,0-.11.12-.04.16,1.2.67.59,1.65,1.88,2.9.4.38.96.78,1.83,1.21.48.24.28.63.54.39,1.92-1.72,2.36,2.01.67,1.25-.28-.13-.56-.28-.79-.21-1.29.44-1.13.47-2.61-.43-.35-.21-.95-.77-1.02-1.14-.19-.97-.8,1.88-.06,2.87h0Z"/></g></g></g></g><text class="cls-7" transform="translate(12.8 330.91)"><tspan x="0" y="0">※申込み回</tspan><tspan class="cls-50" x="60" y="0">数に</tspan><tspan class="cls-97" x="83.33" y="0">限</tspan><tspan class="cls-151" x="94.78" y="0">ら</tspan><tspan class="cls-157" x="106.32" y="0">ず</tspan><tspan x="118.2" y="0">初め</tspan><tspan class="cls-74" x="142.2" y="0">て</tspan><tspan class="cls-166" x="153.62" y="0">シ</tspan><tspan class="cls-50" x="165.53" y="0">ー</tspan><tspan class="cls-66" x="177.19" y="0">ズ</tspan><tspan class="cls-157" x="188.96" y="0">ナ</tspan><tspan class="cls-50" x="200.84" y="0">ル</tspan><tspan class="cls-71" x="212.51" y="0">ス</tspan><tspan class="cls-97" x="223.39" y="0">ク</tspan><tspan x="234.84" y="0">ールお申込みの方</tspan><tspan class="cls-60" x="330.84" y="0">は</tspan><tspan x="342.61" y="0">帽子の購</tspan><tspan class="cls-130" x="390.61" y="0">入が</tspan><tspan x="414.37" y="0">必</tspan><tspan class="cls-51" x="426.37" y="0">要と</tspan><tspan class="cls-165" x="449.49" y="0">な</tspan><tspan class="cls-131" x="460.38" y="0">り</tspan><tspan class="cls-128" x="471.15" y="0">ま</tspan><tspan class="cls-157" x="482.47" y="0">す</tspan><tspan class="cls-103" x="494.35" y="0">。</tspan><tspan x="0" y="14.4">※以</tspan><tspan class="cls-74" x="24" y="14.4">前</tspan><tspan class="cls-166" x="35.42" y="14.4">シ</tspan><tspan class="cls-50" x="47.33" y="14.4">ー</tspan><tspan class="cls-66" x="58.99" y="14.4">ズ</tspan><tspan class="cls-157" x="70.76" y="14.4">ナ</tspan><tspan class="cls-50" x="82.64" y="14.4">ル</tspan><tspan class="cls-71" x="94.31" y="14.4">ス</tspan><tspan class="cls-97" x="105.19" y="14.4">ク</tspan><tspan x="116.64" y="14.4">ー</tspan><tspan class="cls-50" x="128.64" y="14.4">ル</tspan><tspan class="cls-1" x="140.3" y="14.4">に</tspan><tspan class="cls-60" x="151.52" y="14.4">ご</tspan><tspan x="163.3" y="14.4">参</tspan><tspan class="cls-50" x="175.3" y="14.4">加</tspan><tspan class="cls-99" x="186.96" y="14.4">さ</tspan><tspan class="cls-157" x="198.85" y="14.4">れ</tspan><tspan class="cls-138" x="210.73" y="14.4">た</tspan><tspan class="cls-60" x="222.17" y="14.4">ご</tspan><tspan x="233.94" y="14.4">本人のみ</tspan><tspan class="cls-116" x="281.94" y="14.4">、</tspan><tspan x="288.72" y="14.4">非会</tspan><tspan class="cls-71" x="312.72" y="14.4">員</tspan><tspan class="cls-153" x="323.6" y="14.4">リ</tspan><tspan class="cls-64" x="333.83" y="14.4">ピ</tspan><tspan class="cls-118" x="345.61" y="14.4">ー</tspan><tspan class="cls-119" x="357.23" y="14.4">タ</tspan><tspan x="368.72" y="14.4">ー割</tspan><tspan class="cls-130" x="392.72" y="14.4">引が</tspan><tspan x="416.49" y="14.4">適</tspan><tspan class="cls-51" x="428.49" y="14.4">用と</tspan><tspan class="cls-165" x="451.6" y="14.4">な</tspan><tspan class="cls-46" x="462.49" y="14.4">り</tspan><tspan class="cls-126" x="473.26" y="14.4">ま</tspan><tspan class="cls-157" x="484.59" y="14.4">す</tspan><tspan class="cls-103" x="496.47" y="14.4">。</tspan><tspan x="0" y="28.8">※10回以上お申込みの場合非会</tspan><tspan class="cls-71" x="170.66" y="28.8">員</tspan><tspan class="cls-44" x="181.55" y="28.8">リ</tspan><tspan class="cls-64" x="191.77" y="28.8">ピ</tspan><tspan class="cls-156" x="203.56" y="28.8">ー</tspan><tspan class="cls-119" x="215.17" y="28.8">タ</tspan><tspan x="226.67" y="28.8">ー割</tspan><tspan class="cls-157" x="250.67" y="28.8">引が</tspan><tspan x="274.43" y="28.8">適</tspan><tspan class="cls-51" x="286.43" y="28.8">用と</tspan><tspan class="cls-72" x="309.54" y="28.8">な</tspan><tspan class="cls-46" x="320.44" y="28.8">り</tspan><tspan class="cls-128" x="331.2" y="28.8">ま</tspan><tspan class="cls-130" x="342.53" y="28.8">す</tspan><tspan class="cls-103" x="354.41" y="28.8">。</tspan></text></svg>