<?xml version="1.0" encoding="UTF-8"?><svg id="Layer_1" xmlns="http://www.w3.org/2000/svg" viewBox="0 0 268.36 245.33"><defs><style>.cls-1{fill:#f7df64;}.cls-2{fill:#010101;}</style></defs><path class="cls-1" d="m218,183.51c0,1.51-1.23,2.74-2.75,2.74s-2.74-1.23-2.74-2.74,1.23-2.75,2.74-2.75,2.75,1.23,2.75,2.75h0Z"/><path class="cls-1" d="m232.72,183.51c0,1.51-1.23,2.74-2.74,2.74s-2.75-1.23-2.75-2.74,1.23-2.75,2.75-2.75,2.74,1.23,2.74,2.75h0Z"/><path class="cls-1" d="m247.24,184.58c-.42.98-1.39,1.68-2.53,1.68-1.51,0-2.74-1.23-2.74-2.74,0-.12,0-.23.02-.33,1.65.33,3.54.89,5.26,1.4h0Z"/><path class="cls-1" d="m137.36,195.25c0,1.51-1.23,2.74-2.74,2.74s-2.75-1.23-2.75-2.74,1.23-2.75,2.75-2.75,2.74,1.23,2.74,2.75h0Z"/><path class="cls-1" d="m196.28,195.25c0,1.51-1.23,2.74-2.74,2.74s-2.75-1.23-2.75-2.74,1.23-2.75,2.75-2.75,2.74,1.23,2.74,2.75h0Z"/><path class="cls-1" d="m211,195.25c0,1.51-1.23,2.74-2.74,2.74s-2.75-1.23-2.75-2.74,1.23-2.75,2.75-2.75,2.74,1.23,2.74,2.75h0Z"/><path class="cls-1" d="m225.74,195.25c0,1.51-1.23,2.74-2.75,2.74s-2.74-1.23-2.74-2.74,1.23-2.75,2.74-2.75,2.75,1.23,2.75,2.75h0Z"/><path class="cls-1" d="m240.46,195.25c0,1.51-1.23,2.74-2.74,2.74s-2.75-1.23-2.75-2.74,1.23-2.75,2.75-2.75,2.74,1.23,2.74,2.75h0Z"/><path class="cls-1" d="m255.19,195.25c0,1.51-1.23,2.74-2.75,2.74s-2.74-1.23-2.74-2.74,1.23-2.75,2.74-2.75,2.75,1.23,2.75,2.75h0Z"/><path class="cls-1" d="m103.79,206.23c0,1.51-1.23,2.74-2.74,2.74s-2.75-1.23-2.75-2.74,1.23-2.75,2.75-2.75,2.74,1.23,2.74,2.75h0Z"/><path class="cls-1" d="m125.85,208.77c-.12.32.67.2,1.03.2,1.51,0,2.75-1.23,2.75-2.74,0-.95-.68-2.98-1.2-2.28-1.13,1.52-2.03,3.37-2.58,4.82h0Z"/><path class="cls-1" d="m144.35,206.23c0,1.51-1.23,2.74-2.75,2.74s-2.74-1.23-2.74-2.74,1.23-2.75,2.74-2.75,2.75,1.23,2.75,2.75h0Z"/><path class="cls-1" d="m188.54,206.23c0,1.51-1.23,2.74-2.74,2.74s-2.75-1.23-2.75-2.74,1.23-2.75,2.75-2.75,2.74,1.23,2.74,2.75h0Z"/><path class="cls-1" d="m203.27,206.23c0,1.51-1.23,2.74-2.75,2.74s-2.74-1.23-2.74-2.74,1.23-2.75,2.74-2.75,2.75,1.23,2.75,2.75h0Z"/><path class="cls-1" d="m218,206.23c0,1.51-1.23,2.74-2.75,2.74s-2.74-1.23-2.74-2.74,1.23-2.75,2.74-2.75,2.75,1.23,2.75,2.75h0Z"/><path class="cls-1" d="m232.72,206.23c0,1.51-1.23,2.74-2.74,2.74s-2.75-1.23-2.75-2.74,1.23-2.75,2.75-2.75,2.74,1.23,2.74,2.75h0Z"/><path class="cls-1" d="m247.46,206.23c0,1.51-1.23,2.74-2.75,2.74s-2.74-1.23-2.74-2.74,1.23-2.75,2.74-2.75,2.75,1.23,2.75,2.75h0Z"/><path class="cls-1" d="m262.18,206.23c0,1.51-1.23,2.74-2.74,2.74s-2.75-1.23-2.75-2.74,1.23-2.75,2.75-2.75,2.74,1.23,2.74,2.75h0Z"/><path class="cls-1" d="m96.17,217.96c0,1.51-1.23,2.74-2.74,2.74s-2.74-1.23-2.74-2.74,1.23-2.75,2.74-2.75,2.74,1.23,2.74,2.75h0Z"/><path class="cls-1" d="m137.36,217.96c0,1.51-1.23,2.74-2.74,2.74s-2.75-1.23-2.75-2.74,1.23-2.75,2.75-2.75,2.74,1.23,2.74,2.75h0Z"/><path class="cls-1" d="m152.09,217.96c0,1.51-1.23,2.74-2.75,2.74s-2.74-1.23-2.74-2.74,1.23-2.75,2.74-2.75,2.75,1.23,2.75,2.75h0Z"/><path class="cls-1" d="m181.55,217.96c0,1.51-1.23,2.74-2.75,2.74s-2.74-1.23-2.74-2.74,1.23-2.75,2.74-2.75,2.75,1.23,2.75,2.75h0Z"/><path class="cls-1" d="m196.28,217.96c0,1.51-1.23,2.74-2.74,2.74s-2.75-1.23-2.75-2.74,1.23-2.75,2.75-2.75,2.74,1.23,2.74,2.75h0Z"/><path class="cls-1" d="m211,217.96c0,1.51-1.23,2.74-2.74,2.74s-2.75-1.23-2.75-2.74,1.23-2.75,2.75-2.75,2.74,1.23,2.74,2.75h0Z"/><path class="cls-1" d="m225.74,217.96c0,1.51-1.23,2.74-2.75,2.74s-2.74-1.23-2.74-2.74,1.23-2.75,2.74-2.75,2.75,1.23,2.75,2.75h0Z"/><path class="cls-1" d="m240.46,217.96c0,1.51-1.23,2.74-2.74,2.74s-2.75-1.23-2.75-2.74,1.23-2.75,2.75-2.75,2.74,1.23,2.74,2.75h0Z"/><path class="cls-1" d="m255.19,217.96c0,1.51-1.23,2.74-2.75,2.74s-2.74-1.23-2.74-2.74,1.23-2.75,2.74-2.75,2.75,1.23,2.75,2.75h0Z"/><path class="cls-1" d="m100.17,228.95c0,1.51-1.23,2.74-2.75,2.74s-2.74-1.23-2.74-2.74,1.23-2.75,2.74-2.75,2.75,1.23,2.75,2.75h0Z"/><path class="cls-1" d="m129.63,228.95c0,1.51-1.23,2.74-2.75,2.74s-2.74-1.23-2.74-2.74,1.23-2.75,2.74-2.75,2.75,1.23,2.75,2.75h0Z"/><path class="cls-1" d="m144.35,228.95c0,1.51-1.23,2.74-2.75,2.74s-2.74-1.23-2.74-2.74,1.23-2.75,2.74-2.75,2.75,1.23,2.75,2.75h0Z"/><path class="cls-1" d="m159.08,228.95c0,1.51-1.23,2.74-2.74,2.74s-2.75-1.23-2.75-2.74,1.23-2.75,2.75-2.75,2.74,1.23,2.74,2.75h0Z"/><path class="cls-1" d="m173.81,228.95c0,1.51-1.23,2.74-2.75,2.74s-2.74-1.23-2.74-2.74,1.23-2.75,2.74-2.75,2.75,1.23,2.75,2.75h0Z"/><path class="cls-1" d="m188.54,228.95c0,1.51-1.23,2.74-2.74,2.74s-2.75-1.23-2.75-2.74,1.23-2.75,2.75-2.75,2.74,1.23,2.74,2.75h0Z"/><path class="cls-1" d="m203.27,228.95c0,1.51-1.23,2.74-2.75,2.74s-2.74-1.23-2.74-2.74,1.23-2.75,2.74-2.75,2.75,1.23,2.75,2.75h0Z"/><path class="cls-1" d="m218,228.95c0,1.51-1.23,2.74-2.75,2.74s-2.74-1.23-2.74-2.74,1.23-2.75,2.74-2.75,2.75,1.23,2.75,2.75h0Z"/><path class="cls-1" d="m232.72,228.95c0,1.51-1.23,2.74-2.74,2.74s-2.75-1.23-2.75-2.74,1.23-2.75,2.75-2.75,2.74,1.23,2.74,2.75h0Z"/><path class="cls-1" d="m247.46,228.95c0,1.51-1.23,2.74-2.75,2.74s-2.74-1.23-2.74-2.74,1.23-2.75,2.74-2.75,2.75,1.23,2.75,2.75h0Z"/><path class="cls-1" d="m262.18,228.95c0,1.51-1.23,2.74-2.74,2.74s-2.75-1.23-2.75-2.74,1.23-2.75,2.75-2.75,2.74,1.23,2.74,2.75h0Z"/><path class="cls-1" d="m93.18,240.68c0,1.51-1.23,2.74-2.74,2.74s-2.75-1.23-2.75-2.74,1.23-2.75,2.75-2.75,2.74,1.23,2.74,2.75h0Z"/><path class="cls-1" d="m107.91,240.68c0,1.51-1.23,2.74-2.75,2.74s-2.74-1.23-2.74-2.74,1.23-2.75,2.74-2.75,2.75,1.23,2.75,2.75h0Z"/><path class="cls-1" d="m118.82,243.21c.33.14.69.22,1.07.22,1.51,0,2.74-1.23,2.74-2.74s-1.23-2.75-2.74-2.75c-.17,1.83-.63,3.71-1.07,5.28h0Z"/><path class="cls-1" d="m137.36,240.68c0,1.51-1.23,2.74-2.74,2.74s-2.75-1.23-2.75-2.74,1.23-2.75,2.75-2.75,2.74,1.23,2.74,2.75h0Z"/><path class="cls-1" d="m152.09,240.68c0,1.51-1.23,2.74-2.75,2.74s-2.74-1.23-2.74-2.74,1.23-2.75,2.74-2.75,2.75,1.23,2.75,2.75h0Z"/><path class="cls-1" d="m166.82,240.68c0,1.51-1.23,2.74-2.74,2.74s-2.75-1.23-2.75-2.74,1.23-2.75,2.75-2.75,2.74,1.23,2.74,2.75h0Z"/><path class="cls-1" d="m181.55,240.68c0,1.51-1.23,2.74-2.75,2.74s-2.74-1.23-2.74-2.74,1.23-2.75,2.74-2.75,2.75,1.23,2.75,2.75h0Z"/><path class="cls-1" d="m196.28,240.68c0,1.51-1.23,2.74-2.74,2.74s-2.75-1.23-2.75-2.74,1.23-2.75,2.75-2.75,2.74,1.23,2.74,2.75h0Z"/><path class="cls-1" d="m211,240.68c0,1.51-1.23,2.74-2.74,2.74s-2.75-1.23-2.75-2.74,1.23-2.75,2.75-2.75,2.74,1.23,2.74,2.75h0Z"/><path class="cls-1" d="m225.74,240.68c0,1.51-1.23,2.74-2.75,2.74s-2.74-1.23-2.74-2.74,1.23-2.75,2.74-2.75,2.75,1.23,2.75,2.75h0Z"/><path class="cls-1" d="m240.46,240.68c0,1.51-1.23,2.74-2.74,2.74s-2.75-1.23-2.75-2.74,1.23-2.75,2.75-2.75,2.74,1.23,2.74,2.75h0Z"/><path class="cls-1" d="m255.19,240.68c0,1.51-1.23,2.74-2.75,2.74s-2.74-1.23-2.74-2.74,1.23-2.75,2.74-2.75,2.75,1.23,2.75,2.75h0Z"/><path class="cls-2" d="m147.94,56.02c-.96-.27-1.96.29-2.23,1.24-1.29,4.57-1.74,15.89.79,25.26.22.81.94,1.33,1.74,1.33.16,0,.32-.02.47-.06.96-.26,1.53-1.25,1.27-2.21-2.52-9.36-1.76-19.99-.81-23.34.28-.96-.29-1.96-1.24-2.23h0Z"/><path class="cls-2" d="m152.5,60.1c-.88.48-1.2,1.57-.73,2.45,3.15,5.83,6.12,17.02,6.99,21.23.18.85.93,1.44,1.77,1.44.13,0,.25-.01.37-.04.98-.21,1.61-1.16,1.4-2.14-.9-4.37-4.01-16.03-7.35-22.21-.48-.88-1.57-1.2-2.45-.73h0Z"/><path class="cls-2" d="m185.01,89.16c.71,0,1.38-.42,1.67-1.11.38-.92-.06-1.98-.97-2.36-13.97-5.81-18.65-15.23-22.77-23.54l-.68-1.36c-.45-.89-1.53-1.25-2.42-.81-.89.45-1.25,1.53-.81,2.42l.67,1.34c2.85,5.76,6.19,12.47,12.85,18.17.02.14.05.29.11.42,4.96,12.32,7.13,24.93,8.87,40.07.96,8.43.8,19.75-1.38,25.07-.38.92.07,1.98.99,2.36.23.09.46.13.68.13.71,0,1.39-.42,1.68-1.12,2.52-6.16,2.6-18.24,1.62-26.85-1.55-13.52-3.45-25.09-7.34-36.29,1.96,1.19,4.13,2.31,6.55,3.32.23.1.46.14.69.14h0Z"/><path class="cls-2" d="m121.56,122.11c.13,0,.26-.02.39-.04.97-.22,1.59-1.18,1.37-2.15-1.17-5.31-1.46-10.32-1.01-17.29.4-6.22,1.05-10.68,2.08-17.45,1.56-10.27,3.77-21.12,9.36-30.83,5.54-9.61,14.56-11.5,18.94-10.44.97.24,1.95-.36,2.18-1.33.24-.97-.36-1.95-1.33-2.18-6.78-1.65-17.11,2.05-22.93,12.15-5.89,10.23-8.19,21.47-9.81,32.09-1.04,6.86-1.7,11.38-2.11,17.75-.47,7.24-.15,12.72,1.08,18.3.19.85.93,1.42,1.77,1.42h0Z"/><path class="cls-2" d="m160.3,42.92c3.76-3.61,15.11-4.51,24.33,2.29,8.21,6.05,14.42,13.79,19.52,24.36,3.94,8.14,6.27,16.34,7.83,27.43.2,1.41.39,2.72.56,3.95,1.01,7.02,1.62,11.26,1.62,17.76,0,3.57-1.65,6.39-3.4,9.36-1.44,2.45-2.93,4.99-3.55,8.05-.11.54-.2,1.1-.3,1.67-.65,4.05-1.33,8.25-10.81,11.62-.94.34-1.43,1.37-1.1,2.31.27.74.96,1.2,1.7,1.2.2,0,.41-.04.61-.11.63-.23,1.22-.46,1.79-.69,2,9.12,5.37,16.36,10.04,21.52.36.39.85.59,1.34.59.43,0,.87-.16,1.21-.47.74-.67.79-1.82.13-2.55-4.37-4.82-7.52-11.76-9.35-20.62-.01-.03-.02-.06-.03-.09,6.7-3.83,7.47-8.53,8.05-12.14.09-.52.17-1.03.27-1.52.5-2.47,1.78-4.64,3.13-6.95,1.92-3.27,3.9-6.64,3.9-11.19,0-6.76-.62-11.09-1.66-18.27-.18-1.22-.36-2.53-.56-3.94-1.61-11.48-4.05-20-8.15-28.5-5.38-11.12-11.93-19.28-20.63-25.7-10.05-7.41-23.59-7.16-28.98-1.98-.72.69-.74,1.83-.05,2.55.69.72,1.84.74,2.55.05h0Z"/><path class="cls-2" d="m135.9,98.52c-1.45.45-2.26,2.18-1.79,3.86s2.03,2.68,3.48,2.23c1.45-.45,2.25-2.18,1.79-3.86-.47-1.69-2.03-2.68-3.48-2.24h0Z"/><path class="cls-2" d="m168.06,96.26c-.18-1.74-1.74-3-3.48-2.82-1.74.18-3,1.74-2.81,3.48.18,1.74,1.74,3,3.48,2.82,1.74-.18,3-1.74,2.82-3.48h0Z"/><path class="cls-2" d="m142.62,127.67c-.25.7.12,1.48.82,1.73,2.02.72,3.94.96,5.77.96,1.52,0,2.99-.17,4.4-.36,4.37-.59,8.11-2.6,11.19-4.49.64-.39.84-1.22.45-1.86-.39-.64-1.23-.84-1.87-.45-2.98,1.83-6.27,3.6-10.13,4.12-3.49.47-6.06.54-8.91-.47-.7-.26-1.48.11-1.73.82h0Z"/><path class="cls-2" d="m130.11,152.61c.16.05.33.07.49.07.79,0,1.51-.52,1.74-1.32,1.93-6.92-1.75-14.51-5.31-21.84-.89-1.83-1.73-3.56-2.47-5.26-.4-.91-1.47-1.33-2.38-.93-.91.4-1.33,1.46-.93,2.38.77,1.77,1.67,3.61,2.53,5.38,3.27,6.73,6.65,13.69,5.09,19.3-.27.96.29,1.96,1.25,2.23h0Z"/><path class="cls-2" d="m147.78,116.47s.06,0,.09,0c.71,0,1.3-.55,1.35-1.26.16-2.45.28-7.77-.45-10.43-.2-.72-.94-1.15-1.66-.95-.72.2-1.15.94-.95,1.67.52,1.9.57,6.33.36,9.54-.05.75.52,1.39,1.26,1.44h0Z"/><path class="cls-2" d="m169.58,88.98c.31-.68,0-1.48-.69-1.79-2.94-1.31-9.99-1.7-13.43-.32-.7.28-1.03,1.07-.76,1.76.28.7,1.07,1.03,1.76.75,2.67-1.06,9.03-.74,11.33.28.18.08.37.12.55.12.52,0,1.01-.3,1.23-.81h0Z"/><path class="cls-2" d="m202.39,91.31c.12,0,.24-.02.36-.05.72-.2,1.14-.94.95-1.67-6.07-22.09-18.84-35.63-28.81-39.25-.7-.26-1.48.11-1.74.81-.26.7.11,1.48.81,1.74,12.85,4.67,23.06,22.68,27.12,37.43.17.6.71.99,1.3.99h0Z"/><path class="cls-2" d="m107.87,206.47c.83-5.43.63-9.57-.64-12.68-1.67-4.08-6.9-14.46-8.46-17.54-1.21-2.39-2.5-5.67-2.46-7.22.06-2.17.49-3.75,2.41-4.89,1.2-.71,2.36-1.36,3.48-1.98,1.61-.9,3.12-1.75,4.61-2.69,2.17-1.37,4.62-2.93,7.07-4.35.86-.5,2.83-1.38,4.35-.17-2.31.9-4.88,2.02-6.19,2.83-.63.4-.83,1.23-.43,1.87.4.64,1.23.83,1.87.43,1.88-1.17,7.53-3.4,9.5-3.92.38-.1,1.08-.03,1.94.47.64.37,1.19.88,1.61,1.47-3.01.04-6.73.78-10.15,2.12-.69.28-1.04,1.06-.77,1.76.28.7,1.06,1.04,1.76.77,4.2-1.64,8.99-2.35,11.66-1.73,1.15.27,1.77,1.63,1.77,2.77,0,.95-.17,2.97-.41,4.85-.11-.58-.23-1.1-.36-1.54-.71-2.42-2.29-3.71-4.81-3.92-1.77-.15-3.57.24-6.6.93-.73.17-1.19.89-1.02,1.62.17.73.89,1.19,1.62,1.02,2.76-.63,4.39-.98,5.77-.87,1.23.11,1.98.45,2.43,1.98.62,2.1.98,6.68.74,9.23-.05.51-.08,1.03-.1,1.56-.06,1.24-.14,2.09-.33,2.69-1.19-1.97-2.39-3.63-3.22-4.79-.22-.31-.43-.58-.64-.84-.04-1.43.49-3.72,1.86-4.8.59-.46.69-1.31.23-1.9-.46-.59-1.31-.69-1.9-.23-1.44,1.14-2.29,2.92-2.67,4.67-.96-.59-2.14-1.05-3.8-1.63-.94-.33-1.97.18-2.3,1.12-.33.94.18,1.97,1.12,2.3,3.23,1.12,3.77,1.47,5.18,3.43,1.03,1.43,2.51,3.48,3.81,5.84.03.06.06.12.1.18.71,1.3,1.37,2.7,1.87,4.14,1.27,3.7,1.25,7.28-.09,11.61-.53,1.7-1.72,3.88-2.97,6.2-1.67,3.07-3.56,6.55-4.53,10.02-1.54,5.46-5.84,16.77-8.78,23.18-.65-.39-1.3-.83-1.91-1.34-3.36-2.83-7.73-8.38-9.19-11.56,1.89-4.09,7.42-16.91,7.97-20.48h0Zm9.38,33.73c-.1.15-.16.31-.22.48-.13.23-.27.45-.45.65-.25.28-1.11.26-2.26-.05.78-1.7,1.65-3.71,2.52-5.86.54,1.39.99,3.24.41,4.78h0Zm-27.06.63c.53-1.05,1.11-2.18,1.72-3.37,1.53-2.94,3.21-6.19,4.56-9.34,1.6,3.7,6.39,9.87,10.29,13.15,2.39,2.02,6.07,3.82,9.03,3.82.16,0,.31,0,.47-.02,0,.08-.03.17-.04.25h3.66c.21-1.28.41-2.45.58-3.43,1.17-2.6.83-5.97-1.06-9.57-.22-.41-.58-.7-.99-.85,2.01-5.16,3.9-10.47,4.85-13.83.87-3.08,2.65-6.37,4.23-9.28,1.35-2.48,2.62-4.82,3.25-6.85,1.56-5.04,1.58-9.44.06-13.85-.43-1.25-.97-2.46-1.55-3.61,1.36-1.38,1.46-3.55,1.53-5.27.02-.48.04-.96.09-1.42.1-1.04.12-2.33.06-3.67.06.01.12.03.18.03.59,0,1.13-.39,1.3-.98.56-1.96,1.1-7.07,1.1-8.93,0-2.21-1.3-4.75-3.78-5.38-.6-1.68-1.85-3.19-3.44-4.11-1.36-.79-2.82-1.06-4-.75-.12.03-.25.07-.39.11-2.2-3.2-6.06-3.85-9.83-1.67-2.51,1.45-5,3.03-7.25,4.45-1.35.86-2.82,1.68-4.38,2.55-1.14.64-2.33,1.3-3.55,2.03-4.03,2.38-4.14,6.24-4.18,7.89-.08,2.94,2.16,7.6,2.85,8.96,3.19,6.28,7.06,14.12,8.34,17.26,1,2.45,1.13,6.06.41,10.76-.39,2.54-4.47,12.34-6.83,17.65-.21-.33-.52-.59-.91-.73-.94-.34-1.97.15-2.31,1.09-1.02,2.84-2.52,5.96-4.03,8.94.65-5.84,1.99-11.5,3.79-15.74,2.64-6.21,5.89-10.97,9.69-14.15.76-.64.86-1.78.22-2.54-.64-.77-1.78-.87-2.54-.23-4.23,3.55-7.82,8.76-10.69,15.51-2.75,6.5-4.44,15.6-4.52,24.35,0,.2.04.39.1.56-.68,1.35-1.5,2.99-2.36,4.7h4.04c.85-1.7,1.64-3.28,2.25-4.5h0Z"/><path class="cls-2" d="m148.48,195.05c-.15-5.36.01-12.99.47-15.39.54-2.82,1.53-5.18,2.65-6.3.5-.5,1.43-.67,2.94-.52,2.52.25,3.7-1.26,4.52-2.77.57-1.03,2.26-2.44,3.72-2.35,3.35.16,3.98-2.7,4.22-3.78.16-.69,1.32-2.45,2.45-2.96,1-.46,2.48-.54,2.94.03,1.12,1.37,2.51,3.76,3.07,6.01.24.97,1.22,1.55,2.19,1.31.97-.24,1.55-1.22,1.31-2.19-.59-2.36-1.82-4.65-2.94-6.28.89-.91,2.15-1.37,3.11-1.34,1.08.03,3.7.32,4.75,2.43,1.14,2.29,1.6,4.02,2.22,6.43l.14.53c.45,1.72.99,3.48,1.51,5.19.46,1.51.9,2.94,1.22,4.19.27,1.74.2,4.59-.59,6.86-1.26,3.67-3.33,7.94-6.14,12.7-1.21,2.05-2.19,3.63-3,4.95-1.09,1.77-1.88,3.05-2.57,4.37-1.55,2.93-2.38,5.66-2.46,8.09v.5c-.08,1.87-.11,2.91-.04,5.51-.84.02-1.63.09-2.29.16l-.63.06c-3.19.29-7.2.76-14.52,2.68-1.4.37-2.69.76-3.89,1.15-.09-1.17-.14-2.61-.2-4.11-.16-3.91-.32-7.95-.97-10.13-1.23-4.1-3.09-10.31-3.22-15.01h0Zm40.12-41.59c.7.06.97.29,1.13.49.35.43.86,1.67.45,5.17l-.06.45c-.24,1.99-.48,4.1-.69,6.16-.57-2.19-1.11-4.05-2.3-6.42-.48-.97-1.11-1.72-1.81-2.31.42-1.24,1.47-3.71,3.28-3.54h0Zm-43.77,34.87c-1.46-1.78-2.21-4.11-2.3-6-.02-.23-.07-.45-.16-.64,1-.63,1.98-1.25,2.89-1.84-.26,2.01-.39,5.25-.43,8.48h0Zm.15,51.83c-.04-1.4-.17-5.67.64-7.41.58-1.25,2.91-3.71,12.06-6.12,7.63-2.02,11.57-2.37,13.91-2.58l.66-.06c3.8-.38,4.47,0,4.63,1.04.3,1.95.68,10.02.98,16.5.06,1.3.12,2.58.18,3.8h3.62c-.06-1.26-.13-2.6-.19-3.97-.34-7.25-.69-14.74-1.02-16.88-.3-1.98-1.33-3.06-2.63-3.64-.11-3.02-.07-4.04-.01-6l.02-.5c.06-1.88.75-4.07,2.04-6.51.64-1.22,1.4-2.45,2.46-4.17.82-1.33,1.81-2.93,3.03-5,1.6-2.71,2.97-5.27,4.1-7.67,5.87-1.72,17.09-7.54,25.62-14.02,5.76,3.35,13,4.59,18.36,5.52,1.23.21,2.35.4,3.31.6,6.39,1.31,11.57,2.85,16.11,6.1,4.55,3.26,8.32,7.97,9.83,12.3,2.21,6.34,2.67,14.57,1.23,22.03-.8,4.17-2.69,12.67-4.91,21.81h3.71c2.22-9.21,4.05-17.53,4.74-21.13,1.56-8.06,1.05-16.99-1.36-23.91-1.77-5.08-5.94-10.33-11.14-14.05-5.06-3.62-10.65-5.3-17.49-6.7-.99-.2-2.15-.4-3.42-.62-5.4-.93-12.81-2.2-18.1-5.66-.02-.01-.04-.02-.06-.03-.06-.04-.12-.07-.18-.09-.05-.03-.1-.05-.15-.07-.06-.02-.11-.03-.17-.05-.06-.01-.12-.03-.18-.04-.06,0-.11,0-.16,0-.07,0-.13-.01-.19,0-.06,0-.11.01-.16.02-.06,0-.12.02-.18.03-.06,0-.11.03-.16.05-.06.02-.12.04-.18.07-.05.02-.09.05-.14.07-.06.04-.12.07-.18.12-.02.01-.04.01-.05.03-7.45,5.86-16.71,10.79-22.47,13.12.15-.4.3-.79.43-1.17,1.07-3.1,1.06-6.62.73-8.68h0c-.47-3.03.76-13.26,1.16-16.62l.06-.46c.45-3.78.06-6.28-1.23-7.87-.29-.35-.62-.63-.98-.88,9.59-8.53,11.48-22.5,12.03-32.55.05-.75-.53-1.38-1.27-1.43-.75-.03-1.38.53-1.43,1.28-.56,10.01-2.48,24.08-12.47,31.76-2.74,0-5.03,2-6.32,5.48-1.13-.33-2.17-.42-2.84-.44-1.87-.04-4.2.75-5.87,2.53-1.69-.67-3.77-.48-5.41.26-2.34,1.06-4.13,3.91-4.48,5.47-.11.49-.21.81-.28.95-.04,0-.12.01-.23,0-1.71-.09-3.26.56-4.5,1.44.44-4.31-.46-9.63-1.54-14.42h.03c1.37,0,2.77-.14,4.2-.43,6.22-1.24,11.3-3.11,16.46-6.06.86-.5,1.16-1.6.67-2.47-.5-.86-1.6-1.16-2.46-.67-4.81,2.75-9.55,4.49-15.37,5.66-4.78.96-8.96.03-12.78-2.83-3.69-2.77-7.86-8.98-10.88-16.23-2.85-6.85-4.53-12.53-5.12-17.36-.26-2.09-.12-4.92,0-7.66.13-2.54.25-5.18.09-7.44-.03-.29-.04-.57-.06-.85.23.15.47.24.73.24.37,0,.73-.15,1-.44,1.15-1.25,4.31-2.51,6.67-2.25.73.08,1.41-.46,1.49-1.2.09-.74-.45-1.41-1.2-1.49-2.91-.32-6.86,1.02-8.78,2.94-.24-8.34,1.25-14.82,4.91-21.58-.69,5.75-.74,11.38.13,14.02.25.76.96,1.24,1.72,1.24.19,0,.38-.03.56-.09.95-.31,1.46-1.33,1.16-2.28-1.5-4.6.58-22.25,3.66-26.45.59-.8.42-1.94-.39-2.52-.8-.59-1.93-.42-2.52.39-1.74,2.37-3.15,7.69-3.99,13.28-.16-.28-.38-.51-.68-.68-.87-.49-1.97-.18-2.46.69-4.67,8.37-6.33,16.53-5.54,27.3.15,2.04.03,4.56-.09,7-.14,2.89-.28,5.88.02,8.27.63,5.17,2.39,11.17,5.37,18.32,1.74,4.16,3.86,8.03,6.09,11.21.92,6.69-.01,10.78-2.95,12.85-.61.43-.76,1.27-.33,1.89.26.38.68.57,1.11.57.27,0,.54-.08.78-.25,3.7-2.61,4.54-7.04,4.44-11.24.98,1.06,1.95,1.98,2.9,2.69,2.37,1.79,4.93,2.94,7.62,3.51.38,1.57.95,4.07,1.35,6.78-4.84.93-13.87.76-18.49-.16-.74-.15-1.44.33-1.6,1.06-.15.73.33,1.44,1.06,1.59,2.66.53,6.64.83,10.57.83,3.22,0,6.39-.21,8.79-.64.3,3.14.22,6.23-.76,8.2-.13.26-.18.53-.18.79-1.55-.04-3.42.21-4.84,1.62-1.06,1.05-1.83,2.47-2.4,3.88-.13.05-.26.11-.38.19-1.91,1.29-4.88,3.17-7.76,4.99-2.22,1.4-4.41,2.78-6.09,3.89-.84.55-1.07,1.67-.52,2.5.35.53.92.82,1.51.82.34,0,.68-.1.99-.3,1.32-.86,2.96-1.91,4.68-2.99.46,3.04,2.09,6.86,5.49,9.12.09.06.19.09.28.13.01.76.02,1.47.04,2.11.14,5.18,2.08,11.66,3.37,15.95.52,1.75.69,5.89.82,9.23.08,2,.16,3.89.3,5.3-3.72,1.63-6.04,3.49-7.02,5.61-.8,1.74-1.1,4.52-.97,9.03.04,1.08.14,2.9.26,5.06h3.62c-.13-2.22-.24-4.1-.27-5.17h0Z"/><path class="cls-2" d="m225.99,217.11c.73-.68.76-1.83.07-2.55-.68-.72-1.83-.76-2.55-.07-8.7,8.23-18.25,21.6-23.25,30.84h4.13c5.04-8.84,13.69-20.72,21.61-28.21h0Z"/><path class="cls-2" d="m109.66,41.73c-.41,0-.81-.13-1.16-.4-4.47-3.52-9.23-6.76-14.13-9.66-.89-.53-1.19-1.68-.66-2.57.53-.89,1.68-1.19,2.57-.66,5.05,2.97,9.94,6.31,14.54,9.93.82.64.96,1.82.32,2.64-.37.47-.92.72-1.48.72h0Z"/><path class="cls-2" d="m128.3,24.09c-.62,0-1.22-.31-1.59-.86l-11.16-17.31c-.56-.87-.31-2.04.56-2.6.87-.56,2.04-.31,2.6.56l11.16,17.31c.56.87.31,2.04-.56,2.6-.32.2-.67.3-1.02.3h0Z"/><path class="cls-2" d="m153.7,14.72c-.88,0-1.67-.61-1.85-1.5l-2.21-10.96c-.21-1.02.45-2.01,1.47-2.22,1.01-.21,2.01.45,2.22,1.47l2.22,10.96c.21,1.02-.46,2.01-1.47,2.22-.13.03-.25.04-.37.04h0Z"/></svg>