<?xml version="1.0" encoding="UTF-8"?><svg id="Layer_1" xmlns="http://www.w3.org/2000/svg" xmlns:xlink="http://www.w3.org/1999/xlink" viewBox="0 0 268.36 245.33"><defs><style>.cls-1{fill:#5b5958;}.cls-2{clip-path:url(#clippath);}.cls-3{fill:#f7df64;}.cls-4{fill:none;}.cls-5{fill:#010101;}</style><clipPath id="clippath"><rect class="cls-4" width="268.36" height="245.33"/></clipPath></defs><g class="cls-2"><g><path class="cls-1" d="m30.81,85.82c-4.98-.97-7.58-5.8-9.59-12.93-.96,1.49-2.57.41-3.34-2.53-1.49-5.65-1.56-13.75.67-20.21,2.23-6.46,6.91-12.26,12.71-16.95,5.8-4.68,9.51-7.13,13.75-9.14,4.24-2.01,7.88-2.75,11.45-2.3,3.57.44,6.24,1.19,8.25,2.75,4.24-1.56,8.77-1.85,13.45-.07,4.68,1.78,7.69,4.94,12.34,10.03,4.68,5.13,9.29,13.45,12.26,20.44-3.05-2.08-6.65-1.83-8.18,1.78-.59,1.41-.89,5.5-.44,7.5-2.01-.07-4.24,1.49-5.13,3.27-1.33-5.05-2.82-10.18-3.49-11.96-.67-1.78-1.21-2.59-2.08-3.12-2.45-1.49-3.79-1.71-5.87-2.01-2.45-3.35-5.05-6.39-7.06-12.48-4.23.44-9.07.74-15.31-2.6-4.01,6.54-6.54,9.51-9.44,12.19-2.9,2.67-6.91,5.72-10.11,3.57-2.31,4.98-2.68,6.32-3.94,8.99-1.01,2.15-2.6,4.09-4.68,6.69.67,5.35,2.01,13.16,3.79,19.1h0Z"/><path class="cls-3" d="m103.72,159.17c2.79-6.13,3.12-12.26,3.34-16.94,3.35-2.57,9.19-4.43,11.49-7.58,2.67-3.68,7.97-7.85,13.49-10.37,5.12-2.34,9.81-4.79,12.48-6.58,4.39,2.16,5.91,2.56,9.03,2.12,3.12-.45,7.8-1.34,7.8-1.34,11.04,5.02,30.43,18.17,35.34,21.74-.45,11.14-5.02,18.84-8.14,24.52-3.07,5.6-4.35,8.25-8.36,12.26,10.25,5.35,18.28,8.81,25.42,11.59,6.57,2.57,9.26,2.68,12.93,3.12l5.02,3.12c-10.93,12.37-17.94,20.07-25.53,26.98-7.92,7.23-17.28,15.38-22.96,23.5h-28.31c-6.58-13.36-19.84-28.3-26.75-42.68-5.13-10.68-13.41-33.82-16.27-43.47h0Z"/><path class="cls-5" d="m131.59,3.42c7.74-2.4,14.1-1.48,18.07-.29,4.8,1.44,9.02,3.51,11.01,5.41.34.32.77.48,1.2.48.46,0,.92-.18,1.26-.54.67-.7.64-1.8-.06-2.47-2.4-2.29-7.04-4.62-12.42-6.23-6.35-1.91-13.3-1.8-20.1.3-.92.28-1.44,1.26-1.15,2.19.29.92,1.26,1.44,2.19,1.15h0Z"/><path class="cls-5" d="m165.26,13.18c3.25,1.32,7.42,5.54,10.14,10.26,2.27,3.92,4.51,10.47,5.44,15.92.96,5.58,1.12,10.02.47,12.84-.77,3.32-1.78,7.05-4.07,9.32-.69.68-.69,1.79,0,2.47.34.34.79.52,1.24.52s.89-.17,1.23-.51c2.95-2.93,4.13-7.22,5.01-11.01.77-3.31.62-8.09-.43-14.22-.84-4.91-2.98-12.09-5.85-17.08-2.6-4.5-7.27-9.88-11.85-11.74-.89-.36-1.91.06-2.28.96-.36.89.07,1.91.96,2.28h0Z"/><path class="cls-5" d="m174.48,49.68c.17.08.36.12.54.12.52,0,1.01-.3,1.23-.8,1.74-3.96,1.34-8.74.69-12.06-.99-5.03-4.35-12.37-8.56-18.69-.41-.62-1.25-.78-1.86-.37-.62.41-.78,1.25-.37,1.86,4.03,6.05,7.23,13,8.16,17.72.57,2.94.95,7.14-.51,10.46-.3.68,0,1.47.69,1.77h0Z"/><path class="cls-5" d="m154.46,24.99c-3.3-5.17-6.71-10.82-8.96-17.85-.22-.71-.99-1.1-1.69-.87-.71.23-1.1.98-.87,1.69,2.35,7.34,6.01,13.39,9.25,18.48,3.85,6.04,7.15,9.52,10.15,12.38.26.25.6.38.93.38.35,0,.7-.14.97-.42.52-.54.5-1.39-.04-1.9-2.87-2.75-6.04-6.08-9.74-11.89h0Z"/><path class="cls-5" d="m129.88,52.34c-1.25.18-2.11,1.33-1.93,2.58.18,1.25,1.33,2.11,2.58,1.93,1.25-.18,2.11-1.33,1.93-2.58-.18-1.25-1.33-2.11-2.58-1.93h0Z"/><path class="cls-5" d="m111.65,57.91c-.89.4-1.27,1.68-.84,2.86.43,1.18,1.5,1.81,2.38,1.41.89-.4,1.27-1.68.84-2.86-.43-1.18-1.49-1.81-2.38-1.41h0Z"/><path class="cls-5" d="m117.19,69.99c.07.01.14.02.2.02.47,0,.89-.33.99-.81.36-1.81.46-3.18.31-4.61-.06-.56-.56-.96-1.11-.9-.55.06-.95.55-.9,1.1.12,1.22.04,2.42-.29,4.01-.11.54.25,1.08.79,1.19h0Z"/><path class="cls-5" d="m134.8,70.03c-.38-.64-1.21-.84-1.84-.46-3.07,1.85-11.3,4.25-15.28,4.06-.72-.05-1.37.54-1.4,1.28-.03.74.54,1.37,1.28,1.4.17,0,.35.01.53.01,3.39,0,8.71-1.3,12.64-2.79-.56,1.78-3.16,3.68-5.25,4.12-2.62.56-4.25-.64-4.68-1.02-.42-.36-1.06-.32-1.42.1-.36.42-.32,1.06.1,1.42,1.24,1.08,2.91,1.65,4.68,1.65.58,0,1.16-.06,1.75-.19,2.67-.57,6.69-3.19,6.96-6.44.02-.18-.03-.34-.1-.5.6-.27,1.13-.55,1.58-.82.64-.39.84-1.21.46-1.85h0Z"/><path class="cls-5" d="m182.42,64.23c-.16.95.48,1.85,1.43,2.01.73.12,1.8.25,3.12.4,4.91.58,14.07,1.66,18.55,4.42,2.6,1.6,6,4.12,9.61,6.79,4.73,3.5,10.08,7.46,14.58,10.02,13.07,7.44,27.19,23.86,33.47,32.39,1.89,2.56,3.96,5.73,5.97,8.8,2.65,4.06,5.16,7.89,6.95,9.86,2.02,2.23,1.49,3.66.42,6.5l-.32.86c-.95,2.59-5.05,6.77-10.3,9.28-8.08,3.86-12.8,6.06-15.91,6.27-.96.07-1.69.9-1.63,1.86.06.92.83,1.63,1.74,1.63.04,0,.08,0,.12,0,3.75-.25,8.47-2.43,17.19-6.6,5.6-2.68,10.67-7.41,12.07-11.24l.3-.83c1.11-2.94,2.36-6.28-1.1-10.08-1.6-1.77-4.04-5.49-6.61-9.42-2.03-3.11-4.14-6.32-6.08-8.96-6.45-8.75-20.98-25.62-34.55-33.35-4.31-2.45-9.58-6.35-14.23-9.79-3.66-2.71-7.13-5.28-9.85-6.96-5.14-3.16-14.42-4.26-19.97-4.91-1.25-.14-2.27-.26-2.95-.38-.95-.16-1.85.48-2.01,1.43h0Z"/><path class="cls-5" d="m73.91,37.61c-.1-.73-.78-1.25-1.51-1.15-6.33.86-10.63.46-13.16-1.22-.62-.41-1.46-.24-1.86.38-.41.61-.25,1.45.37,1.86,2.11,1.41,5.06,2.1,8.95,2.1,1.82,0,3.83-.15,6.07-.45.74-.1,1.25-.78,1.15-1.51h0Z"/><path class="cls-5" d="m53.17,36.2c-.88-.41-1.92-.02-2.32.86-2.41,5.26-9.11,12.27-13.03,13.64-.14.05-.25.14-.36.22.03-.06.06-.11.09-.17.49-.83.21-1.9-.62-2.39-.83-.49-1.9-.21-2.39.62-1.72,2.93-2.95,5.62-4.04,7.99-1.38,3.03-2.48,5.42-3.99,7.05-.65.7-.61,1.81.09,2.47.34.31.76.47,1.19.47.47,0,.94-.19,1.28-.56,1.89-2.03,3.15-4.78,4.6-7.97.85-1.85,1.8-3.91,2.98-6.09,0,.2.01.39.09.59.25.72.92,1.17,1.65,1.17.19,0,.39-.03.57-.1,5.34-1.87,12.48-9.86,15.06-15.49.4-.88.02-1.91-.86-2.32h0Z"/><path class="cls-5" d="m47.41,78.12c-.08-.96-.95-1.69-1.89-1.59-5.6.49-9.36,2.19-11.51,5.21-.56.78-.38,1.87.4,2.44.31.22.66.32,1.02.32.54,0,1.08-.26,1.42-.73,1.52-2.13,4.46-3.36,8.98-3.75.96-.09,1.67-.93,1.59-1.89h0Z"/><path class="cls-5" d="m71.6,60.77c-5.62,1.33-10.39,4.48-12.15,8.02-.43.86-.08,1.91.78,2.34.25.13.52.18.78.18.64,0,1.26-.35,1.57-.96,1.28-2.57,5.33-5.11,9.83-6.18.94-.22,1.52-1.17,1.29-2.11-.22-.94-1.17-1.52-2.1-1.29h0Z"/><path class="cls-5" d="m59.63,111c.06,0,.12,0,.18-.01,5.16-.7,7.54-1.64,12.02-3.53,4.58-1.93,6.96-3.84,10.28-7.16.53-.52.53-1.38,0-1.9-.52-.52-1.38-.52-1.9,0-3.06,3.06-5.25,4.83-9.42,6.58-4.37,1.85-6.51,2.68-11.34,3.34-.73.1-1.25.78-1.15,1.51.09.68.67,1.16,1.33,1.16h0Z"/><path class="cls-5" d="m59.87,96.69s.09,0,.14-.01c.55-.08.93-.59.86-1.14-.51-3.53-1.53-6.6-3.31-9.95-.26-.49-.87-.67-1.37-.41-.49.26-.68.87-.42,1.36,1.68,3.14,2.63,6,3.1,9.29.07.5.5.86,1,.86h0Z"/><path class="cls-5" d="m45.67,89.95c1.51,0,2.75-1.23,2.75-2.75s-1.23-2.75-2.75-2.75-2.75,1.23-2.75,2.75,1.23,2.75,2.75,2.75h0Z"/><path class="cls-5" d="m71.09,70.49c-1.51,0-2.75,1.23-2.75,2.75s1.23,2.75,2.75,2.75,2.75-1.23,2.75-2.75-1.23-2.75-2.75-2.75h0Z"/><path class="cls-5" d="m114.56,102.17c.3.2.64.3.97.3.56,0,1.12-.27,1.46-.78.53-.8.32-1.89-.49-2.42-4.78-3.19-8.79-10.42-10.33-14.5-.34-.9-1.34-1.36-2.25-1.02-.9.34-1.36,1.34-1.02,2.24,1.46,3.88,5.76,12.26,11.66,16.19h0Z"/><path class="cls-5" d="m94.08,148.08c-5.14,2.65-19.54,10.12-21.15,11.01-1.59.87-2.69,2.36-3.1,4.18-.07.32-.11.74-.15,1.26-.05.71-.12,1.59-.39,2.56-.28,1.02-1.38,1.81-3.63,3.36l-.3.2c-.24.17-.44.39-.57.66l-.08.17c-.34.69-1.4,2.82-2.25,3.37-.72.46-1.5.19-1.64.08-.13-.12-.29-.19-.45-.26-.01-.04-.02-.08-.03-.12.32-.47.47-1.03.4-1.61-.12-1.07-.57-2.37-1.44-3.3,1.1.04,2.06.04,2.67-.06,2.57-.41,4.09-1.75,4.91-2.8.34-.44.27-1.07-.17-1.42-.44-.34-1.07-.26-1.42.17-.6.77-1.72,1.74-3.64,2.05-1.79.29-8.37-.47-9.69-.71-.3-.06-.61.03-.84.22-.82.7-2.32,1.51-4.7,1.35-.35-.01-.69.14-.89.43-.2.29-.23.67-.09.99.16.35.15.65.06,1.44-.42.26-.74.67-.83,1.21-.15.94.51,1.83,1.44,2.01.48.09,1.45,1.71,1.45,2.89,0,.17-.13.31-.25.4-.25.18-.52.21-.59.19-1.24-.46-1.88-1.29-2.85-2.55-.25-.32-.51-.66-.79-1-.29-.35-.54-.64-.77-.9-.85-.99-1.01-1.18-1.16-2.11-.02-.47.55-2.04.86-2.88l.25-.68c.49-1.35,1.04-2.88,2.18-4.77.24-.4.45-.76.64-1.1.8-1.39,1.12-1.97,2.45-2.78,1.79-1.1,3.97-1.8,6.69-2.5,2.44-.64,4.95-1.38,6.77-2.56,5.11-3.3,11.9-10.13,17.35-15.62,1.72-1.73,3.28-3.31,4.58-4.55,5.17-4.96,16.38-13.9,22.59-18.79,5.85-4.6,13.91-9.63,21.17-14.02,4.07,1.98,14.16,7.61,20.72,12.06-3.41,2.71-9.1,5.99-17.36,9.98-5.46,2.64-8.16,5.2-10.14,7.06l-.73.69c-.93.86-1.64,1.7-2.27,2.44-.79.94-1.42,1.68-2.16,2.08-.72.4-1.53.74-2.39,1.11-1.11.47-2.25.96-3.39,1.63-.7.41-1.99,1.32-3.78,2.58-3.35,2.37-7.94,5.61-11.12,7.25h0Zm-35.45,25.4c-.3.3-1.05.48-1.63.41-1.03-.14-5.59-.91-7.82-1.31-.47-.53-1.02-.96-1.64-1.23.03-.31.06-.6.06-.87,1.33-.08,2.39-.41,3.25-.82.04,0,.08,0,.11,0,.85-.25,1.55-.09,2.24.46.24.19.56.27.86.2.87-.21,1.73-.25,3.06.22.95.33,1.51,1.6,1.63,2.64.01.13-.02.22-.12.32h0Zm-1.52,2.87c-.17.2-1.03.57-2.08.28-.56-.15-.93-.64-1.14-1.2,1.29.22,2.39.39,2.85.46.17.02.36.03.55.03.03,0,.06,0,.09,0-.08.17-.16.31-.26.43h0Zm46.92-119.51c.09.01.18.04.27.04.18,0,.37-.03.55-.09.15-.05.26-.14.39-.22.03.16.07.32.09.49.13.85.15,1.66.18,2.53.02.38.03.77.05,1.18-.4-1.46-.9-2.8-1.54-3.92h0Zm-.47-8.26c-.21-.46-.43-.92-.65-1.37.41.27.84.52,1.29.76-.27.16-.49.36-.64.61h0Zm31.82,182.35c-5.56-6.74-10.89-14.8-17.29-26.13-6.61-11.73-12.26-28.68-15.1-39.7-.24-2.03,1.2-5.12,2.59-8.09,1.56-3.33,3.03-6.47,2.77-9.17-.09-.96-.96-1.65-1.91-1.57-.96.09-1.66.95-1.57,1.91.17,1.75-1.16,4.6-2.45,7.36-.09.2-.19.4-.28.6-.84-2.36-2.19-5.73-2.84-7.06,2.69-1.7,5.59-3.74,7.92-5.39,1.58-1.12,2.94-2.08,3.52-2.42.95-.55,1.99-1,3-1.43.9-.39,1.82-.78,2.69-1.25,1.32-.72,2.22-1.78,3.16-2.9.59-.69,1.2-1.42,1.97-2.13l.76-.71c1.91-1.81,4.28-4.05,9.26-6.46,9.09-4.4,15.23-8.01,18.78-11.03.7.54,1.33,1.04,1.81,1.49.4.37.33.54.29.63-.19.43-.93.87-1.64.81-.95-.07-1.81.62-1.9,1.58-.09.96.62,1.81,1.58,1.89.16.01.31.02.46.02.59,0,1.16-.11,1.7-.3,3.92-.49,14.75-2.37,22.16-4.23,4.27-1.07,9.57-2.6,12.68-4.99.77-.59.91-1.69.32-2.45-.59-.77-1.68-.91-2.45-.32-2.6,2-7.46,3.39-11.4,4.38-5.55,1.39-13.05,2.79-18,3.59.04-1.14-.44-2.26-1.42-3.17-5.28-4.91-23.01-14.76-27.24-16.67-.05-.02-.1-.01-.15-.03-.12-.04-.23-.07-.35-.08-.11-.01-.22-.02-.32-.02-.11,0-.21.03-.32.05-.12.03-.23.07-.34.13-.04.02-.1.02-.14.05-.34.21-.7.43-1.06.64.1-.12.19-.24.25-.39,1.39-3.06,5.38-6.94,8.44-8.92,4.88-3.17,10.21-6.13,15.85-8.81,6.29-2.98,10.46-4.6,15.55-6.4.73-.26,1.43-.5,2.09-.72,3.59-1.23,6.43-2.2,9.92-4.61.79-.55.99-1.64.44-2.43-.55-.79-1.64-.99-2.43-.44-1.53,1.06-2.92,1.81-4.35,2.43-.12-.25-.29-.47-.55-.61-1.43-.78-4.55-4.56-4.84-5.49-.09-.27-.26-.47-.47-.64.29-.14.58-.3.87-.48,1.93-1.21,2.88-2.57,4.21-6.02.04-.1.04-.21.05-.31.51-.17,1.04-.38,1.69-.65l-1.06-2.47c-2.52,1.08-2.72,1.16-7.01-.25-4.41-1.45-8.49-5.01-12.12-10.57-.41-.62-1.24-.79-1.86-.39-.62.4-.8,1.24-.39,1.86.35.53.71,1.03,1.06,1.53-4.21.56-10.55-1.88-14.43-4.48-4.48-3.01-10.38-7.92-13.04-14.24-.38-.89-1.4-1.31-2.29-.93-.89.37-1.31,1.4-.93,2.28,2.99,7.12,9.43,12.52,14.31,15.79,4.05,2.71,10.25,5.16,15.17,5.16.62,0,1.23-.04,1.81-.12.6-.09,1.05-.48,1.3-.99,3.23,3.83,6.77,6.41,10.58,7.66,1.92.63,3.22.99,4.27,1.13-.96,2.29-1.61,3.03-2.75,3.74-1.62,1.02-3.13,1-4.62-.06-.6-.43-1.44-.29-1.88.31-.43.6-.29,1.45.31,1.88,1.22.87,2.53,1.31,3.86,1.31.27,0,.54-.03.82-.06-.09.26-.12.54-.03.82.47,1.49,3.22,4.8,5.17,6.38-.61.22-1.25.43-1.92.67-.67.23-1.38.47-2.12.73-3.04,1.07-5.85,2.12-9,3.44.53-.95.98-1.85,1.2-2.59.22-.71-.18-1.46-.89-1.68-.71-.22-1.46.18-1.68.89-.43,1.38-1.94,3.79-3.23,5.4-.74.34-1.5.69-2.29,1.07-5.28,2.5-10.28,5.26-14.93,8.2-.28-.35-.69-.61-1.17-.67-5.4-.63-10.67-4.05-13.81-7.03-3.36-3.19-6.54-8.05-7.74-11.82-.87-2.75-.94-4.55-1-6.3-.04-.92-.07-1.87-.22-2.9-.15-1.01-.36-1.96-.6-2.87.91-.98,2.59-2.06,3.61-2.2.55-.08.93-.59.86-1.14-.08-.55-.59-.95-1.14-.85-1.11.16-2.7.97-3.95,2.01-.21-.65-.41-1.27-.6-1.84l-.21-.61c.13.04.24.09.37.13.17.05.34.08.52.08.75,0,1.44-.48,1.67-1.23.29-.92-.23-1.9-1.15-2.19-4.95-1.53-7.76-5.21-7.71-10.09,0-.56.02-1.1.06-1.65,1.15,2.47,2.95,4.65,5.11,5.94,2.33,1.39,5.76,1.83,8.76,1.83,2.64,0,4.95-.34,5.9-.68.7-.25,1.07-1.02.82-1.72-.25-.7-1.02-1.07-1.72-.82-1.7.6-9.05,1.06-12.39-.93-2.97-1.77-5.13-5.66-5.14-9.25,0-.17-.04-.34-.1-.48.8-2.38,2.06-5.21,4.02-8.96,2.8-5.35,10.55-12.27,21.56-15.64.92-.28,1.44-1.26,1.16-2.18-.28-.92-1.26-1.44-2.18-1.16-10.36,3.17-19.85,10.15-23.62,17.36-4.23,8.07-5.67,12.69-5.72,18.3,0,.15,0,.29.01.43-2.77-4.95-7.91-11.45-14.22-15.19-6.71-3.98-11.84-3.64-15.58-2.89-.95.19-1.56,1.11-1.37,2.06.19.95,1.1,1.56,2.06,1.37,3.12-.62,7.42-.9,13.11,2.46,5.82,3.45,10.69,9.77,13.09,14.13.4.72.82,1.48,1.28,2.29,2.2,3.93,4.9,8.74,6.78,13.84-1.06-1.08-2.17-1.7-3.37-1.86-1.53-.2-3.06.36-4.55,1.68-2.22,1.97-2.02,5.41-1.83,8.44.01.2.02.4.04.6-.59-.17-1.25-.05-1.72.42l-.7.7c-1.09-3.5-2.9-9.25-3.55-10.88-1.29-3.24-5.62-4.47-8-4.71-1.01-.83-3.88-4.92-4.42-6.74-.28-.92-1.25-1.45-2.18-1.17-.92.27-1.45,1.25-1.17,2.17.45,1.5,1.8,3.73,2.9,5.31,2.65,3.78,3.72,3.85,4.3,3.88,2.14.14,4.78,1.2,5.32,2.55.88,2.2,4.27,13.27,4.3,13.38.18.59.65,1.04,1.25,1.19.14.03.28.05.42.05.46,0,.9-.18,1.24-.51l2.67-2.67c.3.26.69.44,1.13.44.96,0,1.75-.78,1.75-1.75,0-.77-.05-1.61-.1-2.46-.13-2.13-.29-4.78.66-5.62.69-.61,1.29-.89,1.76-.82.71.09,1.59.91,2.49,2.3,1.89,2.92,2.54,9.21,2.94,12.97.08.8.16,1.51.23,2.11.19,1.53.58,6.61-2.35,7.78-.9.36-1.33,1.38-.98,2.27.27.69.93,1.1,1.63,1.1.22,0,.43-.04.65-.13,3.6-1.44,5.25-5.62,4.52-11.46-.08-.57-.14-1.26-.22-2.03-.12-1.12-.25-2.39-.43-3.72,1.64,4.95,5.46,10.11,8.58,13.08,1.58,1.5,6.93,6.15,13.86,7.64-2.97,2.38-6.13,5.77-7.5,8.78-.4.88,0,1.91.87,2.31.23.11.48.16.72.16.13,0,.26-.03.38-.05-7.03,4.27-14.64,9.08-20.31,13.53-4.34,3.41-11.08,8.77-16.58,13.43-.31-.43-.68-.89-1.09-1.33,5.04-3.41,9.79-9.02,11.55-13.86,1.86-5.11,3.31-12.91,3.31-17.77,0-.96-.78-1.75-1.74-1.75s-1.75.78-1.75,1.75c0,4.44-1.39,11.88-3.1,16.58-1.72,4.71-6.99,10.54-12.01,13.26-4.98,2.7-11.1,2.92-16.39.59-5.85-2.58-12.41-7.06-17.53-11.99-3.44-3.31-7.69-9.83-9.48-14.53-.95-2.49-2.02-4.61-3.06-6.66-1.01-1.99-1.96-3.87-2.73-5.95-1.19-3.22-1.79-6.17-2.62-10.24-.26-1.25-.53-2.6-.85-4.09-.2-.94-1.13-1.54-2.07-1.34-.94.21-1.55,1.13-1.34,2.08.32,1.48.6,2.82.85,4.06.71,3.48,1.26,6.17,2.15,8.94-.51-.41-1.07-.86-1.73-1.37-2.55-1.96-3.77-7.13-4.55-11.41-.17-.95-1.08-1.57-2.03-1.41-.95.17-1.58,1.08-1.41,2.03,0,.07.03.14.04.22-.88-1.21-1.96-3.59-2.57-6.27-.62-2.75-.93-7.59-.2-12.19.63-3.96,2.48-11.46,7.86-17.29,4.54-4.92,15.44-12.85,21.69-15.08,6.23-2.23,12.84-1.48,14.66,0,.74.61,1.85.5,2.45-.25.61-.74.5-1.85-.24-2.45-3.24-2.66-11.51-2.93-18.04-.59-6.88,2.45-18.26,10.76-23.09,16-6,6.51-8.05,14.77-8.74,19.11-.7,4.45-.61,9.76.25,13.51.73,3.23,2.35,7.21,4.3,8.83.33.27.72.4,1.12.4.45,0,.89-.18,1.22-.51.98,4.19,2.42,8.01,5.15,10.11,2.87,2.2,3.82,3.1,4.84,4.54.34.47.88.73,1.42.73.11,0,.22-.03.34-.05.26.51.51,1.02.77,1.51.99,1.97,2.03,4,2.91,6.33,1.98,5.19,6.51,12.13,10.33,15.8,5.41,5.2,12.34,9.94,18.55,12.67,2.88,1.27,5.96,1.89,9.04,1.89,3.23,0,6.44-.7,9.36-2.08,0,.01.01.03.03.04.49.39,1.07,1.12,1.54,1.79-1.37,1.2-2.61,2.32-3.61,3.29-1.31,1.26-2.9,2.85-4.64,4.6-5.33,5.37-11.97,12.06-16.77,15.15-1.42.91-3.7,1.58-5.76,2.11-3.03.78-5.49,1.58-7.65,2.91-2.08,1.28-2.77,2.49-3.65,4.02-.18.31-.37.65-.6,1.03-1.32,2.19-1.96,3.96-2.47,5.39l-.24.66c-.75,2.03-1.22,3.46-1.03,4.62.32,1.93,1.01,2.73,1.97,3.84.21.24.44.52.71.84.26.32.5.63.73.93,1.09,1.42,2.23,2.88,4.4,3.69.4.15.84.22,1.28.22.85,0,1.74-.27,2.5-.8,1.12-.78,1.77-1.98,1.77-3.28,0-.78-.2-1.68-.54-2.57.16.03.32.05.48.09.19,1.75,1.26,3.71,3.3,4.27.49.14.99.21,1.49.21,1.34,0,2.62-.48,3.34-1.32.03-.03.04-.06.07-.09.66.37,1.48.6,2.36.6.92,0,1.9-.25,2.8-.83,1.39-.9,2.44-2.68,3.36-4.5,2.51-1.72,4.32-2.99,4.94-5.27.35-1.29.44-2.4.5-3.21.02-.31.04-.58.08-.77.19-.85.65-1.48,1.37-1.88,1.56-.86,16.08-8.4,21.06-10.97.19-.1.4-.22.6-.33.69,1.47,2.16,5.16,2.88,7.35.23.7.86,1.14,1.55,1.18-.86,2.18-1.43,4.31-1.17,6.23,0,.04.03.07.04.1,0,.04,0,.07,0,.1,2.88,11.23,8.67,28.62,15.48,40.7,6.5,11.52,11.94,19.74,17.64,26.64,3.62,4.38,6.17,8.07,8.25,12.17h3.88c-2.34-4.98-5.22-9.3-9.43-14.39h0Z"/><path class="cls-5" d="m297.97,219.34c-1.82,1.45-1.81,3.75-1.81,5.42,0,.64-1.18,1.35-1.75,1.69-1.75,1.05-2.31,2.8-2.77,4.65-.24.96-.49,1.57-2.42,1.89-2.93.49-4.17,1.12-5.71,2.93-.96,1.12-1.9,1.83-3.84,2.12-1.34.2-2.58.99-3.79,1.74-.57.35-1.08.67-1.52.9,1.25-2.87,1.84-4.73,2.16-6.72l.05-.28c.43-2.55.96-5.72-2.59-9.02-.92-.85-1.33-1.76-1.81-2.81-.82-1.8-1.83-4.03-5.51-5.72-2.03-.93-5.18-2.56-8.52-4.29-5.02-2.59-10.71-5.54-14.68-7.2-6.35-2.67-18.15-10.02-21.25-12.5-2.26-1.81-3.4-2.02-5.36-2.27-.99-.13-2.23-.28-4.19-.82-5.03-1.35-22.58-8.91-29.44-12.57,4.43-5.27,11.55-17.88,14.24-27.99,5.95,2.93,15.87,6.06,24.01,8.62,5.19,1.63,9.68,3.04,11.77,3.97,1.44.64,2.71,1.15,3.88,1.62,3.54,1.42,6.11,2.44,10.12,5.98,5.37,4.73,18.22,16.92,23.73,24.36,3.83,5.19,5.64,6.86,7.09,8.21.67.62,1.2,1.11,1.83,1.87.48.57.86,1.06,1.2,1.49,1.19,1.53,1.98,2.54,4.51,4.17.29.19.62.28.94.28.58,0,1.14-.28,1.47-.8.42-.64.33-1.46-.13-2.02,2.15-.16,4.17-.69,5.51-2.24,1.02-1.18,2.34-2.94,3.43-4.77,1.33.76,1.33,1.21,1.16,2.31-.14.9-.32,1.74-.5,2.55-.39,1.76-.74,3.43-.58,5.12.14,1.38.46,2.48.82,3.75.25.86.53,1.83.78,3.04.54,2.5-.1,3.01-.53,3.35h0Zm3.45-17.27c.66-4.3-2.26-5.65-4.6-6.74-.86-.39-1.87-.04-2.29.8-1.03,2.06-2.69,4.3-3.8,5.59-.82.95-2.8,1.09-4.83,1.09-.52,0-.98.25-1.3.61-.24-.28-.48-.59-.76-.95-.36-.46-.76-.97-1.27-1.58-.77-.93-1.43-1.54-2.13-2.19-1.34-1.25-3.01-2.8-6.66-7.72-6.12-8.29-19.89-21.08-24.23-24.91-4.47-3.95-7.41-5.12-11.14-6.6-1.14-.46-2.37-.95-3.76-1.56-2.28-1.01-6.85-2.45-12.14-4.12-8.43-2.65-18.8-5.91-24.3-8.81.31-1.93.41-3.7.21-5.23-.06-.49-.33-.93-.73-1.21l-1.42-.99c-7.21-5.06-20.64-14.48-27.9-17.47-.9-.37-1.91.06-2.28.95-.37.89.06,1.91.95,2.28,6.9,2.84,20.12,12.12,27.23,17.1l.76.53c.49,9.65-11.43,30.94-15.76,34.65-4.47,3.83-5.82,3.66-8.21,2.94-.69-.21-2.13-.66-4.02-1.26-7.19-2.28-20.57-6.53-25.09-7.32l-1.31-.22c-5.78-.99-15.45-2.64-20.95-8.33-3.7-3.84-5.48-8.84-4.87-13.73.12-.96-.56-1.83-1.52-1.95-.95-.12-1.83.56-1.95,1.51-.74,5.94,1.38,11.99,5.83,16.59,6.29,6.51,16.67,8.28,22.88,9.34l1.28.22c4.29.76,18.03,5.12,24.64,7.22,1.91.6,3.37,1.07,4.07,1.28,1.17.35,2.21.54,3.22.54,2.32,0,4.42-1.02,7.31-3.37,6.44,3.61,25.62,11.91,31.16,13.4,2.2.6,3.62.77,4.66.9,1.55.2,2.02.26,3.62,1.54,3.31,2.65,15.36,10.17,22.08,12.99,3.85,1.61,9.47,4.52,14.43,7.09,3.37,1.75,6.56,3.4,8.67,4.36,2.49,1.14,3.04,2.34,3.79,3.99.56,1.22,1.18,2.6,2.61,3.93,2.17,2.01,1.91,3.55,1.52,5.87l-.05.29c-.36,2.15-1.11,4.22-2.98,8.25-.34.74-.13,1.63.53,2.13.8.61,1.63.85,2.44.85,1.7,0,3.35-1.03,4.67-1.87.86-.54,1.83-1.15,2.45-1.25,2.56-.38,4.3-1.34,5.98-3.31.94-1.1,1.36-1.37,3.63-1.75,2.97-.5,4.58-1.88,5.23-4.49.4-1.6.69-2.21,1.18-2.5,1.12-.67,3.45-2.07,3.45-4.69,0-1.49.08-2.35.5-2.69,1.88-1.5,2.44-3.67,1.77-6.81-.28-1.32-.58-2.36-.84-3.27-.33-1.16-.6-2.07-.7-3.14-.12-1.13.17-2.47.51-4.02.19-.88.39-1.79.54-2.76h0Z"/><path class="cls-5" d="m270.7,238.31c.77-.58.93-1.67.35-2.45-.58-.77-1.67-.93-2.45-.35-3.57,2.68-9.02,6.31-15.21,9.81h6.88c4.18-2.57,7.8-5.04,10.43-7.01h0Z"/><path class="cls-5" d="m192.51,229.24c1.47-1.36,2.93-2.69,4.3-4,9.26-8.78,17.38-16.63,22.92-23.77.59-.76.45-1.86-.31-2.45-.76-.6-1.86-.45-2.45.3-5.39,6.94-13.41,14.69-22.57,23.38-1.36,1.29-2.8,2.62-4.26,3.96-6.52,6-13.26,12.2-16.84,18.65h0s4.1,0,4.1,0c3.52-5.41,9.38-10.83,15.1-16.09h0Z"/><path class="cls-5" d="m131.65,44.9c-3.27-.58-8.68.13-11.34,1.51-.49.26-.69.86-.43,1.36.18.34.53.55.9.55.15,0,.31-.04.46-.11,2.31-1.19,7.19-1.82,10.07-1.32.55.1,1.07-.26,1.17-.82.1-.55-.27-1.07-.82-1.17h0Z"/></g></g></svg>