<?xml version="1.0" encoding="UTF-8"?><svg id="Layer_1" xmlns="http://www.w3.org/2000/svg" xmlns:xlink="http://www.w3.org/1999/xlink" viewBox="0 0 268.36 245.33"><defs><style>.cls-1{fill:#241916;}.cls-2{fill:#5a5858;}.cls-3{clip-path:url(#clippath);}.cls-4{fill:#f7df64;}.cls-5{fill:none;}.cls-6{fill:#010101;}</style><clipPath id="clippath"><rect class="cls-5" x="-288.36" width="268.36" height="245.33"/></clipPath></defs><g class="cls-3"><g><path class="cls-6" d="m9.6,219.34c-1.82,1.45-1.81,3.75-1.81,5.42,0,.64-1.18,1.35-1.75,1.69-1.75,1.05-2.31,2.8-2.77,4.65-.24.96-.49,1.57-2.42,1.89-2.93.49-4.17,1.12-5.71,2.93-.96,1.12-1.9,1.83-3.84,2.12-1.34.2-2.58.99-3.79,1.74-.57.35-1.08.67-1.52.9,1.25-2.87,1.84-4.73,2.16-6.72l.05-.28c.43-2.55.96-5.72-2.59-9.02-.92-.85-1.33-1.76-1.81-2.81-.82-1.8-1.83-4.03-5.51-5.72-2.03-.93-5.18-2.56-8.52-4.29-5.02-2.59-10.71-5.54-14.68-7.2-6.35-2.67-18.15-10.02-21.25-12.5-2.26-1.81-3.4-2.02-5.36-2.27-.99-.13-2.23-.28-4.19-.82-5.03-1.35-22.58-8.91-29.44-12.57,4.43-5.27,11.55-17.88,14.24-27.99,5.95,2.93,15.87,6.06,24.01,8.62,5.19,1.63,9.68,3.04,11.77,3.97,1.44.64,2.71,1.15,3.88,1.62,3.54,1.42,6.11,2.44,10.12,5.98,5.37,4.73,18.22,16.92,23.73,24.36,3.83,5.19,5.64,6.86,7.09,8.21.67.62,1.2,1.11,1.83,1.87.48.57.86,1.06,1.2,1.49,1.19,1.53,1.98,2.54,4.51,4.17.29.19.62.28.94.28.58,0,1.14-.28,1.47-.8.42-.64.33-1.46-.13-2.02,2.15-.16,4.17-.69,5.51-2.24,1.02-1.18,2.34-2.94,3.43-4.77,1.33.76,1.33,1.21,1.16,2.31-.14.9-.32,1.74-.5,2.55-.39,1.76-.74,3.43-.58,5.12.14,1.38.46,2.48.82,3.75.25.86.53,1.83.78,3.04.54,2.5-.1,3.01-.53,3.35h0Zm3.45-17.27c.66-4.3-2.26-5.65-4.6-6.74-.86-.39-1.87-.04-2.29.8-1.03,2.06-2.69,4.3-3.8,5.59-.82.95-2.8,1.09-4.83,1.09-.52,0-.98.25-1.3.61-.24-.28-.48-.59-.76-.95-.36-.46-.76-.97-1.27-1.58-.77-.93-1.43-1.54-2.13-2.19-1.34-1.25-3.01-2.8-6.66-7.72-6.12-8.29-19.89-21.08-24.23-24.91-4.47-3.95-7.41-5.12-11.14-6.6-1.14-.46-2.37-.95-3.76-1.56-2.28-1.01-6.85-2.45-12.14-4.12-8.43-2.65-18.8-5.91-24.3-8.81.31-1.93.41-3.7.21-5.23-.06-.49-.33-.93-.73-1.21l-1.42-.99c-7.21-5.06-20.64-14.48-27.9-17.47-.9-.37-1.91.06-2.28.95-.37.89.06,1.91.95,2.28,6.9,2.84,20.12,12.12,27.23,17.1l.76.53c.49,9.65-11.43,30.94-15.76,34.65-4.47,3.83-5.82,3.66-8.21,2.94-.69-.21-2.13-.66-4.02-1.26-7.19-2.28-20.57-6.53-25.09-7.32l-1.31-.22c-5.78-.99-15.45-2.64-20.95-8.33-3.7-3.84-5.48-8.84-4.87-13.73.12-.96-.56-1.83-1.52-1.95-.95-.12-1.83.56-1.95,1.51-.74,5.94,1.38,11.99,5.83,16.59,6.29,6.51,16.67,8.28,22.88,9.34l1.28.22c4.29.76,18.03,5.12,24.64,7.22,1.91.6,3.37,1.07,4.07,1.28,1.17.35,2.21.54,3.22.54,2.32,0,4.42-1.02,7.31-3.37,6.44,3.61,25.62,11.91,31.16,13.4,2.2.6,3.62.77,4.66.9,1.55.2,2.02.26,3.62,1.54,3.31,2.65,15.36,10.17,22.08,12.99,3.85,1.61,9.47,4.52,14.43,7.09,3.37,1.75,6.56,3.4,8.67,4.36,2.49,1.14,3.04,2.34,3.79,3.99.56,1.22,1.18,2.6,2.61,3.93,2.17,2.01,1.91,3.55,1.52,5.87l-.05.29c-.36,2.15-1.11,4.22-2.98,8.25-.34.74-.13,1.63.53,2.13.8.61,1.63.85,2.44.85,1.7,0,3.35-1.03,4.67-1.87.86-.54,1.83-1.15,2.45-1.25,2.56-.38,4.3-1.34,5.98-3.31.94-1.1,1.36-1.37,3.63-1.75,2.97-.5,4.58-1.88,5.23-4.49.4-1.6.69-2.21,1.18-2.5,1.12-.67,3.45-2.07,3.45-4.69,0-1.49.08-2.35.5-2.69,1.88-1.5,2.44-3.67,1.77-6.81-.28-1.32-.58-2.36-.84-3.27-.33-1.16-.6-2.07-.7-3.14-.12-1.13.17-2.47.51-4.02.19-.88.39-1.79.54-2.76h0Z"/><path class="cls-6" d="m-7.46,147.73c9.07,8.18,14.37,21.64,15.73,28.69.98,5.08.68,11.49-.72,15.58-.31.91.18,1.9,1.09,2.22.19.06.38.09.56.09.73,0,1.41-.46,1.66-1.18,1.57-4.61,1.92-11.75.84-17.37-1.45-7.51-7.12-21.86-16.82-30.62-.72-.65-1.82-.59-2.47.13-.65.72-.59,1.82.13,2.47h0Z"/></g></g><g><path class="cls-4" d="m260.66,245.33H96.4s-2.26-27.14-1.67-36.57c.59-9.43,2.26-25.25,2.78-28.97.59-4.27,2.06-7.44,3.98-9.87,12.6,4.71,37.85,7.51,50.99,6.77,14.14-.78,30.45-3.04,42.23-6.38,7.53-2.13,15.91-5.11,25.24-9.92,10.41,4.03,19.55,8.25,25.05,17.48,4.77,8,7.44,21.38,9.92,33.44,2.11,10.27,4.27,22.4,5.75,34.02h0Z"/><path class="cls-4" d="m72.38,177.43c.15,6.48-1.03,17.23-2.65,24.16-1.62,6.93-4.05,20.11-7.29,28.8-.95-11.49-.39-21.3.37-29.1.95-9.8,3.61-21.06,9.57-23.86h0Z"/><path class="cls-2" d="m99.24,122.48c1.04-8.2.68-15.81-.83-26.42-1.81-12.76-2.7-20.35.15-38.4,1.77-11.2,8.12-23.47,11.61-29.32,5.38-8.99,9.8-13.21,15-14.98,3.59-1.22,8.06-1.28,11.19-.69,3.93-5.59,11.23-6.67,18.07-5.89,9.53,1.08,16.6,4.71,23.67,9.63,7.07,4.91,16.2,17.19,19.74,26.52,2.97,7.85,6.68,21.61,7.66,27.3.98,5.69,2.75,29.27,2.55,37.72-.2,8.44,0,26.91.2,30.44.2,3.54,2.56,11.86,4.13,13.75-4.91.39-11.19-2.75-14.93-5.3-3.73-2.55-9.23-6.29-11.19-12.18-1.97-5.89-3.53-16.11-3.93-19.84,4.32-4.91,8.25-11.98,8.84-16.11,5.84-.8,7.46-4.32,8.05-6.48.59-2.16,2.16-8.44,2.95-12.18.78-3.73,1.37-6.87.2-10.8-1.18-3.92-2.36-6.09-3.93-6.29-1.57-.2-3.34.4-4.52,2.16-.59-3.14-1.57-5.89-2.36-8.25-.79-2.36-1.57-4.13-4.91-5.5-3.34-1.37-14.92-6.68-22.98-11-8.05-4.32-16.5-8.84-20.62-12.18-4.13-3.34-7.27-6.68-8.64-9.24-6.48,3.93-10.98,7.83-15.25,13.65-3.77,5.14-7.34,12.28-8.32,19.35-.98,7.07-.88,9.53-.88,11.89-3.34,5.1-5.21,12.86-5.6,16.2,2.16,6.09,3.04,7.71,3.83,11.05s2.07,10.83,7.96,10.17c3.24,7,6.33,11.05,10.21,14.73,3.43,3.26,5.9,7.07,5.9,11s-.2,7.04-2.56,11.83c-2.05,4.16-6.11,9.21-16.89,13.31,2.01-6.68,3.02-11.3,3.41-13.46.4-2.16.68-4.92-1.25-7.15-1.92-2.21-3.68-4.86-4.91-6.9-.94-1.55-3.37-2.78-5.17-1.71-1.05.63-2.17,1.53-2.78,2.27l-2.86-2.72h0Z"/><path class="cls-6" d="m96.79,102.39c.81,6.64,1.03,9.56.7,12.72-.12,1.17.73,2.22,1.9,2.34.07.01.15.01.22.01,1.08,0,2.01-.82,2.12-1.91.37-3.61.09-6.99-.71-13.68-.27-2.25-.56-4.35-.84-6.38-1.04-7.62-1.94-14.2-1.5-24.98.83-20.34,5.23-31.34,13.62-45.68,7.73-13.23,15.93-13.23,21.36-13.23,1.18,0,2.13-.95,2.13-2.13s-.95-2.13-2.13-2.13c-7.78,0-16.77,1.18-25.04,15.33-8.55,14.62-13.34,26.55-14.2,47.66-.45,11.15.47,17.91,1.55,25.73.27,2.01.56,4.08.83,6.32h0Z"/><path class="cls-6" d="m111.88,97.22c-.61-.85-.88-1.99-1.26-3.56-.38-1.6-.86-3.61-1.9-6.13-1.22-2.95-2.73-6.64-2.24-10.74.01-.14,0-.27-.01-.4.03-.09.06-.18.09-.27.76-2.3,1.68-4.58,2.58-6.79.3,3.84.83,8.41,1.78,13.15.34,1.71.63,3.45.94,5.29.66,3.93,1.33,7.94,2.54,11.79-.71-.35-1.57-1.01-2.52-2.34h0Zm16.07,46.27c.34.2.7.29,1.07.29.74,0,1.45-.38,1.85-1.07,2.6-4.48,4.17-11.76,4-15.74-.22-5.25-3.04-8.98-6.05-12.23l-.44-.47c-1.86-2-4.19-4.49-7.44-10.19-2.87-5.02-3.89-11.11-4.87-17-.3-1.79-.6-3.65-.96-5.43-1.3-6.52-2.08-14.54-2.08-21.44,0-5.72,1.14-14.18,4.32-20.77,2.87-5.95,6.96-11.04,12.89-16.03.9-.76,1.01-2.1.25-3-.76-.91-2.1-1.02-3-.26-6.4,5.39-10.85,10.93-13.98,17.44-3.49,7.24-4.74,16.43-4.74,22.63,0,.37,0,.82.01,1.32-.66,1.86-1.44,3.79-2.27,5.8-1.02,2.52-2.08,5.11-2.97,7.79-1.1,3.3-2.47,7.42-2.56,15.93,0,.88.7,1.61,1.59,1.62h.02c.87,0,1.59-.7,1.59-1.58.03-2.21.14-4.08.31-5.72.41,1.24.88,2.38,1.29,3.39.94,2.3,1.37,4.09,1.75,5.67.43,1.78.79,3.32,1.76,4.67,1.61,2.26,3.42,3.56,5.55,3.98.1.02.21.04.31.04.18,0,.37-.04.54-.09.46,1.08.96,2.15,1.56,3.2,3.5,6.13,6.12,8.93,8.02,10.98l.43.46c3.4,3.68,4.78,6.35,4.91,9.51.14,3.31-1.3,9.75-3.43,13.43-.59,1.02-.24,2.32.78,2.91h0Z"/><path class="cls-6" d="m134.04,18.3c-1,.62-1.3,1.94-.68,2.94,4.93,7.88,16.58,14.35,26.85,20.06,4,2.23,8.45,4.53,12.61,6.59-5.19-1.06-11.9.29-15.54,2.33-.77.43-1.04,1.41-.61,2.18.3.52.84.82,1.4.82.27,0,.53-.07.78-.21,3.32-1.86,10.01-3.04,14.31-1.75.85.25,1.73-.23,1.99-1.07.12-.42.07-.85-.12-1.21,4.95,2.42,9.26,4.38,11.57,5.3,3.05,1.22,4.43,8.1,4.43,12.59,0,1.08.81,1.99,1.88,2.12,1.07.12,2.07-.56,2.33-1.6.24-.98.85-1.88,1.49-2.18.23-.11.54-.2,1.05.04,1.57.72,2.36,3.52,2.36,8.32,0,5.09-.36,7.78-1.42,10.7-1.34,3.68-2.28,6.48-2.87,8.57-.24.84-1.53,1.94-2.73,2.39.24-1.86.37-3.78.36-5.58,0-1.17-.96-2.13-2.13-2.13h-.01c-1.17,0-2.13.96-2.12,2.14.01,3.54-.53,7.54-1.43,10.44-.88,2.85-1.36,4.11-2.46,6-1.55,2.65-3.13,4.81-4.82,6.58-.04.04-.06.08-.09.12-.05.07-.11.12-.15.2-.04.06-.07.12-.09.18-.04.07-.07.12-.09.19-.03.07-.05.14-.07.21-.02.06-.04.12-.05.18-.02.09-.02.17-.02.25,0,.05-.02.09-.02.14v.04h0c.01,4.81,1.47,14,3.92,21.16,1.82,5.32,5.62,9.99,10.7,13.14,6.04,3.74,9.54,5.15,13.82,6.73.24.09.49.14.73.14.87,0,1.68-.53,2-1.4.41-1.1-.16-2.33-1.26-2.74-4.17-1.54-7.34-2.81-13.05-6.35-4.19-2.6-7.44-6.57-8.92-10.9-2.38-6.96-3.53-14.95-3.67-19.03,1.7-1.88,3.29-4.07,4.82-6.7,1.32-2.27,1.92-3.89,2.85-6.9.16-.53.31-1.08.45-1.66,1.6-.06,3.3-.73,4.71-1.78.67,7.94-.82,15.2-2.44,22-1.71,7.15-1.92,14.36-.58,19.29.2.71.84,1.18,1.55,1.18.14,0,.28-.02.42-.06.85-.23,1.35-1.11,1.12-1.96-1.19-4.37-.96-11.16.6-17.71,1.9-7.97,3.62-16.56,2.13-26.25.05-.13.1-.27.14-.4.57-1.98,1.48-4.69,2.78-8.28,1.21-3.32,1.65-6.45,1.67-11.78,2.33,15.47,2.32,32.25,2.31,42.97v2.15c0,11.87.1,17.42.33,25.39.04,1.15.98,2.07,2.13,2.07h.06c1.18-.03,2.1-1.01,2.07-2.19-.23-7.92-.33-13.45-.33-25.27v-2.14c.02-12.99.04-34.73-4.04-52.73-4.01-17.67-8.21-31.58-15.68-41.97-9.11-12.69-20.36-18.23-28.2-20.64-8.95-2.75-17.64-1.88-24.47,2.47-.99.63-1.28,1.95-.66,2.94.63.99,1.95,1.28,2.94.65,5.76-3.66,13.2-4.37,20.93-1.99,7.21,2.21,17.57,7.32,25.99,19.05,6.91,9.61,10.93,22.73,14.75,39.41-.71-1.17-1.67-2.14-2.99-2.75-1.55-.7-3.21-.7-4.68,0-.02.01-.04.02-.07.03-.7-4.16-2.42-9.39-6.62-11.08-4.42-1.76-16.42-7.47-25.91-12.75-9.34-5.19-20.96-11.64-25.3-18.59-.62-1-1.94-1.3-2.94-.68h0Z"/><path class="cls-6" d="m137.6,123.27c4.59,2.08,9.42,3.14,14.42,3.14,1.41,0,2.84-.09,4.28-.25,5.22-.61,12.86-2.88,18.22-6.56.73-.5.91-1.49.41-2.22-.5-.73-1.49-.91-2.22-.41-4.9,3.37-11.96,5.45-16.78,6.01-5.93.69-11.66-.18-17.01-2.62-.8-.36-1.75,0-2.11.8-.37.8-.01,1.75.79,2.11h0Z"/><path class="cls-6" d="m131.21,64.15c-2.1,0-3.8,1.7-3.8,3.8s1.7,3.8,3.8,3.8,3.8-1.7,3.8-3.8-1.7-3.8-3.8-3.8h0Z"/><path class="cls-6" d="m171.16,64.95c0-2.1-1.7-3.8-3.79-3.8s-3.8,1.7-3.8,3.8,1.7,3.79,3.8,3.79,3.79-1.7,3.79-3.79h0Z"/><path class="cls-6" d="m138.42,95.99c-.88-.07-1.65.59-1.72,1.47-.07.88.59,1.65,1.47,1.72.5.04,1.04.07,1.6.08,2.94,4.73,7.65,6.41,11.55,6.41.42,0,.83-.02,1.23-.06,4.48-.41,7.88-2.15,10.4-5.32.55-.69.44-1.7-.25-2.25-.69-.54-1.69-.43-2.24.25-1.98,2.49-4.58,3.79-8.2,4.13-2.63.25-5.98-.52-8.47-3.14,7.63-.17,17.45-1.39,22.76-2.99.84-.26,1.32-1.15,1.07-2-.25-.85-1.15-1.33-1.99-1.07-5.77,1.74-19.46,3.35-27.2,2.75h0Z"/><path class="cls-6" d="m136.51,54.57c.23-.85-.29-1.73-1.14-1.95-3.65-.95-11.56-.08-15.59,2.29-.76.44-1.02,1.43-.57,2.18.3.51.83.79,1.38.79.27,0,.55-.07.81-.22,3.44-2.02,10.53-2.63,13.17-1.95.85.22,1.73-.29,1.95-1.14h0Z"/><path class="cls-6" d="m147.94,83.35s.08,0,.12,0c.82,0,1.53-.64,1.59-1.47.25-3.3-.25-8.96-.73-11.55-.16-.87-.99-1.44-1.86-1.28-.86.16-1.44.99-1.28,1.86.49,2.69.9,7.96.69,10.73-.07.88.59,1.65,1.47,1.72h0Z"/><path class="cls-6" d="m114.61,117.89c-3.72-5.7-6.93-10.63-8.84-20.19-.17-.86-1.01-1.43-1.88-1.26-.86.17-1.43,1.02-1.26,1.88,2.04,10.17,5.56,15.58,9.29,21.31l.83,1.28c5.13,7.94,6.1,13.65,6.1,21.41,0,.88.72,1.6,1.6,1.6s1.6-.72,1.6-1.6c0-8.18-1.08-14.59-6.62-23.14l-.83-1.29h0Z"/><path class="cls-6" d="m191.86,39.56s.06,0,.09,0c.84,0,1.55-.66,1.59-1.52.05-.88-.63-1.63-1.51-1.68-6.52-.34-26.55-5.96-35.76-12.44-.72-.51-1.72-.34-2.23.38-.5.72-.33,1.72.39,2.23,9.8,6.9,30.42,12.65,37.43,13.01h0Z"/><path class="cls-6" d="m63.88,207.7c.83-9.36,1.3-13.02,2.58-17.67,1.17-4.24,2.57-7.15,4.26-9.52-.08,1.9-.2,3.93-.34,6.12-.48,6.9-4.85,27.5-5.72,31.57-.3,1.4-.88,3.73-1.62,6.6.06-5.49.34-11.38.85-17.1h0Zm18.07-119.49c1.47-.58,3.17.75,3.95,2.37.67,1.37,1,3.36,1.29,5.11.22,1.32.41,2.46.73,3.39.59,1.71,1.79,5.72,2.53,9.23.69,3.28,1.06,5.91,1.18,8.25-2.05-.11-4.11.32-5.56,1.28-.2-4.16-.64-9.84-1.07-12.17-.49-2.68-1.64-7.51-2.39-10.71l-.31-1.3c-.8-3.4-.92-5.23-.35-5.46h0Zm12.4,33.52c2.06,1.65,5.23,4.77,6.68,6.78.01.01.02.02.04.04.02.02.03.05.05.08,1.24,1.5,1.91,3.17,2.56,4.79.3.76.59,1.47.92,2.13.62,1.23,1.3,2.76.99,3.6-.22.6-1.77,1.68-2.6,1.8-.12.02-.23.05-.34.08-.17-.62-.34-1.23-.52-1.82-.6-2.08-1.37-3.44-2.5-5.1-2.56-3.75-4.75-6.67-6.32-8.45-2.05-2.33-3.96-3.29-6.23-3.11.51-.43.93-.8,1.22-1.07,1.03-.92,4.58-.94,6.06.24h0Zm-28.87,110.56c1.51-5.78,2.81-10.77,3.33-13.2.88-4.11,5.3-24.98,5.8-32.17.31-4.5.44-8.32.56-11.7.06-1.65.11-3.23.18-4.78.12-2.58-.77-7.01-1.55-10.92-.46-2.27-.89-4.4-.98-5.52-.11-1.3-.4-2.98-.7-4.75-.41-2.33-.96-5.52-.78-6.7.37-2.42,1.26-4.27,1.76-4.67.44-.36.72-.86.79-1.43.24-2.21,1.97-4.04,3.12-5.24l.34-.36c.43-.46,2.22-1.99,4.09-3.56,1.46-.79,3.14-1.09,4.46-1.32.32-.05.62-.11.88-.16,1.11-.22,2.2-.23,4.13,1.97,1.04,1.17,2.93,3.54,6.09,8.14.99,1.45,1.59,2.5,2.07,4.17.5,1.76,1.02,3.59,1.55,5.67.17.69.46,2.33-.56,2.74-.76.31-2.53.47-3.17-.96-.09-.22-.24-.41-.42-.56.01-1.25-.02-2.62-.07-3.84-.06-1.63-.95-4.18-2.8-5.9-1.4-1.3-2.6-2.43-3.98-4-1.59-1.82-3.74-2.65-6.03-2.35-1.68.22-3.35.52-6.76,1.89-.82.33-1.22,1.26-.89,2.08.33.82,1.26,1.21,2.08.88,3.07-1.23,4.53-1.5,6-1.69,1.24-.17,2.31.27,3.2,1.29,1.47,1.68,2.8,2.92,4.2,4.23,1.06.99,1.75,2.68,1.78,3.67.04,1.2.17,4.85-.06,6.21-.14.27-1.09.5-1.43.35-.57-.3-2.61-2.17-2.7-4.75-.02-.6-.38-1.15-.93-1.4-3.07-1.4-3.67-1.79-4.05-2.58-.24-.5-.73-.84-1.29-.89-.55-.06-1.1.19-1.43.63-1.51,2.02-3.01,3-4.72,3.05-.88.03-1.57.77-1.54,1.65.03.88.74,1.56,1.65,1.55,2.17-.08,4.1-.99,5.87-2.79.79.65,1.85,1.2,3.35,1.9.41,2.67,2.04,4.69,3.33,5.77-.21.49-.18,1.06.13,1.53,1.6,2.37,2.2,6.65,2.53,10.11.08.82.78,1.44,1.59,1.44.05,0,.1,0,.15,0,.88-.09,1.52-.87,1.44-1.75-.48-4.82-1.2-8.01-2.34-10.3.53-.08,1.05-.23,1.53-.47.71-.36,1.24-.86,1.59-1.46.91.57,1.97.86,3.04.86.8,0,1.6-.15,2.33-.45,2.25-.91,3.2-3.33,2.49-6.33,1.89-.33,4.98-2.08,5.86-4.53.85-2.36-.07-4.74-1.19-6.97-.25-.5-.51-1.14-.78-1.81-.59-1.45-1.3-3.2-2.47-4.9.48-1.07,1.01-1.34,1.6-1.53h.02c.24.26.63.88.97,1.41,1.12,1.79,3.11,4.3,4.71,5.97.98,1.02,1.33,2.53.91,3.94-.52,1.76-1.27,5.19-1.94,8.21-.23,1.05-.44,2.02-.62,2.79-.63,2.76-2.74,6.55-4.72,9.88-1.24,2.11-2.54,3.87-3.79,5.58-.98,1.34-1.9,2.59-2.69,3.88-1.81,2.91-3.67,5.93-4.51,10.44-.84,4.48-2.92,27.6-3.1,35.62-.13,6.25.68,21.23,1.51,32.21h4.27c-.83-10.87-1.65-25.91-1.52-32.12.18-8.2,2.3-31.05,3.03-34.92.7-3.74,2.28-6.29,3.95-8.99.7-1.14,1.58-2.33,2.51-3.6,1.25-1.7,2.67-3.64,4.03-5.92.98-1.65,1.94-3.34,2.78-4.99,5.49-1.46,10.94-4.32,14.01-7.39.83-.83.83-2.18,0-3.01-.83-.83-2.18-.83-3.01,0-1.96,1.95-5.26,3.88-8.84,5.25.09-.32.19-.65.26-.96.18-.79.4-1.76.63-2.83.62-2.81,1.38-6.3,1.86-7.91.85-2.88.11-5.99-1.93-8.11-1.4-1.46-3.2-3.73-4.2-5.32-1.11-1.76-2.62-4.17-5.83-3.18-1.3.4-2.34,1.09-3.17,2.1-1.7-1.85-3.76-3.78-5.31-5.02-.33-.26-.7-.49-1.08-.7-.04-2.93-.45-6.14-1.31-10.27-.78-3.72-2.02-7.87-2.68-9.74-.2-.59-.37-1.62-.56-2.7-.34-2.04-.72-4.36-1.66-6.28-1.89-3.9-5.91-5.83-9.34-4.48-4.3,1.68-3.01,7.14-2.24,10.4l.31,1.31c.75,3.16,1.88,7.93,2.35,10.5.49,2.63,1.1,11.53,1.11,14.88-.3.25-.62.52-.93.78-3.61,3.01-6.02,5.05-6.75,5.83l-.31.33c-1.26,1.32-3.52,3.69-4.16,6.93-1.43,1.66-2.29,4.45-2.64,6.71-.28,1.86.24,4.88.79,8.07.3,1.68.57,3.27.66,4.37.11,1.36.54,3.52,1.05,6.01.7,3.49,1.56,7.83,1.47,9.89-.05,1.15-.1,2.34-.14,3.54-4.36,4.25-6.8,8.52-8.62,15.11-1.37,4.97-1.85,8.77-2.71,18.42-.97,10.98-1.14,22.58-.46,31.03.02.23.08.44.16.65-.55,2.14-1.09,4.27-1.6,6.33h4.39c1.08-4.3,2.28-8.89,3.36-13.04h0Z"/><path class="cls-6" d="m265.46,226.05c-1.84-10.59-5.4-29.9-8.61-40.28-3.11-10.09-5.78-15.71-13.36-22.31-6.87-5.98-21.02-11.31-28.3-13.52-1.12-.34-2.31.3-2.66,1.42-.34,1.12.3,2.31,1.42,2.66.56.17,1.18.37,1.84.58-10.3,7.55-30.17,13.18-54.87,15.53-16.56,1.57-38.05-.05-52.26-3.94-1.14-.31-2.31.36-2.62,1.49-.31,1.14.36,2.31,1.49,2.62,11.03,3.02,25.76,4.71,39.69,4.71,4.86,0,9.63-.21,14.1-.63,26.31-2.5,47.49-8.76,58.1-17.19.36-.28.6-.66.72-1.07,6.92,2.54,15.83,6.45,20.54,10.56,6.84,5.96,9.17,10.88,12.09,20.35,3.13,10.15,6.66,29.26,8.48,39.75.98,5.66,1.92,12.17,2.79,18.55h4.3c-.89-6.61-1.88-13.39-2.9-19.28h0Z"/><path class="cls-6" d="m224.97,218.09c-.2-1.16-1.3-1.94-2.46-1.73-1.16.2-1.94,1.3-1.73,2.46,1.08,6.19,2.22,16.6,3.04,26.51h4.29c-.82-10.11-2-20.76-3.13-27.24h0Z"/><path class="cls-1" d="m23.21,52.68c1.69,0,3.29.27,4.76.9,3.54,1.52,6.28,3.83,8.63,6.42-.1-1.41-.09-2.74.11-4.06.56-3.53,1.85-6.22,2.84-7.84,1.86-3.07,3.94-5.55,6.29-7.74-2.74.75-5.32,1.32-7.72,1.7-2.11.33-4.56.64-7,.12-2.16-.46-4.06-1.51-5.67-2.46-1.82-1.07-3.56-2.47-5.27-4.08.99,2.8,1.6,5.56,1.33,8.03h0c-.4,3.72-2.53,7.21-5.09,10.14,2.36-.69,4.65-1.13,6.8-1.13h0Zm15.91,15.12c-.56,0-1.1-.26-1.44-.73-2.94-4.03-6.22-8.13-11.11-10.22-4.7-2.01-12.76,1.5-17.58,3.59-.83.36-1.79.04-2.24-.74-.45-.78-.25-1.78.48-2.31,6.46-4.79,10.28-9.8,10.74-14.1h0c.41-3.79-2.13-9.17-4.36-13.92l-.83-1.79c-.37-.8-.09-1.75.65-2.23.73-.49,1.72-.36,2.3.31,4.12,4.68,7.68,8.73,11.53,10.99,1.37.81,2.97,1.7,4.6,2.04,1.86.4,3.92.12,5.72-.15,5.09-.81,11.06-2.51,17.75-5.07.86-.33,1.82.05,2.23.87.4.82.12,1.82-.66,2.3-6.32,3.91-10.69,7.34-14.31,13.3-.67,1.11-1.88,3.44-2.36,6.55-.33,2.09-.02,4.36.41,7.49l.24,1.81c.11.81-.34,1.58-1.1,1.88-.21.08-.44.12-.66.12h0Z"/></g></svg>