<?xml version="1.0" encoding="UTF-8"?><svg id="Layer_1" xmlns="http://www.w3.org/2000/svg" xmlns:xlink="http://www.w3.org/1999/xlink" viewBox="0 0 3840 911.27"><defs><style>.cls-1{fill:rgba(255,255,255,.3);}.cls-2{clip-path:url(#clippath);}.cls-3{fill:none;}.cls-4{fill:#8db9d5;}</style><clipPath id="clippath"><rect class="cls-3" x="90.03" width="3462.97" height="911.27"/></clipPath></defs><rect class="cls-4" width="3840" height="911.27"/><g class="cls-2"><path class="cls-1" d="M1222.99,694.57s26.65,39.33,64.73,36.26c36.85-2.96,67.38-46.06,76.54-60.31,2.01-3.12,5.18-5.35,8.78-6.26,8.87-2.23,16.34-3.05,24.17-9.83,22.61-19.6,20.7-58.75-6.02-69.83-19.16-7.94-25.79,18.09-41.24,33.96-9.02,9.25-8.69,19.23-7.36,25.06,.92,4.01-.05,8.19-2.49,11.5-6.82,9.24-21.99,25.37-45.86,27.44-27.32,2.37-38.35-12.68-41.81-19.16-.9-1.69-1.32-3.65-1.42-5.57-3.92-78.28-66.75-93.96-65.58-103.88,.69-5.87,6-5.72,6-5.72,148.2-18.63,120.47-119.14,120.47-119.14-11.39-34.87-4.41-63.47-3.73-66.11,.06-.19,.02-.32,.08-.51,35.92-140.34-150.34-155.04-200.13-124.86-5.32,3.23-12.17,2.57-16.83-1.55-4.48-3.97-10.36-6.37-16.83-6.37-4.62,0-8.91,1.24-12.62,3.4-4.84,2.81-10.75,2.61-15.31-.64-15.64-11.14-50.11-25.19-91.46,22.93-56.71,65.99-37.46,133.92,3.74,190.57,10.76,14.8,14.21,25.76,13.78,33.23,.01,.07,.05,.14,.05,.2,0,2.08-.65,3.92-1.54,5.62-2.05,4.3-5.89,6.34-9.89,6.32-.1,0-.18,.06-.29,.06-.09,0-.17-.05-.26-.05-1.1-.07-2.15-.31-3.21-.67-.48-.16-.96-.23-1.41-.44-.09-.05-.17-.12-.26-.18-1.96-.99-3.5-2.56-4.65-4.46-.26-.4-.57-.74-.78-1.18-.19-.41-.27-.84-.41-1.27-2.01-5.21-1.63-12.68,3.93-22.45,0,0-13.76,7.59-20.09,20.18-7.78,15.49,6.95,30.9,6.95,30.9-29.97-4.69-11.86-34-11.86-34,0,0-9.24,4.15-14.25,8.71-22.44,20.43-10.22,47.89,6.36,53.42,20.2,6.72,33.61,4.25,39.61,2.3,2.72-.88,5.6-.79,8.36-.07,48.55,12.88,57.6-29.6,59.28-45.75h0v-.02c.01-.09,.03-.19,.03-.28,.01-.09,.52-2.52,2.73-2.47,1.98,.05,2.62,2.23,2.62,2.23,5.84,16.07,12.77,49.84,63.33,48.15,.49-.02,.74,.11,1.17,.14,.44-.08,.85-.26,1.3-.26,4,0,7.25,3.24,7.25,7.25,0,3.14-2.03,5.76-4.84,6.76-.01,.01-.07,.12-.07,.12,0,0-47.06-8.4-101.91,12.54-18.39,7.02-64.29,31.65-91.38,61.77-17.35,19.28-28.36,44.94-29.74,48.67-.35,.94-1.18,1.56-2.15,1.75-25.22,4.64-38.27,30.06-41.4,37.01-.5,1.09-1.59,1.78-2.77,1.55-8.2-1.53-14.3,1.3-18.89,5.47-6.01,5.47-15.2,6.06-20.84,.22-16.33-16.89-54.7-20.23-75.98-52.62-28.47-43.32-34.84-104.49-73.21-117.38-19.82-6.67-24.63-1.07-25.17-6.28-.84-8.03,27.68-10.97,31.48-11.33,.33-.02,.62-.07,.95-.12l26.15-4.31c115.93-25.9,86.73-126.12,86.73-126.12,0,0-12.44-91.13-1.04-93.13,11.39-2.01,36.19-21.47,40.69-43.45,5.02-24.53-16.58-16.83-16.58-16.83,0,0-50.9,20.76-52.65-13.39-1.76-34.14-43.81-14.74-37.1-24.79,6.7-10.05,1.34-18.76,1.34-18.76,0,0-4.35-8.37-14.9-.33-6.13,4.67-26.27,16.22-26.27,16.22-2.13,.82-4.37-1-3.9-3.23,.91-4.42,1.88-12.29,2.21-26.2,.54-23.09-45.29,10.34-62.18,23.42-1.92,1.49-4.68,.02-4.59-2.39,.9-22.65-50.89,3.9-50.89,3.9-117.67,48.9-109.41,186.88-106.05,233.1,3.35,46.21,26.78,69.66,37.44,67.69,10.66-1.96,10.1-15.1,10.1-15.1,8.71,25.81,73.68,29.95,79.88,44.53,6.45,15.16-16.49,3.7-75.18,5.45-40.34,1.2-103.31,23.67-135,60.79-9.34,10.95-9.34,17.15-16.71,25.85-6.8,8.04-22.8,11.18-32.57,11.17-6.62-.01-13.34,.75-19.52,3.15-61.24,23.89-30.01,69.38-30.01,69.38,0,0,13.52,25.44,40.81,19.26,19.84-4.49,8.5-16,31.9-32.28,4.21-2.93,21.06,1.84,32.91-11.17,1.27-1.39,55.49-45.72,101.64-42.76,12.58,.81,23.1,12.28,22.32,24.86-1.6,25.45-21.76,58.67-30.44,69.59-31.14,39.19-15.1,78.34-14.92,84.97,.01,.48-.06,.82-.27,1.25-3.03,6.12-29.22,56.96-71.34,70.02-44.82,13.9-81.47-50.43-81.51-50.52,.05-.56,15.76-37.98-27.91-45.8-59.74-10.68-65.77,138.45-65.77,141.36,0,15.21,12.53,28.84,20.54,28.84,24.55,2.85,32.7-56.97,36.51-62.09,4.22-5.68,10.33-5.38,14.33,.46,33,48.02,98.54,61.69,99.69,61.93,.05,.01,.03,0,.09,.01,107.56,20.56,152.29-91.63,158.88-110.06,.51-1.46,2.11-2.21,3.59-1.79,104.94,29.77,112.75,151.51,109.01,208.64-3.76,57.62,31.91,43.52,86.63,27.48,54.71-16.05,61.83-19.46,48.65-44.7-10.68-20.45-42.4-10.39-54.06-5.83-2.02,.78-4.05-.94-3.83-3.11,12.59-119.23-34.59-179.14-72.94-237.76-16.82-25.71,3.66-88.6,6.95-93.43,1.39-2.04,4.37-1.53,5.13,.82,10.07,30.89,59.22,67.68,105.77,81.32,32.04,9.38,57.36,3.06,70.06-1.8,5.21-1.98,10.78-.66,15.16,2.8,18.94,14.97,52.91-.24,64.86-16.83,1.36-1.89,11.71-8.38-2.69-40.53-8.83-19.72,12.96-39.36,12.96-39.36,97.63-95.9,127.13-56.74,127.37-56.43,0,.02,0,.01,.01,.03,17.61,170.26-115.73,206.09-144.73,211.85-2.29,.45-3.03,3.27-1.35,4.89,42.31,41.03,53.33,76.35,12.5,89.23-13.17,4.15-27.36-3.08-36.65-20.99-8.12-15.69-11.43-41.5-20.7-49.23-14.05-11.69-35.18,14.11-50.84,36.4-37.8,53.82-25.83,100.23-3.57,104.36,22.26,4.13,28.69-17.84,35.74-45.77,4.96-19.63,4.18-10.5,26.06,18.36,23.97,31.65,64.21,39.21,78.04,11.87,28.59-56.54,76.24-40.37,79.07-39.35,.15,.06,.2,.09,.34,.17,86.36,49.83,160.63,29.81,188.49,19.15,8.95-3.42,19.22-.49,24.43,7.55,9.58,14.81,15.52,37.68,18.63,52.71,1.72,8.35,1.15,16.91-1.38,25.04-1.88,6.06-3.53,13.71-2.56,20.23,7.37,50.08,91.58,25.44,130.61-5.02,23.42-18.27,15.22-38.9,7.37-45.98-21.17-19.1-55.93-3.11-69.54,3.25-13.61,6.35-11.35-6.84-11.35-6.84,11.12-78.95-21.33-106.57-30.8-118.09-9.47-11.52-.62-13.94-.62-13.94,0,0,10.24-.67,20.58-12.47,10.33-11.79,.48-15.27,.48-15.27,0,0-30.91-13.11-76.56-56.56-45.65-43.45-9.47-95.69-1.55-114.77,7.92-19.07,12.63-9.46,12.63-9.46"/></g></svg>