<?xml version="1.0" encoding="UTF-8"?><svg id="Layer_1" xmlns="http://www.w3.org/2000/svg" viewBox="0 0 51.52 51.52"><defs><style>.cls-1{fill:#fff;}</style></defs><path class="cls-1" d="M25.76,0C11.53,0,0,11.53,0,25.76s11.53,25.76,25.76,25.76,25.76-11.53,25.76-25.76S39.99,0,25.76,0Zm12.97,27.13l-12.97,13.77-12.97-13.77c-1.14-1.21-1.08-3.1,.13-4.24,1.21-1.14,3.1-1.08,4.24,.13l5.61,5.95V13.62c0-1.66,1.34-3,3-3s3,1.34,3,3v15.34l5.61-5.95c1.14-1.21,3.04-1.26,4.24-.13,1.21,1.14,1.26,3.04,.13,4.24Z"/></svg>