<svg id="IG_logo" xmlns="http://www.w3.org/2000/svg" width="30.142" height="30" viewBox="0 0 30.142 30">
  <path id="パス_4" data-name="パス 4" d="M2590.028-11688.353c4.024,0,4.5.016,6.09.088a8.37,8.37,0,0,1,2.8.517,4.657,4.657,0,0,1,1.733,1.122,4.633,4.633,0,0,1,1.127,1.725,8.257,8.257,0,0,1,.519,2.784c.073,1.582.088,2.057.088,6.063s-.015,4.479-.088,6.063a8.257,8.257,0,0,1-.519,2.784,4.641,4.641,0,0,1-1.127,1.725,4.682,4.682,0,0,1-1.733,1.122,8.37,8.37,0,0,1-2.8.517c-1.589.072-2.065.088-6.09.088s-4.5-.016-6.09-.088a8.374,8.374,0,0,1-2.8-.517,4.683,4.683,0,0,1-1.733-1.122,4.642,4.642,0,0,1-1.127-1.725,8.259,8.259,0,0,1-.519-2.784c-.072-1.584-.088-2.057-.088-6.062s.016-4.48.088-6.062a8.259,8.259,0,0,1,.519-2.784,4.634,4.634,0,0,1,1.127-1.725,4.658,4.658,0,0,1,1.733-1.122,8.374,8.374,0,0,1,2.8-.517c1.589-.072,2.066-.088,6.09-.088m0-2.7c-4.093,0-4.606.017-6.214.089a11.159,11.159,0,0,0-3.658.7,7.421,7.421,0,0,0-2.67,1.73,7.353,7.353,0,0,0-1.738,2.657,10.975,10.975,0,0,0-.7,3.643c-.073,1.6-.091,2.109-.091,6.184s.017,4.585.091,6.184a10.952,10.952,0,0,0,.7,3.641,7.343,7.343,0,0,0,1.738,2.659,7.421,7.421,0,0,0,2.67,1.73,11.108,11.108,0,0,0,3.658.7c1.607.071,2.121.089,6.214.089s4.606-.018,6.213-.089a11.113,11.113,0,0,0,3.659-.7,7.424,7.424,0,0,0,2.669-1.73,7.345,7.345,0,0,0,1.738-2.659,10.945,10.945,0,0,0,.7-3.641c.073-1.6.091-2.109.091-6.184s-.017-4.585-.091-6.184a10.968,10.968,0,0,0-.7-3.643,7.355,7.355,0,0,0-1.738-2.657,7.424,7.424,0,0,0-2.669-1.73,11.163,11.163,0,0,0-3.659-.7c-1.607-.072-2.12-.089-6.213-.089Z" transform="translate(-2574.957 11691.055)" fill="#fff"/>
  <path id="パス_5" data-name="パス 5" d="M2705.044-11568.5a7.513,7.513,0,0,0-7.531,7.5,7.513,7.513,0,0,0,7.531,7.5,7.513,7.513,0,0,0,7.531-7.5A7.513,7.513,0,0,0,2705.044-11568.5Zm0,12.361a4.877,4.877,0,0,1-4.889-4.865,4.877,4.877,0,0,1,4.889-4.866,4.877,4.877,0,0,1,4.888,4.866A4.877,4.877,0,0,1,2705.044-11556.138Z" transform="translate(-2689.973 11576.004)" fill="#fff"/>
  <ellipse id="楕円形_1" data-name="楕円形 1" cx="1.86" cy="1.851" rx="1.86" ry="1.851" transform="translate(21.225 5.172)" fill="#fff"/>
</svg>
