<?xml version="1.0" encoding="UTF-8"?><svg id="Layer_1" xmlns="http://www.w3.org/2000/svg" xmlns:xlink="http://www.w3.org/1999/xlink" viewBox="0 0 96.8 50.77"><defs><style>.cls-1,.cls-2{fill:#fff;}.cls-2{fill-rule:evenodd;}.cls-3{fill:#e37d2d;}.cls-4{fill:#92c3db;}.cls-5{clip-path:url(#clippath);}.cls-6{fill:none;}</style><clipPath id="clippath"><rect class="cls-6" width="96.8" height="29.14"/></clipPath></defs><g><path class="cls-1" d="m11.43,45.89c.6.72,1.32,1.34,4.23,2.06.63.16,1.25.36,1.25,1.23,0,.56-.34,1.59-1.43,1.59s-5.12-1.34-6.82-4.27c-.81,1.23-1.95,2.13-3.11,2.82-1.01.58-2.69,1.43-3.76,1.43s-1.41-1.08-1.41-1.63c0-.34.11-.61.32-.81.29-.27.42-.31,2.22-.81.33-.09,1.83-.6,2.86-1.61H1.32c-.99,0-1.32-.45-1.32-1.36,0-1.18.94-1.21,1.32-1.21h.58v-1.9c0-1.74.81-2.19,2.19-2.19h3.18c0-.94.18-1.46,1.45-1.46s1.23.94,1.23,1.46h3.16c1.36,0,2.19.43,2.19,2.19v1.9h.56c.99,0,1.32.45,1.32,1.37,0,1.16-.92,1.19-1.32,1.19h-4.43Zm-.45-10.92v-.43c0-.9.89-.98,1.25-.98.65,0,1.47.07,1.47.98v.43h2.19c.4,0,1.32.04,1.32,1.19,0,.92-.33,1.37-1.32,1.37h-2.19v.4c0,.83-.6,1.07-1.3,1.07-.81,0-1.41-.23-1.41-1.07v-.4h-4.79v.4c0,.85-.72,1.07-1.27,1.07s-1.37-.15-1.37-1.07v-.4H1.34c-.4,0-1.32-.04-1.32-1.21,0-.9.31-1.36,1.32-1.36h2.21v-.43c0-.9.87-.98,1.21-.98.56,0,1.43.05,1.43.98v.43h4.79Zm-3.71,6.63h-2.22c-.31,0-.51.16-.51.49v1.23h2.62c.06-.23.11-.6.11-1.12v-.6Zm2.68.42c0,.38-.04.89-.09,1.3h2.71v-1.23c0-.32-.18-.49-.49-.49h-2.13v.42Z"/><path class="cls-1" d="m24.75,36.74c.31,0,1.1,0,1.1,1.03,0,.78-.25,1.17-1.1,1.17h-5.01c-.34,0-1.12-.02-1.12-1.1,0-.98.58-1.1,1.12-1.1h5.01Zm-.51-2.59c.31,0,1.1.02,1.1,1.01,0,.92-.63,1.01-1.1,1.01h-4.07c-.34,0-1.1-.02-1.1-.99,0-.9.6-1.03,1.1-1.03h4.07Zm-.11,5.33c.33,0,1.12,0,1.12,1.07,0,.96-.61,1.07-1.12,1.07h-3.94c-.31,0-1.12,0-1.12-1.07,0-.98.67-1.07,1.12-1.07h3.94Zm0,2.69c.29,0,1.12,0,1.12,1.05s-.8,1.07-1.19,1.07h-3.87c-.29,0-1.12,0-1.12-1.05s.72-1.07,1.12-1.07h3.94Zm1.1,6.17c0,1.7-.29,2.06-2.03,2.06h-2.03c-1.72,0-2.02-.34-2.02-2.06v-1.45c0-1.75.33-2.06,2.04-2.06h1.97c1.7,0,2.06.29,2.06,2.06v1.45Zm-2.21-1.23c0-.2-.11-.32-.33-.32h-.76c-.24,0-.34.13-.34.32v.96c0,.22.13.34.34.34h.76c.22,0,.33-.15.33-.34v-.96Zm9.46-9.87c1.75,0,2.15.45,2.15,2.17v1.3h.27c.81,0,.99.58.99,1.07,0,1.07-.65,1.14-1.12,1.14h-8.3c-.29,0-1.14,0-1.14-1.05,0-.9.43-1.16,1.14-1.16h.98s.2-.63.38-1.48h-.61c-.25,0-1.1,0-1.1-.98s.83-1.01,1.1-1.01h1.07c.07-.34.09-.54.14-.92h-1.54c-.29,0-1.14,0-1.14-1.08s.83-1.1,1.14-1.1h7.59c.29,0,1.14,0,1.14,1.08s-.83,1.1-1.14,1.1h-3.42c-.07.42-.09.45-.18.92h1.59Zm2.55,10.87c0,1.92-.36,2.3-2.28,2.3h-4.23c-1.92,0-2.3-.36-2.3-2.3v-2.02c0-1.92.36-2.28,2.3-2.28h4.23c1.9,0,2.28.34,2.28,2.28v2.02Zm-2.59-1.63c0-.33-.27-.45-.43-.45h-2.77c-.18,0-.45.13-.45.45v1.21c0,.29.25.45.45.45h2.77c.14,0,.43-.11.43-.45v-1.21Zm-1.99-7.25c-.07.36-.18.79-.36,1.48h1.92v-1.05c0-.38-.31-.43-.43-.43h-1.12Z"/><path class="cls-1" d="m11.43,45.89c.6.72,1.32,1.34,4.23,2.06.63.16,1.25.36,1.25,1.23,0,.56-.34,1.59-1.43,1.59s-5.12-1.34-6.82-4.27c-.81,1.23-1.95,2.13-3.11,2.82-1.01.58-2.69,1.43-3.76,1.43s-1.41-1.08-1.41-1.63c0-.34.11-.61.32-.81.29-.27.42-.31,2.22-.81.33-.09,1.83-.6,2.86-1.61H1.32c-.99,0-1.32-.45-1.32-1.36,0-1.18.94-1.21,1.32-1.21h.58v-1.9c0-1.74.81-2.19,2.19-2.19h3.18c0-.94.18-1.46,1.45-1.46s1.23.94,1.23,1.46h3.16c1.36,0,2.19.43,2.19,2.19v1.9h.56c.99,0,1.32.45,1.32,1.37,0,1.16-.92,1.19-1.32,1.19h-4.43Zm-.45-10.92v-.43c0-.9.89-.98,1.25-.98.65,0,1.47.07,1.47.98v.43h2.19c.4,0,1.32.04,1.32,1.19,0,.92-.33,1.37-1.32,1.37h-2.19v.4c0,.83-.6,1.07-1.3,1.07-.81,0-1.41-.23-1.41-1.07v-.4h-4.79v.4c0,.85-.72,1.07-1.27,1.07s-1.37-.15-1.37-1.07v-.4H1.34c-.4,0-1.32-.04-1.32-1.21,0-.9.31-1.36,1.32-1.36h2.21v-.43c0-.9.87-.98,1.21-.98.56,0,1.43.05,1.43.98v.43h4.79Zm-3.71,6.63h-2.22c-.31,0-.51.16-.51.49v1.23h2.62c.06-.23.11-.6.11-1.12v-.6Zm2.68.42c0,.38-.04.89-.09,1.3h2.71v-1.23c0-.32-.18-.49-.49-.49h-2.13v.42Z"/><path class="cls-1" d="m24.75,36.74c.31,0,1.1,0,1.1,1.03,0,.78-.25,1.17-1.1,1.17h-5.01c-.34,0-1.12-.02-1.12-1.1,0-.98.58-1.1,1.12-1.1h5.01Zm-.51-2.59c.31,0,1.1.02,1.1,1.01,0,.92-.63,1.01-1.1,1.01h-4.07c-.34,0-1.1-.02-1.1-.99,0-.9.6-1.03,1.1-1.03h4.07Zm-.11,5.33c.33,0,1.12,0,1.12,1.07,0,.96-.61,1.07-1.12,1.07h-3.94c-.31,0-1.12,0-1.12-1.07,0-.98.67-1.07,1.12-1.07h3.94Zm0,2.69c.29,0,1.12,0,1.12,1.05s-.8,1.07-1.19,1.07h-3.87c-.29,0-1.12,0-1.12-1.05s.72-1.07,1.12-1.07h3.94Zm1.1,6.17c0,1.7-.29,2.06-2.03,2.06h-2.03c-1.72,0-2.02-.34-2.02-2.06v-1.45c0-1.75.33-2.06,2.04-2.06h1.97c1.7,0,2.06.29,2.06,2.06v1.45Zm-2.21-1.23c0-.2-.11-.32-.33-.32h-.76c-.24,0-.34.13-.34.32v.96c0,.22.13.34.34.34h.76c.22,0,.33-.15.33-.34v-.96Zm9.46-9.87c1.75,0,2.15.45,2.15,2.17v1.3h.27c.81,0,.99.58.99,1.07,0,1.07-.65,1.14-1.12,1.14h-8.3c-.29,0-1.14,0-1.14-1.05,0-.9.43-1.16,1.14-1.16h.98s.2-.63.38-1.48h-.61c-.25,0-1.1,0-1.1-.98s.83-1.01,1.1-1.01h1.07c.07-.34.09-.54.14-.92h-1.54c-.29,0-1.14,0-1.14-1.08s.83-1.1,1.14-1.1h7.59c.29,0,1.14,0,1.14,1.08s-.83,1.1-1.14,1.1h-3.42c-.07.42-.09.45-.18.92h1.59Zm2.55,10.87c0,1.92-.36,2.3-2.28,2.3h-4.23c-1.92,0-2.3-.36-2.3-2.3v-2.02c0-1.92.36-2.28,2.3-2.28h4.23c1.9,0,2.28.34,2.28,2.28v2.02Zm-2.59-1.63c0-.33-.27-.45-.43-.45h-2.77c-.18,0-.45.13-.45.45v1.21c0,.29.25.45.45.45h2.77c.14,0,.43-.11.43-.45v-1.21Zm-1.99-7.25c-.07.36-.18.79-.36,1.48h1.92v-1.05c0-.38-.31-.43-.43-.43h-1.12Z"/><path class="cls-1" d="m48.85,41.2c.5,0,1.01.19,1.01.96,0,.63-.31.98-1.01.98h-4.08v4.06c0,.65-.3,1.01-.94,1.01-.44,0-.98-.14-.98-1.01v-4.06h-4.08c-.52,0-1.01-.21-1.01-.96,0-.65.32-.98,1.01-.98h4.08v-4.08c0-.65.31-.99.94-.99.41,0,.98.11.98.99v4.08h4.08Z"/><path class="cls-1" d="m54.87,34.96c-.03-.09-.07-.18-.12-.29-.08-.18-.12-.28-.12-.41,0-.5.67-.56.84-.56.24,0,.5.03.75.75.05.13.12.37.1.51h.67c.12-.23.2-.39.3-.65.14-.35.24-.56.67-.56.29,0,.82.14.82.62,0,.16-.05.25-.26.6.46.08.81.27.81,1.06v.57c0,.56-.28.69-.7.69-.1,0-.23,0-.33-.04-.03.42-.27.59-.51.75-.51.32-.75.43-1.05.56h2.16c.15,0,.68,0,.68.63,0,.59-.43.65-.68.65h-2.67v.96c0,1.06-.51,1.12-1.55,1.12-.35,0-.86,0-1.05-.04-.35-.09-.42-.5-.42-.69,0-.59.45-.64.66-.64.09,0,.49,0,.57,0,.26,0,.27-.1.27-.34v-.38h-2.68c-.2,0-.7-.02-.7-.64,0-.53.34-.64.7-.64h2.68c0-.12,0-.29.33-.39.12-.03.51-.2.51-.28,0-.07-.06-.07-.09-.07h-2.29c-.19,0-.54,0-.58-.56-.06.02-.14.03-.27.03-.47,0-.74-.15-.74-.68v-.58c0-.75.3-1.02.9-1.06-.02-.03-.1-.18-.12-.21-.12-.22-.15-.33-.15-.41,0-.33.39-.58.82-.58.26,0,.46.05.75.65.08.16.16.37.18.55h.91Zm-1.89,1.65s.12-.04.21-.04h4.26c.12,0,.35,0,.47.04v-.29c0-.08-.04-.13-.13-.13h-4.67c-.09,0-.14.05-.14.13v.29Z"/><path class="cls-1" d="m70.72,34.19c.11,0,.57,0,.57.52s-.46.5-.57.5h-.52c-.05.14-.08.25-.14.37h1.15c.14,0,.57,0,.57.48,0,.5-.39.51-.57.51h-7.06c-.12,0-.57,0-.57-.49s.45-.5.57-.5h1.2c-.03-.16-.06-.25-.09-.37h-.62c-.13,0-.57,0-.57-.5s.41-.52.57-.52h2.32c0-.22.06-.53.66-.53.53,0,.79.11.79.53h2.31Zm-2.36,5.42h2.48c.22,0,.45.04.45.41,0,.33-.15.43-.45.43h-2.48v.21h2.85c.15,0,.57,0,.57.5s-.37.51-.57.51h-7.06c-.13,0-.57,0-.57-.51s.41-.51.57-.51h2.85v-.21h-2.48c-.13,0-.45,0-.45-.39,0-.29.1-.45.45-.45h2.48v-.21h-1.61c-.95,0-1.12-.16-1.12-1.12v-.38c0-.95.16-1.12,1.12-1.12h4.59c.95,0,1.12.16,1.12,1.12v.38c0,.95-.16,1.12-1.12,1.12h-1.62v.21Zm-1.36-1.84v-.27h-1.17c-.09,0-.14.05-.14.14v.14h1.31Zm0,.65h-1.31v.15c0,.08.05.14.14.14h1.17v-.28Zm-.25-3.2c.04.15.05.17.11.36h1.65c.06-.16.06-.18.11-.36h-1.88Zm1.61,2.55h1.33v-.14c0-.09-.04-.14-.14-.14h-1.19v.27Zm0,.65v.28h1.19c.1,0,.14-.05.14-.14v-.15h-1.33Z"/><path class="cls-1" d="m77.85,41.24c0,.16,0,.69-.67.69-.62,0-.69-.43-.69-.69v-2.96c-.48.09-.87-.36-.87-.84,0-.29.1-.45.3-.74.62-.93.83-1.92.93-2.36.06-.29.15-.58.65-.58.27,0,.75.08.75.57,0,.2-.11.87-.4,1.74v5.18Zm.84-2.48c-.15,0-.69,0-.69-.62,0-.49.23-.68.69-.68h1.6v-.45h-.77c-.68,0-1.07-.23-1.07-1.06v-.92c0-.83.39-1.07,1.07-1.07h2.92c.68,0,1.06.24,1.06,1.07v.92c0,.83-.39,1.06-1.06,1.06h-.81v.45h1.59c.15,0,.69,0,.69.62,0,.51-.26.68-.69.68h-.94c.49.69.76.94,1.37,1.49.24.21.27.37.27.48,0,.38-.36.79-.75.79-.26,0-.41-.13-.75-.53-.39-.45-.66-.87-.79-1.1v1.34c0,.16,0,.69-.64.69-.5,0-.7-.21-.7-.69v-1.28c-.2.26-.56.75-1.18,1.3-.22.19-.36.25-.51.25-.41,0-.73-.4-.73-.79,0-.28.17-.43.44-.62.55-.4.85-.62,1.39-1.34h-1Zm3.41-3.42c0-.14-.07-.21-.21-.21h-1.84c-.14,0-.21.07-.21.21v.32c0,.14.07.21.21.21h1.84c.14,0,.21-.07.21-.21v-.32Z"/><path class="cls-1" d="m94.23,37.16c.3,0,.47.04.62.11-.11-.09-.14-.1-.55-.45-.28.03-.75.08-1.91.15-.54.03-3.42.15-3.56.15-.48,0-.68-.16-.68-.63,0-.42.21-.56.61-.57.14,0,.77,0,.92,0,.03-.03.16-.22.33-.51h-1.49c-.43,0-.58-.18-.58-.62,0-.55.42-.55.58-.55h2.77c-.03-.4.21-.53.78-.53s.73.17.73.53h2.79c.43,0,.58.18.58.62,0,.55-.43.55-.58.55h-.96c1.25.81,1.33,1.02,1.33,1.24,0,.34-.33.75-.75.75-.14,0-.22-.04-.28-.07.3.2.39.48.39.92v2.6c0,.3-.03.68-.36.91-.15.1-.26.17-1.33.17-.88,0-1.3,0-1.3-.67,0-.58.48-.58.62-.58.04,0,.69.02.72.02.13,0,.21,0,.21-.15v-.15h-3.62v.86c0,.44-.17.7-.76.7-.69,0-.69-.52-.69-.7v-3.01c0-.84.39-1.07,1.07-1.07h4.36Zm-3.99,1.26h3.62v-.15c0-.08-.05-.13-.14-.13h-3.35c-.09,0-.13.05-.13.13v.15Zm3.62.85h-3.62v.27h3.62v-.27Zm-2.27-3.89c-.05.08-.3.43-.35.5.02,0,.99-.02,1.82-.05-.02-.04-.04-.09-.04-.2,0-.12.04-.2.05-.25h-1.48Z"/><path class="cls-1" d="m52.02,50.02c-.49,0-.67-.42-.67-.76,0-.4.25-.55.52-.6.33-.52.45-.69.9-1.45-.31-.35-.45-.51-.85-.92-.44-.45-.55-.59-.55-.88,0-.45.32-.74.59-.74.08,0,.14.03.17.04.24-.49.42-.94.57-1.32.23-.56.37-.8.75-.8.42,0,.77.31.77.69,0,.44-.78,1.77-1.1,2.32.08.09.13.14.33.37.14-.28.37-.75.52-1.04.07-.13.2-.35.54-.35.16,0,.28.05.34.08.08-.36.27-.52.72-.52h.32v-.92c0-.26.04-.69.63-.69.5,0,.75.15.75.69v.92h.71c.74,0,1.34,0,1.34,1.1,0,1.3-.02,2.61-.15,3.9-.15,1.45-.47,1.6-1.79,1.6-.14,0-.39,0-.59-.05-.32-.07-.5-.39-.5-.73,0-.41.22-.73.6-.73.08,0,.43.03.51.03.27,0,.36-.04.43-.87.05-.57.08-2.07.08-2.67,0-.17-.06-.17-.21-.17h-.42c-.05,2.73-.95,3.99-1.31,4.47-.49.63-.67.69-.9.69-.39,0-.81-.26-.81-.68,0-.21.07-.27.26-.53-1.11.27-2.35.51-2.5.51m1.43-1.6c.3-.04.61-.1.83-.15-.05-.22-.16-.7-.16-.78,0-.04,0-.1,0-.14-.34.55-.4.63-.68,1.06m2.14-2.86c-.07,0-.27,0-.42-.08-.07.16-.35.73-.87,1.58.2-.17.42-.17.48-.17.43,0,.51.22.72,1.1.29-.77.39-1.6.4-2.43h-.32Z"/><path class="cls-1" d="m61.19,49.27c.59-.21,1.14-.39,1.43-1.29.21-.65.21-.66.31-.75.15-.13.37-.14.45-.14.15,0,.4.03.58.17.11.09.17.21.17.39,0,.27-.2,1.23-.77,1.95-.63.8-1.55,1.13-2,1.13-.64,0-.71-.69-.71-.79,0-.38.13-.54.54-.68m1.32-2.63c0,.18,0,.7-.68.7-.59,0-.77-.24-.77-.7v-3.38c0-.17,0-.69.68-.69.61,0,.78.25.78.69v3.38Zm5.89-.68c0,.84-.39,1.07-1.07,1.07h-3.08c-.68,0-1.07-.23-1.07-1.07v-2.11c0-.83.39-1.06,1.07-1.06h3.08c.68,0,1.07.23,1.07,1.06v2.11Zm-3.8-1.6h2.39v-.27c0-.08-.04-.13-.13-.13h-2.13c-.09,0-.13.05-.13.13v.27Zm0,1.08v.29c0,.08.04.13.13.13h2.13c.09,0,.13-.05.13-.13v-.29h-2.39Zm1.81,3.65c0,.21.12.21.26.21h.44c.28,0,.28-.13.3-.64,0-.3.03-.7.62-.7.74,0,.74.47.74.78,0,.43-.05,1.12-.23,1.49-.22.44-.4.45-1.88.45-1.07,0-1.67,0-1.67-1.08v-1.81c0-.16,0-.69.68-.69.6,0,.75.27.75.69v1.3Z"/><path class="cls-1" d="m76.44,43.9c.87,0,.94.52.94.85,0,.41-.33,2.79-2.26,4.3-1.24.98-3.15,1.4-3.56,1.4-.49,0-.73-.4-.73-.81,0-.49.26-.55.81-.67,1.28-.28,2.81-.75,3.66-2.49.22-.46.37-.99.37-1.07,0-.12-.07-.12-.25-.12h-2.26c-.56.7-1.07,1.16-1.37,1.38-.2.15-.41.26-.63.26-.45,0-.76-.41-.76-.76,0-.28.05-.32.68-.81.11-.09.88-.7,1.52-1.93.21-.4.33-.64.8-.64.3,0,.83.15.83.57,0,.15-.03.27-.17.54h2.4Z"/><path class="cls-1" d="m80.19,46.67c-.14,0-.7,0-.7-.69,0-.57.35-.7.7-.7h5.67c.42,0,.87.13.87.81,0,.33-.33,2.51-2.32,3.58-1.27.68-2.7.78-2.9.78-.16,0-.4,0-.59-.24-.12-.15-.18-.37-.18-.55,0-.52.39-.6.6-.62,1.36-.18,2.66-.35,3.39-1.57.16-.27.28-.58.28-.67,0-.11-.06-.13-.2-.13h-4.62Zm5.38-3.51c.15,0,.69,0,.69.69s-.46.71-.69.71h-4.73c-.15,0-.69,0-.69-.69s.49-.71.69-.71h4.73Z"/><path class="cls-1" d="m89.78,44.58c-.33,0-.74-.13-.74-.72,0-.48.27-.73.74-.73h4.11c.35,0,1.05.03,1.05.84,0,.59-.56,1.88-1.31,2.94.79.56,1.37,1.04,2,1.61.33.29.51.49.51.82,0,.48-.42.86-.87.86-.33,0-.51-.19-.71-.42-.46-.52-1.24-1.29-1.81-1.78-.98,1.06-2.63,2.29-3.26,2.29-.4,0-.73-.41-.73-.83,0-.34.15-.43.69-.73,2.83-1.57,3.65-3.95,3.65-4.05,0-.09-.09-.09-.18-.09h-3.14Z"/></g><g class="cls-5"><path class="cls-2" d="m45.54,4.64c-.03.08-.03.34-.01.44.02.02.08.21.1.26.07.16.17.31.29.42.06.05.12.11.19.15h.02s.02.02.03.03c.04,0,.08.03.12.04.05.01.09.02.14.03.12.02.2.01.31.02.01-.01.02,0,.04-.01.05-.01.11-.03.13-.06.05-.05.05-.04.09-.12.09-.21-.05-.19-.1-.26-.01-.02-.04-.1-.06-.14-.05-.1-.1-.16-.18-.23-.04-.04-.06-.06-.1-.1-.02-.02-.03-.02-.05-.05-.02-.02-.03-.03-.05-.04-.09-.08-.36-.31-.46-.35-.06-.02-.16-.02-.17-.02-.04-.02-.04-.07-.13-.07-.07,0-.11.04-.15.05"/><path class="cls-2" d="m45.67,4.15s.01.03.03.08c.01.03.03.04.06.06.05.03.16.19.31.09.12-.08.06-.06.13-.1.14-.08.17-.09.26-.2.18-.22.12-.24.27-.43.03-.04.06-.12.1-.14.03-.02.05-.02.08-.04.02-.02.03-.04.06-.06.1-.11.13-.21.28-.12.06.04.21.16.32.03.05-.06.06-.08.06-.17v-.07c-.13-.06-.53-.04-.71,0-.31.08-.66.27-.87.49-.02.02-.03.03-.05.05-.12.14-.19.23-.28.4-.02.05-.04.09-.06.14"/><path class="cls-2" d="m47.69,6.49c-.34,0-.44,0-.77-.14-.13-.05-.33-.16-.46-.23-.04-.02-.11-.07-.15-.08-.02,0,0,0-.02,0v-.02s0,0,.02.01c.2.04.21.03.4,0h0c-.11,0-.19,0-.31-.02-.05,0-.09-.02-.14-.03-.04-.01-.08-.03-.12-.04,0,0-.03.02-.03,0,0,0,0,0-.01,0,0,0,0,0,0,0,0,0,0,0,0,0-.13-.07-.24-.17-.31-.26-.05-.05-.08-.09-.12-.16-.02-.03-.08-.18-.1-.19.04.21.19.45.29.59.13.18.23.33.42.45.16.1.44.19.66.21.27.03.53.02.76-.07"/><path class="cls-2" d="m45.55,4.19s.11-.23.13-.27c.26-.47.62-.75,1.14-.92.31-.1.42-.04.74-.04-.03-.09-.21-.13-.3-.14-.49-.07-.93.18-1.26.5-.07.06-.14.16-.2.25-.09.14-.22.43-.26.63"/><path class="cls-2" d="m48.33,3.38h0s0-.02-.03-.03c-.02-.01-.01-.01-.04-.02,0,.01.01.02.03.03.02.01.01,0,.04.03"/><path class="cls-2" d="m47.84,3.26s-.08.09-.11.14c-.07.1-.06.15-.16.22-.04.03-.04.03-.07.06-.11.11-.02.04-.16.1-.23.1-.31.25-.36.28-.03.02-.06.03-.08.05-.03.02-.03.04-.05.07-.02.03-.04.03-.06.07-.05.1.01.33.06.42.03.06.06.1.1.16.04.07.07.08.14.12.2.12.22.04.3-.11.03-.04.04-.03.07-.06.08-.06.13-.19.17-.22.04.04.1.08.17.1,0,.06-.06.14-.08.31-.02.12,0,.25,0,.37-.16-.02-.22-.06-.34.15-.02.03-.07.07-.12.14-.04.05-.06.11-.08.18-.08.37.21.52.53.37.05-.02.19-.11.24-.15.11-.09.1-.11.24-.15.08-.02.1-.07.18-.07.19-.01.25-.08.33-.19.04-.05.07-.09.1-.16.02-.05.04-.15.08-.18.08-.1.1-.42.09-.57-.02-.35-.14-.69-.31-.98-.05-.08-.23-.32-.29-.35-.02-.02-.02-.01-.04-.03-.01-.01-.02-.02-.03-.03l-.12-.07s-.08-.04-.12-.06c-.03.01-.06.02-.1.03-.03.01-.06.03-.09.04"/><path class="cls-1" d="m72.07,7.26h0c.89,0,1.62.72,1.62,1.61v7.7c0,1.04.12,1.8.37,2.28.39.85,1.23,1.27,2.52,1.27s2.12-.43,2.51-1.27c.25-.48.37-1.24.37-2.28v-7.7c0-.89.73-1.61,1.62-1.61s1.62.72,1.62,1.61v7.71c0,1.61-.25,2.87-.75,3.77-.94,1.65-2.72,2.47-5.36,2.47s-4.43-.82-5.38-2.47c-.5-.9-.76-2.15-.76-3.77v-7.71c0-.89.73-1.61,1.62-1.61"/><path class="cls-1" d="m95.44,15.95c-.91.75-2.2,1.13-3.88,1.13h-1.62c-.89,0-1.61.71-1.61,1.6v2.34c0,.88-.72,1.59-1.61,1.59s-1.61-.71-1.61-1.59v-12.18c0-.88.72-1.6,1.61-1.6h5.04c1.53,0,2.75.4,3.66,1.19.91.79,1.37,2.02,1.37,3.68,0,1.81-.45,3.1-1.36,3.85m-2.47-5.54c-.41-.34-.98-.51-1.72-.51h-1.31c-.89,0-1.61.72-1.61,1.6v1.33c0,.88.72,1.6,1.61,1.6h1.31c.74,0,1.31-.18,1.72-.55.41-.37.61-.95.61-1.75s-.2-1.37-.61-1.71"/><path class="cls-1" d="m41.11,9.6c-1.71,2.34-2.97,4.26-3.8,5.75l-.41.79-.04.06.02.2c.07,0,.14,0,.2.02.15.01.35.03.61.06.23.03.38.04.45.04.51.1,1.03.21,1.55.35.52.14.94.26,1.25.36.31.1.77.26,1.38.48.61.22,1.05.37,1.32.45.13.05.23.14.29.26.06.12.07.25.02.38-.05.13-.13.23-.25.29-.12.06-.25.07-.39.03l-1.34-.48-1.34-.46c-.3-.11-.69-.23-1.19-.35-.49-.13-.99-.23-1.47-.31-.04-.01-.16-.03-.37-.04-.27-.03-.48-.05-.63-.06l-.06-.02c.1,1.91.16,3.3.18,4.18,0,.14-.05.26-.14.36-.1.11-.21.16-.35.16s-.26-.05-.37-.14c-.11-.09-.16-.21-.16-.34-.03-.85-.09-2.33-.2-4.46-.08-.05-.15-.11-.2-.18-.08-.09-.12-.21-.1-.34,0-.04,0-.08.02-.12.01-.03.03-.06.04-.1.01-.05.04-.12.08-.2l.12-.24c-.04-.89-.08-1.67-.1-2.34-.01-.5,0-1.65.04-3.45.03-1.45,0-2.57-.1-3.35-.01-.13.02-.26.11-.37.09-.11.2-.18.33-.19.14-.01.26.02.38.11.12.09.18.2.19.33.11.83.14,2,.1,3.49-.04,1.78-.06,2.91-.04,3.39l.02.62c.8-1.37,1.97-3.12,3.51-5.23.08-.11.19-.17.33-.19.14-.02.26,0,.38.09.11.08.18.19.2.32.02.13-.01.26-.09.38"/><path class="cls-1" d="m47.77,8.17c.33,3.5.49,8.17.49,14.03,0,.14-.05.25-.15.35-.1.1-.22.15-.35.15s-.25-.05-.36-.15c-.1-.1-.15-.22-.15-.35,0-5.87-.16-10.52-.49-13.95-.01-.13.02-.25.11-.36.09-.11.2-.17.35-.18.14-.01.27.02.38.11.11.09.17.21.18.35"/><path class="cls-1" d="m57.06,6.25c.04.46.07.93.08,1.4.01.48.01,1.06,0,1.74-.01.68-.02,1.13-.02,1.34,0,1.25-.04,4.69-.11,7.2-.08,2.51-.11,2.84-.11,4.09,0,.13-.05.25-.15.35-.1.1-.22.15-.36.15s-.25-.05-.35-.15c-.1-.1-.15-.22-.15-.35,0-.83.01-.22.04-1.25-.85.35-1.79.38-2.8.1-.68-.19-1.24-.49-1.68-.9-.44-.41-.74-.86-.88-1.35-.15-.49-.2-.99-.14-1.5.05-.51.2-.98.45-1.41.24-.45.58-.81,1.01-1.09.43-.28.9-.43,1.43-.44.92-.03,1.84.38,2.76,1.21.03-1.16.04-3.74.04-4.64,0-.25,0-.71.02-1.37.01-.66.02-1.22.01-1.68,0-.46-.04-.89-.09-1.31-.01-.15.02-.28.11-.38.09-.11.2-.17.35-.18.14-.01.27.02.38.11.11.09.17.2.18.33m-1.08,10.48c-.93-1.06-1.82-1.58-2.66-1.55-.68.01-1.2.36-1.58,1.03-.18.31-.28.65-.33,1.02-.04.37,0,.73.11,1.07.11.34.33.66.65.96.32.3.73.51,1.23.65.95.27,1.77.19,2.48-.24.03,0,.05,0,.06-.02.01-.36.03-.87.05-1.53.02-.66.03-1.1.03-1.33l-.04-.04Z"/><path class="cls-1" d="m64.25,10.35c-.23-.7-.57-1.21-1.01-1.54-.44-.33-.89-.48-1.36-.44-.47.03-.89.24-1.27.63-.38.39-.62.96-.73,1.72-.15.9-.12,1.6.08,2.1.14.32.32.66.54,1.01.22.35.54.79.93,1.33.4.54.68.93.84,1.17.53.77.93,1.49,1.2,2.18.27.69.35,1.39.24,2.12-.12.78-.54,1.37-1.26,1.78-.53.3-1.03.38-1.5.26-.41-.11-.77-.36-1.08-.77-.43-.56-.73-1.35-.89-2.36-.01-.13.02-.26.1-.37.08-.11.19-.18.33-.2.14-.02.26.01.38.09.11.08.19.19.21.32.14.85.37,1.49.69,1.92.16.22.33.34.51.38.22.05.47,0,.77-.16.42-.24.66-.59.73-1.05.08-.54.01-1.09-.21-1.67-.22-.57-.57-1.21-1.05-1.91-.12-.17-.39-.55-.81-1.11-.42-.57-.76-1.05-1.01-1.44-.25-.4-.45-.78-.6-1.16-.27-.66-.32-1.53-.16-2.62.15-.94.49-1.7,1.04-2.27.54-.57,1.18-.89,1.91-.94.72-.06,1.39.16,2.02.63.63.48,1.09,1.16,1.39,2.05.04.14.03.26-.03.38-.06.12-.16.21-.29.25-.14.05-.26.04-.39-.02-.12-.06-.21-.16-.26-.29"/><path class="cls-1" d="m0,14.57c0,8.05,6.72,14.57,15,14.57s15-6.52,15-14.57S23.29,0,15,0,0,6.52,0,14.57"/><path class="cls-3" d="m15,28.23c7.77,0,14.07-6.12,14.07-13.66S22.77.91,15,.91"/><path class="cls-4" d="m15,.91C7.23.91.93,7.02.93,14.57s6.3,13.66,14.07,13.66"/><path class="cls-1" d="m15.01,2.18s0,0,0,0c0,0,0,0,0,0C8.05,1.74,1.94,7.49,1.99,14.46c-.05,6.96,6.05,12.92,12.99,12.49t0,0s0,0,0,0c0,0,.02,0,.02,0,0,0,0,.01,0,.02,0,0,0-.01,0-.02,0,0,.02,0,.02,0,0,0,0,0,0,0t0,0c6.94.43,13.04-5.53,12.99-12.49.05-6.97-6.06-12.73-13.01-12.28m12.06,12.29c-1.47-.14-2.97-.24-4.47-.31-.04-2.22-.57-4.42-1.57-6.4.96-.45,1.84-1.01,2.61-1.69,2.36,2.38,3.45,5.4,3.43,8.39M15,2.18h0c2.23,1.23,3.9,3.09,5.01,5.25-1.51.43-3.08.66-4.65.7-.07-2-.18-4-.36-5.95m-.47,11.83c-2.04.01-4.12.04-6.2.12.04-2.08.49-4.15,1.33-6.02,1.55.6,3.24.92,4.95.95-.05,1.66-.07,3.31-.08,4.95m0,.93c0,1.26.02,2.52.05,3.8-1.84.04-3.67.42-5.31,1.11-.58-1.6-.89-3.31-.93-5.03,2.07.08,4.15.11,6.2.12m.93,0c2.04-.01,4.12-.04,6.2-.12-.04,1.73-.35,3.46-.95,5.07-1.63-.71-3.46-1.09-5.3-1.15.03-1.27.04-2.54.05-3.8m0-.93c-.01-1.63-.03-3.29-.08-4.95,1.7-.05,3.4-.38,4.93-.98.85,1.88,1.3,3.96,1.34,6.06-2.07-.08-4.15-.11-6.2-.12m4.21-10.69c1.54.73,2.83,1.63,3.87,2.66-.9.5-1.84.91-2.82,1.23-.02-.04-.05-.08-.07-.13-1.27-2.19-3.25-4.06-5.65-4.9,1.62.11,3.21.48,4.67,1.13m-4.67-1.14s0,0,0,0h0c-.18,1.96-.29,3.95-.36,5.95-1.58-.02-3.16-.25-4.67-.66,1.11-2.18,2.79-4.05,5.03-5.29h0,0s0,0,0,0m0,0c-2.4.84-4.37,2.72-5.65,4.9-.03.06-.07.12-.1.17-.99-.32-1.95-.73-2.87-1.22,2.05-2.12,4.96-3.6,8.61-3.85m-8.69,3.94c.79.68,1.68,1.25,2.65,1.69-.99,1.96-1.51,4.15-1.55,6.36-1.5.07-3,.17-4.47.3.02-3.04,1.2-6.06,3.37-8.35m4.03,19.49c-5.11-2.41-7.42-6.8-7.4-11.14,1.47.14,2.97.24,4.47.3.04,1.86.41,3.7,1.12,5.41-.96.49-1.85,1.09-2.6,1.83.9-.53,1.85-.96,2.83-1.31.18.38.37.76.58,1.12,1.27,2.19,3.24,4.27,5.63,5.12-1.61-.11-3.19-.69-4.63-1.34m4.64,1.34c-2.2-1.2-3.89-3.32-4.99-5.48-.17-.33-.32-.67-.47-1.02,1.64-.5,3.37-.77,5.1-.8.06,2.38.18,4.97.39,7.3-.01,0-.02,0-.03,0m.03,0c.22-2.32.33-4.92.39-7.29,1.73.04,3.45.32,5.08.84-.14.33-.29.66-.45.98-1.1,2.16-2.79,4.27-4.99,5.48-.01,0-.02,0-.03,0m.04,0c2.39-.85,4.36-2.94,5.63-5.12.2-.35.39-.71.56-1.07,1,.37,1.95.82,2.85,1.37-.76-.76-1.65-1.38-2.62-1.89.72-1.72,1.1-3.59,1.14-5.46,1.5-.07,3-.17,4.47-.31-.05,5.91-4.45,11.92-12.03,12.48"/><path class="cls-1" d="m22.78,14.89s.53.77,1.27.71c.73-.06,1.33-.91,1.51-1.19.04-.06.1-.11.17-.12.17-.04.32-.06.48-.19.44-.38.41-1.16-.12-1.37-.38-.16-.51.36-.81.67-.18.18-.17.38-.15.49.02.08,0,.16-.05.23-.13.18-.43.5-.9.54-.54.05-.76-.25-.82-.38-.02-.03-.03-.07-.03-.11-.08-1.54-1.31-1.85-1.29-2.04.01-.11.12-.11.12-.11,2.92-.37,2.37-2.35,2.37-2.35-.22-.69-.09-1.25-.07-1.3,0,0,0,0,0-.01.71-2.76-2.96-3.05-3.94-2.46-.1.06-.24.05-.33-.03-.09-.08-.2-.13-.33-.13-.09,0-.18.02-.25.07-.09.06-.21.05-.3-.01-.31-.22-.99-.5-1.8.45-1.12,1.3-.74,2.64.07,3.75.21.29.28.51.27.65,0,0,0,0,0,0,0,.04-.01.08-.03.11-.04.08-.12.12-.19.12,0,0,0,0,0,0s0,0,0,0c-.02,0-.04,0-.06-.01,0,0-.02,0-.03,0,0,0,0,0,0,0-.04-.02-.07-.05-.09-.09,0,0-.01-.02-.02-.02,0,0,0-.02,0-.03-.04-.1-.03-.25.08-.44,0,0-.27.15-.39.4-.15.31.14.61.14.61-.59-.09-.23-.67-.23-.67,0,0-.18.08-.28.17-.44.4-.2.94.13,1.05.4.13.66.08.78.04.05-.02.11-.02.17,0,.95.25,1.13-.58,1.17-.9h0s.01-.06.05-.06c.04,0,.05.04.05.04.12.32.25.98,1.25.95,0,0,.01,0,.02,0,0,0,.02,0,.03,0,.08,0,.14.06.14.14,0,.06-.04.11-.09.13h0s-.93-.16-2.01.25c-.36.14-1.26.62-1.8,1.22-.34.38-.56.88-.59.96,0,.02-.02.03-.04.03-.5.09-.75.59-.81.73-.01.02-.03.03-.06.03-.16-.03-.28.03-.37.11-.12.11-.3.12-.41,0-.32-.33-1.08-.4-1.49-1.04-.56-.85-.69-2.06-1.44-2.31-.39-.13-.48-.02-.5-.12-.02-.16.55-.21.62-.22,0,0,.01,0,.02,0l.51-.08c2.28-.51,1.71-2.48,1.71-2.48,0,0-.24-1.79-.02-1.83.22-.04.71-.42.8-.85.1-.48-.33-.33-.33-.33,0,0-1,.41-1.04-.26-.03-.67-.86-.29-.73-.49.13-.2.03-.37.03-.37,0,0-.09-.16-.29,0-.12.09-.52.32-.52.32-.04.02-.09-.02-.08-.06.02-.09.04-.24.04-.52.01-.45-.89.2-1.22.46-.04.03-.09,0-.09-.05.02-.45-1,.08-1,.08-2.32.96-2.15,3.68-2.09,4.59.07.91.53,1.37.74,1.33.21-.04.2-.3.2-.3.17.51,1.45.59,1.57.88.13.3-.32.07-1.48.11-.79.02-2.03.47-2.66,1.2-.18.22-.18.34-.33.51-.13.16-.45.22-.64.22-.13,0-.26.01-.38.06-1.2.47-.59,1.36-.59,1.36,0,0,.27.5.8.38.39-.09.17-.31.63-.63.08-.06.41.04.65-.22.02-.03,1.09-.9,2-.84.25.02.45.24.44.49-.03.5-.43,1.16-.6,1.37-.61.77-.3,1.54-.29,1.67,0,0,0,.02,0,.02-.06.12-.58,1.12-1.4,1.38-.88.27-1.6-.99-1.6-.99,0-.01.31-.75-.55-.9-1.17-.21-1.29,2.73-1.29,2.78,0,.3.25.57.4.57.48.05.64-1.12.72-1.22.08-.11.2-.11.28,0,.65.95,1.94,1.21,1.96,1.22h0c2.12.4,3-1.8,3.13-2.17,0-.03.04-.04.07-.04,2.06.59,2.22,2.98,2.15,4.11-.07,1.13.63.86,1.7.54,1.08-.32,1.22-.38.96-.88-.21-.4-.83-.21-1.06-.12-.04.02-.08-.02-.08-.06.25-2.35-.68-3.53-1.43-4.68-.33-.51.07-1.74.14-1.84.03-.04.09-.03.1.02.2.61,1.16,1.33,2.08,1.6.63.18,1.13.06,1.38-.04.1-.04.21-.01.3.05.37.29,1.04,0,1.28-.33.03-.04.23-.17-.05-.8-.17-.39.26-.77.26-.77,1.92-1.89,2.5-1.12,2.51-1.11,0,0,0,0,0,0,.35,3.35-2.28,4.06-2.85,4.17-.05,0-.06.06-.03.1.83.81,1.05,1.5.25,1.76-.26.08-.54-.06-.72-.41-.16-.31-.23-.82-.41-.97-.28-.23-.69.28-1,.72-.74,1.06-.51,1.97-.07,2.05.44.08.56-.35.7-.9.1-.39.08-.21.51.36.47.62,1.26.77,1.54.23.56-1.11,1.5-.8,1.56-.78,0,0,0,0,0,0,1.7.98,3.16.59,3.71.38.18-.07.38-.01.48.15.19.29.3.74.37,1.04.03.16.02.33-.03.49-.04.12-.07.27-.05.4.15.99,1.8.5,2.57-.1.46-.36.3-.77.15-.91-.42-.38-1.1-.06-1.37.06-.27.12-.22-.13-.22-.13.22-1.55-.42-2.1-.61-2.32-.19-.23-.01-.27-.01-.27,0,0,.2-.01.4-.25.2-.23.01-.3.01-.3,0,0-.61-.26-1.51-1.11-.9-.85-.19-1.88-.03-2.26.16-.38.25-.19.25-.19"/></g></svg>