<?xml version="1.0" encoding="UTF-8"?><svg id="Layer_1" xmlns="http://www.w3.org/2000/svg" viewBox="0 0 60.02 60.02"><defs><style>.cls-1{fill:#f7eddf;}.cls-2{fill:#ee7d00;}</style></defs><path class="cls-2" d="m30.01,60.02c16.57,0,30.01-13.44,30.01-30.01S46.58,0,30.01,0,0,13.44,0,30.01s13.44,30.01,30.01,30.01Z"/><path class="cls-1" d="m25.78,43.71c.76.85,2.06.92,2.91.17.85-.76.92-2.06.17-2.91l-7.93-8.9h23.47c1.14,0,2.06-.92,2.06-2.06s-.92-2.06-2.06-2.06h-23.47l7.93-8.9c.76-.85.68-2.15-.17-2.91-.39-.35-.88-.52-1.37-.52-.57,0-1.13.23-1.54.69l-12.21,13.7,12.21,13.7Z"/></svg>