<?xml version="1.0" encoding="UTF-8"?><svg id="Layer_1" xmlns="http://www.w3.org/2000/svg" viewBox="0 0 107.11 43.71"><defs><style>.cls-1{fill:#ee7d00;stroke:#ee7d00;stroke-miterlimit:10;}</style></defs><path class="cls-1" d="m5.36,36.13c.51,1.27,1.27,2.15,2.29,2.64,1.01.49,2.07.6,3.15.31,1.09-.29,1.97-.93,2.64-1.92.67-.99.92-2.24.75-3.75-.16-1.46-.68-2.44-1.54-2.95-.69-.4-1.82-.64-3.41-.73-2.32-.13-3.79-.26-4.41-.4-1.8-.43-3.05-1.41-3.73-2.95-.51-1.13-.7-2.26-.56-3.37.14-1.12.54-2.05,1.22-2.8.67-.75,1.46-1.35,2.35-1.81s1.89-.67,2.98-.62c1.09.05,2.1.37,3.04.97.25.18.41.42.49.73.08.31.02.6-.16.86-.19.26-.44.43-.75.51-.31.08-.6.02-.88-.18-.75-.47-1.56-.66-2.41-.57-.85.09-1.57.38-2.17.87-.59.49-1.01,1.15-1.25,1.97-.24.82-.17,1.66.22,2.52.38.8,1.1,1.34,2.18,1.62.45.11,1.78.22,3.99.31,1.96.11,3.44.46,4.43,1.05,1.53.91,2.42,2.46,2.68,4.66.25,2.12-.13,3.91-1.13,5.38-1,1.46-2.33,2.42-3.99,2.85-1.64.41-3.23.24-4.79-.5-1.56-.74-2.68-2.03-3.36-3.86-.13-.3-.13-.6,0-.89.13-.29.34-.5.65-.61s.6-.11.89.01c.29.13.49.34.59.65Z"/><path class="cls-1" d="m24.47,18.11c.06.86.3,1.94.7,3.25.55,1.83.88,3.02,1,3.56l.19.9c1.39-.28,2.85-.56,4.41-.81.32-.05.6.02.86.2.26.19.42.44.47.75.05.32-.01.6-.2.86-.19.26-.44.42-.75.47-1.53.25-2.97.52-4.33.8.74,3.66,1.36,6.96,1.85,9.91.05.32-.02.6-.2.87-.19.26-.44.42-.75.47-.32.05-.6-.01-.86-.2-.26-.19-.42-.44-.47-.75-.49-2.92-1.1-6.18-1.83-9.79-1.67.39-3.25.81-4.74,1.27-.31.08-.61.05-.89-.1-.28-.14-.47-.37-.56-.68-.09-.31-.07-.6.08-.88.14-.28.37-.47.67-.58,1.57-.48,3.23-.92,4.97-1.31l-.2-.94c-.03-.21-.35-1.32-.96-3.33-.43-1.47-.69-2.71-.78-3.72-.03-.32.06-.6.26-.85.2-.25.46-.39.78-.41.32-.03.6.06.85.26.25.2.39.46.41.78Z"/><path class="cls-1" d="m49.71,30.7c.17.54.64,1.62,1.39,3.26.13.3.14.6.03.91-.11.3-.31.52-.6.65-.29.13-.59.14-.89.03-.3-.11-.52-.31-.64-.58l-.32-.68c-2.6,1.08-4.88,1.3-6.83.65-1.86-.61-3.08-1.84-3.66-3.69-.53-1.75-.3-3.49.71-5.23.99-1.71,2.63-2.94,4.94-3.7.33-.11.68-.23,1.03-.38.36-.11.63-.19.82-.22.29-.02.63.04,1.01.2l.83.39c.29.11.49.32.61.63.12.3.11.6-.03.9-.06.15-.15.27-.26.37.2.86.48,1.98.84,3.35.05.15.18.57.37,1.26.2.68.34,1.21.42,1.57.1.09.17.2.22.33Zm-4.24-6.47l-.92.31c-1.72.53-2.92,1.39-3.6,2.59-.68,1.19-.85,2.33-.51,3.41.32,1.08,1.03,1.81,2.15,2.2,1.37.45,3.05.26,5.02-.55-.12-.39-.49-1.73-1.12-4.03-.45-1.57-.79-2.88-1.02-3.93Z"/><path class="cls-1" d="m64.5,22.6c.46-.02.82.16,1.1.55.08.12.14.27.2.45.06.18.1.42.12.71.04.43.07.98.07,1.65v.57c.09.45.26,1.24.53,2.39.28,1.06.5,1.94.64,2.65.35,1.64.58,2.94.69,3.9.16,1.43.1,2.5-.16,3.19-.24.66-.7,1.31-1.36,1.93-.67.62-1.4,1.15-2.19,1.58-2.08,1.13-3.79,1.35-5.12.65-.65-.35-1.18-1.07-1.58-2.17-.1-.25-.28-.89-.56-1.89-.08-.31-.04-.61.12-.89.15-.28.39-.46.7-.54.31-.08.61-.04.89.11.28.16.46.39.54.7.24.96.4,1.54.49,1.74.19.51.36.8.51.89.59.31,1.56.09,2.89-.64.62-.32,1.17-.7,1.63-1.14.47-.44.76-.81.87-1.1.13-.37.13-1.09,0-2.15-.11-.96-.32-2.18-.65-3.66-.07-.26-.13-.55-.18-.86-.6.8-1.31,1.46-2.14,1.98-1.93,1.24-3.77,1.4-5.52.47-1.04-.56-1.76-1.37-2.17-2.44-.41-1.07-.54-2.14-.39-3.22.15-1.08.46-2.09.95-3.04.89-1.66,2.05-2.77,3.5-3.34,1.75-.72,3.5-.5,5.26.67.12.09.22.19.3.32Zm-1.6,1.6c-1.07-.71-2.09-.87-3.08-.46-.94.37-1.7,1.14-2.29,2.29-.62,1.16-.86,2.28-.74,3.37.13,1.09.59,1.82,1.38,2.2.95.49,1.99.37,3.14-.36.56-.36,1.04-.81,1.44-1.33.4-.53.68-1.05.84-1.56.02-.06.03-.32.03-.78l.03-.82c-.14-.68-.23-1.22-.27-1.62l-.04-.24c-.06-.21-.1-.37-.12-.51v-.04c-.09-.04-.2-.09-.32-.15Z"/><path class="cls-1" d="m72.68,24.68c.07.39.16.77.27,1.13.65,1.78,1.67,2.55,3.06,2.29.6-.1,1.03-.24,1.27-.41.25-.15.55-.5.92-1.05.17-.27.41-.43.73-.49s.61,0,.88.18c.27.17.43.41.49.73.05.32,0,.61-.18.88-.54.79-1.06,1.35-1.55,1.68-.51.33-1.24.59-2.18.77-1.36.25-2.53,0-3.49-.76-.96-.76-1.67-1.78-2.13-3.05-.4-1.12-.58-2.32-.52-3.6.06-1.28.35-2.4.86-3.35.42-.72,1.01-1.24,1.77-1.55s1.49-.45,2.2-.41c.71.04,1.39.17,2.05.39,1.09.36,1.93.86,2.52,1.49.23.26.42.53.56.82.14.29.21.63.19,1.02-.02.39-.17.77-.46,1.11-.31.43-.77.64-1.39.64-.21,0-.34,0-.37-.02h-.04c-1.2.26-3.02.78-5.46,1.56Zm-.04-2.43c2.08-.67,3.74-1.14,5-1.4-.34-.24-.75-.44-1.24-.61-.8-.25-1.49-.32-2.06-.22-.58.1-.97.34-1.18.72-.25.42-.43.92-.52,1.51Z"/><path class="cls-1" d="m95.1,7.12l1.8-3.34c.46-.83.82-1.48,1.1-1.93.19-.3.36-.53.49-.69.09-.12.18-.23.27-.31.09-.08.19-.16.29-.23.28-.13.55-.16.84-.1.34.08.6.29.79.64.07.1.13.21.18.34.09.2.17.46.25.77.1.47.24,1.12.41,1.96.07.39.15.84.24,1.34.1.5.17.9.22,1.22l.1.59c.43,1.93,1.17,4.75,2.22,8.47,1.13,4.06,1.9,6.92,2.28,8.58.08.31.03.6-.14.87-.17.27-.41.45-.72.53-.31.08-.6.03-.88-.14-.27-.17-.45-.41-.53-.72-.31-1.38-1.06-4.2-2.26-8.46-1.06-3.77-1.81-6.63-2.24-8.59l-.11-.67c-.05-.32-.13-.73-.23-1.24-.1-.51-.18-.96-.25-1.36l-.04-.24-.28.49-1.76,3.33c-.14.27-.37.45-.68.54-.31.09-.6.07-.88-.08-.28-.14-.47-.37-.56-.68s-.07-.61.07-.9Z"/></svg>