<?xml version="1.0" encoding="UTF-8"?><svg id="Layer_1" xmlns="http://www.w3.org/2000/svg" viewBox="0 0 114.41 41.44"><defs><style>.cls-1{fill:#ee7d00;stroke:#ee7d00;stroke-miterlimit:10;}</style></defs><path class="cls-1" d="m4.4,29.58c.41,1.3,1.1,2.24,2.07,2.81.97.57,2.01.75,3.12.55,1.11-.2,2.03-.77,2.78-1.71.75-.94,1.1-2.16,1.04-3.69-.05-1.47-.49-2.49-1.31-3.06-.66-.45-1.77-.78-3.34-.99-2.3-.31-3.76-.55-4.36-.74-1.76-.57-2.93-1.64-3.5-3.23-.42-1.17-.52-2.3-.3-3.41s.7-2,1.43-2.7c.73-.69,1.56-1.23,2.49-1.62.93-.39,1.94-.52,3.02-.38,1.08.13,2.07.54,2.96,1.21.23.19.37.45.43.77.05.32-.02.6-.23.84-.21.25-.47.4-.78.45-.32.05-.6-.03-.87-.25-.71-.53-1.5-.78-2.35-.76-.86.02-1.6.25-2.23.7-.63.44-1.1,1.07-1.4,1.87-.3.8-.3,1.65.02,2.53.31.83.99,1.43,2.04,1.79.44.15,1.76.35,3.95.62,1.95.26,3.4.72,4.34,1.39,1.46,1.02,2.23,2.64,2.31,4.86.08,2.13-.44,3.89-1.54,5.27-1.11,1.38-2.51,2.23-4.2,2.54-1.66.28-3.24-.01-4.73-.87s-2.51-2.23-3.05-4.11c-.11-.31-.09-.61.06-.89.15-.28.38-.47.69-.56.31-.09.61-.07.89.08.28.15.46.38.54.7Z"/><path class="cls-1" d="m24.84,13.09c0,.86.14,1.96.45,3.29.41,1.87.64,3.08.72,3.63l.12.91c1.4-.18,2.89-.33,4.46-.47.32-.03.6.06.85.27.25.21.38.47.41.79.03.32-.06.6-.27.85-.21.25-.47.38-.79.41-1.54.14-3,.29-4.38.46.46,3.71.82,7.05,1.08,10.02.03.32-.06.6-.27.85-.21.25-.47.38-.79.41s-.6-.06-.85-.27c-.25-.21-.38-.47-.41-.79-.26-2.95-.62-6.25-1.07-9.9-1.69.26-3.3.56-4.82.9-.32.06-.61,0-.88-.16-.27-.16-.44-.4-.5-.72-.07-.32-.02-.61.14-.88.16-.27.4-.44.72-.52,1.6-.35,3.29-.66,5.06-.92l-.12-.95c-.02-.21-.25-1.34-.7-3.39-.32-1.5-.48-2.75-.49-3.77,0-.32.11-.6.33-.83.22-.23.49-.35.81-.35s.6.11.83.33c.23.22.35.49.35.81Z"/><path class="cls-1" d="m49.04,27.59c.13.55.51,1.67,1.14,3.35.11.31.09.61-.04.91s-.35.49-.65.6c-.3.11-.59.09-.89-.04-.29-.14-.49-.35-.6-.63l-.26-.7c-2.68.88-4.97.92-6.86.12-1.81-.75-2.93-2.07-3.36-3.96-.4-1.79-.03-3.5,1.11-5.16,1.12-1.62,2.85-2.73,5.21-3.31.34-.08.69-.18,1.06-.29.37-.09.64-.14.83-.15.29,0,.62.09.99.28l.8.45c.28.14.47.36.56.67.09.31.06.61-.1.89-.07.14-.17.26-.29.35.13.87.32,2.01.58,3.4.04.16.13.58.27,1.28.14.7.24,1.23.3,1.6.09.1.15.21.19.34Zm-3.73-6.78l-.94.24c-1.76.4-3.02,1.16-3.79,2.3-.77,1.14-1.03,2.26-.77,3.36.23,1.1.89,1.89,1.97,2.36,1.33.55,3.02.5,5.05-.16-.09-.39-.36-1.76-.8-4.11-.33-1.6-.56-2.94-.71-3.99Z"/><path class="cls-1" d="m64.42,20.66c.46.01.81.22,1.06.63.06.13.12.28.16.47.04.18.06.42.06.72,0,.43,0,.98-.06,1.65l-.03.56c.04.45.15,1.26.33,2.42.2,1.08.35,1.98.44,2.69.23,1.67.35,2.98.39,3.94.05,1.44-.09,2.5-.41,3.17-.29.64-.79,1.25-1.51,1.82-.71.57-1.48,1.04-2.31,1.41-2.16.97-3.88,1.05-5.16.25-.62-.4-1.09-1.16-1.4-2.29-.08-.26-.21-.91-.41-1.93-.05-.32,0-.61.18-.88.18-.27.42-.43.74-.49.32-.05.61,0,.88.18.27.18.43.42.49.74.17.98.28,1.57.36,1.78.15.52.3.83.44.92.57.35,1.54.21,2.94-.42.65-.27,1.22-.61,1.72-1.01.5-.4.82-.75.95-1.03.16-.36.21-1.08.17-2.14-.03-.96-.15-2.2-.36-3.7-.05-.26-.09-.55-.12-.87-.66.75-1.42,1.36-2.29,1.81-2.02,1.09-3.87,1.1-5.54.04-.99-.64-1.65-1.5-1.97-2.6-.32-1.1-.37-2.18-.14-3.24.23-1.06.62-2.05,1.19-2.95,1.01-1.59,2.26-2.61,3.75-3.06,1.79-.59,3.53-.23,5.19,1.07.12.1.21.21.27.34Zm-1.72,1.48c-1.01-.79-2.02-1.03-3.03-.7-.96.3-1.79,1-2.47,2.1-.71,1.11-1.04,2.21-1,3.3.04,1.09.44,1.86,1.21,2.3.91.56,1.96.52,3.16-.12.59-.32,1.1-.72,1.54-1.22.44-.49.76-.99.95-1.49.02-.05.05-.31.09-.77l.09-.81c-.09-.69-.13-1.23-.14-1.63l-.02-.24c-.05-.21-.07-.38-.09-.51v-.04c-.09-.05-.19-.1-.3-.17Z"/><path class="cls-1" d="m72.4,23.38c.04.4.09.78.18,1.15.51,1.83,1.46,2.67,2.87,2.52.61-.05,1.04-.16,1.3-.31.25-.13.59-.45,1-.97.19-.26.45-.4.77-.43.32-.03.61.05.86.25.26.19.4.45.43.77.03.32-.05.61-.25.86-.6.75-1.16,1.27-1.67,1.55-.54.29-1.28.49-2.24.6-1.38.15-2.52-.19-3.42-1.03-.9-.83-1.53-1.9-1.89-3.21-.31-1.15-.39-2.36-.24-3.63.16-1.27.53-2.36,1.12-3.27.48-.68,1.1-1.15,1.88-1.41.78-.26,1.52-.33,2.23-.24.7.1,1.38.28,2.02.55,1.06.44,1.85,1,2.4,1.68.21.28.38.56.5.86.12.3.16.64.11,1.03s-.23.75-.55,1.07c-.34.41-.82.58-1.44.53-.21,0-.34-.02-.37-.05h-.04c-1.22.16-3.07.54-5.56,1.13Zm.15-2.42c2.12-.51,3.82-.84,5.09-1.01-.32-.27-.71-.5-1.18-.7-.78-.31-1.46-.43-2.04-.38-.58.05-.99.26-1.23.63-.29.4-.5.89-.63,1.46Z"/><path class="cls-1" d="m95.01,7.83c0-.05-.02-.12-.06-.2l-.15-.35c-.15-.47-.2-.88-.15-1.23.14-1.16.71-2.14,1.71-2.94,1-.8,2.18-1.42,3.53-1.85,1.14-.39,2.38-.64,3.71-.73,1.33-.09,2.41.03,3.24.36,1.05.42,1.91,1.13,2.58,2.14.66,1.01,1.15,2.08,1.46,3.2.49,1.91.24,3.61-.76,5.09-.62.91-1.52,1.71-2.72,2.41,1.42.62,2.65,1.51,3.69,2.67,1.04,1.15,1.79,2.51,2.25,4.08.14.42.26.87.36,1.37.17.76.24,1.32.19,1.67-.14,1.16-.81,2.17-2.02,3.03-.93.64-2.12,1.18-3.55,1.6-1.25.35-2.54.57-3.86.66-1.32.09-2.39.02-3.21-.2-.79-.2-1.46-.51-1.99-.93-.53-.42-1.06-.97-1.57-1.65-.21-.25-.29-.54-.26-.86.04-.32.18-.58.43-.78.25-.2.54-.27.86-.24.32.04.58.18.76.44.42.55.8.95,1.13,1.21.33.25.74.45,1.24.59.55.14,1.35.18,2.42.11,1.06-.07,2.2-.26,3.4-.58,1.2-.35,2.15-.76,2.86-1.25.66-.46,1.02-.93,1.08-1.42v-.12c-.02-.05-.03-.15-.06-.3-.03-.14-.06-.3-.1-.45-.09-.45-.19-.85-.31-1.22-.55-1.74-1.52-3.16-2.9-4.24-1.38-1.08-2.97-1.67-4.77-1.75-.27.02-.6.04-1,.05-.21.02-.36.02-.44,0-.05,0-.11,0-.16-.03-.11-.02-.22-.05-.33-.09-.36-.18-.58-.46-.63-.83-.1-.5.07-.89.5-1.17l.38-.19h.12s.12-.02.12-.02c.42-.04.85-.05,1.28-.03.66-.14,1.32-.34,1.99-.62,1.34-.62,2.3-1.37,2.9-2.22.59-.88.73-1.94.4-3.17-.21-.89-.55-1.69-1.01-2.38-.46-.7-1-1.16-1.61-1.41-.53-.19-1.27-.26-2.25-.2-.97.06-2.02.27-3.14.64-1.07.33-1.93.76-2.58,1.29s-1.02,1.05-1.11,1.56c.03.02.04.06.05.12.03.05.05.09.05.12,0,.03.01.06.03.1.02.04.04.07.07.09.07.18.12.34.16.47.08.31.04.61-.12.87-.16.27-.4.45-.71.54-.31.09-.6.06-.87-.1-.27-.16-.46-.4-.56-.71Z"/></svg>