<?xml version="1.0" encoding="UTF-8"?><svg id="Layer_1" xmlns="http://www.w3.org/2000/svg" viewBox="0 0 72.99 72.99"><defs><style>.cls-1{fill:#fff;}</style></defs><path class="cls-1" d="M72.99,36.5c0,20.17-16.32,36.5-36.5,36.5S0,56.75,0,36.5,16.48,0,36.5,0s36.5,16.17,36.5,36.5Zm-30.49-17.63V9.7c0-3.93-3.08-4.54-6.31-4.54-2.54,0-5.47,.85-5.47,4.54v9.16h-14.47c-1.85,0-5.31,.23-5.31,5.62s3.77,5.54,5.31,5.54h14.47v19.25H13.55c-2.31,0-5.39,.62-5.39,5.62,0,5.39,3.77,5.54,5.39,5.54H59.52c3.54,0,5.31-1.62,5.31-5.78,0-5.39-4.08-5.39-5.31-5.39h-17.02V30.03h14.63c2.31,0,5.39-.54,5.39-5.62,0-5.54-3.93-5.54-5.39-5.54h-14.63Z"/></svg>