<?xml version="1.0" encoding="UTF-8"?><svg id="Layer_1" xmlns="http://www.w3.org/2000/svg" xmlns:xlink="http://www.w3.org/1999/xlink" viewBox="0 0 319.98 42.97"><defs><style>.cls-1,.cls-2{fill:#fff;}.cls-2{fill-rule:evenodd;}.cls-3{fill:#e37d2d;}.cls-4{fill:#92c3db;}.cls-5{clip-path:url(#clippath);}.cls-6{fill:none;}</style><clipPath id="clippath"><rect class="cls-6" width="142.76" height="42.97"/></clipPath></defs><g><path class="cls-1" d="m181.39,27.58c.98,1.18,2.16,2.19,6.92,3.37,1.03.27,2.04.59,2.04,2.01,0,.92-.56,2.6-2.34,2.6s-8.37-2.19-11.15-6.98c-1.33,2.01-3.19,3.49-5.08,4.61-1.66.95-4.41,2.34-6.15,2.34s-2.31-1.77-2.31-2.66c0-.56.18-1.01.53-1.33.47-.44.68-.5,3.64-1.33.53-.15,2.99-.98,4.67-2.63h-7.3c-1.63,0-2.16-.74-2.16-2.22,0-1.92,1.54-1.98,2.16-1.98h.95v-3.1c0-2.84,1.33-3.58,3.58-3.58h5.2c0-1.54.3-2.4,2.37-2.4s2.01,1.54,2.01,2.4h5.17c2.22,0,3.58.71,3.58,3.58v3.1h.92c1.63,0,2.16.74,2.16,2.25,0,1.89-1.51,1.95-2.16,1.95h-7.25Zm-.74-17.86v-.71c0-1.48,1.45-1.6,2.04-1.6,1.06,0,2.4.12,2.4,1.6v.71h3.58c.65,0,2.16.06,2.16,1.95,0,1.51-.53,2.25-2.16,2.25h-3.58v.65c0,1.36-.98,1.74-2.13,1.74-1.33,0-2.31-.38-2.31-1.74v-.65h-7.83v.65c0,1.39-1.18,1.74-2.07,1.74s-2.25-.24-2.25-1.74v-.65h-3.61c-.65,0-2.16-.06-2.16-1.98,0-1.48.5-2.22,2.16-2.22h3.61v-.71c0-1.48,1.42-1.6,1.98-1.6.92,0,2.34.09,2.34,1.6v.71h7.83Zm-6.06,10.85h-3.64c-.5,0-.83.27-.83.8v2.01h4.29c.09-.38.18-.98.18-1.83v-.98Zm4.38.68c0,.62-.06,1.45-.15,2.13h4.43v-2.01c0-.53-.3-.8-.8-.8h-3.49v.68Z"/><path class="cls-1" d="m203.18,12.61c.5,0,1.8,0,1.8,1.69,0,1.27-.41,1.92-1.8,1.92h-8.19c-.56,0-1.83-.03-1.83-1.8,0-1.6.95-1.8,1.83-1.8h8.19Zm-.83-4.23c.5,0,1.8.03,1.8,1.66,0,1.51-1.04,1.66-1.8,1.66h-6.65c-.56,0-1.8-.03-1.8-1.63,0-1.48.98-1.69,1.8-1.69h6.65Zm-.18,8.72c.53,0,1.83,0,1.83,1.74,0,1.57-1,1.74-1.83,1.74h-6.45c-.5,0-1.83,0-1.83-1.74,0-1.6,1.09-1.74,1.83-1.74h6.45Zm0,4.41c.47,0,1.83,0,1.83,1.71s-1.3,1.75-1.95,1.75h-6.33c-.47,0-1.83,0-1.83-1.71s1.18-1.75,1.83-1.75h6.45Zm1.8,10.08c0,2.78-.47,3.37-3.31,3.37h-3.31c-2.81,0-3.31-.56-3.31-3.37v-2.37c0-2.87.53-3.37,3.34-3.37h3.22c2.78,0,3.37.47,3.37,3.37v2.37Zm-3.61-2.01c0-.33-.18-.53-.53-.53h-1.24c-.39,0-.56.21-.56.53v1.57c0,.36.21.56.56.56h1.24c.35,0,.53-.24.53-.56v-1.57Zm15.46-16.14c2.87,0,3.52.74,3.52,3.55v2.13h.44c1.33,0,1.63.95,1.63,1.75,0,1.75-1.06,1.86-1.83,1.86h-13.57c-.47,0-1.86,0-1.86-1.71,0-1.48.71-1.89,1.86-1.89h1.6c.03-.06.32-1.03.62-2.42h-1.01c-.41,0-1.8,0-1.8-1.6s1.36-1.66,1.8-1.66h1.74c.12-.56.15-.89.24-1.51h-2.51c-.47,0-1.86,0-1.86-1.77s1.36-1.8,1.86-1.8h12.42c.47,0,1.86,0,1.86,1.77s-1.36,1.8-1.86,1.8h-5.59c-.12.68-.15.74-.29,1.51h2.6Zm4.17,17.77c0,3.13-.59,3.75-3.73,3.75h-6.92c-3.13,0-3.76-.59-3.76-3.75v-3.31c0-3.13.59-3.73,3.76-3.73h6.92c3.1,0,3.73.56,3.73,3.73v3.31Zm-4.23-2.66c0-.53-.44-.74-.71-.74h-4.52c-.3,0-.74.21-.74.74v1.98c0,.47.41.74.74.74h4.52c.24,0,.71-.18.71-.74v-1.98Zm-3.25-11.86c-.12.59-.3,1.3-.59,2.42h3.13v-1.71c0-.62-.5-.71-.71-.71h-1.83Z"/><path class="cls-1" d="m181.39,27.58c.98,1.18,2.16,2.19,6.92,3.37,1.03.27,2.04.59,2.04,2.01,0,.92-.56,2.6-2.34,2.6s-8.37-2.19-11.15-6.98c-1.33,2.01-3.19,3.49-5.08,4.61-1.66.95-4.41,2.34-6.15,2.34s-2.31-1.77-2.31-2.66c0-.56.18-1.01.53-1.33.47-.44.68-.5,3.64-1.33.53-.15,2.99-.98,4.67-2.63h-7.3c-1.63,0-2.16-.74-2.16-2.22,0-1.92,1.54-1.98,2.16-1.98h.95v-3.1c0-2.84,1.33-3.58,3.58-3.58h5.2c0-1.54.3-2.4,2.37-2.4s2.01,1.54,2.01,2.4h5.17c2.22,0,3.58.71,3.58,3.58v3.1h.92c1.63,0,2.16.74,2.16,2.25,0,1.89-1.51,1.95-2.16,1.95h-7.25Zm-.74-17.86v-.71c0-1.48,1.45-1.6,2.04-1.6,1.06,0,2.4.12,2.4,1.6v.71h3.58c.65,0,2.16.06,2.16,1.95,0,1.51-.53,2.25-2.16,2.25h-3.58v.65c0,1.36-.98,1.74-2.13,1.74-1.33,0-2.31-.38-2.31-1.74v-.65h-7.83v.65c0,1.39-1.18,1.74-2.07,1.74s-2.25-.24-2.25-1.74v-.65h-3.61c-.65,0-2.16-.06-2.16-1.98,0-1.48.5-2.22,2.16-2.22h3.61v-.71c0-1.48,1.42-1.6,1.98-1.6.92,0,2.34.09,2.34,1.6v.71h7.83Zm-6.06,10.85h-3.64c-.5,0-.83.27-.83.8v2.01h4.29c.09-.38.18-.98.18-1.83v-.98Zm4.38.68c0,.62-.06,1.45-.15,2.13h4.43v-2.01c0-.53-.3-.8-.8-.8h-3.49v.68Z"/><path class="cls-1" d="m203.18,12.61c.5,0,1.8,0,1.8,1.69,0,1.27-.41,1.92-1.8,1.92h-8.19c-.56,0-1.83-.03-1.83-1.8,0-1.6.95-1.8,1.83-1.8h8.19Zm-.83-4.23c.5,0,1.8.03,1.8,1.66,0,1.51-1.04,1.66-1.8,1.66h-6.65c-.56,0-1.8-.03-1.8-1.63,0-1.48.98-1.69,1.8-1.69h6.65Zm-.18,8.72c.53,0,1.83,0,1.83,1.74,0,1.57-1,1.74-1.83,1.74h-6.45c-.5,0-1.83,0-1.83-1.74,0-1.6,1.09-1.74,1.83-1.74h6.45Zm0,4.41c.47,0,1.83,0,1.83,1.71s-1.3,1.75-1.95,1.75h-6.33c-.47,0-1.83,0-1.83-1.71s1.18-1.75,1.83-1.75h6.45Zm1.8,10.08c0,2.78-.47,3.37-3.31,3.37h-3.31c-2.81,0-3.31-.56-3.31-3.37v-2.37c0-2.87.53-3.37,3.34-3.37h3.22c2.78,0,3.37.47,3.37,3.37v2.37Zm-3.61-2.01c0-.33-.18-.53-.53-.53h-1.24c-.39,0-.56.21-.56.53v1.57c0,.36.21.56.56.56h1.24c.35,0,.53-.24.53-.56v-1.57Zm15.46-16.14c2.87,0,3.52.74,3.52,3.55v2.13h.44c1.33,0,1.63.95,1.63,1.75,0,1.75-1.06,1.86-1.83,1.86h-13.57c-.47,0-1.86,0-1.86-1.71,0-1.48.71-1.89,1.86-1.89h1.6c.03-.06.32-1.03.62-2.42h-1.01c-.41,0-1.8,0-1.8-1.6s1.36-1.66,1.8-1.66h1.74c.12-.56.15-.89.24-1.51h-2.51c-.47,0-1.86,0-1.86-1.77s1.36-1.8,1.86-1.8h12.42c.47,0,1.86,0,1.86,1.77s-1.36,1.8-1.86,1.8h-5.59c-.12.68-.15.74-.29,1.51h2.6Zm4.17,17.77c0,3.13-.59,3.75-3.73,3.75h-6.92c-3.13,0-3.76-.59-3.76-3.75v-3.31c0-3.13.59-3.73,3.76-3.73h6.92c3.1,0,3.73.56,3.73,3.73v3.31Zm-4.23-2.66c0-.53-.44-.74-.71-.74h-4.52c-.3,0-.74.21-.74.74v1.98c0,.47.41.74.74.74h4.52c.24,0,.71-.18.71-.74v-1.98Zm-3.25-11.86c-.12.59-.3,1.3-.59,2.42h3.13v-1.71c0-.62-.5-.71-.71-.71h-1.83Z"/><path class="cls-1" d="m242.6,19.9c.82,0,1.65.31,1.65,1.57,0,1.03-.52,1.6-1.65,1.6h-6.67v6.64c0,1.06-.49,1.65-1.54,1.65-.72,0-1.6-.23-1.6-1.65v-6.64h-6.67c-.85,0-1.65-.33-1.65-1.57,0-1.06.51-1.6,1.65-1.6h6.67v-6.67c0-1.06.51-1.62,1.54-1.62.67,0,1.6.18,1.6,1.62v6.67h6.67Z"/><path class="cls-1" d="m252.44,9.69c-.06-.14-.11-.29-.2-.48-.13-.29-.2-.46-.2-.67,0-.81,1.09-.91,1.37-.91.39,0,.81.06,1.23,1.23.08.21.2.6.17.83h1.09c.2-.38.32-.63.49-1.07.23-.57.39-.91,1.09-.91.48,0,1.35.22,1.35,1.01,0,.27-.08.41-.42.98.76.13,1.32.45,1.32,1.74v.92c0,.93-.46,1.14-1.15,1.14-.17,0-.38-.01-.55-.07-.04.69-.45.97-.84,1.22-.83.52-1.23.7-1.71.91h3.53c.25,0,1.12,0,1.12,1.04,0,.97-.7,1.07-1.12,1.07h-4.36v1.57c0,1.74-.83,1.84-2.54,1.84-.57,0-1.42,0-1.72-.07-.58-.14-.69-.81-.69-1.12,0-.97.73-1.05,1.08-1.05.15,0,.8.01.94.01.42-.01.45-.17.45-.56v-.62h-4.39c-.32,0-1.14-.03-1.14-1.05,0-.87.55-1.05,1.14-1.05h4.39c0-.2,0-.48.53-.63.2-.06.83-.32.83-.46,0-.11-.1-.11-.14-.11h-3.74c-.31,0-.88,0-.95-.91-.1.03-.22.06-.45.06-.77,0-1.21-.25-1.21-1.11v-.95c0-1.22.49-1.67,1.47-1.74-.03-.06-.17-.29-.2-.35-.2-.36-.24-.53-.24-.67,0-.55.64-.95,1.35-.95.42,0,.76.08,1.22,1.07.13.25.27.6.29.9h1.49Zm-3.08,2.71c.07-.01.2-.06.34-.06h6.97c.2,0,.57,0,.77.06v-.48c0-.13-.07-.21-.21-.21h-7.64c-.14,0-.23.08-.23.21v.48Z"/><path class="cls-1" d="m278.36,8.43c.18,0,.94,0,.94.84s-.76.83-.94.83h-.86c-.08.22-.14.41-.23.6h1.88c.22,0,.93,0,.93.79,0,.83-.63.84-.93.84h-11.55c-.2,0-.94,0-.94-.8s.73-.83.94-.83h1.96c-.06-.27-.1-.41-.15-.6h-1.01c-.21,0-.92,0-.92-.83s.67-.84.92-.84h3.8c0-.36.1-.87,1.08-.87.87,0,1.29.18,1.29.87h3.79Zm-3.86,8.86h4.05c.36,0,.74.07.74.67,0,.53-.25.7-.74.7h-4.05v.34h4.65c.25,0,.93,0,.93.81s-.6.84-.93.84h-11.55c-.21,0-.94,0-.94-.83s.67-.83.94-.83h4.67v-.34h-4.05c-.21,0-.74,0-.74-.64,0-.48.17-.73.74-.73h4.05v-.34h-2.64c-1.56,0-1.84-.27-1.84-1.84v-.62c0-1.56.27-1.84,1.84-1.84h7.51c1.56,0,1.84.27,1.84,1.84v.62c0,1.56-.27,1.84-1.84,1.84h-2.65v.34Zm-2.23-3.01v-.45h-1.92c-.15,0-.22.08-.22.22v.22h2.14Zm0,1.07h-2.14v.24c0,.14.08.22.22.22h1.92v-.46Zm-.41-5.23c.07.24.08.28.18.59h2.71c.1-.27.1-.29.18-.59h-3.07Zm2.64,4.16h2.17v-.22c0-.14-.07-.22-.23-.22h-1.95v.45Zm0,1.07v.46h1.95c.15,0,.23-.08.23-.22v-.24h-2.17Z"/><path class="cls-1" d="m290.02,19.97c0,.27,0,1.13-1.09,1.13-1.02,0-1.12-.7-1.12-1.13v-4.85c-.79.14-1.42-.59-1.42-1.37,0-.48.17-.74.49-1.22,1.01-1.51,1.36-3.14,1.51-3.85.1-.48.24-.95,1.07-.95.45,0,1.22.13,1.22.94,0,.32-.18,1.43-.66,2.85v8.47Zm1.37-4.05c-.24,0-1.12,0-1.12-1.01,0-.8.38-1.11,1.12-1.11h2.62v-.74h-1.26c-1.11,0-1.75-.38-1.75-1.74v-1.5c0-1.36.65-1.75,1.75-1.75h4.78c1.11,0,1.74.39,1.74,1.75v1.5c0,1.36-.65,1.74-1.74,1.74h-1.33v.74h2.61c.25,0,1.14,0,1.14,1.01,0,.84-.42,1.11-1.14,1.11h-1.54c.8,1.13,1.25,1.54,2.24,2.44.39.35.43.6.43.79,0,.63-.59,1.29-1.22,1.29-.43,0-.67-.21-1.23-.87-.65-.73-1.08-1.43-1.29-1.79v2.19c0,.27,0,1.12-1.04,1.12-.81,0-1.15-.34-1.15-1.12v-2.09c-.32.42-.91,1.22-1.93,2.13-.35.31-.59.41-.84.41-.67,0-1.19-.66-1.19-1.29,0-.46.28-.7.71-1.01.9-.65,1.39-1.01,2.27-2.19h-1.64Zm5.58-5.59c0-.22-.11-.34-.34-.34h-3.01c-.22,0-.34.11-.34.34v.52c0,.22.11.33.34.33h3.01c.23,0,.34-.11.34-.33v-.52Z"/><path class="cls-1" d="m316.81,13.3c.49,0,.77.07,1.01.18-.18-.14-.22-.17-.9-.74-.46.06-1.22.13-3.12.24-.88.04-5.59.24-5.82.24-.79,0-1.11-.27-1.11-1.04,0-.69.34-.91.99-.94.23-.01,1.26-.01,1.5-.01.04-.06.27-.36.55-.84h-2.44c-.7,0-.95-.29-.95-1.01,0-.9.69-.9.95-.9h4.53c-.04-.66.35-.87,1.27-.87s1.19.28,1.19.87h4.56c.7,0,.95.29.95,1.01,0,.9-.7.9-.95.9h-1.57c2.05,1.32,2.17,1.67,2.17,2.03,0,.56-.55,1.23-1.23,1.23-.22,0-.36-.07-.46-.11.49.32.63.78.63,1.51v4.26c0,.49-.06,1.11-.59,1.49-.24.17-.43.28-2.17.28-1.44,0-2.13,0-2.13-1.09,0-.95.79-.95,1.01-.95.07,0,1.12.03,1.18.03.21,0,.35-.01.35-.25v-.25h-5.91v1.42c0,.71-.28,1.13-1.25,1.13-1.12,0-1.12-.85-1.12-1.13v-4.92c0-1.37.64-1.75,1.75-1.75h7.13Zm-6.52,2.06h5.91v-.24c0-.13-.08-.21-.22-.21h-5.48c-.14,0-.21.08-.21.21v.24Zm5.91,1.39h-5.91v.45h5.91v-.45Zm-3.71-6.36c-.08.13-.49.7-.58.81.03,0,1.61-.03,2.99-.08-.03-.07-.07-.15-.07-.32,0-.2.06-.32.08-.41h-2.42Z"/><path class="cls-1" d="m247.77,34.32c-.8,0-1.09-.69-1.09-1.25,0-.64.41-.9.85-.98.55-.86.73-1.14,1.47-2.37-.51-.57-.73-.83-1.39-1.5-.71-.74-.9-.97-.9-1.44,0-.74.52-1.21.97-1.21.13,0,.22.04.28.07.39-.8.69-1.54.94-2.16.38-.91.6-1.3,1.22-1.3.69,0,1.26.5,1.26,1.14,0,.71-1.27,2.9-1.79,3.8.13.14.21.22.55.6.24-.46.6-1.23.86-1.7.11-.21.32-.58.88-.58.27,0,.45.08.56.13.13-.59.45-.86,1.18-.86h.52v-1.5c0-.42.07-1.13,1.04-1.13.81,0,1.22.25,1.22,1.13v1.5h1.16c1.21,0,2.19,0,2.19,1.79,0,2.13-.03,4.26-.25,6.38-.25,2.37-.77,2.62-2.93,2.62-.22,0-.63,0-.97-.08-.52-.11-.81-.63-.81-1.19,0-.67.37-1.19.98-1.19.13,0,.7.04.83.04.45,0,.59-.07.7-1.42.08-.92.13-3.38.13-4.37,0-.28-.1-.28-.35-.28h-.69c-.08,4.46-1.56,6.53-2.14,7.32-.8,1.04-1.09,1.12-1.47,1.12-.63,0-1.32-.42-1.32-1.11,0-.35.11-.45.42-.87-1.81.45-3.84.84-4.09.84m2.34-2.62c.49-.07.99-.17,1.36-.24-.08-.36-.27-1.15-.27-1.28,0-.07,0-.15.01-.22-.56.9-.66,1.04-1.11,1.74m3.5-4.68c-.11,0-.43,0-.69-.13-.11.27-.57,1.19-1.41,2.59.32-.28.69-.28.78-.28.7,0,.83.36,1.18,1.79.48-1.26.63-2.62.66-3.98h-.52Z"/><path class="cls-1" d="m262.77,33.1c.97-.34,1.86-.64,2.34-2.1.34-1.07.35-1.08.5-1.23.24-.21.6-.22.74-.22.25,0,.64.06.95.28.18.14.28.34.28.63,0,.45-.32,2.02-1.26,3.2-1.04,1.3-2.54,1.85-3.28,1.85-1.05,0-1.16-1.13-1.16-1.29,0-.63.21-.88.88-1.11m2.16-4.3c0,.29,0,1.15-1.12,1.15-.97,0-1.26-.39-1.26-1.15v-5.54c0-.28,0-1.13,1.11-1.13.99,0,1.27.41,1.27,1.13v5.54Zm9.63-1.11c0,1.37-.64,1.75-1.75,1.75h-5.03c-1.11,0-1.75-.38-1.75-1.75v-3.45c0-1.36.64-1.74,1.75-1.74h5.03c1.11,0,1.75.38,1.75,1.74v3.45Zm-6.21-2.62h3.91v-.43c0-.13-.07-.21-.21-.21h-3.49c-.14,0-.21.08-.21.21v.43Zm0,1.77v.48c0,.13.07.21.21.21h3.49c.14,0,.21-.08.21-.21v-.48h-3.91Zm2.96,5.97c0,.34.2.34.42.34h.71c.45,0,.45-.21.49-1.05.01-.49.04-1.15,1.01-1.15,1.2,0,1.2.77,1.2,1.28,0,.7-.08,1.84-.38,2.44-.37.71-.66.74-3.07.74-1.75,0-2.73,0-2.73-1.77v-2.96c0-.27,0-1.13,1.11-1.13.98,0,1.23.43,1.23,1.13v2.13Z"/><path class="cls-1" d="m287.72,24.33c1.43,0,1.54.86,1.54,1.39,0,.67-.53,4.56-3.7,7.04-2.03,1.6-5.16,2.29-5.82,2.29-.8,0-1.19-.66-1.19-1.32,0-.8.42-.9,1.32-1.09,2.09-.46,4.6-1.22,5.98-4.08.36-.76.6-1.61.6-1.75,0-.2-.11-.2-.41-.2h-3.7c-.91,1.15-1.75,1.89-2.24,2.26-.32.25-.67.42-1.04.42-.74,0-1.25-.67-1.25-1.25,0-.46.08-.52,1.11-1.32.18-.14,1.44-1.15,2.48-3.15.34-.66.55-1.05,1.3-1.05.49,0,1.36.25,1.36.94,0,.25-.06.43-.28.88h3.92Z"/><path class="cls-1" d="m293.85,28.85c-.24,0-1.15,0-1.15-1.12,0-.92.57-1.15,1.15-1.15h9.27c.69,0,1.42.21,1.42,1.32,0,.55-.53,4.11-3.8,5.86-2.07,1.11-4.42,1.28-4.74,1.28-.27,0-.66-.01-.97-.39-.2-.25-.29-.6-.29-.9,0-.85.63-.98.98-1.02,2.23-.29,4.35-.57,5.55-2.56.27-.43.46-.94.46-1.09,0-.18-.1-.21-.32-.21h-7.56Zm8.8-5.75c.25,0,1.14,0,1.14,1.14s-.76,1.16-1.14,1.16h-7.74c-.25,0-1.14,0-1.14-1.13s.8-1.16,1.14-1.16h7.74Z"/><path class="cls-1" d="m309.52,25.43c-.53,0-1.21-.21-1.21-1.18,0-.78.43-1.19,1.21-1.19h6.73c.58,0,1.72.04,1.72,1.37,0,.97-.91,3.07-2.14,4.81,1.29.91,2.24,1.71,3.28,2.63.53.48.83.8.83,1.35,0,.79-.69,1.4-1.43,1.4-.55,0-.83-.31-1.16-.69-.76-.85-2.03-2.12-2.96-2.92-1.6,1.74-4.3,3.74-5.34,3.74-.66,0-1.19-.67-1.19-1.36,0-.56.25-.7,1.14-1.19,4.63-2.57,5.97-6.46,5.97-6.63,0-.15-.15-.15-.29-.15h-5.14Z"/></g><g class="cls-5"><path class="cls-2" d="m67.16,6.84c-.05.13-.04.5-.02.65.03.03.11.31.14.38.1.23.25.46.43.62.08.08.18.16.28.23h.03s.03.02.05.04c.06,0,.12.04.18.06.07.02.13.04.21.05.17.03.29.02.46.02.02-.02.03-.01.06-.02.08-.01.16-.05.2-.09.07-.08.07-.05.13-.17.14-.31-.08-.29-.14-.38-.02-.03-.06-.15-.09-.2-.08-.15-.15-.23-.26-.34-.06-.05-.09-.09-.15-.15-.03-.03-.04-.04-.08-.07-.03-.03-.05-.04-.08-.07-.13-.12-.53-.46-.68-.51-.09-.03-.24-.03-.25-.03-.06-.03-.06-.1-.19-.1-.11,0-.16.05-.22.08"/><path class="cls-2" d="m67.35,6.12s.02.05.05.12c.02.05.04.06.08.08.07.04.23.28.46.13.18-.11.09-.09.19-.15.21-.12.25-.13.39-.29.27-.33.18-.36.4-.63.05-.06.1-.17.15-.2.04-.02.07-.03.11-.06.03-.03.05-.06.08-.1.15-.16.19-.3.41-.18.09.05.31.24.47.04.07-.08.09-.11.09-.25v-.11c-.2-.08-.79-.07-1.04,0-.45.12-.97.4-1.28.73-.03.03-.04.05-.07.08-.18.21-.28.34-.41.6-.04.07-.05.14-.09.21"/><path class="cls-2" d="m70.34,9.57c-.5,0-.65,0-1.13-.21-.19-.08-.49-.23-.68-.34-.06-.04-.17-.1-.23-.12-.04-.01,0,0-.03-.02l-.02-.02s.04,0,.06.02c.3.07.31.04.6,0h0c-.17-.01-.28,0-.45-.03-.07-.01-.14-.03-.21-.05-.06-.02-.12-.05-.18-.06-.01,0-.04.03-.04,0t-.02-.01s0,0,0,0c0,0,0,0,0,0-.19-.1-.35-.25-.46-.38-.07-.08-.12-.13-.18-.23-.03-.05-.12-.26-.14-.28.05.31.28.66.42.87.19.27.34.49.62.66.23.15.65.28.98.31.4.05.78.03,1.12-.1"/><path class="cls-2" d="m67.17,6.18s.16-.34.2-.4c.39-.7.91-1.11,1.69-1.36.45-.14.63-.06,1.09-.05-.05-.13-.31-.19-.44-.21-.72-.11-1.38.27-1.86.73-.1.09-.21.24-.29.36-.14.21-.33.63-.39.92"/><path class="cls-2" d="m71.28,4.99h0s-.01-.02-.05-.05c-.02-.02-.02-.02-.06-.04.01.02.02.03.04.04.03.02.02,0,.06.04"/><path class="cls-2" d="m70.55,4.81c-.04.07-.11.13-.16.2-.11.15-.09.22-.24.33-.06.04-.06.05-.1.09-.16.16-.03.06-.23.15-.34.14-.46.37-.53.41-.05.03-.09.04-.12.07-.04.03-.04.06-.08.11-.04.05-.06.04-.09.1-.07.14.02.49.08.61.05.09.09.15.14.24.06.1.1.12.2.18.29.17.32.05.44-.16.04-.06.05-.05.1-.09.12-.09.19-.28.25-.32.07.05.15.12.26.15,0,.09-.08.21-.12.45-.02.18,0,.37,0,.55-.23-.03-.32-.09-.49.21-.03.05-.1.11-.17.2-.06.07-.09.16-.11.27-.11.54.31.77.77.54.07-.04.29-.16.35-.21.16-.14.14-.17.35-.22.11-.03.15-.1.27-.11.28-.02.37-.12.48-.27.06-.08.1-.14.15-.24.03-.07.07-.22.11-.27.11-.15.14-.61.13-.84-.03-.51-.21-1.02-.47-1.45-.07-.12-.34-.47-.43-.51-.03-.03-.03-.02-.06-.04-.02-.02-.03-.03-.04-.04l-.17-.11c-.05-.03-.12-.07-.18-.09-.05.02-.09.02-.14.04-.05.02-.09.04-.14.05"/><path class="cls-1" d="m106.28,10.71h0c1.32,0,2.39,1.06,2.39,2.38v11.36c0,1.54.18,2.66.55,3.37.57,1.25,1.81,1.88,3.71,1.88s3.13-.63,3.7-1.88c.37-.71.55-1.83.55-3.37v-11.36c0-1.31,1.07-2.38,2.39-2.38s2.39,1.06,2.39,2.38v11.37c0,2.38-.37,4.23-1.11,5.55-1.38,2.43-4.02,3.64-7.91,3.64s-6.54-1.21-7.93-3.64c-.74-1.33-1.11-3.18-1.11-5.55v-11.37c0-1.31,1.07-2.38,2.39-2.38"/><path class="cls-1" d="m140.75,23.52c-1.34,1.11-3.24,1.66-5.72,1.66h-2.38c-1.31,0-2.37,1.05-2.37,2.35v3.45c0,1.3-1.06,2.35-2.37,2.35s-2.37-1.05-2.37-2.35V13.02c0-1.3,1.06-2.35,2.37-2.35h7.43c2.26,0,4.06.58,5.4,1.75,1.34,1.17,2.01,2.98,2.01,5.43,0,2.68-.67,4.57-2.01,5.68m-3.64-8.17c-.6-.5-1.45-.75-2.54-.75h-1.93c-1.31,0-2.37,1.05-2.37,2.35v1.97c0,1.3,1.06,2.35,2.37,2.35h1.93c1.09,0,1.93-.27,2.54-.82.6-.54.91-1.4.91-2.58s-.3-2.02-.91-2.52"/><path class="cls-1" d="m60.63,14.16c-2.52,3.45-4.39,6.28-5.6,8.48l-.6,1.16-.06.09.03.3c.1,0,.2,0,.3.03.22.02.52.05.9.09.34.04.56.06.66.06.76.14,1.52.31,2.29.52.77.21,1.38.39,1.84.54.46.15,1.14.39,2.04.71.9.33,1.55.55,1.95.67.2.08.34.21.43.39s.1.37.03.57-.19.34-.38.43c-.18.09-.37.1-.57.04l-1.98-.71-1.98-.68c-.44-.16-1.02-.33-1.75-.52-.73-.19-1.45-.34-2.17-.46-.06-.02-.24-.04-.54-.06-.4-.04-.71-.07-.93-.09l-.09-.03c.14,2.82.23,4.87.27,6.16,0,.2-.07.38-.21.54-.14.16-.31.24-.51.24s-.38-.07-.54-.21c-.16-.14-.24-.31-.24-.51-.04-1.25-.14-3.44-.3-6.58-.12-.08-.22-.17-.3-.27-.12-.14-.17-.31-.15-.51,0-.06.01-.12.03-.18.02-.04.04-.09.06-.15.02-.08.06-.18.12-.3l.18-.36c-.06-1.31-.11-2.46-.15-3.45-.02-.73,0-2.43.06-5.09.04-2.14-.01-3.79-.15-4.94-.02-.2.03-.38.17-.55.13-.17.29-.26.49-.28.2-.02.38.03.55.16.17.13.26.29.28.49.16,1.23.21,2.95.15,5.15-.06,2.62-.08,4.29-.06,5l.03.92c1.18-2.02,2.91-4.59,5.18-7.71.12-.16.28-.25.48-.28.2-.03.38.01.55.13s.27.28.3.48-.01.39-.14.57"/><path class="cls-1" d="m70.46,12.05c.48,5.16.72,12.06.72,20.69,0,.2-.08.37-.22.52-.15.15-.32.22-.52.22s-.38-.07-.52-.22c-.15-.15-.22-.32-.22-.52,0-8.65-.24-15.51-.72-20.57-.02-.2.03-.38.17-.54.13-.16.3-.25.51-.27s.39.04.55.16c.16.13.25.3.27.52"/><path class="cls-1" d="m84.15,9.22c.06.67.1,1.37.12,2.07s.02,1.56,0,2.56c-.02,1-.03,1.66-.03,1.98,0,1.85-.06,6.91-.16,10.61-.11,3.7-.17,4.18-.17,6.03,0,.2-.07.37-.22.52-.15.15-.32.22-.53.22s-.37-.07-.52-.22c-.15-.15-.22-.32-.22-.52,0-1.23.02-.32.06-1.85-1.26.52-2.64.57-4.14.15-1-.28-1.82-.72-2.47-1.33-.65-.6-1.08-1.27-1.3-1.99-.22-.72-.29-1.46-.21-2.22.08-.75.3-1.45.66-2.08.36-.66.85-1.19,1.48-1.61.63-.42,1.33-.63,2.11-.66,1.36-.04,2.72.56,4.08,1.79.04-1.71.06-5.52.06-6.84,0-.38.01-1.05.03-2.02.02-.97.03-1.8.01-2.47-.01-.67-.06-1.32-.14-1.93-.02-.22.03-.41.17-.57.13-.16.3-.25.51-.27.21-.02.39.04.56.16.16.13.25.29.27.49m-1.59,15.45c-1.38-1.57-2.69-2.33-3.93-2.29-1,.02-1.78.53-2.34,1.52-.26.46-.42.96-.48,1.5-.06.55,0,1.07.16,1.58.17.51.49.98.96,1.41.47.44,1.07.75,1.81.95,1.4.4,2.62.28,3.65-.36.04,0,.07,0,.09-.03.02-.54.04-1.29.07-2.26.03-.97.04-1.63.04-1.96l-.06-.06Z"/><path class="cls-1" d="m94.76,15.26c-.34-1.03-.83-1.79-1.48-2.28-.65-.49-1.32-.7-2.01-.65-.69.05-1.31.36-1.87.94-.56.58-.92,1.42-1.08,2.53-.22,1.33-.18,2.36.12,3.1.2.48.46.97.79,1.49.33.52.79,1.17,1.38,1.96.59.79,1,1.37,1.24,1.73.78,1.13,1.37,2.2,1.77,3.21.4,1.01.52,2.05.36,3.13-.18,1.15-.8,2.02-1.86,2.62-.78.44-1.52.56-2.22.39-.6-.16-1.13-.54-1.59-1.13-.64-.83-1.08-1.99-1.32-3.48-.02-.2.03-.38.15-.55s.28-.27.48-.3c.2-.03.38.01.55.13.17.12.27.28.31.48.2,1.25.54,2.19,1.02,2.83.24.32.49.51.75.57.32.08.7,0,1.14-.24.62-.36.98-.87,1.08-1.55.12-.79.01-1.61-.32-2.46-.33-.84-.84-1.78-1.54-2.81-.18-.26-.58-.8-1.2-1.64-.62-.83-1.11-1.54-1.48-2.13-.37-.58-.67-1.16-.88-1.71-.4-.97-.48-2.26-.24-3.87.22-1.39.73-2.5,1.53-3.35.8-.84,1.74-1.3,2.82-1.38,1.06-.08,2.05.23,2.98.94.93.71,1.61,1.71,2.05,3.02.06.2.05.39-.05.57-.09.18-.24.3-.43.37-.2.07-.39.06-.57-.03-.18-.09-.31-.23-.39-.43"/><path class="cls-1" d="m0,21.49C0,33.35,9.9,42.97,22.12,42.97s22.12-9.62,22.12-21.49S34.34,0,22.12,0,0,9.62,0,21.49"/><path class="cls-3" d="m22.12,41.63c11.46,0,20.75-9.02,20.75-20.15S33.58,1.33,22.12,1.33"/><path class="cls-4" d="m22.12,1.33C10.66,1.33,1.37,10.36,1.37,21.49s9.29,20.15,20.75,20.15"/><path class="cls-1" d="m22.13,3.22s0,0,0,0c0,0,0,0,0,0C11.87,2.56,2.86,11.05,2.93,21.33c-.07,10.27,8.92,19.06,19.16,18.42,0,0,0,0,0,0,0,0,0,0,0,0,.01,0,.02,0,.04,0,0,0,0,.02,0,.02,0,0,0-.02,0-.02.01,0,.03,0,.04,0,0,0,0,0,0,0,0,0,0,0,0,0,10.23.63,19.22-8.16,19.15-18.42.07-10.28-8.94-18.77-19.19-18.12m17.79,18.12c-2.17-.21-4.37-.35-6.59-.45-.06-3.27-.84-6.52-2.32-9.43,1.41-.66,2.72-1.49,3.86-2.5,3.48,3.51,5.09,7.96,5.05,12.38M22.12,3.22s0,0,0,0c3.28,1.82,5.74,4.55,7.38,7.74-2.22.63-4.53.98-6.86,1.03-.1-2.95-.26-5.89-.53-8.78m-.69,17.44c-3.01.02-6.08.07-9.14.18.06-3.07.72-6.12,1.95-8.88,2.28.88,4.78,1.35,7.3,1.41-.07,2.45-.1,4.89-.12,7.3m0,1.37c.01,1.85.03,3.72.07,5.6-2.72.06-5.42.61-7.84,1.64-.86-2.36-1.32-4.88-1.37-7.42,3.06.12,6.12.16,9.14.18m1.38,0c3.01-.02,6.08-.06,9.14-.18-.06,2.56-.52,5.1-1.39,7.48-2.41-1.05-5.1-1.61-7.82-1.7.04-1.88.06-3.75.07-5.6m0-1.37c-.02-2.41-.05-4.85-.12-7.3,2.51-.07,5.01-.55,7.28-1.45,1.25,2.78,1.91,5.84,1.98,8.93-3.06-.12-6.12-.16-9.14-.18m6.2-15.77c2.27,1.07,4.17,2.41,5.71,3.93-1.32.73-2.71,1.34-4.16,1.82-.03-.06-.07-.12-.1-.19-1.88-3.22-4.79-5.98-8.33-7.23,2.39.16,4.73.71,6.88,1.67m-6.89-1.68s0,0,0,0h0c-.27,2.88-.43,5.83-.53,8.78-2.33-.03-4.66-.36-6.89-.98,1.64-3.22,4.11-5.97,7.42-7.8,0,0,0,0,0,0h0s0,0,0,0m-.01,0c-3.54,1.25-6.45,4.01-8.33,7.23-.05.08-.1.17-.14.25-1.46-.47-2.88-1.07-4.23-1.8,3.02-3.12,7.32-5.3,12.7-5.68m-12.82,5.81c1.16,1,2.48,1.84,3.91,2.49-1.46,2.89-2.23,6.13-2.29,9.37-2.21.1-4.42.24-6.59.45.03-4.49,1.77-8.94,4.97-12.31m5.94,28.75c-7.54-3.55-10.95-10.03-10.91-16.42,2.17.2,4.37.35,6.59.45.06,2.74.61,5.46,1.66,7.99-1.42.72-2.72,1.61-3.84,2.69,1.32-.78,2.72-1.42,4.17-1.94.26.56.55,1.12.86,1.66,1.87,3.23,4.77,6.3,8.3,7.56-2.38-.17-4.7-1.02-6.83-1.98m6.84,1.98c-3.25-1.78-5.73-4.89-7.36-8.07-.25-.49-.48-1-.69-1.51,2.42-.74,4.97-1.13,7.52-1.18.09,3.51.26,7.33.58,10.76-.02,0-.03,0-.05,0m.05,0c.32-3.43.49-7.25.58-10.75,2.55.06,5.08.48,7.49,1.24-.2.49-.42.97-.66,1.44-1.63,3.18-4.11,6.3-7.36,8.07-.02,0-.03,0-.05,0m.06,0c3.53-1.25,6.43-4.33,8.3-7.55.3-.51.57-1.04.82-1.58,1.47.54,2.88,1.21,4.21,2.02-1.12-1.12-2.43-2.04-3.87-2.79,1.07-2.54,1.63-5.29,1.68-8.05,2.22-.1,4.42-.24,6.59-.45-.08,8.72-6.56,17.59-17.74,18.4"/><path class="cls-1" d="m33.59,21.95s.77,1.14,1.88,1.05c1.07-.09,1.96-1.34,2.22-1.75.06-.09.15-.16.26-.18.26-.06.47-.09.7-.29.66-.57.6-1.71-.17-2.03-.56-.23-.75.53-1.2.99-.26.27-.25.56-.21.73.03.12,0,.24-.07.33-.2.27-.64.74-1.33.8-.79.07-1.11-.37-1.21-.56-.03-.05-.04-.11-.04-.16-.11-2.27-1.94-2.73-1.9-3.02.02-.17.17-.17.17-.17,4.3-.54,3.5-3.46,3.5-3.46-.33-1.01-.13-1.84-.11-1.92,0,0,0,0,0-.01,1.04-4.07-4.36-4.5-5.81-3.62-.15.09-.35.07-.49-.05-.13-.12-.3-.18-.49-.18-.13,0-.26.04-.37.1-.14.08-.31.08-.44-.02-.45-.32-1.45-.73-2.65.67-1.65,1.92-1.09,3.89.11,5.53.31.43.41.75.4.96,0,0,0,0,0,0,0,.06-.02.11-.05.16-.06.12-.17.18-.29.18,0,0,0,0,0,0s0,0,0,0c-.03,0-.06,0-.09-.02-.01,0-.03,0-.04-.01,0,0,0,0,0,0-.06-.03-.1-.07-.13-.13,0-.01-.02-.02-.02-.03,0-.01,0-.02-.01-.04-.06-.15-.05-.37.11-.65,0,0-.4.22-.58.59-.23.45.2.9.2.9-.87-.14-.35-.99-.35-.99,0,0-.27.12-.41.25-.65.59-.3,1.39.18,1.55.59.2.98.12,1.15.07.08-.03.16-.02.24,0,1.41.37,1.67-.86,1.72-1.33,0,0,0,0,0,0,0,0,.01-.07.08-.07.06,0,.08.06.08.06.17.47.37,1.45,1.84,1.4.01,0,.02,0,.03,0,.01,0,.03,0,.04,0,.12,0,.21.09.21.21,0,.09-.06.17-.14.2h0s-1.37-.24-2.96.37c-.53.2-1.87.92-2.65,1.79-.5.56-.82,1.3-.86,1.41,0,.03-.03.05-.06.05-.73.13-1.11.87-1.2,1.07-.01.03-.05.05-.08.04-.24-.04-.41.04-.55.16-.17.16-.44.18-.6,0-.47-.49-1.59-.59-2.21-1.53-.83-1.26-1.01-3.03-2.12-3.41-.58-.19-.72-.03-.73-.18-.02-.23.8-.32.91-.33.01,0,.02,0,.03,0l.76-.12c3.37-.75,2.52-3.66,2.52-3.66,0,0-.36-2.64-.03-2.7.33-.06,1.05-.62,1.18-1.26.15-.71-.48-.49-.48-.49,0,0-1.48.6-1.53-.39-.05-.99-1.27-.43-1.08-.72.19-.29.04-.54.04-.54,0,0-.13-.24-.43,0-.18.14-.76.47-.76.47-.06.02-.13-.03-.11-.09.03-.13.06-.36.06-.76.02-.67-1.31.3-1.81.68-.06.04-.14,0-.13-.07.03-.66-1.48.11-1.48.11-3.42,1.42-3.18,5.42-3.08,6.77.1,1.34.78,2.02,1.09,1.96.31-.06.29-.44.29-.44.25.75,2.14.87,2.32,1.29.19.44-.48.11-2.18.16-1.17.03-3,.69-3.92,1.76-.27.32-.27.5-.49.75-.2.23-.66.32-.94.32-.19,0-.39.02-.57.09-1.78.69-.87,2.01-.87,2.01,0,0,.39.74,1.18.56.58-.13.25-.46.93-.94.12-.08.61.05.95-.32.04-.04,1.61-1.33,2.95-1.24.36.02.67.36.65.72-.05.74-.63,1.7-.88,2.02-.9,1.14-.44,2.27-.43,2.47,0,.01,0,.02,0,.04-.09.18-.85,1.65-2.07,2.03-1.3.4-2.36-1.46-2.37-1.47,0-.02.46-1.1-.81-1.33-1.73-.31-1.91,4.02-1.91,4.1,0,.44.36.84.6.84.71.08.95-1.65,1.06-1.8.12-.17.3-.16.42.01.96,1.39,2.86,1.79,2.89,1.8,0,0,0,0,0,0,3.12.6,4.42-2.66,4.61-3.2.01-.04.06-.06.1-.05,3.05.86,3.27,4.4,3.17,6.06-.11,1.67.93,1.26,2.51.8,1.59-.47,1.8-.56,1.41-1.3-.31-.59-1.23-.3-1.57-.17-.06.02-.12-.03-.11-.09.36-3.46-1-5.2-2.12-6.9-.49-.75.11-2.57.2-2.71.04-.06.13-.04.15.02.29.9,1.72,1.96,3.07,2.36.93.27,1.67.09,2.03-.05.15-.06.31-.02.44.08.55.43,1.54,0,1.88-.49.04-.05.34-.24-.08-1.18-.26-.57.38-1.14.38-1.14,2.83-2.78,3.69-1.65,3.7-1.64t0,0c.51,4.94-3.36,5.98-4.2,6.15-.07.01-.09.09-.04.14,1.23,1.19,1.55,2.22.36,2.59-.38.12-.79-.09-1.06-.61-.24-.46-.33-1.2-.6-1.43-.41-.34-1.02.41-1.47,1.06-1.1,1.56-.75,2.91-.1,3.03.65.12.83-.52,1.04-1.33.14-.57.12-.3.76.53.7.92,1.86,1.14,2.26.34.83-1.64,2.21-1.17,2.3-1.14,0,0,0,0,0,0,2.51,1.45,4.66.87,5.47.56.26-.1.56-.01.71.22.28.43.45,1.09.54,1.53.05.24.03.49-.04.73-.05.18-.1.4-.07.59.21,1.45,2.66.74,3.79-.15.68-.53.44-1.13.21-1.33-.61-.55-1.62-.09-2.02.09-.39.18-.33-.2-.33-.2.32-2.29-.62-3.09-.89-3.43-.27-.33-.02-.4-.02-.4,0,0,.3-.02.6-.36s.01-.44.01-.44c0,0-.9-.38-2.22-1.64-1.33-1.26-.27-2.78-.05-3.33.23-.55.37-.27.37-.27"/></g></svg>