<?xml version="1.0" encoding="UTF-8"?><svg id="Layer_1" xmlns="http://www.w3.org/2000/svg" xmlns:xlink="http://www.w3.org/1999/xlink" viewBox="0 0 406.68 406.68"><defs><style>.cls-1{fill:#c9e8f5;}.cls-2{clip-path:url(#clippath-1);}.cls-3{clip-path:url(#clippath);}.cls-4{fill:none;}.cls-5{fill:#f9d4e7;}</style><clipPath id="clippath"><rect class="cls-4" width="406.68" height="406.68"/></clipPath><clipPath id="clippath-1"><path class="cls-1" d="m246.14-470.62l-78.98,132.29c-.04-5.08-24.57,33.17-16.93,59.53,7.64,26.36,21.6,51.96,19.76,79.34-2.1,31.27-24.11,56.93-41.51,83-13.45,20.16-24.62,41.83-33.24,64.48-9.81,25.77-16.31,54.04-9.94,80.87,4.07,17.11,13.13,32.6,23.02,47.14,13.28,19.53,28.41,38.04,46.91,52.72,35.08,27.83,79.59,40.02,121.24,56.46,41.65,16.44,84.06,40.35,103.18,80.84,17.89,37.88,11.89,83,25.72,122.54,19.28,55.15,74.96,90.96,132.05,103.38,47.84,10.42,98.1,7.4,145.29,20.45,47.2,13.04,93.91,49.75,94.88,98.71L1078.5,61.19,246.14-470.62Z"/></clipPath></defs><g class="cls-3"><g><path class="cls-1" d="m246.14-470.62l-78.98,132.29c-.04-5.08-24.57,33.17-16.93,59.53,7.64,26.36,21.6,51.96,19.76,79.34-2.1,31.27-24.11,56.93-41.51,83-13.45,20.16-24.62,41.83-33.24,64.48-9.81,25.77-16.31,54.04-9.94,80.87,4.07,17.11,13.13,32.6,23.02,47.14,13.28,19.53,28.41,38.04,46.91,52.72,35.08,27.83,79.59,40.02,121.24,56.46,41.65,16.44,84.06,40.35,103.18,80.84,17.89,37.88,11.89,83,25.72,122.54,19.28,55.15,74.96,90.96,132.05,103.38,47.84,10.42,98.1,7.4,145.29,20.45,47.2,13.04,93.91,49.75,94.88,98.71L1078.5,61.19,246.14-470.62Z"/><g class="cls-2"><rect class="cls-5" x="111.2" y="-1210.28" width="1224.23" height="1763.99" transform="translate(1515 -263.58) rotate(-150.92)"/></g></g></g></svg>