<?xml version="1.0" encoding="UTF-8"?><svg id="Layer_1" xmlns="http://www.w3.org/2000/svg" xmlns:xlink="http://www.w3.org/1999/xlink" viewBox="0 0 769.87 608.3"><defs><style>.cls-1{clip-path:url(#clippath);}.cls-2{fill:none;}.cls-3{fill:#994f99;}</style><clipPath id="clippath"><rect class="cls-2" width="769.87" height="608.3"/></clipPath></defs><g class="cls-1"><path class="cls-3" d="m715.95,750.67l4.72-154.01c2.51,4.42,5.35-40.93-14.14-60.25-19.49-19.32-44.13-34.91-55.83-59.73-13.36-28.35-6.6-61.47-4.07-92.72,1.95-24.15,1.18-48.52-2.29-72.51-3.96-27.29-12.01-55.16-30.62-75.5-11.87-12.98-27.32-22.1-43.03-30-21.09-10.61-43.32-19.44-66.62-23.27-44.18-7.27-89.01,3.72-133.4,9.59-44.39,5.88-93.07,5.6-129.46-20.49-34.05-24.41-50.74-66.75-82.04-94.59C115.5,38.37,49.43,34.14-6.5,51.03c-46.88,14.15-89.33,41.21-136.91,52.75-47.59,11.54-106.25,2.17-130.9-40.14l4.35,626.86,985.91,60.17Z"/></g></svg>