<?xml version="1.0" encoding="UTF-8"?>
<svg id="Layer_1" xmlns="http://www.w3.org/2000/svg" viewBox="0 0 144.6 144.6"><defs><style>.cls-1{fill:#f5efe8;}.cls-2{fill:#3571b7;}</style></defs><rect class="cls-2" x="0" y="0" width="144.6" height="144.6" rx="72.3" ry="72.3"/><circle class="cls-1" cx="72.3" cy="72.43" r="37.1"/><g id="_047Jra.tif"><path class="cls-2" d="m72.26,65.8c-.28.29-.54.58-.81.85-1.64,1.65-3.29,3.3-4.94,4.94-.14.14-.19.28-.19.47,0,5.66,0,11.32,0,16.98,0,1.13-.65,1.99-1.55,2.35-1.47.58-3.12-.4-3.3-1.98-.02-.2-.03-.39-.03-.59,0-2.34,0-4.68,0-7.02,0-.15,0-.29-.03-.44-.07-.38-.41-.62-.83-.59-.39.03-.66.28-.67.67-.01,1.15-.01,2.3-.02,3.46,0,1.38,0,2.77,0,4.15,0,.87-.3,1.61-1.02,2.12-1.11.79-2.82.51-3.52-.78-.25-.46-.35-.93-.35-1.44,0-3.11,0-6.22,0-9.34,0-2.33,0-4.67,0-7,0-.1-.02-.21,0-.3.08-.32-.08-.53-.3-.75-1.19-1.18-2.38-2.37-3.57-3.55-1.23-1.23-2.45-2.45-3.68-3.68-.38-.38-.71-.79-.8-1.33-.19-1.03.15-1.89.98-2.5.86-.63,1.79-.62,2.71-.08.19.11.37.25.52.4,1.83,1.82,3.67,3.65,5.49,5.49.52.53,1.07,1.02,1.74,1.35,2.06,1.02,4.55.7,6.27-.83.56-.49,1.07-1.04,1.6-1.56,1.5-1.5,3.04-2.97,4.5-4.52.99-1.05,2.88-.9,3.76.02,1.91,1.98,3.87,3.91,5.83,5.84,1.14,1.12,2.54,1.62,4.14,1.55,1.34-.06,2.52-.52,3.5-1.43.85-.8,1.67-1.63,2.5-2.46,1.22-1.21,2.42-2.43,3.65-3.64.7-.69,1.55-.86,2.47-.57.95.3,1.47,1,1.65,1.95.15.79-.09,1.49-.65,2.06-1.12,1.14-2.25,2.26-3.37,3.39-1.39,1.39-2.79,2.79-4.19,4.18-.1.1-.1.19-.07.31.33,1.37.65,2.73.98,4.1.67,2.81,1.34,5.61,2.02,8.42.01.05.01.1.02.17h-3.04c0,.1,0,.18,0,.25,0,1.36,0,2.72,0,4.08,0,.61-.13,1.18-.52,1.67-.62.78-1.44,1.08-2.41.9-1.02-.19-1.63-.84-1.88-1.84-.07-.26-.08-.55-.09-.82,0-1.38,0-2.77,0-4.15,0-.1-.04-.13-.12-.13-.44,0-.87,0-1.31,0-.13,0-.12.09-.12.18,0,.73,0,1.46,0,2.19,0,.71,0,1.41,0,2.12,0,.72-.27,1.35-.8,1.84-1.08,1.01-3.36.88-3.97-1.16-.08-.26-.1-.53-.1-.8-.01-1.41,0-2.82,0-4.24,0-.14-.01-.19-.18-.19-.92.01-1.83,0-2.75,0-.04,0-.08,0-.13,0,0-.05,0-.1.01-.14.62-2.61,1.24-5.21,1.85-7.82.36-1.52.72-3.04,1.08-4.56.04-.18.02-.3-.12-.44-1.04-1.02-2.06-2.05-3.09-3.07-.88-.87-1.75-1.75-2.63-2.62-.02-.02-.05-.05-.12-.11Z"/><path class="cls-2" d="m66.38,60.67c-.07,3.18-2.46,5.66-5.67,5.71-3.03.04-5.76-2.35-5.76-5.68,0-3.33,2.64-5.73,5.73-5.71,3.21.01,5.63,2.57,5.7,5.69Z"/><path class="cls-2" d="m89.64,60.68c-.07,3.1-2.44,5.58-5.54,5.69-3.05.11-5.84-2.26-5.89-5.64-.04-3.16,2.44-5.7,5.6-5.76,3.27-.06,5.75,2.49,5.83,5.71Z"/></g></svg>