<?xml version="1.0" encoding="UTF-8"?><svg id="Layer_1" xmlns="http://www.w3.org/2000/svg" viewBox="0 0 144.6 144.6"><defs><style>.cls-1{fill:#f5efe8;}.cls-2{fill:#3571b7;}</style></defs><rect class="cls-2" x="0" y="0" width="144.6" height="144.6" rx="72.3" ry="72.3"/><path class="cls-1" d="m72.3,29.14c-23.83,0-43.16,19.32-43.16,43.16s19.32,43.16,43.16,43.16,43.16-19.32,43.16-43.16-19.32-43.16-43.16-43.16Zm7.22,72.59c-12.65,2.65-25.83-3.28-32.15-14.48-.96-1.69-.24-3.45,1.56-3.79.99-.19,1.93.31,2.56,1.4,1.39,2.41,3.1,4.55,5.19,6.38,3.93,3.44,8.48,5.5,13.67,6.14,13.33,1.66,25.49-7.17,27.99-20.27,2.66-13.92-6.36-26.93-19.4-29.46-10.16-1.98-18.83.99-25.46,9.13-2.41,2.96-3.91,6.4-4.7,10.3,1.41-1.06,2.7-2.05,4.02-3,1.25-.91,2.82-.62,3.55.63.59,1.01.42,2.3-.54,3.04-2.87,2.19-5.75,4.36-8.67,6.49-1.06.77-2.47.51-3.29-.56-2.14-2.81-4.25-5.63-6.35-8.48-.8-1.08-.57-2.54.43-3.3,1.07-.81,2.49-.64,3.36.45.92,1.17,1.8,2.39,2.79,3.7.11-.41.19-.7.27-.99,3.34-12.11,11.18-19.7,23.42-22.21,15.42-3.16,30.07,6.13,34.5,20.65,5.19,17.02-5.26,34.56-22.74,38.22Zm-1.6-31.51c1.98,0,3.96-.02,5.94-.03,1.61,0,2.65.93,2.65,2.35,0,1.39-1.02,2.35-2.57,2.36-2.57.01-5.15.15-7.7-.06-3.23-.27-5.87-3.31-5.97-6.54-.03-1.18,0-2.35,0-3.53h-.01c0-1.2-.02-2.41,0-3.61.02-1.36,1-2.36,2.3-2.38,1.35-.03,2.39.95,2.41,2.35.03,2.06,0,4.12.01,6.18,0,2.05.88,2.92,2.94,2.91Z"/></svg>