<?xml version="1.0" encoding="UTF-8"?><svg id="Layer_1" xmlns="http://www.w3.org/2000/svg" viewBox="0 0 144.6 144.6"><defs><style>.cls-1{fill:#386cb3;}.cls-2{fill:#faf5f0;}</style></defs><rect class="cls-1" x="0" y="0" width="144.6" height="144.6" rx="72.3" ry="72.3"/><g id="_3LoiC3"><path class="cls-2" d="m100.42,59.21c-.06,4.82-1.05,9.22-2.58,13.52-3.73,10.49-9.39,19.91-15.83,28.9-2.54,3.55-5.25,6.99-7.93,10.44-1.31,1.69-2.22,1.68-3.54.02-7.59-9.49-14.66-19.33-19.97-30.32-2.6-5.39-4.81-10.91-5.9-16.85-2.78-15.28,6.63-29.74,21.89-32.98,10.04-2.13,18.81.8,26,8.1,5.27,5.35,7.76,11.92,7.86,19.17Zm-28.17,14.97c7.53.05,13.61-5.94,13.65-13.48.05-7.57-5.91-13.6-13.47-13.64-7.68-.04-13.66,5.86-13.71,13.52-.06,7.49,5.97,13.54,13.53,13.59Z"/></g></svg>