<?xml version="1.0" encoding="UTF-8"?><svg id="Layer_1" xmlns="http://www.w3.org/2000/svg" xmlns:xlink="http://www.w3.org/1999/xlink" viewBox="0 0 318.35 332.88"><defs><style>.cls-1{fill:#386cb3;}.cls-2{fill:#faf5f0;}.cls-3{fill:#3c3c3b;}.cls-4{clip-path:url(#clippath);}.cls-5{fill:none;}</style><clipPath id="clippath"><rect class="cls-5" x="92.7" y="148.06" width="82.14" height="34.14"/></clipPath></defs><rect class="cls-2" y="14.53" width="318.35" height="318.35" rx="21.43" ry="21.43"/><rect class="cls-1" x="13.21" y="0" width="141.36" height="36.33" rx="18.17" ry="18.17"/><g><path class="cls-2" d="m64.39,12.84c0,.82-.75,1.12-1.38,1.12-1.06,0-1.3-.6-1.42-.98-.33-1-.69-2.08-3.07-2.08-.43,0-3.09,0-3.09,1.88,0,1.34.69,1.56,4.62,2.94,3.44,1.2,4.78,2.28,4.78,4.59,0,2.62-2.16,5.05-6.08,5.05-5.66,0-6.57-3.93-6.57-4.77,0-.92.85-1.22,1.48-1.22,1.18,0,1.34.64,1.51,1.36.39,1.52,2.03,2.08,3.42,2.08,1.57,0,3.3-.56,3.3-2.28,0-1.12-.92-1.58-3.62-2.5-3.52-1.18-5.76-1.92-5.76-4.95,0-2.02,1.38-4.71,6-4.71s5.86,3.04,5.86,4.47Z"/><path class="cls-2" d="m68.8,10.67c0-.78.37-1.3,1.32-1.3.85,0,1.4.3,1.4,1.3v2.38h1.55c.45,0,1.1.16,1.1,1.08,0,.82-.49,1.08-1.1,1.08h-1.55v6.79c0,1.02.63,1.12,1.3,1.12.53,0,1.4,0,1.4,1.02,0,1.22-1.59,1.24-2.03,1.24-2.4,0-3.38-.84-3.38-3v-7.17h-1.14c-.51,0-1.12-.18-1.12-1.06s.53-1.1,1.12-1.1h1.14v-2.38Z"/><path class="cls-2" d="m78.31,19.73c.1,2.34,1.5,3.32,2.87,3.32,1.59,0,2.1-1.06,2.28-1.42.28-.58.49-1,1.34-1,.71,0,1.4.34,1.4,1.14,0,.64-1.26,3.6-5.05,3.6s-5.7-3.06-5.7-6.39c0-3.62,1.97-6.35,5.49-6.35,4.09,0,5.43,3.67,5.43,5.47,0,1.64-1.59,1.64-2.03,1.64h-6.02Zm4.48-2.04c.28,0,.63-.06.63-.48,0-.78-.9-2.3-2.46-2.3-1.42,0-2.26,1.04-2.6,2.78h4.43Z"/><path class="cls-2" d="m91.57,26.67c0,1.26-.96,1.3-1.3,1.3-.85,0-1.42-.28-1.42-1.3v-12.74c0-.56.18-1.3,1.36-1.3.33,0,1.36,0,1.36,1.3v.56c1.24-1.8,2.95-1.86,3.54-1.86,3.28,0,5.09,2.96,5.09,6.39s-1.81,6.35-5.02,6.35c-2.2,0-3.19-1.2-3.62-1.74v3.04Zm0-7.67c0,.5,0,4.02,2.93,4.02s2.91-3.5,2.91-4.02,0-4.01-2.91-4.01-2.93,3.5-2.93,4.01Z"/><path class="cls-2" d="m110.21,13.8c-.29,0-.96-.2-.96-1.08s.45-.94,1.63-1.16c1.22-.22,1.97-1.08,2.36-2.18.2-.56.35-1.02,1.2-1.02.73,0,1.14.48,1.14.92v14.74c0,.32,0,1.34-1.34,1.34-.79,0-1.42-.26-1.42-1.34v-10.23h-2.62Z"/></g><g><path class="cls-3" d="m268.8,242.22c0,6.47-5.27,11.75-11.75,11.75h-62.64c-6.48,0-11.75-5.27-11.75-11.75v-111.5c0-6.48,5.27-11.75,11.75-11.75h62.64c6.48,0,11.75,5.27,11.75,11.75v111.5h0Zm-219.24-11.75v-5.64h59.95l6.42,16.02c.59,1.48,2.03,2.46,3.63,2.46h55.39c.23,3.99,1.63,7.64,3.9,10.65h-105.81c-12.95,0-23.49-10.54-23.49-23.49h0Zm72.65,5.01l-4.26-10.64h56.9v10.64h-52.63Zm-57.85-131.19c0-5.98,4.87-10.84,10.84-10.84h155.19c5.98,0,10.84,4.86,10.84,10.84v6.85h-46.82c-10.79,0-19.58,8.78-19.58,19.58v86.29h-110.48v-112.72h0Zm192.7,6.85h-7.99v-6.85c0-10.3-8.38-18.67-18.67-18.67H75.2c-10.3,0-18.67,8.38-18.67,18.67v112.72h-10.88c-2.16,0-3.91,1.75-3.91,3.91v9.55c0,17.27,14.05,31.32,31.32,31.32h184.01c10.79,0,19.57-8.78,19.57-19.58v-111.5c0-10.79-8.78-19.58-19.57-19.58h0Z"/><path class="cls-3" d="m225.73,238.93c-7.2-.12-7.21-10.83,0-10.96,7.2.13,7.2,10.84,0,10.96h0Zm0-18.79c-17.55.46-17.55,26.17,0,26.62,17.55-.46,17.55-26.16,0-26.62h0Z"/><path class="cls-3" d="m241.39,128.69h-31.32c-5.13.02-5.11,7.81,0,7.83h31.32c5.13-.02,5.11-7.81,0-7.83h0Z"/></g><g class="cls-4"><g><path class="cls-3" d="m111.9,160.34c.52-.08,1.37-.22,2.62-.22.52,0,4.98,0,7.49,2.02,1.83,1.45,2.41,3.69,2.41,5.47,0,2.87-1.34,5.61-5,6.86-1.53.52-3.14.71-4.73.71-1.09,0-2.52,0-2.52-1.78,0-1.5,1.18-1.5,1.91-1.5,1.94,0,6.51,0,6.51-4.27,0-3.83-3.39-4.38-5.96-4.38-1.45,0-2.11.11-2.73.22v4.27c0,2.62,0,7.36-5.06,7.36-3.5,0-5.88-2.65-5.88-5.91,0-5.22,5.11-7.22,7.46-8.09v-3.09c-1.67.05-5.09.05-5.17.05-.96,0-2.11,0-2.11-1.67s1.29-1.64,2.02-1.64c3.31,0,3.69,0,5.25-.05v-1.94c0-.68.03-1.83,1.72-1.83s1.75,1.09,1.75,1.83v1.78c2.32-.11,2.6-.11,2.84-.11.49,0,1.78,0,1.78,1.64,0,1.18-.71,1.48-.93,1.53-.36.11-.71.14-3.69.25v2.49Zm-3.42,4.07c-1.45.57-4.16,1.86-4.16,4.54,0,1.56,1.09,2.79,2.35,2.79s1.8-1.15,1.8-4.1v-3.23Zm9.82-12.36c1.75,0,6.73,4.29,6.73,6.18,0,1.01-.98,1.8-1.94,1.8-.74,0-.96-.3-1.83-1.53-1.45-1.97-2.52-2.68-3.83-3.55-.63-.41-.85-1.07-.85-1.34,0-.44.33-.88.44-1.01.16-.14.63-.55,1.29-.55Z"/><path class="cls-3" d="m138.34,152.08c0-.44,0-1.7,1.64-1.7,1.42,0,1.83.57,1.83,1.7v1.89h6.34c2.16,0,3.39.71,3.39,3.42v9.08c0,2.76-1.29,3.39-3.39,3.39h-6.34v4.79c0,.44,0,1.7-1.64,1.7-1.42,0-1.83-.6-1.83-1.7v-4.79h-6.32c-2.11,0-3.39-.66-3.39-3.39v-9.08c0-2.68,1.2-3.42,3.39-3.42h6.32v-1.89Zm-6.29,8.34h6.29v-3.36h-5.36c-.66,0-.93.33-.93.93v2.43Zm6.29,6.34v-3.47h-6.29v2.54c0,.63.3.93.93.93h5.36Zm3.47-9.71v3.36h6.32v-2.43c0-.6-.3-.93-.96-.93h-5.36Zm6.32,6.23h-6.32v3.47h5.36c.66,0,.96-.33.96-.93v-2.54Z"/><path class="cls-3" d="m178.77,172.34c1.39,0,1.64.96,1.64,1.56,0,.36-.03,1.7-1.67,1.7h-11.7c-4.98,0-6.45-2.24-6.97-3.06-.6.93-1.67,2.08-1.8,2.21-.82.88-1.2,1.2-1.91,1.2-1.09,0-1.86-1.01-1.86-2,0-.77.22-.96,1.45-1.97.44-.36,1.39-1.29,2.02-1.86v-5.44c0-.19,0-.79-.66-.79h-1.15c-1.15,0-1.56-.68-1.56-1.56,0-1.23.49-1.75,1.67-1.75h1.91c2.52,0,3.06.55,3.06,3.06v4.98c.36,3.25,3.58,3.72,5.66,3.72h11.87Zm-21.9-21.66c.88,0,2.73,1.59,3.61,2.35,1.53,1.31,1.78,1.75,1.78,2.35,0,.88-.82,1.86-1.83,1.86-.57,0-.93-.25-1.72-1.01-.77-.77-2.02-1.75-2.19-1.89-.82-.66-1.39-1.12-1.39-1.72,0-1.26.98-1.94,1.75-1.94Zm8.86,3.83c-.38,0-1.7,0-1.7-1.64s1.29-1.67,1.7-1.67h4.84c2.82,0,2.93,1.23,3.12,3.75.08,1.26.71,5.96,3.64,9.98.52.68,1.39,1.67,2.13,2.49.41.46.79.88.79,1.5,0,.88-.88,1.94-1.91,1.94-.85,0-1.67-.66-2.73-2.08-1.8-2.38-3.09-5.09-3.77-7.98-.77,2.32-1.97,4.62-3.5,6.59-1.07,1.39-2.82,3.45-4.13,3.45-1.15,0-1.86-1.15-1.86-1.94,0-.57.44-1.01.52-1.09,1.94-1.7,2.54-2.21,3.86-4.1,2.27-3.25,3.39-7.08,3.39-8.53,0-.25-.03-.66-.68-.66h-3.69Z"/><path class="cls-3" d="m200.26,157.63c0-1.01.36-1.89,1.86-1.89,1.7,0,2,.96,2,2.6,0,1.2-.27,4.38-.33,4.84,2.54,1.09,3.45,1.64,3.45,2.73,0,.88-.71,2-1.67,2-.52,0-.68-.08-2.41-.98-1.56,5.74-5.44,8.48-7.49,8.48-.93,0-1.78-.9-1.78-1.83,0-.88.36-1.09,2.68-2.46,2.6-1.53,3.12-4.73,3.28-5.66-1.15-.44-3.94-1.37-5.85-1.67-.57,2.21-1.34,4.35-2.27,6.43-1.01,2.32-2.27,3.64-4.18,3.64-2.19,0-5.06-1.89-5.06-5.74,0-2.52,1.29-5.69,5.28-7.03,1.59-.55,3.01-.6,3.66-.66.08-.44.66-2.49.71-2.76.08-.36.3-1.48.3-1.78,0-.49-.27-.71-1.04-.71-.16,0-4.21.25-5.03.25-.57,0-1.89,0-1.89-1.72s1.23-1.75,2.3-1.75c1.78,0,4.62-.14,6.4-.14.6,0,2.98,0,2.98,2.3,0,.98-.36,2.6-.44,2.98-.11.55-.79,3.01-.9,3.5.71.11,2.32.41,5.39,1.31.05-1.42.05-1.7.05-4.27Zm-11.59,6.34c-2.11.77-3.09,2.35-3.09,4.16s1.18,2.3,1.64,2.3c.71,0,1.26-.77,1.94-2.46.66-1.59,1.04-2.79,1.45-4.4-1.12.16-1.45.22-1.94.41Z"/></g></g></svg>