<?xml version="1.0" encoding="UTF-8"?><svg id="Layer_1" xmlns="http://www.w3.org/2000/svg" viewBox="0 0 318.35 332.88"><defs><style>.cls-1{fill:#386cb3;}.cls-2{fill:#faf5f0;}.cls-3{fill:#3c3c3b;}</style></defs><rect class="cls-2" y="14.53" width="318.35" height="318.35" rx="26.54" ry="26.54"/><rect class="cls-1" x="14.12" y="0" width="141.36" height="36.33" rx="18.17" ry="18.17"/><g><path class="cls-2" d="m65.3,12.84c0,.82-.75,1.12-1.38,1.12-1.06,0-1.3-.6-1.42-.98-.33-1-.69-2.08-3.07-2.08-.43,0-3.09,0-3.09,1.88,0,1.34.69,1.56,4.62,2.94,3.44,1.2,4.78,2.28,4.78,4.59,0,2.62-2.16,5.05-6.08,5.05-5.66,0-6.57-3.93-6.57-4.77,0-.92.85-1.22,1.48-1.22,1.18,0,1.34.64,1.51,1.36.39,1.52,2.03,2.08,3.42,2.08,1.57,0,3.3-.56,3.3-2.28,0-1.12-.92-1.58-3.62-2.5-3.52-1.18-5.76-1.92-5.76-4.95,0-2.02,1.38-4.71,6-4.71s5.86,3.04,5.86,4.47Z"/><path class="cls-2" d="m69.7,10.67c0-.78.37-1.3,1.32-1.3.85,0,1.4.3,1.4,1.3v2.38h1.55c.45,0,1.1.16,1.1,1.08,0,.82-.49,1.08-1.1,1.08h-1.55v6.79c0,1.02.63,1.12,1.3,1.12.53,0,1.4,0,1.4,1.02,0,1.22-1.59,1.24-2.03,1.24-2.4,0-3.38-.84-3.38-3v-7.17h-1.14c-.51,0-1.12-.18-1.12-1.06s.53-1.1,1.12-1.1h1.14v-2.38Z"/><path class="cls-2" d="m79.22,19.73c.1,2.34,1.5,3.32,2.87,3.32,1.59,0,2.1-1.06,2.28-1.42.28-.58.49-1,1.34-1,.71,0,1.4.34,1.4,1.14,0,.64-1.26,3.6-5.05,3.6s-5.7-3.06-5.7-6.39c0-3.62,1.97-6.35,5.49-6.35,4.09,0,5.43,3.67,5.43,5.47,0,1.64-1.59,1.64-2.03,1.64h-6.02Zm4.48-2.04c.28,0,.63-.06.63-.48,0-.78-.9-2.3-2.46-2.3-1.42,0-2.26,1.04-2.6,2.78h4.43Z"/><path class="cls-2" d="m92.48,26.67c0,1.26-.96,1.3-1.3,1.3-.85,0-1.42-.28-1.42-1.3v-12.74c0-.56.18-1.3,1.36-1.3.33,0,1.36,0,1.36,1.3v.56c1.24-1.8,2.95-1.86,3.54-1.86,3.28,0,5.09,2.96,5.09,6.39s-1.81,6.35-5.02,6.35c-2.2,0-3.19-1.2-3.62-1.74v3.04Zm0-7.67c0,.5,0,4.02,2.93,4.02s2.91-3.5,2.91-4.02,0-4.01-2.91-4.01-2.93,3.5-2.93,4.01Z"/><path class="cls-2" d="m110.86,24.93c-1.38,0-1.57-1.16-1.57-1.56,0-2.28,2.99-4.47,3.95-5.19,3.19-2.36,3.89-2.88,3.89-4.79,0-1.54-.85-2.66-2.4-2.66-2.16,0-2.46,2.12-2.5,2.64-.06.56-.12,1.3-1.34,1.3-.33,0-1.4-.1-1.4-1.34,0-1.6,1.2-4.95,5.23-4.95,2.83,0,5.17,1.8,5.17,5.19,0,2.92-1.51,4-3.99,5.75-.85.6-3.01,2.14-3.01,2.96,0,.26.28.28.49.28h5.23c.37,0,1.28.1,1.28,1.18,0,1.2-1.02,1.2-1.28,1.2h-7.77Z"/></g><g><path class="cls-3" d="m232.43,231.72H88.61c-8.93,0-16.2-7.27-16.2-16.2v-89.1c0-8.93,7.27-16.2,16.2-16.2h143.82c8.93,0,16.2,7.27,16.2,16.2v89.1c0,8.93-7.27,16.2-16.2,16.2ZM88.61,118.21c-4.52,0-8.2,3.68-8.2,8.2v89.1c0,4.52,3.68,8.2,8.2,8.2h143.82c4.52,0,8.2-3.68,8.2-8.2v-89.1c0-4.52-3.68-8.2-8.2-8.2H88.61Z"/><path class="cls-3" d="m160.52,194.17c-3.78,0-7.56-1.44-10.5-4.31l-70.31-68.62,5.59-5.73,70.31,68.62c2.75,2.69,7.07,2.69,9.82,0l70.31-68.62,5.59,5.73-70.31,68.62c-2.94,2.87-6.72,4.31-10.5,4.31Z"/><g><rect class="cls-3" x="212.78" y="154.37" width="8" height="77.78" transform="translate(-72.87 172.19) rotate(-37.56)"/><rect class="cls-3" x="65.75" y="190.28" width="75.84" height="8" transform="translate(-113.54 158.05) rotate(-52.44)"/></g><circle class="cls-1" cx="240.48" cy="121.35" r="27.48"/><path class="cls-2" d="m238.7,135.67l-13.2-13.45c-.18-3.21,2.77-4.04,4.24-2.55l8.64,8.8,16.76-20.54c1.33-1.63,4.34-1.06,4.45,2.14l-20.88,25.6Z"/></g></svg>