<?xml version="1.0" encoding="UTF-8"?><svg id="Layer_1" xmlns="http://www.w3.org/2000/svg" viewBox="0 0 318.35 332.88"><defs><style>.cls-1{fill:#386cb3;}.cls-2{fill:#faf5f0;}.cls-3{fill:#3c3c3b;}.cls-4{fill:#1d1d1b;}</style></defs><rect class="cls-2" y="14.53" width="318.35" height="318.35" rx="26.34" ry="26.34"/><rect class="cls-1" x="17.82" y="0" width="141.36" height="36.33" rx="18.17" ry="18.17"/><g><path class="cls-2" d="m67.27,12.84c0,.82-.75,1.12-1.38,1.12-1.06,0-1.3-.6-1.42-.98-.33-1-.69-2.08-3.07-2.08-.43,0-3.09,0-3.09,1.88,0,1.34.69,1.56,4.62,2.94,3.44,1.2,4.78,2.28,4.78,4.59,0,2.62-2.16,5.05-6.08,5.05-5.66,0-6.57-3.93-6.57-4.77,0-.92.85-1.22,1.48-1.22,1.18,0,1.34.64,1.51,1.36.39,1.52,2.03,2.08,3.42,2.08,1.57,0,3.3-.56,3.3-2.28,0-1.12-.92-1.58-3.62-2.5-3.52-1.18-5.76-1.92-5.76-4.95,0-2.02,1.38-4.71,6-4.71s5.86,3.04,5.86,4.47Z"/><path class="cls-2" d="m71.67,10.67c0-.78.37-1.3,1.32-1.3.85,0,1.4.3,1.4,1.3v2.38h1.55c.45,0,1.1.16,1.1,1.08,0,.82-.49,1.08-1.1,1.08h-1.55v6.79c0,1.02.63,1.12,1.3,1.12.53,0,1.4,0,1.4,1.02,0,1.22-1.59,1.24-2.03,1.24-2.4,0-3.38-.84-3.38-3v-7.17h-1.14c-.51,0-1.12-.18-1.12-1.06s.53-1.1,1.12-1.1h1.14v-2.38Z"/><path class="cls-2" d="m81.19,19.73c.1,2.34,1.5,3.32,2.87,3.32,1.59,0,2.1-1.06,2.28-1.42.28-.58.49-1,1.34-1,.71,0,1.4.34,1.4,1.14,0,.64-1.26,3.6-5.05,3.6s-5.7-3.06-5.7-6.39c0-3.62,1.97-6.35,5.49-6.35,4.09,0,5.43,3.67,5.43,5.47,0,1.64-1.59,1.64-2.03,1.64h-6.02Zm4.48-2.04c.28,0,.63-.06.63-.48,0-.78-.91-2.3-2.46-2.3-1.42,0-2.26,1.04-2.6,2.78h4.43Z"/><path class="cls-2" d="m94.45,26.67c0,1.26-.96,1.3-1.3,1.3-.85,0-1.42-.28-1.42-1.3v-12.74c0-.56.18-1.3,1.36-1.3.33,0,1.36,0,1.36,1.3v.56c1.24-1.8,2.95-1.86,3.54-1.86,3.28,0,5.09,2.96,5.09,6.39s-1.81,6.35-5.01,6.35c-2.2,0-3.19-1.2-3.62-1.74v3.04Zm0-7.67c0,.5,0,4.02,2.93,4.02s2.91-3.5,2.91-4.02,0-4.01-2.91-4.01-2.93,3.5-2.93,4.01Z"/><path class="cls-2" d="m116.18,17.62c-.69,0-1.12-.32-1.12-1.08,0-1.1.79-1.1,1.44-1.1,2.04,0,2.16-1.88,2.16-2.46,0-1.36-.83-2.26-2.14-2.26-.51,0-1.97.04-2.28,2.1-.1.56-.18,1.18-1.3,1.18-.73,0-1.34-.34-1.34-1.22,0-1.22,1.08-4.42,4.96-4.42,3.01,0,4.84,1.94,4.84,4.53,0,2.26-1.36,3.04-1.83,3.32.92.6,2.36,1.52,2.36,4.09s-1.44,5.05-5.29,5.05c-1.81,0-3.44-.52-4.46-1.96-.61-.88-.96-1.92-.96-2.64s.43-1.24,1.34-1.24c1.2,0,1.3.62,1.46,1.52.12.72.87,1.94,2.54,1.94.61,0,2.64-.26,2.64-2.7,0-.76-.12-2.68-2.66-2.68h-.33Z"/></g><g><path class="cls-3" d="m227.27,225.62c-30.14,0-54.65-24.52-54.65-54.65,0-2.83.22-5.66.65-8.43,3.88-25.03,25.05-44.42,50.34-46.1,2.13-.14,3.97-.16,5.86-.08,25.43.99,47.14,19.89,51.61,44.95.57,3.21.85,6.46.85,9.66,0,30.14-24.52,54.65-54.66,54.65Zm0-101.31c-.99,0-2.02.04-3.14.11-21.58,1.43-39.65,17.98-42.96,39.34-.37,2.36-.55,4.78-.55,7.2,0,25.73,20.93,46.65,46.65,46.65s46.66-20.93,46.66-46.65c0-2.73-.25-5.51-.73-8.26-3.81-21.37-22.35-37.51-44.07-38.35-.63-.03-1.25-.04-1.86-.04Z"/><path class="cls-3" d="m207.03,182.14c3.22,0,3.22-5,0-5s-3.22,5,0,5h0Z"/><path class="cls-3" d="m245.62,183.11c3.22,0,3.22-5,0-5s-3.22,5,0,5h0Z"/><path class="cls-3" d="m225.61,205.98c-6.96,0-13.38-3.79-16.75-9.88-.53-.97-.18-2.18.78-2.72.97-.54,2.18-.18,2.72.78,2.67,4.82,7.74,7.82,13.25,7.82s10.82-3.13,13.44-8.17c.51-.98,1.72-1.36,2.7-.85.98.51,1.36,1.72.85,2.7-3.31,6.37-9.81,10.33-16.99,10.33Z"/><path class="cls-3" d="m229.29,120.35s-.03.05-.05.07h-5.37c-23.76,1.58-43.06,19.54-46.65,42.72,5.58,4.88,12.88,7.81,20.86,7.81,12.46,0,23.25-7.17,28.48-17.6,5.21,10.43,16.01,17.6,28.48,17.6,8.59,0,16.37-3.4,22.1-8.95-4.12-23.08-23.84-40.72-47.85-41.66Z"/><circle class="cls-3" cx="263.31" cy="133.33" r="10.93"/><circle class="cls-3" cx="188.15" cy="133.33" r="10.93"/><path class="cls-3" d="m106.67,225.62c-30.14,0-54.65-24.52-54.65-54.65,0-2.83.22-5.66.65-8.43,3.88-25.03,25.05-44.42,50.34-46.1,2.13-.14,3.97-.16,5.86-.08,25.43.99,47.14,19.89,51.61,44.95.56,3.21.85,6.46.85,9.66,0,30.14-24.52,54.65-54.65,54.65Zm0-101.31c-.99,0-2.02.04-3.14.11-21.58,1.43-39.65,17.98-42.96,39.34-.37,2.36-.55,4.78-.55,7.2,0,25.73,20.93,46.65,46.65,46.65s46.65-20.93,46.65-46.65c0-2.73-.25-5.51-.73-8.26-3.81-21.37-22.35-37.51-44.07-38.35-.63-.03-1.25-.04-1.86-.04Z"/><path class="cls-3" d="m86.42,182.14c3.22,0,3.22-5,0-5s-3.22,5,0,5h0Z"/><path class="cls-3" d="m125.02,183.11c3.22,0,3.22-5,0-5s-3.22,5,0,5h0Z"/><path class="cls-3" d="m105.01,205.98c-6.96,0-13.38-3.79-16.75-9.88-.53-.97-.18-2.18.78-2.72.97-.54,2.18-.18,2.72.78,2.67,4.82,7.74,7.82,13.25,7.82s10.82-3.13,13.44-8.17c.51-.98,1.72-1.36,2.7-.85.98.51,1.36,1.72.85,2.7-3.31,6.37-9.81,10.33-16.99,10.33Z"/><path class="cls-3" d="m56.61,163.15c3.59-23.18,22.89-41.15,46.65-42.72,1.12-.07,2.26-.12,3.4-.12.67,0,1.34.01,2.02.04,24.01.93,46.24,18.77,47.85,43.85l-99.92-1.05Z"/></g><g><path class="cls-3" d="m53.94,111.43c-1.1,0-2-.9-2-2v-14.27c0-1.1.9-2,2-2s2,.9,2,2v14.27c0,1.1-.9,2-2,2Z"/><path class="cls-3" d="m61.07,104.3h-14.27c-1.1,0-2-.9-2-2s.9-2,2-2h14.27c1.1,0,2,.9,2,2s-.9,2-2,2Z"/></g><g><path class="cls-3" d="m165.77,241.23c-1.1,0-2-.9-2-2v-14.27c0-1.1.9-2,2-2s2,.9,2,2v14.27c0,1.1-.9,2-2,2Z"/><path class="cls-3" d="m172.9,234.09h-14.27c-1.1,0-2-.9-2-2s.9-2,2-2h14.27c1.1,0,2,.9,2,2s-.9,2-2,2Z"/></g><path class="cls-3" d="m162.47,117.04c-2.37,0-4.29-1.93-4.29-4.29s1.93-4.29,4.29-4.29,4.29,1.93,4.29,4.29-1.93,4.29-4.29,4.29Zm0-6.59c-1.27,0-2.29,1.03-2.29,2.29s1.03,2.29,2.29,2.29,2.29-1.03,2.29-2.29-1.03-2.29-2.29-2.29Z"/><path class="cls-3" d="m50.1,225.09c-2.37,0-4.29-1.93-4.29-4.29s1.93-4.29,4.29-4.29,4.29,1.93,4.29,4.29-1.93,4.29-4.29,4.29Zm0-6.59c-1.27,0-2.29,1.03-2.29,2.29s1.03,2.29,2.29,2.29,2.29-1.03,2.29-2.29-1.03-2.29-2.29-2.29Z"/><circle class="cls-4" cx="38.92" cy="116.04" r="3.29"/></svg>