<?xml version="1.0" encoding="utf-8"?>
<!-- Generator: Adobe Illustrator 27.2.0, SVG Export Plug-In . SVG Version: 6.00 Build 0)  -->
<svg version="1.1" id="Layer_1" xmlns="http://www.w3.org/2000/svg" xmlns:xlink="http://www.w3.org/1999/xlink" x="0px" y="0px"
	 viewBox="0 0 3840 98.5" style="enable-background:new 0 0 3840 98.5;" xml:space="preserve">
<style type="text/css">
	.st0{clip-path:url(#SVGID_00000049183374182234848020000000192233537930447028_);}
	.st1{fill:#E5D5EA;}
</style>
<g>
	<defs>
		<rect id="SVGID_1_" width="3840" height="98.5"/>
	</defs>
	<clipPath id="SVGID_00000038391816010610962380000007341427568784774330_">
		<use xlink:href="#SVGID_1_"  style="overflow:visible;"/>
	</clipPath>
	<g style="clip-path:url(#SVGID_00000038391816010610962380000007341427568784774330_);">
		<path class="st1" d="M3840,41.6v829.2c-66.1-17.1-102.9-64.9-212.8-64.9c-155.2,0-155.2,65.6-310.4,65.6s-155.2-65.6-310.4-65.6
			s-155.2,65.6-310.4,65.6s-155.2-65.6-310.4-65.6s-155.2,65.6-310.4,65.6s-155.2-65.6-310.4-65.6s-155.2,65.6-310.4,65.6
			s-155.2-65.6-310.4-65.6s-155.2,65.6-310.4,65.6s-155.2-65.6-310.4-65.6S368,871.5,212.8,871.5C97.1,871.5,69.5,852.3,0,830V0.7
			c66.1,17.1,102.9,64.9,212.8,64.9C368,65.6,368,0,523.2,0s155.2,65.6,310.4,65.6S988.8,0,1144,0s155.2,65.6,310.4,65.6
			S1609.6,0,1764.8,0s155.2,65.6,310.4,65.6S2230.4,0,2385.6,0s155.2,65.6,310.4,65.6S2851.2,0,3006.4,0s155.2,65.6,310.4,65.6
			S3472,0,3627.2,0C3742.9,0,3770.4,19.2,3840,41.6z"/>
	</g>
</g>
</svg>
