<?xml version="1.0" encoding="UTF-8"?><svg id="Layer_1" xmlns="http://www.w3.org/2000/svg" xmlns:xlink="http://www.w3.org/1999/xlink" viewBox="0 0 3840 98.46"><defs><style>.cls-1{clip-path:url(#clippath);}.cls-2{fill:#ffecac;}</style><clipPath id="clippath"><rect class="cls-2" width="3840" height="98.46"/></clipPath></defs><g class="cls-1"><path d="m3840,41.58v829.25c-66.1-17.14-102.92-64.9-212.77-64.9-155.2,0-155.2,65.6-310.41,65.6s-155.19-65.6-310.39-65.6-155.21,65.6-310.41,65.6-155.21-65.6-310.41-65.6-155.18,65.6-310.39,65.6-155.21-65.6-310.41-65.6-155.21,65.6-310.41,65.6-155.19-65.6-310.39-65.6-155.21,65.6-310.41,65.6-155.2-65.6-310.41-65.6-155.2,65.6-310.41,65.6c-115.68,0-143.24-19.2-212.79-41.56V.7c66.1,17.14,102.92,64.9,212.77,64.9C367.97,65.6,367.97,0,523.18,0s155.19,65.6,310.39,65.6S988.77,0,1143.98,0s155.2,65.6,310.41,65.6S1609.59,0,1764.78,0s155.2,65.6,310.41,65.6S2230.39,0,2385.59,0s155.18,65.6,310.39,65.6S2851.19,0,3006.39,0s155.2,65.6,310.41,65.6S3472.01,0,3627.21,0c115.68,0,143.24,19.2,212.79,41.58Z"/></g></svg>