<?xml version="1.0" encoding="utf-8"?>
<!-- Generator: Adobe Illustrator 27.0.1, SVG Export Plug-In . SVG Version: 6.00 Build 0)  -->
<svg version="1.1" id="Layer_1" xmlns="http://www.w3.org/2000/svg" xmlns:xlink="http://www.w3.org/1999/xlink" x="0px" y="0px"
	 viewBox="0 0 134.8 134.8" style="enable-background:new 0 0 134.8 134.8;" xml:space="preserve">
<style type="text/css">
	.st0{fill:#00425C;}
	.st1{fill:#FFFFFF;}
</style>
<circle class="st0" cx="67.4" cy="67.4" r="67.4"/>
<g>
	<path class="st1" d="M37.4,34.2c-0.6,0-2.4,0-2.4-2.2c0-1.8,0.9-2.4,2.4-2.4h5.2c3.3,0,3.4,2,3.4,3.6c0.3,6.6,2.8,10.3,6,12.7
		c0.3,0.2,1.9,1.2,2.2,1.5c0.5,0.4,0.6,1,0.6,1.5c0,1.6-1.3,2.9-2.7,2.9c-2.2,0-6.6-3.8-8.7-9.5c-0.5,1.4-1.2,3.4-3.3,5.7
		c-1.6,1.8-4.2,3.8-5.6,3.8c-1.8,0-2.7-1.7-2.7-2.9c0-1.2,0.6-1.6,1.5-2.1c3.2-1.8,5.7-4.6,6.8-8.1c0.3-1,0.7-3.2,0.7-4.2
		c0-0.2-0.1-0.4-0.5-0.4H37.4z"/>
	<path class="st1" d="M64,32.7c0-2.5,0.5-3.1,3.1-3.1H75c2.7,0,3.2,0.5,3.2,3.2v3c0,1.6,0,2.9-1.6,3.3c1,0.2,1.7,1.1,1.7,1.9
		c0,0.5-0.2,0.9-1.2,1.9c0.7,0.3,1.7,0.7,1.7,1.9c0,0.7-0.4,1.8-1.4,2.3c1.5,0.3,1.5,1.9,1.5,2.1c0,0.2,0,2.2-2.2,2.2H66.8
		c-3.5,0-4.6-0.9-5.5-2c-0.2,0.4-0.4,0.7-1,1.3c-0.7,0.8-1.2,1.1-1.9,1.1c-1.4,0-2.6-1.3-2.6-2.8c0-1.2,0.3-1.4,2.8-2.9v-3.8
		c0-0.3,0-0.5-0.3-0.5c-0.7,0-2.3,0-2.3-2.1c0-1.7,0.6-2.4,2.2-2.4h1.4c2.6,0,3.2,0.4,3.2,3.2v4.4c0,1,0.7,2,3,2h9.5
		c-1.3-0.5-2.6-1.4-3.6-2.5c0,0.8-0.3,1.3-1.6,1.6c-1.1,0.3-3.5,0.6-4.8,0.6c-2.2,0-2.2-2-2.2-2.3c0-1.2,0.6-1.5,0.9-1.6V32.7z
		 M61.6,31c1.8,1.6,2.1,2.1,2.1,2.9c0,1.2-1,2.5-2.5,2.5c-0.7,0-0.9-0.2-2.6-1.8c-0.3-0.3-1.1-1-1.6-1.4c-0.4-0.4-0.8-0.9-0.8-1.6
		c0-1.2,1.2-2.4,2.3-2.4C59,29.2,59.7,29.3,61.6,31z M68.4,33.4h5.5v-0.5c0-0.1-0.1-0.2-0.2-0.2h-5.1c-0.1,0-0.2,0.1-0.2,0.2V33.4z
		 M68.4,35.6v0.7h5.3c0.1,0,0.2,0,0.2-0.2v-0.5H68.4z M68.4,42.4c1-0.1,1.3-0.1,1.7-0.1c-0.8-1.4-1-2.5-1.1-3.1h-0.6V42.4z
		 M73.1,39.2c0.1,0.5,0.3,1,0.8,1.6c0,0,0.6-0.7,0.9-1c0.3-0.3,0.5-0.5,0.7-0.6H73.1z"/>
	<path class="st1" d="M93.7,46.6v0.6h7.1c0.5,0,2.2,0,2.2,2.1c0,2.1-1.7,2.1-2.2,2.1H82c-0.6,0-2.1,0-2.1-2.1c0-1.9,1.3-2.1,2.1-2.1
		h7.1v-0.6h-5.8c-0.4,0-1.9,0-1.9-1.8c0-1.8,1.5-1.8,1.9-1.8h5.8c0-0.3,0-0.4,0.2-0.6c-0.4,0-2.2,0.1-2.6,0.1
		c-0.5,0-3.3,0.1-3.6,0.1c-0.7,0-2.2,0-2.2-1.8c0-0.8,0.4-1.5,1.2-1.7c0.4-0.1,0.6-0.1,2.4-0.1c0.3-0.5,0.4-0.6,0.6-0.8H84
		c-1.2,0-1.8-0.5-1.8-1.8c-0.9-0.1-1.9-0.3-1.9-2.2v-0.6c0-2.8,0.4-3.3,3.3-3.3h5.6c0-1.4,1.7-1.4,2-1.4c1,0,2.5,0.1,2.5,1.4h5.6
		c2.9,0,3.3,0.5,3.3,3.3v0.6c0,2-1.2,2.1-2,2.2c0,0.4,0,1.6-1.2,1.8c1.9,1.2,2.6,1.8,2.6,2.7c0,0.9-0.6,1.9-1.6,2.2
		c0.7,0.2,1.1,1,1.1,1.7c0,1.8-1.5,1.8-1.9,1.8H93.7z M98.1,34.7c0-0.1,0-0.5,0-0.6c0-0.1-0.1-0.1-0.2-0.1H85c-0.1,0-0.1,0-0.2,0.1
		c-0.1,0.1,0,0.4,0,0.6H98.1z M90.2,38.2c-0.2,0.3-0.3,0.4-0.6,0.7c2.2,0,3,0,4.3-0.1c0-0.3,0-0.5,0-0.6H90.2z M98.8,42.9
		c-0.3-0.2-0.4-0.3-1.5-1.1c-2.8,0.2-3.1,0.3-3.9,0.3c0.3,0.4,0.3,0.5,0.3,0.8H98.8z"/>
	<path class="st1" d="M23.1,61.6v-0.7h-2.2c-0.5,0-1.9,0-1.9-1.9c0-1.5,0.7-2.1,1.9-2.1h2.2c0-1.1,0.3-2,2.1-2c1.6,0,2.5,0.2,2.5,2
		h2.5c0.6,0,2,0,2,2c0,1.9-1.3,2-2,2h-2.5v0.7h3c0.6,0,2,0,2,2c0,1.3-0.3,2.3-1.9,2.3h-0.4v0.8c0.7,0,2.1,0,2.1,2
		c0,1.8-0.7,2.3-2.1,2.3v3.5c0,2.8-0.4,3.6-4.3,3.6c-2.4,0-3.4-0.2-3.6-2c-0.1,0-0.3,0-0.6,0c-1.3,0-1.6-0.7-2.1-1.9
		c-0.4-1-0.7-1.5-0.7-1.8c0-0.6,0.3-1.1,0.8-1.4c-1.1-0.2-1.3-1.2-1.3-1.9c0-1.6,0.5-2.3,2-2.3h5.4v-0.8h-5.6c-0.4,0-1.5,0-1.8-1.1
		v9c0,2.9-0.5,3.4-3.4,3.4h-1.7c-2.9,0-3.4-0.5-3.4-3.4V59.3c0-2.9,0.5-3.4,3.4-3.4h1.7c2.9,0,3.4,0.5,3.4,3.4v3.4
		c0.4-1,1.4-1.1,1.8-1.1H23.1z M14.8,64.8v-4.4c0-0.2-0.1-0.3-0.3-0.3c-0.4,0-0.5,0-0.5,0.3v4.4H14.8z M14.8,68.4h-0.8v4.4
		c0,0.2,0.2,0.3,0.3,0.3c0.4,0,0.5,0,0.5-0.3V68.4z M23.1,70.9c0.4,0.5,1.2,1.8,1.3,2.6c1.2,0,1.4,0,1.4-0.9v-1.7H23.1z"/>
	<path class="st1" d="M39.1,67.2c0,2.9,0.2,4.8,0.4,6.3c0.1,0.7,0.1,1.3,0.1,1.6c0,1.5-1,2-2.3,2c-0.4,0-1.7,0-2.2-1.4
		c-0.4-1.2-0.6-5.1-0.6-8.6c0-4.5,0.5-7.9,0.7-9.3c0.1-0.9,0.5-2,2.2-2c2,0,2.6,1.1,2.4,2.5C39.5,61.4,39.1,63.2,39.1,67.2z
		 M46.9,58.3c0-0.6,0-2.4,2.3-2.4s2.4,1.6,2.4,2.4l0,1.5c0.3,0,1.6-0.1,1.8-0.1c0.6,0,2.3,0,2.3,2.2c0,0.8-0.3,1.9-1.6,2.1
		c-0.4,0-0.8,0.1-2.4,0.2l0,4.1c3.9,2.1,4.3,3.3,4.3,4.2c0,1.2-1.1,2.5-2.3,2.5c-0.6,0-1.1-0.2-1.6-0.8c-0.3-0.4-0.4-0.4-0.7-0.7
		c-0.4,3.2-3.2,3.7-5.2,3.7c-3.2,0-6.1-1.6-6.1-5.2c0-2.9,2.2-5.1,5.9-5.1c0.2,0,0.5,0,1.1,0.1L47,64.4c-2.1,0-4.2,0.1-4.6,0.1
		c-0.7,0-2.4,0-2.4-2.2c0-2.1,1.7-2.2,2.4-2.2c0.7,0,3.9,0,4.6,0L46.9,58.3z M45.9,70.8c-0.8,0-1.8,0.2-1.8,1.3
		c0,1.2,1.3,1.2,1.6,1.2c0.1,0,1.2,0,1.4-0.7c0.1-0.2,0.1-0.4,0.1-1.6C46.8,70.9,46.5,70.8,45.9,70.8z"/>
	<path class="st1" d="M60.4,61.1c-1.7,0-2.3-1.1-2.3-2.2c0-1.4,0.8-2.3,2.3-2.3h15.9c0.6,0,3,0,3,2.4c0,3.8-4.6,9.3-6.8,9.3
		c-1.1,0-2-0.9-2.2-1.7c-0.1,0.9-0.4,3.5-2,5.9c-1.8,2.7-5.1,4.8-6.8,4.8c-1.2,0-2.3-1.2-2.3-2.5c0-0.5,0.1-1.2,1-1.6
		c4.4-2.3,5.4-3.9,5.5-9c0-0.7,0.1-2.3,2.3-2.3c2.4,0,2.4,1.7,2.4,3c0.2-0.4,0.3-0.4,0.9-0.8c1.6-1.2,2.4-2.6,2.4-2.8
		c0-0.1-0.1-0.1-0.3-0.1H60.4z"/>
	<path class="st1" d="M84.3,62.5c-0.5,0-2.3,0-2.3-2.3c0-1.6,0.9-2.3,2.3-2.3h12.8c0.3,0,0.8,0,1.5,0.1c0-0.1-0.1-0.3-0.1-0.6
		c0-1.4,1.2-2.8,2.8-2.8c1.5,0,2.7,1.2,2.7,2.7c0,1.4-1.1,2.6-2.6,2.7c0.2,0.6,0.2,1.3,0.2,1.5c0,1.8-1.1,6.9-4.7,10.5
		c-3.6,3.6-8.7,5-10.2,5c-1.8,0-2.3-1.8-2.3-2.6c0-1.4,1.1-1.8,2.3-2.1c5.1-1.4,8.4-3.9,9.6-8.8c0-0.2,0.2-0.7,0.2-0.9
		c0-0.3-0.2-0.3-0.5-0.3H84.3z M101.3,56.4c-0.6,0-1,0.5-1,1c0,0.6,0.5,1.1,1,1.1s1.1-0.5,1.1-1.1C102.3,56.8,101.8,56.4,101.3,56.4
		z"/>
	<path class="st1" d="M111.6,67.9c0,1.5-0.8,2.2-2.4,2.2c-1.4,0-2.4-0.5-2.4-2.2v-9.4c0-1.3,0.6-2.2,2.4-2.2c1.3,0,2.5,0.5,2.5,2.2
		V67.9z M123.2,66.5c0,2.6-0.4,5.3-3,7.6c-2.8,2.5-7.6,3-9.3,3c-1.6,0-2.5-0.9-2.5-2.5c0-1.9,1.3-2,2.6-2.2c6.2-0.6,7.2-2.8,7.2-5.8
		v-8.5c0-1.6,0.9-2.3,2.4-2.3c1.2,0,2.5,0.4,2.5,2.3V66.5z"/>
	<path class="st1" d="M34.8,88c-2,0-2.3-1.5-2.3-2.4c0-0.9,0.3-2.2,2-2.4c0.9-0.1,10.8-0.5,16.7-0.5c1.3,0,3,0,3,2.3
		c0,1.5-0.9,2.2-1.7,2.3c-0.3,0-1.7,0.1-2,0.1C46,87.8,42,91.8,42,95c0,2.4,1.8,3,5.9,3H50c1.3,0,2.1,0.8,2.1,2.2
		c0,2.7-2.3,2.7-3.9,2.7c-4.9,0-11-1.2-11-7.4c0-4,2.8-6.8,4.6-8C40.4,87.6,35,88,34.8,88z M47.4,90.2c-0.1-0.3-0.2-0.5-0.2-0.6
		c0-0.5,0.6-0.8,1.1-0.8c0.4,0,0.7,0.3,1.2,1.2c0.5,0.9,0.7,1.5,0.7,1.9c0,0.6-0.7,0.9-1.1,0.9c-0.3,0-0.6-0.1-0.7-0.6
		c-0.1-0.2-0.4-0.9-0.5-1.1C47.8,91,47.4,90.3,47.4,90.2z M49.8,89.1c-0.1-0.2-0.2-0.5-0.2-0.6c0-0.5,0.6-0.8,1.1-0.8
		c0.4,0,0.6,0.2,1.2,1.2c0.5,0.9,0.7,1.5,0.7,1.9c0,0.6-0.6,0.9-1.1,0.9c-0.4,0-0.6-0.2-0.7-0.6c-0.1-0.2-0.4-0.9-0.5-1.1
		C50.3,89.9,49.9,89.3,49.8,89.1z"/>
	<path class="st1" d="M58.6,94.3c0-0.3,0-0.5-0.3-0.5c-0.7,0-2.3,0-2.3-2c0-1.7,0.6-2.4,2.2-2.4h1.3c2.9,0,3.3,0.6,3.3,3.4v4.3
		c0,0,0,1,1,1.6c0.8,0.5,1.7,0.5,2.6,0.5h10.4c1.3,0,2.2,0.8,2.2,2.2c0,0.2,0,2.2-2.2,2.2H66.5c-3.3,0-4.6-1.4-5.1-2
		c-0.3,0.5-0.5,0.8-1,1.4c-0.7,0.7-1.1,1.1-1.9,1.1c-1.4,0-2.6-1.3-2.6-2.8c0-1.1,0.5-1.4,1.7-2.2c0.4-0.2,1.1-0.7,1.1-0.7V94.3z
		 M58.6,81.2c0.8,0,1.7,0.5,3.4,2.1c1.4,1.3,1.8,1.8,1.8,2.5c0,1.2-1.1,2.6-2.4,2.6c-0.8,0-1-0.2-2.4-1.5c-0.3-0.3-1.8-1.6-2.1-1.9
		c-0.3-0.3-0.8-0.8-0.6-1.6C56.4,82.2,57.5,81.2,58.6,81.2z M63.4,89.8c0-2.2,0.3-3.3,2.6-3.3c-0.2-0.3-0.3-0.6-0.3-0.9
		c0-0.3,0.1-0.5,0.2-0.6h-0.9c-0.6,0-1.8,0-1.8-1.7c0-1.7,1.3-1.7,1.8-1.7h10.8c1.6,0,2.2,0.9,2.2,2.1c0,1.1-0.6,1.7-2.4,2.8
		c2.4,0.1,2.6,1.2,2.6,3.3v5.8c0,2.5-0.3,3.3-3.2,3.3c-1.2,0-1.9,0-2.3-1.1c-0.2,0.8-0.9,1.2-2.1,1.2c-1.7,0-1.9-1.1-1.9-1.9v-1.8
		h-1.2v1.7c0,1.3-0.6,2-2,2c-1.3,0-2.1-0.7-2.1-2.1V89.8z M68.6,89.9v-0.8h-0.9c-0.1,0-0.3,0-0.3,0.3v0.5H68.6z M68.6,92.1h-1.2v0.8
		h1.2V92.1z M70.1,85c0.1,0.1,0.7,0.7,0.9,0.8c0.1-0.1,0.4-0.3,0.6-0.5c0.1-0.1,0.2-0.1,0.2-0.2c0-0.1-0.1-0.1-0.2-0.1H70.1z
		 M72.7,89.9H74v-0.5c0-0.2-0.2-0.3-0.3-0.3h-1V89.9z M74,92.1h-1.3v0.8H74V92.1z M72.7,95.2v1.1c0.3-0.5,0.5-0.6,1.1-0.6
		c0.2,0,0.2-0.2,0.2-0.6H72.7z"/>
	<path class="st1" d="M81.9,94.7c-1,0-2.2-0.2-2.2-2c0-1.6,0.5-2.3,2.2-2.3h2.8v-2.5h0c-0.5,0.9-1.1,2.1-2.4,2.1
		c-1,0-2.5-0.9-2.5-2.1c0-0.6,0.2-0.9,0.7-1.7c0.1-0.1,1.1-1.8,1.9-3.8c0.2-0.6,0.6-1.5,1.8-1.5c0.9,0,2.5,0.5,2.5,1.8
		c0,0.4-0.1,0.7-0.1,0.9h3.4c1,0,2.2,0.2,2.2,2c0,1.6-0.5,2.3-2.2,2.3h-0.8v2.5h1.3c1.1,0,1.5,0.3,1.8,0.6v-5.8
		c0-2.5,1.2-3.1,3.1-3.1h3.9c2,0,3.1,0.8,3.1,3.1v15.2c0,2.4-1.1,3.1-3.1,3.1h-3.9c-1.4,0-3-0.3-3.1-2.7c-0.3,1-1.4,1.6-2.3,1.6
		c-1.5,0-2.2-1.8-2.8-3.4c-0.9,1.9-1.8,3.2-2.6,4.1c-0.6,0.6-1.1,0.9-1.7,0.9c-1.4,0-2.6-1.3-2.6-2.4c0-0.7,0.4-1.2,1.2-1.9
		c1.4-1.4,2.3-3.3,2.7-5H81.9z M89,94.7c0.1,0.2,0.2,0.5,0.5,1c0.5,0.8,1.5,2.2,2,2.9c0.5,0.6,0.6,0.8,0.6,1.1v-5.6
		c-0.3,0.3-0.7,0.6-1.8,0.6H89z M98,86.9c0-0.3-0.1-0.4-0.5-0.4h-0.6c-0.3,0-0.5,0.2-0.5,0.4v11.6c0,0.3,0.1,0.5,0.5,0.5h0.6
		c0.3,0,0.5-0.2,0.5-0.5V86.9z"/>
</g>
</svg>
