<?xml version="1.0" encoding="UTF-8"?><svg id="Layer_1" xmlns="http://www.w3.org/2000/svg" viewBox="0 0 134.83 134.83"><defs><style>.cls-1{fill:#fff;}.cls-2{fill:#02425c;}</style></defs><circle class="cls-2" cx="67.41" cy="67.41" r="67.41"/><g><g><path class="cls-1" d="M22.81,73.92c-.81,0-2.88,0-2.88-2.63s2.03-2.67,2.88-2.67h7.47c.07-3.72,.07-3.86,.18-4.28,.14-.67,.49-1.82,2.63-1.82,2.95,0,2.95,1.68,2.95,3.05,0,.18,0,1.51-.07,3.05h7.79c4.6,0,4.7,2.88,4.7,5.75,0,2.39-.32,10.77-1.16,14.06-1.12,4.32-3.58,5.09-7.58,5.09s-6.24-.14-6.24-3.19c0-1.72,.84-2.6,2.53-2.6,.53,0,2.84,.25,3.33,.25,1.96,0,2.6-.63,2.88-2.6,.56-3.69,.67-9.68,.67-9.82,0-1.05-.11-1.65-1.16-1.65h-6.17c-.32,2.63-1.4,10.56-8.14,16.77-.63,.56-1.68,1.47-2.84,2.17-.28,.18-1.16,.7-2,.7-1.33,0-2.77-1.4-2.77-2.95,0-1.23,.95-1.93,1.86-2.6,2.88-2.1,7.26-5.33,8.28-14.1h-7.12Z"/><path class="cls-1" d="M59.24,72.62c-1.19-.74-1.96-1.3-1.96-2.46,0-1.3,1.19-2.91,2.74-2.91,.91,0,1.86,.46,3.44,1.47,2.91,1.82,5.89,3.86,7.05,4.67,1.44-2.63,2-4.25,3.4-8.25,.49-1.44,.91-2.53,2.67-2.53,1.26,0,3.37,.63,3.37,2.49,0,1.33-2.35,7.23-4.95,11.65,3.16,2.49,4.95,4.14,6.49,5.79,.95,1.02,1.02,1.61,1.02,2.1,0,1.75-1.51,3.44-3.23,3.44-.7,0-1.47-.24-2.39-1.23-3.4-3.51-3.68-3.79-5.23-5.19-1.51,1.93-5.33,6.73-11.75,10.7-1.26,.77-2.39,1.3-3.37,1.3-1.61,0-2.95-1.72-2.95-3.12,0-1.19,.39-1.4,3.05-2.91,2.67-1.51,6.56-3.79,10.77-9.4-2.32-1.72-5.61-4.04-8.17-5.61Z"/><path class="cls-1" d="M88.3,77.92c-.56,0-2.63,0-2.63-2.56,0-2.14,1.37-2.63,2.63-2.63h23.22c1.68,0,3.51,.53,3.51,3.23,0,1.09-1.09,9.82-9.05,14.35-5.61,3.19-12.24,3.47-12.28,3.47-.63,0-1.61-.07-2.28-.91-.49-.66-.67-1.44-.67-2,0-2.03,1.54-2.28,2.56-2.42,5.05-.7,11.08-1.54,14.17-6.91,.67-1.12,1.19-2.53,1.19-2.98,0-.49-.21-.63-.91-.63h-19.47Zm22.31-13.82c.6,0,2.63,0,2.63,2.6s-1.89,2.63-2.63,2.63h-19.64c-.6,0-2.6,0-2.6-2.6s1.89-2.63,2.6-2.63h19.64Z"/></g><g><path class="cls-1" d="M28.62,52.26c0,1.24,.31,1.28,2.81,1.28,.08,0,2.2,0,2.76-.05,.28-.02,1.05-.07,1.25-.07,.51,0,1.23,.11,1.23,1.28,0,.75-.3,1.26-.99,1.4-.67,.14-3.06,.16-4.77,.16-2.63,0-3.29-.26-3.93-.73-.66-.5-1.05-1.24-1.05-2.88v-4.98l-1.91,.17c-.57,.05-1.46-.07-1.46-1.36,0-1.16,.69-1.29,1.27-1.35l2.1-.17v-2.57c0-.51,.08-1.29,1.33-1.29,.96,0,1.35,.42,1.35,1.29v2.36l6.28-.49c1.17-.09,1.91,.37,1.91,1.57,0,1.28-.67,2.87-1.82,4.13-.26,.3-1.81,1.92-2.86,1.92-.89,0-1.3-.89-1.3-1.38,0-.56,.31-.77,.74-1.06,.66-.44,1.53-1.14,1.89-1.75,.08-.16,.23-.4,.23-.56,0-.19-.13-.19-.48-.16l-4.59,.44v4.88Z"/><path class="cls-1" d="M44.68,42.54c-.05-.71,.08-1.49,1.36-1.49,.76,0,1.3,.12,1.36,1.31l.08,1.35,3.93-.26c1.2-.09,1.36,.82,1.36,1.31,0,.86-.49,1.24-1.22,1.3l-3.91,.28,.17,2.71,4.57-.28c1.17-.07,1.36,.77,1.36,1.33,0,.92-.54,1.28-1.22,1.31l-4.56,.28,.21,3.58c.03,.56,.08,1.54-1.38,1.54-1.27,0-1.32-.8-1.35-1.38l-.21-3.57-4.75,.32c-1.07,.07-1.37-.65-1.37-1.35,0-.89,.53-1.24,1.22-1.29l4.74-.31-.17-2.71-3.96,.28c-1.17,.09-1.38-.78-1.38-1.32,0-.86,.49-1.24,1.22-1.3l3.96-.26-.08-1.37Z"/><path class="cls-1" d="M66.82,53.3c.26,0,1.2,0,1.2,1.26,0,1.17-.74,1.28-1.2,1.28h-9.82c-.26,0-1.18,0-1.18-1.26,0-1.02,.58-1.28,1.18-1.28h5.57c.28-1.96,.48-5.05,.48-5.28,0-.31-.12-.45-.41-.45h-4.34c-.36,0-1.22-.09-1.22-1.26,0-.87,.46-1.28,1.22-1.28h5.72c1.02,0,1.68,.56,1.68,1.85,0,.57-.21,3.25-.61,6.41h1.73Z"/><path class="cls-1" d="M74.23,50.07c0,.69-.23,1.33-1.37,1.33-.85,0-1.4-.31-1.4-1.33v-7.18c0-.66,.2-1.35,1.36-1.35,.87,0,1.4,.33,1.4,1.35v7.18Zm8.22-1.1c0,1.15,0,4.47-3.17,6.22-1.99,1.1-4.16,1.36-5.2,1.36-.3,0-.76,0-1.1-.43-.28-.33-.34-.76-.34-1.07,0-1.12,.72-1.2,1.64-1.29,2.71-.28,3.72-.91,4.39-1.63,.86-.91,.99-1.92,.99-3.06v-6.41c0-.79,.33-1.35,1.38-1.35,.8,0,1.41,.3,1.41,1.35v6.31Z"/><path class="cls-1" d="M87.05,48.99c-.26,0-1.25,0-1.25-1.28s.97-1.31,1.25-1.31h12.02c.26,0,1.25,0,1.25,1.3s-.97,1.29-1.25,1.29h-4.26c-.08,1.45-.26,4.54-3.02,6.38-1.4,.93-3.02,1.33-3.55,1.33-.91,0-1.23-.99-1.23-1.5,0-.77,.59-.99,.99-1.12,2.14-.63,3.98-1.19,4.14-5.08h-5.08Zm10.75-7.09c.26,0,1.23,0,1.23,1.28s-.94,1.29-1.23,1.29h-9.47c-.26,0-1.22,0-1.22-1.28s.94-1.29,1.22-1.29h9.47Z"/><path class="cls-1" d="M110.89,55.52c0,.75-.33,1.25-1.27,1.25-.74,0-1.28-.3-1.28-1.25v-5.42c-1.53,.75-3.54,1.54-4.26,1.54-.92,0-1.18-.96-1.18-1.45,0-.8,.51-.96,.9-1.08,1.37-.42,3.78-1.17,6.53-3.08,.51-.35,.67-.51,2.25-1.9,.36-.33,.61-.37,.77-.37,.69,0,1.37,.64,1.37,1.42,0,.37-.12,.64-.51,1.01-.64,.63-1.48,1.3-3.32,2.5v6.83Z"/></g></g></svg>