<?xml version="1.0" encoding="utf-8"?>
<!-- Generator: Adobe Illustrator 27.0.1, SVG Export Plug-In . SVG Version: 6.00 Build 0)  -->
<svg version="1.1" id="Layer_1" xmlns="http://www.w3.org/2000/svg" xmlns:xlink="http://www.w3.org/1999/xlink" x="0px" y="0px"
	 viewBox="0 0 134.8 134.8" style="enable-background:new 0 0 134.8 134.8;" xml:space="preserve">
<style type="text/css">
	.st0{fill:#00425C;}
	.st1{fill:#FFFFFF;}
</style>
<g>
	<circle class="st0" cx="67.4" cy="67.5" r="67.4"/>
	<g>
		<path class="st1" d="M32,73.8c0,2-3.4,8.3-4.4,10.1c-1.6,2.9-2.3,4-3.9,4c-1.7,0-3.8-1.3-3.8-3.4c0-1.4,0.7-2.4,2-4.4
			c1.3-2,2.5-4.2,3.5-6.5c1.2-2.7,1.6-2.9,3.4-2.9C30,70.8,32,71.7,32,73.8 M28.7,61.1c2,1.4,2.8,1.9,2.8,3.4c0,1.5-1.6,3.9-3.6,3.9
			c-0.9,0-1-0.1-2.7-1.3c-1.1-0.8-3-2.1-4.1-2.9c-0.3-0.3-1.1-0.8-1.1-2.2c0-1.8,1.4-3.6,3.4-3.6C24.4,58.4,25.8,59,28.7,61.1
			 M27.9,48.5c4.5,2.5,4.7,3.1,4.7,4.3c0,1.5-1.5,4-3.4,4c-0.9,0-1.3-0.2-4.4-2.2c-0.5-0.3-2.7-1.6-3.1-1.9
			c-0.7-0.5-0.9-1.4-0.9-1.9c0-1.5,1.3-3.5,3.1-3.8C24.7,47,25.4,47.2,27.9,48.5 M39,50c0.9,1.6,2.2,4.1,2.2,5.6c0,1.9-2,3-4,3
			c-1.5,0-1.7-0.4-3.2-3.6c-0.2-0.5-1.3-2.6-1.5-3.1c-0.2-0.3-0.3-0.8-0.3-1.2c0-2.2,2.2-3,3.4-3.1C37.3,47.5,37.8,48,39,50
			 M43.3,49.8c0-0.9,0-3,3.1-3c2.8,0,3.6,1,3.6,3v8.9h4.4c3.4,0,5.4,1.2,5.4,5.3v18.6c0,5.4-3.3,5.4-6.8,5.4c-3.7,0-6.4,0-6.4-3.5
			c0-3.1,2.4-3.1,3.1-3.1c0.3,0,2,0,2.3,0c0.6,0,0.8-0.1,0.8-0.8v-2.5H40.5v6.5c0,1.4-0.3,3.4-3.2,3.4c-2.5,0-3.7-0.7-3.7-3.4V64
			c0-4.1,1.9-5.3,5.3-5.3h4.4V49.8z M40.5,66.3h12.3v-1.2c0-0.4-0.3-0.7-0.7-0.7H41.1c-0.5,0-0.7,0.3-0.7,0.7V66.3z M52.7,71.3H40.5
			v1.9h12.3V71.3z M61.2,50.5c0,1.3-1.2,3.4-1.9,4.7c-1.4,2.6-2.2,3.4-3.7,3.4c-1.7,0-3.8-1-3.8-3c0-0.8,0.2-1.1,1.9-4.2
			c0.3-0.5,1.4-2.5,1.6-2.9c0.7-1,2.1-0.9,2.7-0.9C60.1,47.9,61.2,49.3,61.2,50.5"/>
		<path class="st1" d="M111.2,49.3c0.6,0,2.8,0,2.8,2.3c0,2.2-2.1,2.3-2.8,2.3H97.9v1h11.7c0.9,0,2.3,0.2,2.3,2c0,1.5-0.9,2-2.3,2
			H97.9v1h14.2c0.7,0,2.8,0,2.8,2.4c0,2.3-1.9,2.4-2.8,2.4H76.6c-0.7,0-2.8,0-2.8-2.4c0-2.3,1.9-2.4,2.8-2.4h14.2v-1H79.2
			c-0.9,0-2.2-0.1-2.2-1.9c0-1.6,0.9-2,2.2-2h11.6v-1H77.6c-0.6,0-2.8,0-2.8-2.3c0-2.3,2.2-2.3,2.8-2.3h13.2c0-1.6,0.9-2.5,3.6-2.5
			c2.2,0,3.5,0.5,3.5,2.5H111.2z M77.7,71.5c0.2-1.7,0.4-2.9,0.7-3.5c0.8-1.7,2.2-2.2,4.5-2.2h23.6c2,0,3.3,0.4,4.2,1.9
			c0.7,1.1,0.6,2.5,0.6,3.9h0.8c0.7,0,2.9,0,2.9,2.5c0,2.1-1,2.8-2.9,2.8H111c-0.1,0.9-0.1,0.9-0.1,1.1h0.6c0.7,0,2.9,0,2.9,2.5
			c0,2.5-2,2.6-2.9,2.6h-1.1c-0.8,4.9-2.3,5-8.6,5c-0.9,0-5.1-0.1-6-0.1c-2.5,0-3.8,0-3.8-1.9c0-2,1.5-2,3.5-2c0.8,0,4.3,0.1,5,0.1
			c2.3,0,2.3,0,2.8-1.1H81.5c-1.8,0-2.8-0.3-3.8-1.2c-0.9-0.8-1.1-1.8-1.1-2.9c0-0.7,0-1,0.3-2.2c-0.9,0-3.1,0-3.1-2.5
			c0-2.1,0.9-2.8,2.9-2.8H77.7z M84,76.6c-0.1,0.6-0.2,1.4,0.9,1.4h5.2c0.1-0.6,0.1-0.7,0.2-1.4H84z M91,71.6c0.1-0.9,0.1-1,0.2-1.4
			h-5.3c-0.9,0-1,0.4-1.1,1.4H91z M97.1,76.6c-0.1,0.6-0.1,0.7-0.2,1.4h7.1c0.1-0.9,0.1-1,0.1-1.4H97.1z M104.4,71.6
			c0-0.6,0.1-1.4-1-1.4h-5.7c0,0.6,0,0.7-0.1,1.4H104.4z"/>
	</g>
</g>
</svg>
