<?xml version="1.0" encoding="utf-8"?>
<!-- Generator: Adobe Illustrator 27.0.1, SVG Export Plug-In . SVG Version: 6.00 Build 0)  -->
<svg version="1.1" id="Layer_1" xmlns="http://www.w3.org/2000/svg" xmlns:xlink="http://www.w3.org/1999/xlink" x="0px" y="0px"
	 viewBox="0 0 134.8 134.8" style="enable-background:new 0 0 134.8 134.8;" xml:space="preserve">
<style type="text/css">
	.st0{fill:#00425C;}
	.st1{fill:#FFFFFF;}
</style>
<circle class="st0" cx="67.4" cy="67.4" r="67.4"/>
<g>
	<path class="st1" d="M51,61.7v1.2h3.4c4.8,0,5.6,0.8,5.6,5.6V71c0,4.8-0.8,5.6-5.6,5.6h-1.2c1.6,2.4,3.5,3.2,6,4.3
		c1.2,0.5,2.4,1.2,2.4,3.1c0,1.8-1.2,3.9-3.3,3.9c-1.9,0-7.2-2.3-10.6-7.9c-3.8,6.1-9.3,7.9-10.6,7.9c-2.1,0-3.5-1.9-3.5-3.9
		c0-2.1,0.9-2.5,3.9-3.9c3.1-1.4,4-2.6,4.7-3.5h-1c-2.4,0-4.6,0-5.3-2.4c-0.3,0.2-0.7,0.5-1.6,0.5c-1.3,0-1.8-0.9-2.2-1.5v11.3
		c0,1.4-0.3,3.4-3,3.4c-2.2,0-3.5-0.7-3.5-3.4v-9c-0.4,0.9-1.2,2.8-2.7,2.8c-1.6,0-3-1.8-3-4.1c0-1.4,0.2-1.6,2.5-5.5
		c1.1-1.8,2.2-4.7,3.2-7.9H24c-1,0-3.4-0.1-3.4-3.1c0-2.3,0.7-3.6,3.4-3.6h1.7v-3.9c0-1.5,0.3-3.4,3.2-3.4c1.9,0,3.3,0.5,3.3,3.4
		v3.9c1,0,1.8,0,2.5,1c0.6-0.5,3.4-2.1,3.9-2.5c1.7-1.1,2.2-1.6,5.1-4.4c0.6-0.5,1.6-1.5,4.3-1.5c3,0,3.9,1,5.2,2.4
		c2.5,2.7,3.9,3.6,7.2,5.7c0.5,0.3,1.5,1.1,1.5,2.7c0,1.7-1.1,4-3.4,4c-0.9,0-1.7-0.5-3-1.5c-0.6,1.5-2,1.5-2.7,1.5H51z M42.7,61.7
		c-1.1,0-1.9-0.1-2.6-1.2c-0.6,0.4-1.8,1.3-3,1.3c-0.9,0-2-0.6-2.6-1.7c-0.8,0.8-1.4,0.8-2.4,0.8v1c1.4,3.2,2.4,4.6,3.6,6.4
		c0-4.7,1.1-5.4,5.6-5.4h3.2v-1.2H42.7z M42.2,68.6c-0.4,0-0.6,0.3-0.6,0.7v1c0,0.4,0.2,0.6,0.6,0.6h2c0-0.3,0.2-1.2,0.2-2.3H42.2z
		 M50.5,56c-0.3-0.3-1.7-2-2.1-2.4c-0.1-0.1-0.3-0.2-0.4-0.2c-0.3,0-0.3,0.1-0.6,0.5c-0.8,1-1.8,1.9-2,2.1H50.5z M51,68.6
		c-0.1,1.5-0.1,1.9-0.2,2.3h2.5c0.4,0,0.6-0.3,0.6-0.6v-1c0-0.4-0.2-0.7-0.6-0.7H51z"/>
	<path class="st1" d="M85.5,73.4c0,1.5-1.1,3.8-2.7,7.3c-0.4,0.9-1.9,4.2-2.9,5.6c-0.5,0.7-1.1,1.3-2.4,1.3c-1.8,0-3.8-1.4-3.8-3.3
		c0-1.2,0.4-1.9,2.1-4.8c1-1.7,2-3.8,3.2-6.5c0.7-1.7,1.3-2.6,2.9-2.6C84,70.4,85.5,71.6,85.5,73.4 M77.4,58.3
		c1.3,0,3.6,1.5,4.5,2.2c2.5,1.7,3.6,2.5,3.6,4.1c0,1.4-1.5,3.7-3.5,3.7c-0.9,0-1,0-4.4-2.5c-0.4-0.3-2.3-1.5-2.6-1.8
		c-0.8-0.6-0.9-1.6-0.9-2.1C74.1,59.9,75.6,58.3,77.4,58.3 M78.1,47c1.5,0,3.9,1.5,6,2.8c1.4,0.9,2.4,1.5,2.4,3c0,2.4-1.9,4-3.3,4
		c-0.9,0-1.2-0.2-4.2-2.1c-0.5-0.3-2.7-1.6-3.1-1.9c-0.6-0.5-1.1-1.1-1.1-2.4C74.7,49.5,75.8,47,78.1,47 M86.5,86.7
		c-0.8,0-3.1,0-3.1-3.3c0-3,2.3-3.1,2.9-3.1V73c0-4.2,2-5.3,5.4-5.3h16.2c3.4,0,5.4,1.2,5.4,5.3v7.5c1.2,0.4,1.7,1.4,1.7,3
		c0,3.2-2.3,3.2-3,3.2H86.5z M112.5,60.9c0,3.7-1.5,5.3-5.3,5.3H92.5c-3.9,0-5.3-1.6-5.3-5.3v-7.2c0-3.7,1.5-5.3,5.3-5.3h14.7
		c3.9,0,5.3,1.6,5.3,5.3V60.9z M94.1,80.3v-6.9h-1.4c-0.4,0-0.6,0.3-0.6,0.7v6.3H94.1z M93.8,55.3h12.1v-1c0-0.4-0.3-0.7-0.7-0.7
		H94.5c-0.5,0-0.7,0.3-0.7,0.7V55.3z M93.8,59.4v1c0,0.4,0.3,0.7,0.7,0.7h10.7c0.5,0,0.7-0.3,0.7-0.7v-1H93.8z M100.8,73.4h-2v6.9h2
		V73.4z M107.4,80.3v-6.3c0-0.4-0.2-0.7-0.7-0.7h-1.3v6.9H107.4z"/>
</g>
</svg>
