<?xml version="1.0" encoding="UTF-8"?><svg id="Layer_1" xmlns="http://www.w3.org/2000/svg" xmlns:xlink="http://www.w3.org/1999/xlink" viewBox="0 0 1360 413.45"><defs><style>.cls-1{fill:#e3dbcf;}.cls-2{opacity:.16;}.cls-3{clip-path:url(#clippath);}.cls-4{fill:none;}.cls-5{fill:#e68004;}</style><clipPath id="clippath"><rect class="cls-4" width="1360" height="413.45"/></clipPath></defs><rect class="cls-5" width="1360" height="413.45"/><g class="cls-3"><g class="cls-2"><path class="cls-1" d="M1370.94-269.59v-4.67l-105.17,10.18-4.15-28.73,48.38-4.61-.11-1.15h-36.86l-16.71,1.59,4.82,33.34-15.07,1.46-34.26-11.22,15.05-25.18h-5.42l-14.16,23.69-17.23-5.64,10.81-18.05h-5.42l-9.92,16.57-16.61-5.44,6.57-11.13h-5.4l-5.7,9.65-29.47-9.65h-15.9l-34.65,30.2-15.95-19.06,13.17-11.14h-7.2l-8.96,7.58-6.34-7.58h-6.06l8.85,10.58-151.05,127.81-24.07-24.66,104.24-90.91,13.92,17.93,42.83-40.73h-6.75l-35.56,33.83-10.93-14.08,22.64-19.75h-7.07l-18.43,16.07-7.79-10.03,6.56-6.04h-6.86l-5.99,5.52,10.57,13.61-37.91,33.06v-52.19h-4.65v13.96l-108.46,49.05-15.23-47.12,33.81-15.89h-23.5l.37,.6-75.85,35.66-19.44-36.25h-26.45l-124.69,59.22-17.01-22.35,42.69-30.5,15.67,17.28,36.24-23.64h-8.51l-26.95,17.58-15.78-17.4-46.17,32.99-25.25-33.17h-7.42l-87.36,88.01-17.44-14.34,72.2-73.67h-6.51l-69.29,70.71-17.96-14.76,50.84-55.95h-6.28l-50.04,55.08h-54.3l38.34-38.88-113.46,3.18,9.11-19.38h-5.14l-11.94,25.4-47.71,28.18-44.71-53.58h-6.06l46.71,55.97-37.47,22.13-58.69-78.11h-5.82l27.99,37.24-41.79,26.94-47.89-64.18h-5.8l49.77,66.71-42.18,27.19L-18.36-298.57h-5.48v.4L3.23-261.4l-27.07,16.35v5.43l29.84-18.02,18.54,25.19-48.37,28.54v5.4l51.14-30.18,13.51,18.36L-23.84-171.97v5.41l67.42-40.03,19.35,26.29L-23.84-128.6v5.41l89.54-53.35,12.13,16.48L-23.84-94.07v5.54l106.19-68.92,15.79-8.49-21.9,62.85L13.61-75.82,61.58-33.64l-.13,1.51L-23.84,3.77V13.85L60.58-21.67l-2.6,31.25L-23.84,43.94v5.04L57.54,14.8l-6.82,81.86L11.77,73.57l-35.61,7.05v14.22l33.09-6.55,36.11,21.41L-23.84,183.33v6.79L49.46,112.13l35.94,21.3L-23.84,254.69v10.46l64.6,62.3-20.91,23.58,31.34,32.69L-23.84,456.52v6.48l28.75-27.9,45.06,66.74-30.58,21.79-43.23-16.62v4.98l38.69,14.88-38.69,27.57v11.42l49.1-34.99,18.89,7.26-67.98,49.85v11.53l78.32-57.44,97.89,36.94-24.39,52.26h5.13l23.7-50.79,43.05,11.75,2.19,.88,.1-.25,32.2,8.78,.79,.3,.03-.08,107.79,29.41h17.66l-81.59-22.26,12.74-38.14,142.48,41.72-3,18.68h9.42l17.2-106.96,70.4,8.38-5.66,98.57h4.66l5.63-98.02,61.2,7.29v90.74h4.65v-90.18l61.4,7.31,1.56,82.87h4.65l-1.55-82.31,24.1,2.87v68.01h35.18v11.43h4.65v-16.08h-35.18v-26.89l163.05-26.66,3.48,36.99-27.69,6.34,4.11,26.29h4.71l-3.55-22.73,22.87-5.24,2.63,27.97h4.67l-6.62-70.38,97.57-15.95,4.82,49.27,65.63-5.38,4.8,42.44h4.68l-5.37-47.45-65.56,5.37-4.4-45.01,36.62-5.99,115.96,58.9-14.19,34.17h5.04l15.1-36.36-114.14-57.98,17.53-2.87,135.6,63.42v22.21l5.56,1.15,50.34,10.42h68.79l-110.74-22.93v-19.73l-51.21-23.95,10.2-25.55,164.77,92.16h9.52l-32.33-18.08,48.83-115.16,42.41,23.9-46.82,109.34h5.06l17.84-41.66,27.85,15.44v-5.31l-26.01-14.43,26.01-60.74v-5.77l-138.31-77.94,27.41-58.26-74.67-39.8,9.35-19.51,75.84,37.7,100.37,149.56v-8.34l-96.86-144.32-.34-.51-81.17-40.35-11.3,23.58-180.93-96.44,33.03-41.74,337.57,180.28v-5.27l-69.23-36.98,26.57-43.46,20.15,10.86-15.49,27.21,38.01,20v-5.26l-31.59-16.62,13.16-23.13,18.43,9.93v-5.28l-40.24-21.69,25.06-40.99,15.18,8.64v-5.35l-47.24-26.9,37.02-56.42-37.15-20.73,43.99-64.62,3.39,1.75v-5.24l-38.12-19.69,31-117.07,7.12-1.32v-14.18l-30.8,5.71-54.63-51.69,20.71-18.98,64.72,57.67v-6.23l-61.28-54.6,61.28-56.17v-6.31l-74.44,68.24-31.9-30.35,51.34-60.49,55.01-14.39v-9.61l-10.2,2.67h-91.26l-21.05,7.08-5.02-12.88,3.93-8.24,123.6-11.96Zm-161.58,.29l33.21,10.87-24.96,52.28-54.52,14.26,46.27-77.42ZM917.83,131.21l85.22-58.68,25.73,19.41-77.26,53-33.69-13.73Zm29.1,16.88l-2.4,1.65-20.74-11.08,23.14,9.43Zm172.51,321.56l-19.54-9.55,33.75-69.67,18.71,10.54-32.91,68.68Zm36.97-66.39l22.04,12.42-27.96,69.15-26.87-13.13,32.8-68.43Zm-60.69,54.8l-39.05-19.08,33.89-72.83,39.03,22-33.87,69.92ZM196.19,318.75l13.46,8.56-17.46,29.77-12.91-10.06,16.91-28.27Zm-24.29,22.51l-16.13-12.58-31.39,21.64-13.33-18.49,42.85-41.79,34.52,23.59-16.52,27.63Zm41.15-511.33l9.75-5.38,19.38-1.71,32.34,55.37-41.26,17.36-35.43-57.58,15.26-8.01-.03-.05ZM918.58,434.23l-34.8-17.31,21.63-46.68,34.68,16.95-21.51,47.05Zm25.69-45.01l31.78,15.53-32.27,75.8-33.99-15.9,34.48-75.43Zm-66.61,29.84l38.99,19.39-11.07,24.22-65.3-30.54,20.17-39.79-39.42-21.78,12.84-35.3,67.36,32.92-23.58,50.87Zm-62.36-46.34l38.97,21.53-18.21,35.92-80.52-37.66,29-81.34,45.13,22.05-14.37,39.5Zm-63.99,17.81l-51.21-23.95,31.81-81.13,48.43,23.67-29.03,81.42Zm-50.72-63.4l-58.28-87.02,7.7-37.03,88.48-71.27,24.39,36.67-.14,.12-62.15,158.52Zm-39.56,124.37l-166.58-48.94,15.5-31.95,24.23-11.42,1.71,1.23,69.3-22.83,84.65,39.59-28.81,74.32Zm17.32-31.81l126.6,36.31-6.2,35.97-133.25-39.15,12.84-33.13Zm-226.84-92.69c-59.39-29.75-148.77-74.95-155.25-79.37-.25-.33-.59-.59-1-.75-.79-.31-2.02-.25-2.86,.95-.09,.13-.19,.28-.32,.5-.22,.35-.52,.86-.91,1.54-.71,1.22-1.73,3.02-3.03,5.35-2.19,3.91-5.21,9.37-8.99,16.23-4.88,8.88-9.78,17.85-11.89,21.69l-20.86-10.13,43.61-74.37,61.59-9.96c38.29,25.22,79.13,52.81,87.63,59.62,.19,5.02,.03,17.88-.27,28.86l-.1,3.7,86.67,62.13-22.51,10.61-4.98,10.25-51.93-26.69,7.26-19.23-1.87-.94Zm-231.65,1.29l24.19-41.26,62.98,30.58-21.05,52.74-66.11-42.07Zm64.36,46.46l-43.1,107.99-38.71-11.47,33.4-80.18-36.22-28.24,17.91-30.55,66.71,42.45Zm-85.22-190.22l-45.92-27.22,18.05-110.49,50.97,111.53-28.7,13.25,5.6,12.93Zm-19.65-256.2l42.63-17.94,11.59,25.44-41.39,17.38-12.83-24.88Zm8.53,26.69L113.22-13.62l4.18-31.97,57.65-24.26,12.83,24.88Zm447.74-112.34l33.41-15.29,32.72,54.08-15.75,41.87-66.19-1.74-15.35-32.24,36-35.94-4.85-10.74Zm61.48,199.4L356.23,185.03l-1.5-.99-10.42,1.69-15.44-30.49,160.94-70.52-14.61-27.65L669.48-25.83l23.57,41.19-5.7,4.4,9.74,22.34Zm-235.27,108.75l73.67-30.89,46.26,38.09-72.12,30.07-47.82-37.27Zm42.89,39.33l-86.67,36.14c-4.52-3.08-9.5-6.44-14.91-10.08-14.34-9.64-28.75-19.2-37.56-25.03l91.32-38.3,47.81,37.27Zm149.77-57.42l9.38,15.39,27.11-17.53,15.95,14.63,26.63-20.84,2.35,3.53-89.47,72.06-.65,.52-7.49,36.04-83.27-62.33,99.45-41.47Zm52.68,6.41l-15.69-14.4-26.12,16.89-7.91-12.97-9.12-16.79,55.28-32.5,27.37,41.14-23.81,18.63Zm-65.07-29.01l10.06,18.53-65.54,27.33-46.28-38.1,147.7-61.94,12.99,19.53-58.93,34.64ZM288.35,48.9l45.39-19.96,35.02,68.5-56.87,24.27-19.55-38.59,8.86-4.25-12.84-29.97Zm229.18-104.64l-34.8,15.89-19.23-38.7,35.77-16.37-.06,.31,18.32,38.87Zm-127.28,24.16l10.85,20.74-39.3,17.28-10.54-20.27,38.98-17.76Zm-41.13,13.63l-3.08-5.91,39.16-17.36,2.89,5.52-38.97,17.75Zm77.8,5.92l14.05,27-88.38,40.63-14.58-28.53L426.92-12.04Zm16.19,31.13l8.55,16.44,41.89-18.8,11.13,22.7-131.65,56.18-18.34-35.88,88.41-40.64Zm52.64-8.44l-41.99,18.84-22.79-43.82,.08-.3,60.16,2.28,.28,.57,1.05-.52,46.3,1.75,13.89,29.48-43.76,18.67-13.22-26.95Zm28-64.12l40.76-18.62L598.51-.6l-41.5,17.71-33.26-70.58Zm12.86,38.19l-42.46-1.61-9.34-18.8,34.71-15.85,17.09,36.26Zm-47.75-1.81l-56.58-2.14,13.62-51.26,13.39-6.13,29.58,59.53Zm-49.96-63.29l-10.31-19.91,17.84-8.45-7.53,28.35Zm-1.78,6.68l-14.14,53.23-17.61,7.74-32.12-61.37,51.13-24.21,12.73,24.6Zm-54.08,28.34l-39.15,17.35-13.43-25.82,38.59-18.27,14,26.74Zm-25.5,53.66l-71.53,31.45-27.19-59.68,67.43-31.92,31.28,60.15Zm113.37,50.59l12.46,23.56-156.6,68.62-12.78-25.22L470.9,58.9ZM668.65-30.53L602.79-2.43l-34.36-72.24,17.02-16.99,19.05,37.98,72.37,1.29-8.22,21.86Zm-61.25-27.74l-18.48-36.84,12.05-12.03,15.87,33.33,67.43,1.77-5.65,15.03-71.21-1.26Zm-43.12-18.82l-42.52,19.42-17.7-37.55,.39-2.06,126.93-58.09,3.52,7.79-70.62,70.49Zm-63.95-23.42l-52.89,24.2,9.21-34.68,50.08-23.54-6.4,34.02Zm-52.34-14.1L256.9-24.15l-10.38-22.8,180.16-82.42,21.34,14.67-.02,.07Zm-101.23,16.7l-20.55-35.55,10.42-4.39,22.54,16.6,5.44-2.58,7.81,14.18-25.67,11.74Zm-4.25,1.94l-29.03,13.28-19.85-37.07,28.26-11.89,20.62,35.68Zm-33.27,15.22l-18.94,8.67-19.3-38.15,18.32-7.71,19.92,37.19Zm-23.17,10.6l-18.33,8.38-19.95-38.7,18.91-7.96,19.36,38.28Zm-22.56,10.32l-18.93,8.66-18.33-40.23,17.24-7.26,20.01,38.83Zm-74-26.19l-13.93-23.92,38.94-16.07,14.4,23.4-39.41,16.58Zm45.98,26.1l46.26,101.56-5.58,2.45,12.96,30.25-53.99,25.91,20.94,42.41-29.77,13.74-53.16-116.32,52.15-22.63-31-60.1,41.18-17.29Zm33.16,207.03l-21-42.54,40.5-19.44,51.35,101.37-117.6,19.03-6.2-11.09-3.08-1.82-7.09-16.38,63.12-29.13Zm9.44,63.46l-39.94,68.13-13.46-7.61,34.35-57.43,19.06-3.08Zm409.35,150.09l-81.36-38.05-67.83,22.34-85.27-61.12c.07-2.86,.16-7.04,.21-11.31,.21-16.23-.22-17.97-.51-19.13-.67-2.69-2.49-4.28-6.77-7.53-2.52-1.91-6.16-4.54-10.82-7.8-3.54-2.49-7.71-5.37-12.47-8.62l86.29-35.99,186.96,145.72-8.43,21.5Zm-173.6-169.27l36.21-15.1,88.07,65.93,60.4,90.18-.88,2.25-183.8-143.26ZM692.39,54.14l10.84-4.54,20.83,40.1,33.71,23.26-7.6,28.03-57.77-86.85Zm15.34-10.88l51.44-52.89,25.88,21.99-9.28,34.19-59.78,17.55-8.47-16.3,1.84-.77-1.64-3.76Zm-2.01-4.6l-6.96-15.96,89.75-69.16-82.79,85.12Zm21.92,47.88l-9.47-18.23,56.17-16.49-15.3,56.39-31.41-21.67Zm51.94-36.25l69.52-20.41,5.43,21.87-81.12,21.26,6.16-22.72Zm1.43-5.27l9.3-34.28-27.89-23.7,51.98-53.44,9.05-6.98,24.52,98.74-66.97,19.66Zm-84.25-32.52l-23.73-41.48,33.86-90h0s30.58-81.78,30.58-81.78l8.96,51.4,65.88,11.13,3.76,10.51,5.4,44.14L696.77,12.49Zm7.06-136.56l-32.97-54.49-37.16,17-12.16-26.95,109.13-51.3,5.23,29.97-32.07,85.76Zm-74.36-35.55l-123.96,56.73,6.42-34.09,105.4-49.54,12.15,26.91Zm-80.1-5.24l-21.61-36.48,23.13-10.99,21.97,36.42-23.49,11.04Zm-4.23,1.99l-18.49,8.69-22.04-36.16,18.93-8.99,21.6,36.46Zm-22.72,10.68l-17.46,8.21-23.29-35.46,18.72-8.89,22.03,36.14Zm-21.71,10.2l-50,23.5-23.58-16.21-50.47,23.09-7.85-14.24,108.6-51.58,23.28,35.44Zm-140.5,9.94l-19.22-14.16,16-39.77,46.97,33.15-43.75,20.78Zm-23.52-15.93l-57.86,24.35-31.54-54,105.06-9.29-15.66,38.94Zm-124.64,17.94l-38.83,16.02-15.66-26.89,36.14-18.96,18.36,29.83Zm-26.86,45.82l-69.74,29.35-15.84-23.75,71.64-29.56,13.95,23.95ZM112.52-8.28l77.49-32.54,28.89,56-50.93,22.1-19.19,117.49-53.41-31.66L112.52-8.28Zm-4.26-3.25L62.81,7.55l2.6-31.26,47.01-19.79-4.17,31.96Zm97.1,216.06l9.13,16.33,32.56-5.27-30.45,50.92-101.24-57.23,31.92-39.18,58.07,34.42Zm16.95,70.55l13.49,7.63-23.8,40.59-13.42-8.54,23.73-39.68Zm-25.09,91.82l32.93,25.68-57.25,137.44-46.99-41.5,71.31-121.62Zm3.39,108.7l38.77,11.49-22.73,56.96-39.71-11.63,23.67-56.82Zm43.25,12.82l26.34,7.8-21.64,57.17-27.43-8.03,22.73-56.94Zm1.73-4.34l65.63-164.42,21.8,10.58-61.17,161.62-26.26-7.78Zm91.63-151.79l25.26,12.26-46.74,139.94-32.07-10.72,53.55-141.48Zm-65.77-37.11c8.42-15.44,19.94-36.41,23.64-42.82,1.11,.65,2.73,1.55,4.8,2.67,4.03,2.19,9.97,5.31,17.66,9.3,12.93,6.7,30.99,15.94,53.68,27.43,33.81,17.13,68.05,34.31,76.32,38.46l-7.25,19.19,55.71,28.63-10.28,21.19-214.28-104.06Zm220.94,111.63l305.5,89.75-8.2,39.07-319.52-83.03,22.22-45.79Zm310.93,86.5l-.07-.02,6.99-40.61-130.2-37.34,14.02-36.18,218.99,102.42-1.61,22.02,23.25,9.68-140.26,22.38,8.89-42.35Zm113,7.29l1.24-16.91,51.53,24.1-25.65,4.09-27.11-11.29Zm31.67-18.07l32.24-75.73,25.2,12.31-32.27,75.19-25.17-11.78Zm61.62-61.37l63.86,31.2-18.56,46.23-65.91-29.39,20.62-48.05Zm42.88,15.78l-217.02-106.05,32.76-90.03,218.27,123-34.01,73.08Zm-221.22-108.11l-45.15-22.06,33.31-93.41,44.69,25.19-32.85,90.29Zm-49.36-24.12l-48.3-23.6,37.29-95.1,44.41,25.03-33.4,93.67Zm-15.42-139.18l-12.9-19.4,2.67-9.83,42.68,2.63-32.44,26.61Zm-8.99-33.81l4.81-17.72,86.71-16.15-44.8,36.74-46.72-2.88Zm6.16-22.7l8.37-30.85,83.64-21.92,7.46,30.03-6.65,5.45-92.82,17.28Zm63.9-185.24l48.86-20.77-11.01,173.16-37.85-152.39Zm53.64-22.8l85.4-36.3,67.48,117.54-157.81,111.98-6.63-11.28,11.57-181.93ZM1036.4-13.73l9.07,15.79-160.11,107.59-6.73-11.44L1036.4-13.73Zm215.67,130.48l25.74,14.36-37.25,50.01-27.6-15.71,39.11-48.66Zm-43.21,46.33l-42.86-24.4,40.06-47.59,41.89,23.37-39.09,48.63Zm42.04-52.3l-41.79-23.32,48.46-57.58,41.23,21.3-47.9,59.6Zm3.77-84.66l-92.77,110.22-27.94-15.91,46.69-52.59,11.52,7.07,31.22-45.65,8.95,4.77,2.19-4.1-24.2-12.9-2.19,4.1,11.12,5.93-28.44,41.58-11.07-6.79-49.05,55.25-19.47-33.36,83.74-62.28V-22.24l59.69-11.07V26.11Zm-127.16,94.72l-9.79,12.42-24.45,1.52-28.87-21.78,34.67-25.98,2.67,3.78,5.75-4.27,20.02,34.32Zm-66.98-10.76l-23.8-17.96,44.4-30.46,15.25,21.56-35.85,26.86Zm-27.72-20.91l-25.74-19.41,53.65-36.94,17.72,25.05-45.63,31.3Zm-29.65-22.37l-13.68-10.32,59.63-40.07,8.92,12.61-54.87,37.78Zm-17.76-7.57l13.72,10.35-86.46,59.53-19.46-7.93,92.19-61.96Zm-33.33,90.97l35.56,14.49-6.3,4.72-32.2-17.2,2.93-2.01Zm4.59-3.15l76.02-52.15,23.97,18.09-64.68,48.46-35.31-14.39Zm103.86-31.15l29.44,22.21-4.73,21.37-42.92,22.48-45.31-18.47,63.52-47.59Zm26.63,47.81l33.73,21.35-21.71,25.8-51.68-26.37,39.66-20.78Zm2.73-3.77l4.56-20.58,25.64-1.59,10.82-13.72,27.94,15.91-34.94,41.51-34.02-21.53Zm73.07-17.64l43,24.49-32.04,41.79-45.92-24.75,34.96-41.53Zm47.08,26.81l27.74,15.79-30.47,41.67-29.23-15.76,31.97-41.7Zm31.8,18.11l37.22,21.19-28.55,41.45-39.08-21.06,30.41-41.58Zm41.27,23.5l33.96,19.34-27.26,40.98-35.19-18.96,28.49-41.36Zm-1.42-6.16l-37.07-21.11,37.27-50.05,34.96,19.5-35.16,51.65Zm-1.09-77.2l-25.58-14.28,48-59.72,23.6,12.2-46.02,61.8Zm20.18-80.38l-41.46-21.42V-34.17l63.03-11.69-21.57,92.83Zm-113.71-81.92l-14.2-27.7,50.78-45.7,25.82,26.36,11.79-10.81,36.04,37.41-110.24,20.45Zm-4.77,.89l-1.27,.23V14.43l-76.15,56.64-36.05-50.95,56.56-90.34,43.03,9.07,13.88,27.07Zm-14.44-31.95l-44.69-9.42-57.25,91.45-13.28-18.77-3.31,2.22-78.43-136.61,15.75-6.7-26.25-26.77,167.39-49.56,27.23,38.02,18.5,38.23-5.68,77.91Zm-7.38-115.57l49.52-12.96-33.68,45.68-15.84-32.72Zm27.11-94.84l17.23,5.64-46.32,77.5-11.28-15.75,40.36-67.39Zm-21.11-6.91l16.58,5.43-38.79,64.75-10.55-14.73,32.75-55.45Zm-42.07-13.77l37.54,12.29-32.09,54.34-53.3,15.78-9.71-32.24,57.56-50.17Zm-59.55,12.69l15.99,19.11-19.31,16.83,10.57,35.09-129.15,38.24,27.52,28.07-57.52,24.45-18.55-17.57,170.45-144.22Zm-157.59,127.25l-19.83,16.78,20.85,19.75-82.41,35.03-5.1-41.7,62.46-54.47,24.02,24.61Zm38.32-122.34v37.19l-126.21,110.07-2.82-7.87,31.71-60.96-9.7-30.02,107.02-48.4Zm-102.34,78.01l-30.49,58.63-62.31-10.52-6.12-35.09,89.98-40.69,8.95,27.67Zm-10.38-32.13l-89.36,40.42-2.61-14.98,87.87-38.14,4.11,12.7Zm-15.21-47.05l9.67,29.91-87.26,37.87-5.04-28.94,82.64-38.84Zm-85.55-17.7l20.4,38.04-33.72,15.85-20.82-37.68,34.14-16.21Zm-38.34,18.21l20.81,37.66-37.44,17.6-21.01-37.39,37.63-17.87Zm-41.84,19.87l21,37.37-28.55,13.42-21.6-36.95,29.15-13.84Zm-33.36,15.84l21.59,36.93-27.52,12.93-21.31-36.92,27.24-12.94Zm-31.46,14.94l21.31,36.91-31.33,14.73-21.98-36.43,32-15.2Zm-49.72-66.22l44.47,58.42-32.04,15.22-37.43-48.45,25-25.19Zm-28.3,28.52l36.44,47.16-22.63,10.75-32.74-38.84,18.94-19.08Zm-22.23,22.39l31.69,37.59-18.88,8.97-27.7-31.55,14.89-15.01Zm-18.18,18.31l26.62,30.32-19.99,9.49-25.42-20.89,18.78-18.92Zm-64.82-12.33h.71l66.11,54.34-61.9,29.4-49.36-34.83,44.44-48.91Zm-6.28,0l-42.76,47.06-128.89,11.39,26.5-56.37,89.54-2.08h55.61Zm-127.41-35.63l104.24-2.92-33.46,33.93-86.31,2.01,15.52-33.01Zm-9.27,8.78l-22.15,47.12-19.02-22.8,41.18-24.32Zm-45.23,26.71l20.9,25.04-16.24,34.54-10.09,5.57-32.24-42.91,37.68-22.25Zm-74.21-18.62l29.69,39.51-43.13,25.47-28.38-38.04,41.81-26.95Zm-59.61,95.16l-28.32-38.47,42.21-27.21,31.06,41.64,47.17-27.86,32.12,42.75-75.57,39.65-27.37-41.82-2.74,1.34-18.56,9.99ZM22.18-74.48l57.78-25.15,22.98-65.96,25.99,39.71,24.5-12.86,15.44,26.52-76.29,31.48,18.49,27.72-44.79,18.85,.12-1.42L22.18-74.48ZM55.17,99.3L62.38,12.77,107.56-6.2l-16.55,126.74-35.83-21.24Zm34.31,36.55l53.75,31.86-34.96,42.91,105.94,59.88-23.4,39.13-65.83-44.99-85.68-2.42,56.46-64.62-39.86-24.49,33.58-37.27ZM26.17,350.9l21.03-23.71L-22.42,260.06,52.74,176.63l35.9,22.06-59.33,67.9,94.17,2.66,26.5,18.11-95.46,93.11-28.35-29.57Zm28.23,36.17h0s53.27-51.96,53.27-51.96l15.59,21.63,32.33-22.29,13.89,10.83-74.4,124.41-11.85,8.44-49.97-70.55,21.14-20.51Zm-46.11,44.74l21.6-20.96,49.55,69.97-25.69,18.31L8.3,431.81Zm40.3,103.05l-18.8-7.23,72.27-51.5,74.81-125.09,12.94,10.09-72.18,123.11-69.03,50.62Zm105.65,39.9l-95.3-35.96,63.85-46.82,48.2,42.57-16.75,40.21Zm45.12,12.52l-40.68-11.1,16.44-39.46,39.78,11.65-15.53,38.91Zm32.94,8.99l-28.43-7.75,15.5-38.83,27.51,8.06-14.58,38.53Zm42.22,11.52l-37.72-10.29,14.55-38.44,35.93,10.52-12.76,38.22Zm14.24-42.63l-35.76-10.47,28.98-76.58,32.24,10.78-25.47,76.27Zm146.21,42.81l-141.75-41.5,73.44-219.88,28.44,13.81-44.09,132.18-.23,.7,12.46,41.36,40.93,6.43,8.63-22.11,35.8,4.27-13.63,84.75Zm14.37-89.35l-39.57-4.71-8.58,21.98-32.97-5.18,23.5-62.64,20.93,7.65,12.29-30.81,17.4,6.75,1.68-4.33-39.52-15.32-1.68,4.33,17.78,6.89-10.6,26.57-21.01-7.69-23.7,63.18-9.63-31.96,43.67-130.9,84.35,40.96-23.64,48.7-10.7,66.51Zm244.18,64.97v-35.89l-234.94-27.98,10.08-62.72,320.04,83.17-.24,1.14,188.1-30.01,41.23,19.28-324.27,53.02Zm425.85-20.91l-142.02-66.43,9.78-22.8,142.5,63.53-10.26,25.69Zm11.98-30.01l-72.22-32.2,18.49-46.08,71.11,34.75-17.38,43.54Zm4.18,2.08l18.32-45.89,28.67-70.89,44.16,24.89-46.51,116.87-44.64-24.97Zm184.98-39.02l-48.83,115.17-40.97-22.92,48.59-115.48,41.21,23.22Zm-45.29-25.52l-48.6,115.49-42.35-23.69,46.5-116.85,44.45,25.05Zm-91.87-123.21l70.59,37.62-25.38,53.95-70.15-39.53,24.94-52.04Zm-4.11-2.19l-24.89,51.94-129.98-73.25,27.67-46.5,127.2,67.8Zm-131.31-69.99l-27.62,46.4-56-31.55,33.07-41.79,50.55,26.94Zm-87.72,12.54l-187.63-105.74,1.79-4.55,90.7-74.38,15.75,26.78,7.04-4.73,141.31,75.47-68.96,87.15Zm71.72-90.95l-46.08-24.61,6.79-5.09,46.29,18.87-7.01,10.83Zm4.11,2.2l7.18-11.1,52.86,26.97-9.4,11.17-50.64-27.04Zm54.83,29.28l34.05-40.46,46.11,24.85-31.77,41.45-48.39-25.84Zm52.55,28.06l31.76-41.43,29.33,15.81-30.64,41.89-30.46-16.27Zm34.6,18.48l30.62-41.88,39.2,21.12-29.23,42.43-40.59-21.68Zm119.55,63.85l-74.83-39.97,29.22-42.42,35.25,19-27.8,41.8,3.87,2.58,28.04-42.16,32.83,17.69-26.58,43.48Zm54.12-88.53l-25.12,41.08-32.67-17.61,27.2-40.89,30.59,17.42Zm2.36-76.1l-34.44,52.49-33.9-19.3,35.18-51.68,33.15,18.49Zm9.3-89.12l-43.9,64.49-34.78-19.4,46.11-61.92,32.57,16.83Zm-4.63-137.16l-30.17,113.94-23.54-12.16,22.3-95.96,31.41-5.83Zm-24.27-9.68l-31.69,5.88-38.09-39.54,17.37-15.92,52.41,49.58Zm-41.42-65.96l-43.4,39.79-25.79-26.33-51.13,46.02,5.45-74.76,38.99-52.87,2.02-.53,40.63,37.06,33.24,31.63Zm-31.87-36.67l-36.64-33.41,83.55-21.86-46.91,55.27Zm9.05-74h72.73l-86.66,22.67-6.2-15.9,20.12-6.77Zm-18.45,23.85l-28.29,7.4,17.16-35.95,11.13,28.55Z"/></g></g><path class="cls-1" d="M1279.85,129.43c-11.73,0-21.24,9.51-21.24,21.24s21.24,39.41,21.24,39.41c0,0,21.24-27.68,21.24-39.41s-9.51-21.24-21.24-21.24Zm.28,33.32c-6.78,0-12.28-5.5-12.28-12.28s5.5-12.28,12.28-12.28,12.28,5.5,12.28,12.28-5.5,12.28-12.28,12.28Z"/></svg>