<?xml version="1.0" encoding="utf-8"?>
<!-- Generator: Adobe Illustrator 27.0.1, SVG Export Plug-In . SVG Version: 6.00 Build 0)  -->
<svg version="1.1" id="Layer_1" xmlns="http://www.w3.org/2000/svg" xmlns:xlink="http://www.w3.org/1999/xlink" x="0px" y="0px"
	 viewBox="0 0 500 462.6" style="enable-background:new 0 0 500 462.6;" xml:space="preserve">
<style type="text/css">
	.st0{fill:#1B415A;}
	.st1{fill:#E3DACE;}
</style>
<g>
	<path class="st0" d="M115,75.2c2.1,0,7.1,0.2,7.1,6.2c0,3.6-1.1,6.9-6.8,6.9h-3.8v14.2h7.1c2.8,0,7.1,0.5,7.1,6.2
		c0,4.6-1.5,7.1-7.1,7.1h-7.1V131h4.5c3.6,0,6.8,1.5,6.8,6.2c0,4.7-2,6.8-7.1,6.8h-92c-2,0-7.2,0-7.2-6.5c0-5.9,4-6.6,7.2-6.6h8.5
		v-15.2H21c-1.9,0-7.2,0-7.2-6.2c0-4.6,1.6-7.1,7.2-7.1h11.4V92.2c-2.7,2.6-7.9,7.5-11.6,7.5c-4.1,0-7.1-4.1-7.1-7.6
		c0-2.8,0.5-3.2,8-9.1c5.3-4.1,8.8-8.6,12.8-13.8c1.6-2.1,3.4-3.1,5.6-3.1c3.3,0,7.6,2.4,7.6,5.9c0,1.4-0.6,2.2-1.1,3.1H115z
		 M39.1,152.2c0,4.4-5.8,14.6-6.2,15.4c-4.4,7.5-6,9.3-9.8,9.3c-4.1,0-8.5-2.8-8.5-7.2c0-2,0.1-2.1,4.5-8.2
		c2.4-3.2,3.9-6.6,6.3-11.8c0.7-1.4,1.9-3.6,5.8-3.6C33.5,146.1,39.1,147.1,39.1,152.2z M55.1,88.3h-9.9v14.2h9.9V88.3z M55.1,115.8
		h-9.9V131h9.9V115.8z M63,152.3c0.5,3.8,0.8,11.3,0.8,16.2c0,3.9,0,8.5-7.6,8.5c-5.5,0-7.4-2.5-7.4-6.7c0-1.2,0.1-6.6,0.1-7.6
		c0-1.5-0.2-8.2-0.2-9.6c0-1.8,0.1-6.3,7.1-6.3C60.8,146.6,62.7,148.8,63,152.3z M76.6,88.3h-10v14.2h10V88.3z M76.6,115.8h-10V131
		h10V115.8z M90.2,157c1.1,3.3,3.3,10.1,3.3,13.2c0,5.4-6.6,6.1-8.7,6.1c-5.8,0-6.2-2.7-7.4-9.4c-0.5-2.5-1.6-7.4-2.7-11.1
		c-0.4-1.4-0.8-2.7-0.8-4c0-3.9,4-5.4,7.8-5.4C86.6,146.4,87.1,147.8,90.2,157z M98.3,88.3H88.2v14.2h10.1V88.3z M98.3,115.8H88.2
		V131h10.1V115.8z M116.5,152.6c5.6,8.8,8.6,13.8,8.6,16.6c0,5.4-6.5,7.2-9.1,7.2c-4,0-4.8-1.6-7.8-7.8c-1.2-2.5-4.4-8-6.1-11.3
		c-1.1-1.8-2-3.5-2-5.3c0-4.9,5.9-6.2,7.5-6.2C112.2,145.8,112.5,146.3,116.5,152.6z"/>
	<path class="st0" d="M152.1,141.9c-0.8,1.8-2.6,5.2-4.7,8.5c-4.1,6.7-6.3,7.4-8.3,7.4c-3.8,0-7.4-4-7.4-8.3c0-2.6,0.5-3.1,6.1-9.9
		c1.3-1.5,8.6-10.7,14.3-22.9h-12.5c-5.2,0-7.3-2.2-7.3-7.1c0-6.2,5.6-6.2,7.3-6.2h12.5V73.5c0-5.3,2.4-7.2,7.4-7.2
		c6.5,0,6.6,5.2,6.6,7.2v29.9h10.9c4,0,7.2,1.3,7.2,6.7c0,6.2-4.7,6.6-7.2,6.6h-10.9c2.1,4.2,8.3,12.3,10.1,14.3
		c5.5,6.2,6,6.8,6,8.9c0,3.3-3.3,6.9-6.7,6.9c-3.1,0-5.2-2.8-9.4-10.3V171c0,5.2-2.2,7.2-7.3,7.2c-6.7,0-6.7-5.4-6.7-7.2V141.9z
		 M145.2,78.2c2,5.8,4.1,13.5,4.1,15.8c0,5.2-6.7,5.3-7.4,5.3c-3.5,0-4-2-5.2-6.9c-0.7-2.9-2.7-9.4-3.4-11.5
		c-0.4-1.3-0.6-2.4-0.6-3.2c0-3.4,3.9-5.1,6.9-5.1C143,72.6,143.9,74.6,145.2,78.2z M185.8,78c0,2.5-2.2,10.6-4,15.4
		c-1.9,4.9-3.2,6.1-5.8,6.1c-2.2,0-7.1-1.3-7.1-5.4c0-0.8,0.2-1.8,2.1-7.5c0.8-2.7,1.3-3.9,2.5-9.1c0.5-1.8,1.2-4.8,4.7-4.8
		C183.9,72.7,185.8,75.6,185.8,78z M235.7,128.4c0.5-0.1,1.2-0.1,1.9-0.1c5.2,0,6,5.3,6,8.3c0,2.8-0.8,5.2-5.6,6l-5.5,0.9v27
		c0,3.5-0.9,7.3-6.9,7.3c-5.8,0-8.2-1.6-8.2-7.3v-24.1l-27.9,5.4c-5.2,1.1-7.8-2.8-7.8-7.5c0-4.8,2.5-5.9,5.3-6.5l30.3-5.9V73.3
		c0-3.4,0.9-7.2,6.9-7.2c5.8,0,8.2,1.5,8.2,7.2V129L235.7,128.4z M203.5,109c6.8,5.5,8.2,6.9,8.2,9.6c0,4-4,8-7.6,8
		c-2,0-2.4-0.2-7.8-5.1c-1.2-1.2-7.1-5.9-8.1-6.9c-1.4-1.4-1.9-2.5-1.9-4c0-4,3.3-7.5,6.9-7.5C196.2,103.1,200.2,106.3,203.5,109z
		 M208.7,80c5.2,4.5,6.1,5.5,6.1,8.5c0,3.9-3.3,7.5-7.2,7.5c-2.2,0-2.5-0.1-7.9-5.2c-1.1-1.1-6.5-5.8-7.5-6.7
		c-1.3-1.2-1.9-2.6-1.9-4.2c0-4,3.4-6.9,6.7-6.9C200.5,72.9,204.9,76.8,208.7,80z"/>
	<path class="st0" d="M287.9,100.9c-1.6,0-7.2,0-7.2-6.6c0-5.3,2.4-7.3,7.2-7.3h24.7V73.4c0-1.9,0-7.2,6.6-7.2
		c5.3,0,7.6,1.9,7.6,7.2V87h26.3c2,0,7.2,0.1,7.2,6.9c0,6-3.8,6.9-7.2,6.9h-22c8.3,18.2,18.9,29.4,19.6,30.1l7.1,7.3
		c2.1,2.1,2.9,3.5,2.9,5.9c0,5.1-4.4,8.8-7.9,8.8c-2.4,0-3.9-1.2-7.4-5.2c-3.2-3.6-12.6-15.1-18.7-28.2v25.6h11.1c2,0,6.6,0,6.6,6.5
		c0,6.3-4,6.7-6.6,6.7h-11.1v12.3c0,2.5-0.4,7.2-6.7,7.2c-5.1,0-7.5-1.6-7.5-7.2v-12.3h-11.3c-2,0-6.9,0-6.9-6.6
		c0-6.3,4.4-6.6,6.9-6.6h11.3v-26c-7.3,14.8-14,23-22.8,32c-2.4,2.4-3.4,2.9-5.2,2.9c-2.5,0-5.5-1.4-7.4-5.6v22.2
		c0,1.6,0,7.2-6.9,7.2c-6.2,0-7.5-3.3-7.5-7.2v-49.3c-2.1,2.9-3.5,4.4-6.2,4.4c-3.9,0-7.9-3.5-7.9-8.9c0-2,0.5-3.4,2.1-5.6
		c6.8-9.6,9.5-13.4,13.9-23.6c1.8-4.2,3.3-8.5,5.2-15.3c0.8-2.9,1.9-5.6,6.6-5.6c1.2,0,7.8,0.1,7.8,6.1c0,4.9-4.7,17.4-6.9,22.8
		v46.3c0.5-0.8,0.8-1.3,2.7-2.9c13.5-11.8,22.9-25.6,28.8-38.1H287.9z"/>
	<path class="st0" d="M376.8,143.6c0,2-0.2,15.4-2.1,24.2c-0.4,1.6-1.2,3.5-3.8,3.5c-2,0-4-1.2-4-3.8c0-1.5,1.5-8.2,1.8-9.6
		c0.8-4.6,1.1-6.6,1.5-13.4c0.2-2.7,0.4-5.1,3.5-5.1C376.8,139.5,376.8,142.5,376.8,143.6z M452.8,104v6.7h8.5
		c10.8,0,13.3,2.2,13.3,13.2v8.6c0,10.7-2.4,13.2-13.3,13.2h-4c4.6,8.6,9.6,13.4,17.3,18c2.1,1.2,4.1,2.5,4.1,5.8c0,3.5-2.7,8-7.1,8
		c-1.2,0-3.2,0-8.8-4.4c-9.3-7.1-13.9-15.9-15.6-19.3c-6.5,13.9-20,23.8-24.8,23.8c-4.8,0-7.2-4.8-7.2-8c0-3.4,2.4-4.7,4-5.6
		c7.4-4.2,12.9-7.6,17.5-18.2h-4c-10.7,0-13.2-2.4-13.2-13.2v-8.6c0-10.8,2.4-13.2,13.2-13.2h7.6V104h-5.2c-2.6,0-5.1-0.5-6-4.2
		c-4.9,4.4-6.2,4.9-8.1,4.9c-3.2,0-5.9-2.5-6.8-5.8c-0.7,0.6-1.4,1.1-3.8,1.1h-7.3v6.9h7.1c1.1,0,5.4,0,5.4,5.1
		c0,4.9-3.8,5.2-5.4,5.2h-7.1v7.8h2.5c10.8,0,11.2,4.7,11.2,12.2c0,1.4-0.5,22.7-3.9,32.5c-2,5.5-5.6,7.4-16.2,7.4
		c-7.5,0-8.3-0.4-9.8-1.6c-1.5-1.4-1.9-4.1-1.9-5.9c0-3.4,1.8-6,5.8-6c1.2,0,6.6,0.2,7.8,0.1c4.9-0.5,5.8-5.6,6.1-7.5
		c0.8-5.4,1.4-14.8,1.4-16.5c0-2.4-0.5-3.3-3.4-3.3H384c-10.2,0-12.6-2.2-12.6-13.2V83.4c0-10.7,2.2-13.2,12.6-13.2h28.9
		c1.8,0,5.9,0,5.9,6.1s-3.9,6.2-5.9,6.2h-9.8v7.3h7.3c2.2,0,3.8,0.6,4.8,2.6c1.1-1.1,6.6-5.1,7.6-5.9c5.9-4.8,9.4-9.4,14.2-15.8
		c1.8-2.4,3.9-4.6,9.3-4.6c5.9,0,7.8,2.4,9.6,4.8c8.2,10.6,10.6,12.6,18.9,18.8c2.5,1.9,3.9,3.2,3.9,6.2c0,4.4-3.2,8.2-6.7,8.2
		c-2,0-3.6-0.8-8.2-4.9c-0.9,4.2-3.6,4.6-6.2,4.6H452.8z M385.5,142.5c0.2,1.2,0.5,4.6,0.5,14c0,4.9,0,7.5-3.3,7.5
		c-2.1,0-3.1-1.1-3.1-3.1c0-1.8,0.5-10.7,0.5-12.8c0-0.9-0.2-5.2-0.1-6.1c0.4-2,2.2-2.2,2.5-2.2
		C384.8,139.8,385.3,141.1,385.5,142.5z M383.1,89.9h9.1v-7.3h-6.3c-2.1,0-2.7,1.4-2.7,2.8V89.9z M392.1,100h-9.1v6.9h9.1V100z
		 M383.1,117.1v4.9c0,1.5,0.6,2.8,2.7,2.8h6.3v-7.8H383.1z M393.9,143.8c0.8,4.8,1.4,11.5,1.4,13.6c0,0.6,0,2.8-2.8,2.8
		c-2.6,0-2.7-1.4-2.9-6.7c-0.1-2-0.2-5.1-0.6-7.2c-0.5-3.1-0.5-3.4-0.5-3.9c0-2.7,1.9-2.7,2.2-2.7
		C392.9,139.8,393.3,140.3,393.9,143.8z M402.2,144.3c0.4,1.6,1.4,7.5,1.4,10.7c0,0.9,0,2.7-2.6,2.7c-2.1,0-2.1-0.7-2.7-6.2
		c-0.1-1.6-1.6-9.5-1.6-10.2c0-0.9,0.8-1.9,2.5-1.9C401.3,139.4,401.5,140.3,402.2,144.3z M440.3,122.4h-7.2c-2,0-2.8,1.2-2.8,2.8
		v5.6c0,1.8,0.9,2.8,2.8,2.8h6.7c0.5-3.5,0.5-5.6,0.5-8.3V122.4z M456.6,92.1c-3.4-3.8-6.2-7.6-7.8-10c-1.1-1.5-1.3-2.1-2.1-2.1
		c-0.6,0-0.8,0.5-1.6,1.8c-2.6,4.1-6.5,8.3-8.2,10.3H456.6z M452.8,124.3c0,3.6-0.1,6.9-0.5,9.4h7.8c1.4,0,2.7-0.6,2.7-2.8v-5.6
		c0-1.8-0.9-2.8-2.7-2.8h-7.3V124.3z"/>
	<path class="st1" d="M40.7,208.7c1.6,0,4.2,0.2,4.2,4.2c0,3.6-1.8,4.3-4.2,4.3H17.4c-1.1,0-4.2,0-4.2-4.1c0-3.7,1.7-4.5,4.2-4.5
		H40.7z M38,197.1c1.3,0,4.3,0,4.3,4.1c0,4-2.6,4.2-4.3,4.2H19.6c-1.2,0-4.2,0-4.2-4.1c0-4,2.7-4.1,4.2-4.1H38z M37.8,220.5
		c1.2,0,4.2,0,4.2,4.1c0,4-2.5,4.2-4.2,4.2H19.6c-1.2,0-4.2,0-4.2-4.1c0-4.1,2.8-4.2,4.2-4.2H37.8z M37.8,232.2c1.1,0,4.2,0,4.2,4.1
		c0,4.1-2.9,4.1-4.5,4.1h-18c-1.2,0-4.2,0-4.2-4.1c0-4,2.6-4.2,4.2-4.2H37.8z M41.9,259.8c0,6.7-1.4,8.3-8.3,8.3H24
		c-6.8,0-8.3-1.5-8.3-8.3V252c0-6.8,1.5-8.3,8.4-8.3h9.5c6.8,0,8.4,1.4,8.4,8.3V259.8z M33.5,253.2c0-1.1-0.6-1.9-1.9-1.9H27
		c-1.1,0-1.9,0.6-1.9,1.9v5.2c0,1.3,0.7,1.9,1.9,1.9h4.6c1.4,0,1.9-0.8,1.9-1.9V253.2z M68.9,210.2c1.4-2.8,2.5-4.6,4.9-10.4
		c1.5-3.7,2.1-4.9,5-4.9c2.8,0,5.9,1.5,5.9,4.2c0,2.2-2.8,6.8-5.6,11.5c5.2,1,6.7,3.6,6.7,8.8v11.3c0,7-3,9.1-9.2,9.1h-1.3v17.4
		c0,1.5,0.4,2.2,2.4,2.2c2.2,0,3.4-0.4,3.7-3.7c0.6-4.9,0.7-6.4,3.7-6.4c3.7,0,3.7,2.6,3.7,4.5c0,0.3-0.2,8-1.5,11.1
		c-1.7,3.9-4.1,3.9-9.7,3.9c-8.8,0-11.4-0.2-11.4-9v-20.1h-4.8c-0.3,15.8-4.9,22.2-9,26.2c-3.3,3.3-4.5,3.3-5.5,3.3
		c-2.5,0-4.9-2.2-4.9-4.9c0-1.4,0.5-2.1,1.7-3.3c7.6-6.8,8.1-9.6,8.9-21.5c-6.4-0.6-7.2-5.2-7.2-9.1v-11.3c0-4.5,1-8.8,7.8-9.2
		c-1-0.6-1.1-1-2.4-3.4c-0.5-1-3-5.1-3.5-6c-0.3-0.7-0.5-1.2-0.5-1.8c0-2.7,3.1-4.1,5-4.1c1.7,0,2.6,0.2,5.9,5.1
		c1,1.7,2.9,4.8,2.9,6.3c0,1.9-1.2,3.2-3.1,3.9H68.9z M57.8,219c-1.8,0-2.7,1-2.7,2.7v6.6c0,1.8,0.9,2.7,2.7,2.7h15.7
		c1.8,0,2.7-1,2.7-2.7v-6.6c0-1.8-1-2.7-2.7-2.7H57.8z"/>
	<path class="st1" d="M123.9,249.3c0,7.1-3,9.1-9.1,9.1h-10.3c-6,0-9.2-2-9.2-9.1v-42.2c0-7.2,3.1-9.2,9.2-9.2h10.3
		c6.4,0,9.1,2.4,9.1,9.2V249.3z M115.2,223.5v-14.2c0-1.4-0.6-2.3-2.3-2.3h-6.1c-1.9,0-2.3,1.2-2.3,2.3v14.2H115.2z M115.2,231.9
		h-10.7v15.2c0,1.5,0.7,2.3,2.3,2.3h6.1c1.7,0,2.3-0.8,2.3-2.3V231.9z M138.4,244.4c-1,7.5-4.1,14.4-9.3,19.8
		c-0.6,0.6-5.6,5.7-9.1,5.7c-2.9,0-5.2-2.9-5.2-5.4c0-2,1-3.1,2.9-4.2c8.8-5.2,12.2-14.5,12.2-24.7V206c0-7.2,3.2-9.1,9.2-9.1h17.6
		c6,0,9.2,2,9.2,9.1v53.5c0,1.8,0,6.7-4.1,8.4c-2.1,0.9-6.4,0.9-9.7,0.9c-6,0-6.4-0.2-7-0.4c-2.2-1-2.6-3.3-2.6-4.9
		c0-2,0.4-5.1,4.7-5.1c1.1,0,6.1,0.2,7.1,0.1c2.1-0.2,2.1-2.1,2.1-3.4v-10.7H138.4z M139.3,216h17.2v-7.5c0-1.8-0.9-2.7-2.7-2.7H142
		c-1.8,0-2.7,0.9-2.7,2.7V216z M156.5,224.7h-17.2v11h17.2V224.7z"/>
	<path class="st1" d="M193.8,224.7c-2.9,0-4.5-1-4.8-4c-3.1,1.8-8.9,5.2-11.7,5.2c-2.5,0-4.9-2.6-4.9-6c0-3,1.9-4,4.3-4.9
		c12-4.5,19-11.2,24.9-16.9c3.2-3.1,4.5-4.3,8.6-4.3s5.2,1.1,9.8,5.6c4.4,4.4,10.9,10.6,24,15.9c2.4,1,4,1.8,4,4.7
		c0,3.2-2.3,5.9-5.1,5.9c-2.5,0-8.3-3.3-11.2-5.1c-0.4,3.4-2.7,3.8-4.9,3.8H193.8z M204.7,241.4c-1.9,4.6-3.7,8.4-7.9,15.8
		c11.3-0.4,13.2-0.6,29.8-1.5c-1.2-1.5-1.6-1.9-4.7-5.3c-1.8-1.9-2.1-2.9-2.1-3.9c0-2.4,2.9-4.5,5.5-4.5c1.4,0,2.5,0.6,4.1,2.1
		c3.2,3.1,6.8,7.1,10.6,11.9c3.8,4.8,4.7,6.3,4.7,8c0,2.8-3.4,5.2-6.2,5.2c-1.8,0-2.7-1-3.2-1.8c-0.3-0.5-2-3-2.4-3.6
		c-8.3,1-16.9,1.6-25.3,2.1c-4,0.3-24.5,1.5-27.7,1.5c-1.3,0-4.9,0-4.9-5.1c0-0.7,0-4.3,3.6-4.6c0.7-0.1,6.3-0.2,7.5-0.2
		c2.9-5.2,5.7-10.5,7.6-16.1h-14.7c-3.3,0-4.9-1.5-4.9-5c0-4.5,3.7-4.5,4.9-4.5h62.2c3.3,0,4.9,1.4,4.9,4.9c0,4.5-3.7,4.5-4.9,4.5
		H204.7z M224.2,215.9c-2.5-1.8-7.2-5.4-11.7-10.5c-1.2-1.3-1.5-1.6-2.2-1.6s-1,0.3-2.2,1.6c-3.6,3.9-7.5,7.4-11.7,10.5H224.2z"/>
	<path class="st1" d="M305.8,230.6c1.9,0,8.4,0,8.4,6.4c0,7.2-12.1,16-13.9,17.3c7.2,2.8,10.8,3.3,21.7,4.5c2.4,0.3,4.4,1.4,4.4,4.6
		c0,0.5,0,5.8-5,5.8c-2.4,0-8.4-0.7-15.2-2.5c-8.4-2.1-13.8-4.9-16.4-6.2c-12.4,6-28.6,8.6-31.7,8.6c-5.1,0-5.1-5.1-5.1-5.6
		c0-4.5,3.3-4.7,6.4-4.9c5.2-0.3,13.3-2,20.1-4.5c-2.6-1.9-5.5-4.2-8.4-7.3c-1.4-1.5-1.6-2.5-1.6-3.4c0-2.1,1.6-3.7,3.7-4.4h-4.8
		c-1.7,0-4.2-0.2-4.2-4.3c0-4.1,3-4.1,4.2-4.1H305.8z M264.8,216.5c-0.2-0.6-1.7-3.7-2-4.4c-1.3-2.5-1.4-2.7-1.4-3.4
		c0-0.5,0.1-0.8,0.2-1.1c-4-0.1-6.8-0.1-6.8-4.5c0-4.2,3.2-4.2,4.9-4.2c12.3,0,26.4,0,46-2.2c1.8-0.2,10.3-1.8,12.2-1.8
		c2.9,0,4.2,2.5,4.2,4.9c0,3.3-1.6,3.7-7.2,4.7c0.8,0.3,2.7,1.1,2.7,3.3c0,2.2-4.4,8.7-4.5,8.8h3.6c8.1,0,8.4,6,8.4,9.2v7.3
		c0,3.7-1.6,4.9-5.2,4.9c-4.5,0-4.6-3.3-4.6-4.9v-5.3c0-1.8-0.9-2.7-2.7-2.7h-45.8c-1.9,0-2.7,1-2.7,2.7v5.4c0,3.7-1.7,4.9-5.2,4.9
		c-4.4,0-4.6-3.3-4.6-4.9v-7.3c0-3.1,0.2-9.2,8.4-9.2H264.8z M286,216.5c-0.3-0.5-1.4-3.1-1.7-3.7c-1.4-2.6-2.3-4.2-2-5.6
		c-2.8,0.2-3.7,0.2-11.6,0.3c1.1,1.4,2,3,2.8,4.7c0.7,1.4,1.5,2.9,1.2,4.3H286z M276.6,239.1c1.1,0.4,1.8,0.8,3.7,2.4
		c3.3,2.8,6.5,5.5,10,7.9c6.2-3.6,10.8-8.1,10.8-9.3c0-1-0.9-1-3-1H276.6z M301.7,216.5c1.6-2.3,3.1-5.3,3.8-6.8
		c0.4-0.8,1.9-3.9,2.2-4.3c-7.3,0.7-9.6,1-16.1,1.4c1.5,2.5,3.7,6.3,3.7,8.4c0,0.7-0.2,1-0.6,1.4H301.7z"/>
	<path class="st1" d="M352,265.1c0,1.4-0.1,4.9-4.7,4.9c-4.1,0-5.3-1.5-5.3-4.9v-35c-2.9,3.8-4,4.9-5.9,4.9c-2.8,0-5.2-2.7-5.2-6
		c0-2.1,0.5-2.6,4.3-7.6c4.2-5.5,8.4-11.9,11.7-22.5c0.7-2.5,1.4-4.1,4.6-4.1c0.6,0,5.2,0,5.2,4.1c0,2.9-3.3,10.7-4.7,14V265.1z
		 M397.1,260.2c0,9.2-4.6,9.2-15.1,9.2c-7.3,0-8-0.2-9.3-1c-1.5-1.1-1.9-3.2-1.9-4.4c0-4.9,4.5-4.9,6.2-4.9c1,0,5.5,0.2,6.4,0.2
		c2.8,0,3.5-0.6,3.5-3.2v-36.4h-27.4c-1.8,0-4.9-0.2-4.9-4.5c0-3.4,1-5.2,4.9-5.2h27.4v-10.7c0-2.3,0.6-4.9,4.6-4.9
		c3.8,0,5.6,1.1,5.6,4.9V210h5c2,0,4.9,0.4,4.9,4.5c0,3.4-1,5.2-4.9,5.2h-5V260.2z M372.7,249.8c-2.3,0-3.1-1.4-5.6-5.6
		c-2.3-3.9-3.6-5.6-6.4-9.5c-1.5-2.1-1.6-3-1.6-3.7c0-2.9,2.7-4.9,5.3-4.9c1.8,0,2.6,0,8.8,8.7c1.6,2.3,5.3,7.6,5.3,9.6
		C378.6,248,375.2,249.8,372.7,249.8z"/>
	<path class="st1" d="M453.9,265.1c0,1.3,0,4.8-5.1,4.8c-4.6,0-5.2-2.8-5.2-4.8V248h-18.8c-7,0-10.7-2.3-10.7-10.7v-19.6
		c0-8.3,3.6-10.7,10.7-10.7h18.8v-7.9c0-1.4,0.2-4.7,4.9-4.7c3.9,0,5.4,1.4,5.4,4.7v7.9h19c7.2,0,10.7,2.5,10.7,10.7v19.6
		c0,8.1-3.3,10.7-10.7,10.7h-19V265.1z M443.6,216.6h-15.8c-2.4,0-3.5,1.2-3.5,3.5V235c0,2.2,1,3.5,3.5,3.5h15.8V216.6z
		 M453.9,238.5h16.1c2.6,0,3.4-1.5,3.4-3.5v-14.9c0-2.4-1.1-3.5-3.4-3.5h-16.1V238.5z"/>
</g>
<g>
	<g>
		<g>
			<path class="st1" d="M21.1,386.4c0-2,0.9-2.6,2.6-2.6c-0.1-0.3-0.2-0.5-0.4-1c-0.3-0.6-0.3-0.6-0.3-0.9c-0.8,0-0.9,0-1.1-0.1
				c-0.5-0.2-0.7-0.9-0.7-1.4c0-1.4,1-1.4,1.6-1.4c3.5,0,7.2,0,12.6-0.6c0.5,0,2.8-0.4,3.3-0.4c1,0,1.4,0.8,1.4,1.7
				c0,1.1-0.7,1.2-1.8,1.4c0.2,0.1,0.4,0.3,0.4,0.8c0,0.7-0.9,1.9-1,1.9h0.6c2.4,0,2.4,2,2.4,2.6v1.9c0,1.2-0.5,1.6-1.7,1.6
				c-0.2,0-0.5,0-0.9-0.2c0,0.8-0.3,1.4-0.5,1.7c-0.7,1-1.8,2-3,2.9c1.4,0.4,1.9,0.5,5.1,0.8c0.9,0.1,1.4,0.7,1.4,1.5
				c0,0.2,0,1.9-1.6,1.9c-0.8,0-2.5-0.2-4.2-0.6c-2.1-0.5-3.5-1.1-4.2-1.5c-2.2,1-6.7,2.1-8.3,2.1c-1.7,0-1.7-1.7-1.7-1.8
				c0-1.5,1.1-1.6,2.2-1.6c1.4-0.1,3.1-0.5,4.1-0.8c-1.4-1-2-1.7-2-2.4c0-0.8,0.7-1.2,0.8-1.3H25c-0.5,0-1.1,0-1.3-0.9
				c-0.3,0.2-0.8,0.2-1.2,0.2c-1.4,0-1.5-1-1.5-1.6V386.4z M37.5,387.1c0-0.4-0.2-0.6-0.6-0.6H24.9c-0.4,0-0.6,0.2-0.6,0.6v0.7
				c0.1,0,0.3-0.1,0.7-0.1h10.5c1.1,0,1.6,0.3,1.9,0.6V387.1z M29.4,383.7c-0.1-0.3-0.7-1.7-0.7-2c-0.5,0-0.6,0-0.7,0
				c-0.2,0-1.6,0-1.7,0c0.1,0.3,0.7,1.3,0.8,1.9H29.4z M27.8,390.5c0.2,0.1,0.3,0.2,0.9,0.7c1,0.8,1.6,1.1,2.3,1.6
				c1.2-0.6,2.6-1.6,2.6-2c0-0.3-0.2-0.3-0.8-0.3H27.8z M34,383.7c0.1-0.2,0.4-0.5,0.7-1.2c0.1-0.2,0.5-1,0.5-1.2
				c-1.1,0.1-1.3,0.1-3.2,0.2c0.3,0.7,0.7,1.6,0.7,2.2H34z"/>
			<path class="st1" d="M51.1,397.1c0,0.5-0.1,1.6-1.5,1.6c-1.3,0-1.8-0.5-1.8-1.6v-8.7c-0.3,0.4-0.7,0.9-1.3,0.9
				c-0.9,0-1.7-0.8-1.7-2c0-0.7,0-0.7,1.6-2.8c1.5-2.1,2.1-3.7,2.6-5.3c0.2-0.7,0.5-1.2,1.5-1.2c0.2,0,1.8,0,1.8,1.3
				c0,0.8-0.5,2.1-1,3.3V397.1z M63.3,395.9c0,2.7-1.4,2.7-4.4,2.7c-0.8,0-1.9,0-2.3-0.1c-1.1-0.3-1.1-1.5-1.1-1.7
				c0-1.4,1.2-1.6,2-1.6c0.3,0,1.4,0,1.7,0c0.8,0,0.8-0.2,0.8-0.8v-9.3h-6.8c-0.7,0-1.6-0.1-1.6-1.5c0-1.2,0.4-1.8,1.6-1.8h6.8v-2.5
				c0-0.8,0.2-1.6,1.5-1.6c0.3,0,1.1,0.1,1.3,0.3c0.5,0.4,0.5,1.1,0.5,1.3v2.5h0.9c0.7,0,1.6,0.2,1.6,1.5c0,1.2-0.3,1.7-1.6,1.7
				h-0.9V395.9z M56.3,393.4c-0.7,0-0.8-0.2-2.1-2.2c-0.2-0.3-1-1.5-1.3-1.9c-0.4-0.5-0.4-0.8-0.4-1c0-1.2,1.2-1.6,1.7-1.6
				c0.6,0,0.9,0.1,2.5,2.4c1.5,2.1,1.5,2.5,1.4,2.8C58,393,56.9,393.4,56.3,393.4"/>
			<path class="st1" d="M82,384.2v-1.4h-2.7c-0.3,0-1.5,0-1.5-1.4c0-1.1,0.5-1.5,1.5-1.5H82v-0.6c0-1,0.6-1.4,1.5-1.4
				c1,0,1.8,0.2,1.8,1.4v0.6h2.9c0.4,0,1.5,0,1.5,1.4c0,1.4-1,1.5-1.5,1.5h-2.9v1.4h3.5c0.5,0,1.5,0,1.5,1.4c0,1-0.3,1.7-1.4,1.7H88
				v1.3h0.7c1,0,1.3,0.7,1.3,1.5c0,0.8-0.2,1.6-1.3,1.6H88v3.9c0,2.6-0.6,3-3.8,3c-1.7,0-2.2-0.2-2.5-0.7c-0.2-0.3-0.3-0.8-0.3-1.4
				c-0.1,0-0.2,0.1-0.4,0.1c-0.8,0-1-0.4-1.5-1.3c-0.2-0.3-0.4-0.7-0.8-1.4c-0.1-0.2-0.3-0.5-0.3-0.8c0-0.7,0.5-1.1,1.1-1.3h-0.5
				c-0.5,0-1.5,0-1.5-1.5c0-1.1,0.3-1.7,1.5-1.7h5.8v-1.3h-6c-0.5,0-1.3-0.1-1.4-1.1v8.7c0,2.2-0.4,2.7-2.7,2.7h-1.8
				c-2.2,0-2.7-0.4-2.7-2.7v-13.4c0-2.3,0.4-2.7,2.7-2.7h1.8c2.2,0,2.7,0.4,2.7,2.7v3.8c0.1-1,0.8-1.1,1.4-1.1H82z M74.5,386.8v-4.6
				c0-0.3-0.2-0.4-0.4-0.4h-0.7c-0.2,0-0.4,0.1-0.4,0.4v4.6H74.5z M74.5,389.5H73v4.7c0,0.3,0.1,0.4,0.4,0.4h0.7
				c0.3,0,0.4-0.1,0.4-0.4V389.5z M80.9,391.7c0.3,0.1,0.6,0.5,0.8,0.9c0.4,0.5,1.2,1.6,1.2,2.3c0,0.2,0,0.3-0.1,0.4
				c0.2,0,0.9,0,1.1,0c0.6,0,0.8-0.2,0.8-0.9v-2.7H80.9z"/>
			<path class="st1" d="M97.7,397.2c0,0.4,0,1.4-1.4,1.4c-1.2,0-1.6-0.4-1.6-1.4v-16.1c0-2,0.9-2.6,2.6-2.6h3.9
				c1.7,0,2.6,0.6,2.6,2.6v3.4c0,2-0.9,2.6-2.6,2.6h-3.5V397.2z M100.9,381.8v-0.5c0-0.3-0.1-0.4-0.4-0.4h-2.4
				c-0.3,0-0.4,0.2-0.4,0.4v0.5H100.9z M97.7,383.9v1h2.8c0.3,0,0.4-0.2,0.4-0.4v-0.6H97.7z M101.7,396.5c-1.6,0-2.6-0.5-2.6-2.6
				v-3.5c0-2,1-2.6,2.6-2.6h5.3c1.6,0,2.6,0.5,2.6,2.6v3.5c0,0.5,0,0.9-0.2,1.3c0.2,0,1.2,0,1.3,0c0.3,0,0.4-0.3,0.4-0.6v-7.4h-3.6
				c-1.6,0-2.6-0.5-2.6-2.6v-3.4c0-2,1-2.6,2.6-2.6h4c1.7,0,2.6,0.6,2.6,2.6v14.4c0,2.3-0.4,3-3.5,3c-0.7,0-2.2,0-2.7-0.3
				c-0.6-0.3-0.8-1-0.8-1.7H101.7z M102.1,391.1h4.5v-0.6c0-0.3-0.2-0.4-0.4-0.4h-3.7c-0.3,0-0.4,0.2-0.4,0.4V391.1z M102.1,393v0.7
				c0,0.2,0.1,0.4,0.4,0.4h3.7c0.3,0,0.4-0.1,0.4-0.4V393H102.1z M107.9,381.8h3.1v-0.5c0-0.3-0.2-0.4-0.4-0.4h-2.3
				c-0.3,0-0.4,0.2-0.4,0.4V381.8z M111,383.9h-3.1v0.6c0,0.3,0.1,0.4,0.4,0.4h2.7V383.9z"/>
			<path class="st1" d="M129.1,385.3c-0.7,0-1.3-0.5-1.3-1.5c0-1.2,0.8-1.3,1.8-1.5c0.5-0.1,2.1-0.3,2.9-2.4
				c0.3-0.8,0.5-1.4,1.7-1.4c1.1,0,1.6,0.7,1.6,1.2v16.9c0,0.8-0.2,1.8-1.9,1.8c-1.1,0-2-0.3-2-1.8v-11.3H129.1z"/>
			<path class="st1" d="M151.7,388.5c0,3.5-0.7,10-6.6,10c-5.9,0-6.6-6.5-6.6-10c0-1.5,0.2-5.3,1.9-7.7c1.3-1.8,3.6-2.2,4.7-2.2
				C151,378.5,151.7,384.9,151.7,388.5 M142.5,388.5c0,1.5,0,6.7,2.6,6.7c2.6,0,2.6-5.2,2.6-6.7c0-1.5,0-6.7-2.6-6.7
				C142.5,381.8,142.5,387,142.5,388.5"/>
			<path class="st1" d="M159.1,383.3c0,1.3-1,2.3-2.2,2.3c-1.3,0-2.3-1-2.3-2.3c0-1.2,1-2.2,2.3-2.2
				C158.1,381,159.1,382,159.1,383.3 M159.1,393.7c0,1.3-1,2.3-2.2,2.3c-1.3,0-2.3-1-2.3-2.3c0-1.3,1-2.2,2.3-2.2
				C158.1,391.5,159.1,392.5,159.1,393.7"/>
			<path class="st1" d="M173.7,388.5c0,3.5-0.7,10-6.6,10c-5.9,0-6.6-6.5-6.6-10c0-1.5,0.2-5.3,1.9-7.7c1.3-1.8,3.6-2.2,4.7-2.2
				C173,378.5,173.7,384.9,173.7,388.5 M164.5,388.5c0,1.5,0,6.7,2.6,6.7c2.6,0,2.6-5.2,2.6-6.7c0-1.5,0-6.7-2.6-6.7
				C164.5,381.8,164.5,387,164.5,388.5"/>
			<path class="st1" d="M189.8,388.5c0,3.5-0.7,10-6.6,10c-5.9,0-6.6-6.5-6.6-10c0-1.5,0.2-5.3,1.9-7.7c1.3-1.8,3.6-2.2,4.7-2.2
				C189,378.5,189.8,384.9,189.8,388.5 M180.5,388.5c0,1.5,0,6.7,2.6,6.7c2.6,0,2.6-5.2,2.6-6.7c0-1.5,0-6.7-2.6-6.7
				C180.5,381.8,180.5,387,180.5,388.5"/>
			<path class="st1" d="M201.3,386.7c1.2,0,1.8,0.6,1.8,1.8c0,0.9-0.3,1.9-1.8,1.9h-6.6c-1.3,0-1.8-0.6-1.8-1.8c0-1,0.3-1.9,1.8-1.9
				H201.3z"/>
			<path class="st1" d="M242.6,383.3c0,1.3-1,2.3-2.2,2.3c-1.3,0-2.3-1-2.3-2.3c0-1.2,1-2.2,2.3-2.2
				C241.6,381,242.6,382,242.6,383.3 M242.6,393.7c0,1.3-1,2.3-2.2,2.3c-1.3,0-2.3-1-2.3-2.3c0-1.3,1-2.2,2.3-2.2
				C241.6,391.5,242.6,392.5,242.6,393.7"/>
			<path class="st1" d="M258.7,388.5c0,3.5-0.7,10-6.6,10c-5.9,0-6.6-6.5-6.6-10c0-1.5,0.2-5.3,1.9-7.7c1.3-1.8,3.6-2.2,4.7-2.2
				C257.9,378.5,258.7,384.9,258.7,388.5 M249.4,388.5c0,1.5,0,6.7,2.6,6.7c2.6,0,2.6-5.2,2.6-6.7c0-1.5,0-6.7-2.6-6.7
				C249.4,381.8,249.4,387,249.4,388.5"/>
			<path class="st1" d="M274.7,388.5c0,3.5-0.7,10-6.6,10c-5.9,0-6.6-6.5-6.6-10c0-1.5,0.2-5.3,1.9-7.7c1.3-1.8,3.6-2.2,4.7-2.2
				C273.9,378.5,274.7,384.9,274.7,388.5 M265.5,388.5c0,1.5,0,6.7,2.6,6.7c2.6,0,2.6-5.2,2.6-6.7c0-1.5,0-6.7-2.6-6.7
				C265.5,381.8,265.5,387,265.5,388.5"/>
			<path class="st1" d="M208.7,398.5c-2,0-2.1-1.7-2.1-2c0-2.5,3.3-5.1,4.9-6.2c3.2-2.3,4.3-3.1,4.3-5.3c0-1.8-0.9-2.9-2.5-2.9
				c-2.4,0-2.5,2.2-2.6,2.7c0,0.7-0.2,1.8-1.9,1.8c-0.4,0-2-0.1-2-1.9c0-1.6,1.2-5.9,6.5-5.9c3.9,0,6.5,2.6,6.5,6.4
				c0,3.5-1.9,4.9-5.1,7.2c-0.3,0.2-2.7,1.9-2.7,2.5c0,0.3,0.4,0.3,0.6,0.3h5.4c0.4,0,1.8,0,1.8,1.7c0,1.7-1.4,1.7-1.8,1.7H208.7z"
				/>
			<path class="st1" d="M234.6,388.6c0,3.5-0.7,9.9-6.5,9.9c-5.8,0-6.5-6.4-6.5-9.9c0-1.5,0.2-5.3,1.9-7.7c1.3-1.8,3.6-2.2,4.7-2.2
				C233.8,378.7,234.6,385,234.6,388.6 M225.4,388.6c0,1.5,0,6.7,2.6,6.7c2.6,0,2.6-5.1,2.6-6.7c0-1.5,0-6.6-2.6-6.6
				C225.4,381.9,225.4,387.1,225.4,388.6"/>
			<g>
				<path class="st1" d="M422.9,373.7c-0.1-0.3-0.7-1.8-0.8-2.1c-0.6,0-0.6,0-0.7,0c-0.3,0-1.7,0-1.8,0c0.1,0.3,0.7,1.4,0.8,2.1
					H422.9z"/>
				<path class="st1" d="M431.5,378.6v-1.3c0-0.5-0.3-0.6-0.6-0.6h-12.7c-0.4,0-0.6,0.2-0.6,0.6v0.8c0.1,0,0.3-0.1,0.8-0.1h11.2
					C430.6,378,431.1,378.3,431.5,378.6z"/>
				<path class="st1" d="M426.5,381h-5.3c0.3,0.1,0.3,0.2,1,0.7c1,0.8,1.7,1.2,2.4,1.7c1.2-0.6,2.7-1.7,2.7-2.1
					C427.3,381,427.1,381,426.5,381z"/>
				<path class="st1" d="M427.8,373.7c0.1-0.2,0.4-0.6,0.8-1.3c0.1-0.2,0.5-1,0.6-1.2c-1.2,0.1-1.4,0.1-3.4,0.2
					c0.3,0.7,0.7,1.7,0.7,2.3H427.8z"/>
				<path class="st1" d="M382.7,371.9h-9c-0.6,0-0.8,0.4-0.8,0.8v4.1h10.6v-4.1C383.5,372.1,383.1,371.9,382.7,371.9z"/>
				<path class="st1" d="M361.9,372c0-0.4-0.2-0.6-0.6-0.6h-4.4c-0.4,0-0.6,0.2-0.6,0.6v3.1c0,0.4,0.2,0.6,0.6,0.6h4.4
					c0.4,0,0.6-0.2,0.6-0.6V372z"/>
				<path class="st1" d="M372.9,384.6c0,0.4,0.2,0.8,0.8,0.8h9c0.5,0,0.8-0.3,0.8-0.8v-4.5h-10.6V384.6z"/>
				<path class="st1" d="M476.6,374.4h-4.1v5.7h4.1c0.6,0,0.8-0.3,0.8-0.8v-4.1C477.4,374.7,477.2,374.4,476.6,374.4z"/>
				<path class="st1" d="M464.2,375.2v4.1c0,0.5,0.3,0.8,0.8,0.8h4v-5.7h-4C464.5,374.4,464.2,374.6,464.2,375.2z"/>
				<path class="st1" d="M282.3,357.8v41.4h206.3v-41.4H282.3z M308.7,388.9h-18.5c-0.5,0-1.7,0-1.7-1.7c0-1.5,0.9-1.8,1.7-1.8h7.5
					v-8.6h-6.3c-0.5,0-1.7,0-1.7-1.7c0-1.6,0.9-1.8,1.7-1.8h6.3V369c0-1.1,0.7-1.5,1.7-1.5c1.1,0,2,0.3,2,1.5v4.4h6.4
					c0.5,0,1.7,0,1.7,1.7c0,1.5-0.9,1.8-1.7,1.8h-6.4v8.6h7.4c0.6,0,1.7,0,1.7,1.7C310.4,388.6,309.5,388.9,308.7,388.9z
					 M331.6,385.7c0,2.5-1.1,3.2-3.2,3.2h-11.6c-2.1,0-3.2-0.7-3.2-3.2v-14.1c0-2.5,1.1-3.1,3.2-3.1h11.6c2,0,3.2,0.7,3.2,3.1V385.7
					z M338,381.7c-1.7,0-3.1-1.4-3.1-3.2c0-1.8,1.4-3.1,3.1-3.1c1.7,0,3.1,1.4,3.1,3.1C341.2,380.3,339.8,381.7,338,381.7z
					 M350.2,387.9c0,1.2-0.5,1.7-1.9,1.7c-1.6,0-1.6-1.2-1.6-1.7v-5.8c-0.3,0.3-0.7,0.5-1.2,0.5c-1,0-1.8-1-1.8-2
					c0-0.9,0.5-1.3,1.7-2.4c1.9-1.6,3.1-3.7,3.1-3.9c0-0.3-0.3-0.3-0.4-0.3h-2.5c-1.1,0-1.7-0.4-1.7-1.7c0-1.6,1.3-1.6,1.7-1.6h1.1
					v-1.5c0-1.3,0.6-1.7,1.9-1.7c1.6,0,1.6,1.2,1.6,1.7v1.5h0.4c0.2,0,0.4,0,0.8,0.2c0.9,0.4,1,1.4,1,1.9c0,1.2-0.5,2.5-1.5,4.4
					c0.2,0.3,0.4,0.6,1.2,1.4c1,1,1.2,1.3,1.2,1.8c0,0.8-0.8,1.6-1.6,1.6c-0.6,0-0.9-0.4-1.4-1.3V387.9z M365.4,388.5
					c-0.5,0.9-1.5,0.9-3.1,0.9c-3,0-3.5-0.3-3.5-2.9v-7.6h-1.1c-0.1,4.2-1.2,6.6-2.2,8.1c-0.4,0.7-1.7,2.4-2.9,2.4
					c-0.9,0-1.8-0.9-1.8-1.8c0-0.6,0.1-0.7,1.9-2.5c1.6-1.6,1.9-3.9,2-6.3c-1.6-0.3-1.8-1.6-1.8-2.8v-5.1c0-2.2,1-2.8,2.8-2.8h6.9
					c1.8,0,2.8,0.6,2.8,2.8v5.1c0,2.2-1,2.8-2.8,2.8h-0.7v6.1c0,0.8,0.2,0.9,0.6,0.9c0.3,0,0.6,0,0.7-1.4c0.1-1.4,0.1-2.2,1.4-2.2
					c1.4,0,1.5,0.9,1.5,1.8C366,385.1,365.9,387.7,365.4,388.5z M387.2,385.7c0,2.5-1.1,3.2-3.2,3.2h-11.6c-2.1,0-3.2-0.7-3.2-3.2
					v-14.1c0-2.5,1.1-3.1,3.2-3.1H384c2,0,3.2,0.7,3.2,3.1V385.7z M403,388.8c-5.1,0-7.8-1.7-7.8-6.6c0-0.3,0-0.6,0.1-1.7
					c-0.9,0-2.2,0-2.7-0.1c-0.3,0-1.4-0.2-1.4-1.6c0-1.4,1-1.7,1.8-1.7c0.4,0,2.2,0,2.6,0l0.2-2.5c-0.7,0-2.7,0-3.2-0.1
					c-0.6-0.1-1-0.7-1-1.6c0-1.6,1.3-1.7,1.9-1.7c0,0,2.5,0,2.6,0l0.1-1.2c0.1-0.8,0.2-1.9,1.9-1.9c1.2,0,2.2,0.5,2,2l-0.1,1.1
					c0.3,0,2.9,0,5.3-0.1c0.3,0,1.6-0.1,1.9-0.1c0.4,0,1.8,0,1.8,1.7c0,1.6-1.2,1.7-1.9,1.7c-3,0.2-4.8,0.2-7.5,0.2l-0.3,2.5
					c0.7,0,2.8,0,3.9-0.1c0.2,0,0.6,0,0.8,0c0.3,0,1.8,0,1.8,1.7c0,1.6-1.1,1.6-2.2,1.7c-0.7,0-3.9,0.1-4.5,0.1
					c0,0.6-0.1,1.1-0.1,1.8c0,1.7,0.4,3,4.1,3c3.4,0,4.7-1.1,4.7-3.8c0-0.5,0-1.2-0.3-2.2c-0.3-1.1-0.3-1.2-0.3-1.4
					c0-1,1.1-1.5,1.9-1.5c1.1,0,1.6,0.6,1.9,1.2c0.5,0.9,0.8,2.3,0.8,4.1C411.5,387.4,408.1,388.8,403,388.8z M433.4,389.4
					c-0.9,0-2.6-0.2-4.5-0.7c-2.3-0.6-3.7-1.2-4.5-1.6c-2.3,1.1-7.2,2.2-8.8,2.2c-1.8,0-1.8-1.8-1.8-1.9c0-1.6,1.2-1.7,2.3-1.7
					c1.5-0.1,3.3-0.5,4.4-0.8c-1.5-1.1-2.2-1.8-2.2-2.6c0-0.9,0.7-1.3,0.9-1.4h-1c-0.5,0-1.2,0-1.4-1c-0.3,0.2-0.9,0.2-1.2,0.2
					c-1.5,0-1.6-1.1-1.6-1.7v-2c0-2.2,1-2.8,2.8-2.8c-0.1-0.3-0.2-0.5-0.5-1.1c-0.3-0.6-0.3-0.7-0.3-0.9c-0.9,0-0.9,0-1.2-0.1
					c-0.6-0.2-0.7-1-0.7-1.4c0-1.5,1.1-1.5,1.7-1.5c3.7,0,7.6,0,13.4-0.6c0.5,0,3-0.5,3.5-0.5c1,0,1.5,0.9,1.5,1.8
					c0,1.2-0.7,1.3-1.9,1.5c0.2,0.1,0.5,0.3,0.5,0.9c0,0.7-1,2-1,2h0.6c2.5,0,2.5,2.1,2.5,2.8v2c0,1.3-0.6,1.7-1.8,1.7
					c-0.2,0-0.6,0-1-0.2c0,0.9-0.4,1.5-0.6,1.8c-0.7,1.1-1.9,2.2-3.1,3.1c1.5,0.4,2,0.5,5.4,0.9c0.9,0.1,1.4,0.7,1.4,1.6
					C435.2,387.6,435.2,389.4,433.4,389.4z M443.1,387.9c0,0.6-0.1,1.7-1.6,1.7c-1.4,0-1.9-0.5-1.9-1.7v-9.3
					c-0.4,0.5-0.7,0.9-1.4,0.9c-0.9,0-1.8-0.9-1.8-2.1c0-0.7,0-0.8,1.7-3c1.6-2.2,2.2-3.9,2.8-5.7c0.2-0.7,0.5-1.2,1.6-1.2
					c0.2,0,1.9,0,1.9,1.4c0,0.8-0.6,2.2-1.1,3.5V387.9z M446.4,381.7c-0.2-0.3-1.1-1.6-1.4-2.1c-0.4-0.6-0.4-0.9-0.4-1.1
					c0-1.3,1.2-1.7,1.9-1.7c0.6,0,0.9,0.1,2.7,2.5c1.6,2.2,1.6,2.6,1.5,3c-0.2,1.2-1.4,1.6-2,1.6
					C447.8,383.9,447.7,383.7,446.4,381.7z M457.1,375.2h-1v11.4c0,2.8-1.5,2.8-4.6,2.8c-0.8,0-2,0-2.5-0.1
					c-1.2-0.4-1.2-1.6-1.2-1.8c0-1.5,1.2-1.7,2.1-1.7c0.3,0,1.5,0,1.8,0c0.8,0,0.9-0.2,0.9-0.8v-9.9h-7.2c-0.7,0-1.7-0.1-1.7-1.6
					c0-1.3,0.4-1.9,1.7-1.9h7.2v-2.7c0-0.9,0.3-1.7,1.6-1.7c0.3,0,1.2,0.1,1.4,0.3c0.5,0.4,0.5,1.1,0.5,1.4v2.7h1
					c0.7,0,1.7,0.2,1.7,1.6C458.8,374.6,458.4,375.2,457.1,375.2z M481,380.3c0,2.5-1.1,3.2-3.2,3.2h-5.2v4.5c0,0.4,0,1.7-1.8,1.7
					c-1.6,0-1.8-0.9-1.8-1.7v-4.5h-5.2c-2,0-3.2-0.7-3.2-3.2v-6.1c0-2.5,1.2-3.2,3.2-3.2h5.2v-1.9c0-0.5,0-1.6,1.7-1.6
					c1.4,0,1.9,0.5,1.9,1.6v1.9h5.2c2,0,3.2,0.7,3.2,3.2V380.3z"/>
				<path class="st1" d="M317.3,384.6c0,0.4,0.2,0.8,0.8,0.8h9c0.5,0,0.8-0.3,0.8-0.8v-4.5h-10.6V384.6z"/>
				<path class="st1" d="M327.1,371.9h-9c-0.6,0-0.8,0.4-0.8,0.8v4.1h10.6v-4.1C327.9,372.1,327.5,371.9,327.1,371.9z"/>
			</g>
			<path class="st1" d="M93.9,345.7c0,2.5,2,4.6,4.5,4.6c2.5,0,4.5-2,4.5-4.6c0-2.5-2-4.5-4.5-4.5C95.9,341.2,93.9,343.2,93.9,345.7
				 M94.4,345.7c0-2.2,1.8-4,4-4c2.2,0,4,1.8,4,4c0,2.2-1.8,4-4,4C96.2,349.7,94.4,347.9,94.4,345.7"/>
			<path class="st1" d="M100.6,348.7h-0.9l-1.8-2.7h-0.8v2.7h-0.7v-6h1.7c0.6,0,1,0.1,1.4,0.4c0.3,0.3,0.5,0.7,0.5,1.2
				c0,0.4-0.1,0.7-0.4,1c-0.2,0.3-0.6,0.5-1,0.6L100.6,348.7 M97.2,345.3h0.9c0.4,0,0.7-0.1,0.9-0.3c0.2-0.2,0.3-0.4,0.3-0.8
				c0-0.7-0.4-1-1.2-1h-0.9V345.3z"/>
			<g>
				<path class="st1" d="M64.6,329.6c0,6.3,4.9,9.3,8.9,9.3c4,0,8.9-3.1,8.9-9.3c0-4.9-4.8-8.8-8.9-11.1
					C69.4,320.8,64.6,324.7,64.6,329.6z"/>
				<path class="st1" d="M28.2,329.7c0,6.3,5,9.3,8.9,9.3c4,0,8.9-3,8.9-9.3c0-4.9-4.8-8.8-8.9-11.1
					C33.1,320.9,28.2,324.8,28.2,329.7z"/>
				<path class="st1" d="M18.9,302.2v47.5h72.8v-47.5H18.9z M91.7,313.7c-4.4,0-9.7,0.8-13.9,2.6c4.5,3,8.8,7.6,8.8,13.3
					c0,7.6-6.4,13.4-13.4,13.4c-7,0-13.2-5.8-13.2-13.4c0-5.8,4.1-10.3,8.6-13.3c-4.2-1.8-9.1-2.6-13.4-2.6c-4.4,0-9.3,0.8-13.4,2.6
					c4.5,3,8.6,7.6,8.6,13.3c0,7.6-6.2,13.4-13.2,13.4s-13.5-5.8-13.5-13.4c0-5.8,4.5-10.3,8.9-13.3c-4.2-1.8-9.5-2.6-13.8-2.6v-4.2
					c7.4,0,13.9,1.8,18.4,4.2c4.5-2.3,10.6-4.2,18-4.2c7.4,0,13.5,1.8,18,4.2c4.4-2.3,11-4.2,18.4-4.2V313.7z"/>
			</g>
			<path class="st1" d="M137,325.3c0,8.4-1.7,23.9-15.7,23.9c-14,0-15.7-15.5-15.7-23.9c0-3.5,0.4-12.6,4.5-18.5
				c3.1-4.4,8.7-5.3,11.2-5.3C135.2,301.5,137,316.6,137,325.3 M115,325.3c0,3.7,0,16,6.3,16c6.3,0,6.3-12.4,6.3-16
				c0-3.6,0-16-6.3-16C115,309.4,115,321.7,115,325.3"/>
			<path class="st1" d="M143.7,317.7c-1.6,0-3.2-1.1-3.2-3.6c0-2.9,1.9-3.2,4.2-3.6c1.1-0.2,5-0.8,6.9-5.8c0.7-1.9,1.2-3.3,4-3.3
				c2.7,0,3.9,1.7,3.9,2.9v40.3c0,1.9-0.5,4.4-4.5,4.4c-2.7,0-4.9-0.7-4.9-4.4v-27.1H143.7z"/>
			<path class="st1" d="M173.7,349.2c-4.8,0-5.1-4.1-5.1-4.9c0-6.1,7.9-12.2,11.8-15c7.7-5.6,10.2-7.5,10.2-12.8
				c0-4.2-2.2-6.9-6-6.9c-5.7,0-6.1,5.4-6.2,6.5c-0.1,1.7-0.4,4.3-4.6,4.3c-1,0-4.9-0.3-4.9-4.5c0-3.9,3-14.3,15.5-14.3
				c9.4,0,15.7,6.3,15.7,15.5c0,8.5-4.7,11.8-12.3,17.3c-0.8,0.6-6.4,4.6-6.4,6.1c0,0.7,1,0.7,1.4,0.7h13c0.9,0,4.4,0,4.4,4
				c0,4-3.4,4-4.4,4H173.7z"/>
			<path class="st1" d="M236.6,325.3c0,8.4-1.7,23.9-15.7,23.9c-14,0-15.7-15.5-15.7-23.9c0-3.5,0.4-12.6,4.5-18.5
				c3.1-4.4,8.7-5.3,11.2-5.3C234.8,301.5,236.6,316.6,236.6,325.3 M214.6,325.3c0,3.7,0,16,6.3,16c6.3,0,6.3-12.4,6.3-16
				c0-3.6,0-16-6.3-16C214.6,309.4,214.6,321.7,214.6,325.3"/>
			<path class="st1" d="M254.7,321c2.9,0,4.3,1.3,4.3,4.3c0,2.2-0.6,4.4-4.3,4.4h-9.3c-3,0-4.3-1.4-4.3-4.3c0-2.3,0.6-4.4,4.3-4.4
				H254.7z"/>
			<path class="st1" d="M293,334.9c0,2.3-0.4,14.3-15.6,14.3c-5.4,0-9.8-1.2-12.8-5.1c-1.9-2.4-3-5.4-3-7.7c0-2.2,1.3-4,4.4-4
				c4,0,4.4,1.8,4.8,4.4c0.1,0.5,0.7,4.5,6.3,4.5c3.1,0,6.5-1.5,6.5-6.4c0-1.6,0-6.8-6.5-6.8c-2.1,0-4.5,0-4.5-3.5
				c0-3.6,2.5-3.6,4.5-3.6c4.4,0,5.2-3.7,5.2-6.2c0-3-1.6-5.5-5.1-5.5c-2.3,0-5.2,0.4-5.9,5c-0.2,1.7-0.5,3.5-4.3,3.5
				c-2.4,0-4.4-0.9-4.4-3.9c0-2.9,2.5-12.5,14.5-12.5c10,0,14.5,6.3,14.5,13c0,1.3,0,6.1-4.7,9C288.5,324.7,293,327.9,293,334.9"/>
			<path class="st1" d="M321.3,301.5c3.5,0,4.5,2.8,4.5,4.8c0,2-0.8,3.1-2.2,4.9c-3.4,4.6-11.5,15.1-13.9,32.6
				c-0.1,0.5-0.2,2.5-0.3,3c-0.2,0.7-1.1,2.3-4.5,2.3c-4.9,0-4.9-2.7-4.9-3.7c0-3.8,3.4-16.6,8.3-25.2c1.8-3.2,3.8-6.3,5.9-9.3
				c0.1-0.2,0.3-0.5,0.3-0.7c0-0.6-0.9-0.6-1.3-0.6h-15c-0.9,0-4.3,0-4.3-4c0-4,3.3-4,4.3-4H321.3z"/>
			<path class="st1" d="M328.1,314.1c0-8.4,7.7-12.5,14.3-12.5c6.7,0,14.3,4.1,14.3,12.5c0,3.8-1.6,7.2-4.9,9.1
				c1.7,0.8,6.3,3.7,6.3,11.1c0,9.2-6.4,14.9-15.7,14.9c-9.2,0-15.7-5.7-15.7-14.9c0-7.5,4.7-10.3,6.3-11.1
				C329.7,321.2,328.1,317.9,328.1,314.1 M336.1,334.5c0,5.2,3.4,6.9,6.3,6.9c2.4,0,6.3-1.1,6.3-7c0-4.5-2.7-6.7-6.3-6.7
				C339.6,327.6,336.1,329,336.1,334.5 M337.1,314.9c0,3.5,2.3,5.4,5.3,5.4c2.8,0,5.3-1.7,5.3-5.4c0-3.2-1.7-5.5-5.3-5.5
				C339,309.4,337.1,311.5,337.1,314.9"/>
			<path class="st1" d="M374.6,321c2.9,0,4.3,1.3,4.3,4.3c0,2.2-0.6,4.4-4.3,4.4h-9.3c-3,0-4.3-1.4-4.3-4.3c0-2.3,0.6-4.4,4.3-4.4
				H374.6z"/>
			<path class="st1" d="M414.5,325.3c0,8.4-1.7,23.9-15.7,23.9c-14,0-15.7-15.5-15.7-23.9c0-3.5,0.4-12.6,4.5-18.5
				c3.1-4.4,8.7-5.3,11.2-5.3C412.7,301.5,414.5,316.6,414.5,325.3 M392.5,325.3c0,3.7,0,16,6.3,16c6.3,0,6.3-12.4,6.3-16
				c0-3.6,0-16-6.3-16C392.5,309.4,392.5,321.7,392.5,325.3"/>
			<path class="st1" d="M421.4,307.6c0.6-5.5,3.1-6.1,6.6-6.1h15.4c0.9,0,4.3,0,4.3,4c0,4-3.3,4-4.3,4h-12.7c-1.1,0-1.9,0.6-2,1.8
				l-0.7,7.5c1.2-0.8,3.1-2.1,7.2-2.1c8.2,0,14.3,6,14.3,15.4c0,11.5-7.3,17-15.9,17c-12,0-15.5-9.2-15.5-11.8
				c0-3.1,2.4-3.9,4.3-3.9c1.2,0,3.6,0,4.6,2.9c0.6,1.8,1.6,4.8,6.3,4.8c6,0,6.9-5.2,6.9-8.4c0-4.6-2.1-7.9-6.8-7.9
				c-3.2,0-4.3,1.2-5.7,2.6c-0.3,0.3-1.6,1.5-3.8,1.5c-2.4,0-4.5-0.9-4.2-4.1L421.4,307.6z"/>
			<path class="st1" d="M471.6,317.9c9.4,0,13.8,7.4,13.8,15.2c0,8.3-4.9,16.1-15.1,16.1c-5.8,0-9.6-2.8-11.6-5.2
				c-2.1-2.6-4.7-6.8-4.7-17.4c0-9.4,1.8-25.1,16.9-25.1c10.3,0,13.9,7.3,13.9,10.3c0,1.2-0.9,3.8-4.5,3.8c-3.4,0-3.9-1.3-4.7-3.4
				c-0.7-1.8-2.2-2.8-4.7-2.8c-2.7,0-6.8,0.7-7.3,11.5C465.5,319.3,467.1,317.9,471.6,317.9 M463.5,333.4c0,5.4,2.7,7.9,6.2,7.9
				c3.2,0,6.1-2.1,6.1-8c0-6-3.1-7.9-6-7.9C466.1,325.5,463.5,328.1,463.5,333.4"/>
			<path class="st1" d="M30.1,358.8c0.1-0.2,0.4-0.8,0.4-0.9c0.1-0.2,0.3-0.5,0.7-0.5c0.1,0,0.8,0,0.8,0.5c0,0.2-0.2,0.7-0.3,0.9
				h2.4c0.3,0,0.7,0.1,0.7,0.6c0,0.4-0.3,0.6-0.7,0.6h-2.5v0.7h2.3c0.3,0,0.5,0.1,0.5,0.5c0,0.4-0.2,0.5-0.5,0.5h-2.3v0.7h2.3
				c0.2,0,0.6,0.1,0.6,0.5c0,0.4-0.2,0.5-0.6,0.5h-2.3v0.8h3c0.2,0,0.6,0.1,0.6,0.5c0,0.4-0.3,0.5-0.6,0.5h-6.7
				c-1.1,0-1.5-0.4-1.5-1.5V362c-0.2,0.3-0.4,0.5-0.7,0.5c-0.4,0-0.8-0.3-0.8-0.8c-0.1,0-0.2,0-0.2,0H24v2.8
				c0.8-0.3,0.8-0.3,0.9-0.3c0.4,0,0.6,0.3,0.6,0.8c0,0.5-0.2,0.6-1.5,1.2v3.9c0,1.6-0.5,1.6-2,1.6c-0.4,0-1,0-1-0.9
				c0-0.7,0.4-0.7,1-0.7c0.4,0,0.6,0,0.6-0.5v-2.9c-0.5,0.2-0.8,0.3-1.1,0.3c-0.4,0-0.7-0.4-0.7-0.8c0-0.3,0.1-0.5,0.4-0.7
				c0.2-0.1,0.2-0.1,1.3-0.4v-3.2h-0.9c-0.2,0-0.8,0-0.8-0.8c0-0.7,0.5-0.8,0.8-0.8h0.9v-2.1c0-0.2,0-0.7,0.7-0.7
				c0.7,0,0.7,0.5,0.7,0.7v2.1h0.7c0.5,0,0.5,0.4,0.6,0.7c0.9-1.2,1.1-1.6,1.7-2.9c0.2-0.3,0.3-0.6,0.8-0.6c0.1,0,0.8,0,0.8,0.6
				c0,0.2,0,0.2-0.3,0.9H30.1z M26,367.2c-0.2,0-0.7,0-0.7-0.6c0-0.6,0.5-0.6,0.7-0.6h5.7c0.3,0,1.1,0,1.1,0.7
				c0,0.1-0.1,0.5-0.1,0.6c0,0.2,0.2,0.2,0.3,0.2h0.5c0.9,0,1.1,0.5,1.1,1c0,0.1-0.1,2-0.5,2.6c-0.5,0.6-0.8,0.6-2,0.6
				c-0.2,0-0.9,0-1.1,0c-0.4-0.1-0.5-0.4-0.5-0.7c0-0.7,0.4-0.7,0.7-0.7c0.2,0,1.1,0,1.3,0c0.2,0,0.4-0.2,0.4-0.5
				c0.1-0.3,0.1-0.8,0.1-0.8c0-0.3-0.2-0.3-0.4-0.3h-0.7c-0.2,0-0.9,0-0.9-0.8c0-0.1,0.1-0.4,0.1-0.4c0-0.2-0.2-0.2-0.2-0.2h-1.7
				c-0.3,1.5-0.7,2.7-2.1,3.8c-0.1,0.1-1,0.7-1.5,0.7c-0.5,0-0.8-0.5-0.8-0.8c0-0.2,0.1-0.4,0.3-0.5c1.2-0.7,1.8-1.1,2.2-2.2
				c0.2-0.4,0.2-0.8,0.3-1H26z M27.8,360.7h2.4V360h-2c-0.3,0-0.4,0.2-0.4,0.4V360.7z M30.2,361.7h-2.4v0.7h2.4V361.7z M27.8,363.5
				v0.3c0,0.3,0.1,0.4,0.4,0.4h2v-0.8H27.8z"/>
			<path class="st1" d="M49.2,360.8c0,1.3-0.3,1.5-1.6,1.5h-7.3c-1.2,0-1.6-0.3-1.6-1.5V360h-1.3c-0.2,0-0.7,0-0.7-0.6
				c0-0.6,0.3-0.7,0.7-0.7h1.3v-0.6c0-0.5,0.4-0.6,0.7-0.6c0.6,0,0.9,0.2,0.9,0.6v0.6h2.8v-0.6c0-0.6,0.5-0.6,0.8-0.6
				c0.5,0,0.8,0.2,0.8,0.6v0.6h2.8v-0.6c0-0.5,0.4-0.6,0.7-0.6c0.5,0,0.8,0.2,0.8,0.6v0.6h1.2c0.2,0,0.7,0,0.7,0.7
				c0,0.7-0.5,0.7-0.7,0.7h-1.2V360.8z M44.8,367v4.1c0,0.4-0.1,0.7-0.9,0.7c-0.8,0-0.8-0.5-0.8-0.7V367h-2.3
				c-0.4,0-0.6,0.2-0.6,0.6v2.7c0,0.3,0,0.7-0.8,0.7c-0.8,0-0.8-0.5-0.8-0.7v-2.9c0-1.4,0.4-1.7,1.7-1.7h2.7v-1.2h-3.8
				c-0.4,0-0.5,0.2-0.5,0.5v1.1c0,0.4-0.1,0.7-0.8,0.7c-0.7,0-0.7-0.5-0.7-0.7v-1.2c0-1.4,0.4-1.7,1.7-1.7h10c1.4,0,1.7,0.3,1.7,1.7
				v1.2c0,0.3,0,0.7-0.8,0.7c-0.3,0-0.6-0.1-0.7-0.3c0.1,0.3,0.1,0.6,0.1,0.9v1.8c0,1.7-0.9,1.7-2,1.7c-0.7,0-0.9,0-1.1,0
				c-0.5-0.1-0.5-0.6-0.5-0.7c0-0.1,0-0.6,0.5-0.7c0.1,0,0.8,0,0.9,0c0.4,0,0.6-0.2,0.6-0.6v-1.3c0-0.4-0.2-0.6-0.6-0.6H44.8z
				 M40.4,360v0.7c0,0.3,0.2,0.4,0.4,0.4h2.3V360H40.4z M44.7,360v1.2h2.4c0.3,0,0.4-0.2,0.4-0.4V360H44.7z M47.5,365.7
				c0.7,0,1.3,0,1.6,0.7c0-0.1,0-0.1,0-0.3V365c0-0.4-0.2-0.5-0.5-0.5h-3.8v1.2H47.5z"/>
			<path class="st1" d="M60.4,363.1c0,0.2,0,0.7-0.7,0.7c-0.6,0-0.8-0.2-0.8-0.7v-2.2h-4c-0.4,0-0.6,0.2-0.6,0.6v1.1
				c0,0.2,0,0.7-0.7,0.7c-0.5,0-0.8-0.2-0.8-0.7v-1c0-1.4,0.4-1.7,1.7-1.7h4.4v-0.6h-4.8c-0.2,0-0.7,0-0.7-0.6
				c0-0.6,0.4-0.6,0.7-0.6h11c0.3,0,0.7,0,0.7,0.6c0,0.5-0.3,0.6-0.7,0.6h-4.8v0.6h4.4c1.4,0,1.7,0.3,1.7,1.7v1c0,0.2,0,0.8-0.7,0.8
				c-0.6,0-0.8-0.2-0.8-0.8v-1.1c0-0.4-0.2-0.6-0.6-0.6h-3.9V363.1z M58.7,369.4h-3.6c-1.2,0-1.5-0.5-1.5-1.6v-2.2
				c0-1.2,0.5-1.5,1.5-1.5h9c1.1,0,1.5,0.4,1.5,1.5v2.3c0,0.5-0.1,0.7-0.1,0.9c0.1-0.1,0.2-0.2,0.5-0.2c0.3,0,0.8,0.1,0.8,0.7
				c0,0.2-0.1,1.1-0.3,1.6c-0.3,0.7-1,0.7-2,0.7h-3.7c-1.5,0-2-0.1-2-1.6V369.4z M57.9,361.4c0.2,0,0.4,0,0.4,0.4
				c0,0.3-0.2,0.4-0.4,0.4h-2.6c-0.2,0-0.4,0-0.4-0.3c0-0.2,0.1-0.4,0.4-0.4H57.9z M57.9,362.7c0.2,0,0.4,0.1,0.4,0.4
				c0,0.2-0.1,0.4-0.4,0.4h-2.6c-0.2,0-0.4,0-0.4-0.3c0-0.2,0.1-0.4,0.4-0.4H57.9z M58.7,368.2v-1.1h-3.6v0.6c0,0.3,0.1,0.4,0.4,0.4
				H58.7z M58.7,366.1v-1h-3.2c-0.2,0-0.4,0.1-0.4,0.4v0.5H58.7z M60.3,366.1H64v-0.5c0-0.3-0.1-0.4-0.4-0.4h-3.3V366.1z
				 M60.3,367.1v1.1h3.3c0.3,0,0.4-0.2,0.4-0.4v-0.6H60.3z M60.3,369.8c0,0.5,0.3,0.5,0.6,0.5c0.2,0,3.4,0,3.6,0
				c0.3,0,0.6-0.1,0.7-0.7c0,0,0.1-0.6,0.1-0.7c-0.2,0.3-0.5,0.5-1.3,0.5h-3.8V369.8z M64.1,361.4c0.3,0,0.4,0.1,0.4,0.4
				c0,0.2-0.1,0.4-0.4,0.4h-2.7c-0.2,0-0.4,0-0.4-0.3c0-0.2,0.1-0.4,0.4-0.4H64.1z M64.1,362.7c0.2,0,0.4,0.1,0.4,0.4
				c0,0.2-0.1,0.4-0.4,0.4h-2.7c-0.2,0-0.4,0-0.4-0.3c0-0.2,0.1-0.4,0.4-0.4H64.1z"/>
			<path class="st1" d="M73.7,360.1c0.2,0,0.7,0,0.7,0.7c0,0.7-0.5,0.7-0.7,0.7h-4.6c-0.2,0-0.7,0-0.7-0.7c0-0.6,0.4-0.7,0.7-0.7
				H73.7z M73.2,357.9c0.2,0,0.7,0,0.7,0.7c0,0.7-0.5,0.7-0.7,0.7h-3.6c-0.2,0-0.7,0-0.7-0.7c0-0.7,0.5-0.7,0.7-0.7H73.2z
				 M73.2,362.3c0.2,0,0.7,0,0.7,0.7c0,0.6-0.5,0.7-0.7,0.7h-3.6c-0.2,0-0.7,0-0.7-0.7s0.5-0.7,0.7-0.7H73.2z M73.2,364.5
				c0.2,0,0.7,0,0.7,0.7c0,0.7-0.5,0.7-0.7,0.7h-3.6c-0.2,0-0.7,0-0.7-0.7c0-0.7,0.5-0.7,0.7-0.7H73.2z M73.8,369.9
				c0,1.2-0.3,1.5-1.5,1.5h-1.9c-1.2,0-1.5-0.3-1.5-1.5v-1.7c0-1.2,0.3-1.5,1.5-1.5h1.9c1.2,0,1.5,0.3,1.5,1.5V369.9z M72.5,368.4
				c0-0.2-0.1-0.4-0.4-0.4h-1.2c-0.3,0-0.4,0.2-0.4,0.4v1.3c0,0.2,0.1,0.4,0.4,0.4h1.2c0.4,0,0.4-0.2,0.4-0.4V368.4z M79.4,361.8
				h2.8c0.2,0,0.7,0,0.7,0.7c0,0.7-0.5,0.7-0.7,0.7h-2.8v2.2h1.1c1.2,0,1.7,0.4,1.7,1.7v2.6c0,1.3-0.5,1.7-1.7,1.7h-3.7
				c-1.1,0-1.7-0.4-1.7-1.7v-2.6c0-1.3,0.5-1.7,1.7-1.7h1.1v-2.2H75c-0.2,0-0.7,0-0.7-0.7c0-0.7,0.5-0.7,0.7-0.7h2.9v-2.2
				c-1.2,0.1-2.1,0.2-2.6,0.2c-0.2,0-0.8,0-0.8-0.8c0-0.6,0.4-0.6,0.7-0.7c1.2-0.1,2.6-0.1,4.2-0.4c0.4,0,2-0.4,2.2-0.4
				c0.6,0,0.7,0.6,0.7,0.8c0,0.1,0,0.5-0.4,0.6c-0.2,0.1-1.5,0.3-2.5,0.5V361.8z M80.7,367.5c0-0.4-0.2-0.6-0.6-0.6h-2.9
				c-0.4,0-0.6,0.2-0.6,0.6v1.9c0,0.4,0.2,0.6,0.6,0.6h2.9c0.4,0,0.6-0.2,0.6-0.6V367.5z"/>
			<path class="st1" d="M88.8,358.7c0.1-0.3,0.2-0.9,0.9-0.9c0.2,0,0.9,0,0.9,0.7c0,0.3-0.1,0.7-0.5,2.1c0.1,0,0.8,0,0.9,0
				c1.2,0,2.1,0.1,2.9,1.3c0.7,1,0.7,2.3,0.7,2.9c0,4.9-1.1,6.4-3.4,6.4c-1.2,0-2.3-0.5-2.6-0.6c-0.2-0.1-0.4-0.3-0.4-0.7
				c0-0.4,0.2-0.9,0.7-0.9c0.2,0,0.3,0,1,0.3c0.3,0.1,0.9,0.2,1.2,0.2c0.8,0,1.2-0.3,1.4-1.4c0.3-1.1,0.3-2.8,0.3-3.5
				c0-1.9-0.3-2.6-2.2-2.6c-0.3,0-0.7,0-0.9,0c-0.6,2.3-1.7,5.4-2.8,7.9c-0.4,0.8-0.6,0.9-1,0.9c-0.5,0-1-0.4-1-0.8
				c0-0.3,0.1-0.5,0.4-0.9c0.2-0.4,1.6-3,2.7-7c-0.3,0-1,0.1-1.6,0.1c-0.3,0-0.6,0.1-0.7,0.1c-0.7,0-0.8-0.5-0.8-0.8
				c0-0.7,0.5-0.8,0.6-0.8c0.3,0,0.6-0.1,2.8-0.2C88.6,359.5,88.6,359.4,88.8,358.7 M94.8,359c0.7,0,2.2,1.1,2.9,3
				c0.7,1.7,0.7,3.7,0.7,3.8c0,0.2,0,1-0.9,1c-0.7,0-0.8-0.5-0.8-0.9c-0.1-1.4-0.2-2.3-0.8-3.7c-0.3-0.7-0.5-0.9-1.4-1.7
				c-0.2-0.2-0.4-0.3-0.4-0.6c0-0.3,0.2-0.5,0.3-0.6C94.5,359,94.7,359,94.8,359"/>
			<path class="st1" d="M108.3,362.7c2.5,0,4.6,1.1,4.6,3.7c0,4.1-4.1,4.6-6.7,4.6c-1.4,0-3.2-0.2-3.7-0.4c-0.5-0.2-0.5-0.6-0.5-0.8
				c0-0.1,0-0.3,0.2-0.5c0.2-0.2,0.5-0.3,0.6-0.3c0.2,0,0.4,0.1,0.6,0.1c1,0.2,2,0.3,2.8,0.3c2,0,3.6-0.3,4.4-1.3
				c0.5-0.6,0.5-1.5,0.5-1.7c0-0.5-0.1-1.1-0.7-1.6c-0.7-0.6-1.9-0.7-2.4-0.7c-2.1,0-3.5,0.7-4.6,1.5c-0.1,0.1-0.7,0.6-0.8,0.7
				c-0.2,0.1-0.4,0.2-0.6,0.2c-0.7,0-0.9-0.4-0.9-1.2c0-0.7,0.2-3.3,0.3-4.1c0.1-0.5,0.2-0.9,0.9-0.9c0.6,0,0.9,0.2,0.9,0.7
				c0,0-0.2,1.6-0.2,1.8c-0.1,0.6-0.1,1.1-0.1,1.7C104.8,363,107,362.7,108.3,362.7 M110.7,360.1c-0.2,0.1-0.4,0.2-0.7,0.2
				c-1.5,0-3.7-0.2-5.2-0.5c-1.8-0.3-2.3-0.3-2.3-1c0-0.3,0.2-0.8,0.7-0.8c0.2,0,0.3,0,1.4,0.2c1.5,0.3,3.4,0.4,5.1,0.5
				c1.1,0,1.2,0.3,1.2,0.9C111,359.7,110.9,360,110.7,360.1"/>
			<path class="st1" d="M120.2,363.9c1.3,0,2.3,0,3.1-0.1c0.2,0,0.9-0.1,1.1-0.1c0.2,0,0.8,0,0.8,0.8c0,0.7-0.6,0.8-0.9,0.8
				c-1.5,0.1-4.1,0.1-4.3,0.1c0,0.4-0.1,1.2-0.1,1.5c0,1.4,0.3,2.6,3.2,2.6c2.1,0,3.6-0.6,3.6-2.9c0-0.9-0.3-1.7-0.4-1.9
				c-0.2-0.5-0.2-0.6-0.2-0.7c0-0.5,0.5-0.6,0.9-0.6c1.2,0,1.5,2.2,1.5,3.3c0,4-2.9,4.5-5.4,4.5c-4.3,0-4.9-2.1-4.9-4.3
				c0-0.4,0-0.9,0.1-1.4c-0.5,0-2.2,0-2.5-0.1c-0.2-0.1-0.5-0.3-0.5-0.7c0-0.8,0.7-0.8,0.9-0.8c0.6,0,1.6,0,2.2,0l0.2-2.3
				c-0.5,0-2.1,0-2.5-0.1c-0.3-0.1-0.5-0.3-0.5-0.7c0-0.8,0.6-0.8,0.9-0.8c0.3,0,1.8,0,2.2,0l0.1-1.5c0-0.4,0.1-0.9,0.9-0.9
				c0.5,0,1,0.2,0.9,0.9l-0.1,1.4c1.4,0,2.9,0,4.3-0.1c0.2,0,1.2-0.1,1.3-0.1c0.2,0,0.8,0,0.8,0.8c0,0.7-0.5,0.8-1,0.8
				c-0.6,0-3,0.1-5.6,0.2L120.2,363.9z"/>
			<path class="st1" d="M142.9,370.5c-0.9,0.2-3,0.4-5,0.4c-1.2,0-2.2-0.1-2.9-0.2c-1.1-0.1-3.8-0.7-3.8-3.1c0-1.5,1-2.5,1.7-3.1
				c0.4-0.3,0.6-0.4,0.8-0.4c0.6,0,0.9,0.5,0.9,0.8c0,0.3-0.1,0.3-0.7,1c-0.7,0.7-0.9,1.1-0.9,1.6c0,1.5,2.3,1.8,4.6,1.8
				c1.3,0,2.6-0.1,3.8-0.3c0.3,0,1.4-0.3,1.6-0.3c0.7,0,0.8,0.5,0.8,0.8C143.8,370.1,143.6,370.3,142.9,370.5 M133.4,360.4
				c-0.6,0-1.2,0-1.2-0.8c0-0.8,0.5-0.8,1.2-0.8c0.3,0,2.1,0,2.3,0c0.4,0,2.9-0.1,4.2-0.1c0.2,0,1.2,0,1.4,0c0.5,0,1.1,0,1.1,0.8
				c0,0.5-0.2,0.7-0.9,1c-1.1,0.6-1.6,0.9-2.9,1.7c-0.4,0.3-0.6,0.3-0.9,0.3c-0.5,0-0.8-0.4-0.8-0.8c0-0.3,0.2-0.5,0.9-0.9
				c0.2-0.1,1-0.5,1.1-0.6C137.3,360.3,135.2,360.4,133.4,360.4 M140.6,362.4c0-0.1-0.1-0.2-0.1-0.3c0-0.3,0.3-0.4,0.5-0.4
				c0.2,0,0.3,0.1,0.6,0.6c0.2,0.3,0.6,1.1,0.6,1.4c0,0.3-0.4,0.4-0.5,0.4c-0.3,0-0.4-0.2-0.4-0.3c-0.1-0.1-0.3-0.7-0.3-0.8
				C140.9,363,140.6,362.5,140.6,362.4 M142.4,361.9c-0.1-0.1-0.2-0.3-0.2-0.5c0-0.3,0.3-0.4,0.5-0.4c0.2,0,0.4,0.1,0.7,0.7
				c0.2,0.3,0.5,1,0.5,1.3c0,0.3-0.3,0.4-0.5,0.4c-0.1,0-0.3-0.1-0.4-0.3c-0.1-0.1-0.3-0.6-0.3-0.7
				C142.5,362.3,142.5,362.1,142.4,361.9"/>
			<path class="st1" d="M150.8,361.4h2c0.3,0,0.8,0,0.8,0.7c0,0.6-0.4,0.7-0.8,0.7h-2c0.9,1.6,1.7,2.5,1.8,2.6
				c0.8,0.8,0.8,0.8,0.8,1.1c0,0.4-0.3,0.9-0.7,0.9c-0.3,0-0.5-0.2-0.9-0.8c-0.5-0.7-0.7-0.9-1-1.6v5.9c0,0.2,0,0.7-0.7,0.7
				c-0.7,0-0.8-0.4-0.8-0.7v-5.3c-0.4,0.9-0.9,1.5-1.1,1.8c-0.9,1.3-1.2,1.4-1.4,1.4c-0.5,0-0.8-0.5-0.8-0.9c0-0.3,0-0.3,0.9-1.3
				c1-1.1,1.7-2.4,2.3-3.7h-2.4c-0.2,0-0.8,0-0.8-0.7c0-0.6,0.3-0.8,0.8-0.8h2.5v-1.8c-0.8,0.1-1.6,0.2-2.1,0.2
				c-0.2,0-0.8,0-0.8-0.8c0-0.6,0.4-0.7,1-0.7c2.5-0.2,2.9-0.2,5.1-0.8c0.2,0,0.3,0,0.3,0c0.6,0,0.7,0.6,0.7,0.8
				c0,0.4-0.2,0.5-0.3,0.6c-0.3,0.2-1.4,0.3-2.2,0.5V361.4z M155.9,367.7c0,0.2,0,0.7-0.8,0.7c-0.7,0-0.9-0.3-0.9-0.7v-8.5
				c0-0.2,0-0.8,0.8-0.8c0.7,0,0.9,0.3,0.9,0.8V367.7z M159.7,369.8c0,1.8-0.9,1.8-2.9,1.8c-1.1,0-1.1,0-1.3-0.1
				c-0.5-0.2-0.5-0.7-0.5-0.9c0-0.8,0.5-0.8,0.8-0.8c0.2,0,1.3,0.1,1.5,0.1c0.5,0,0.7-0.1,0.7-0.6v-11.2c0-0.2,0-0.8,0.8-0.8
				c0.6,0,0.9,0.2,0.9,0.8V369.8z"/>
			<path class="st1" d="M169.9,367.1v3.7c0,0.3,0,0.8-0.7,0.8c-0.6,0-0.8-0.2-0.8-0.8v-3.7h-3.5c-0.1,1.3-0.3,2.3-0.9,3.5
				c-0.5,1-0.7,1.1-1.1,1.1c-0.5,0-1-0.4-1-0.9c0-0.1,0-0.2,0.2-0.5c0.6-1.1,0.9-1.6,1.1-2.8c0.2-0.9,0.2-2,0.2-2.1v-5.5
				c0-1.4,0.6-1.8,1.8-1.8h8.4c1.2,0,1.8,0.4,1.8,1.8v10.1c0,1.7-0.9,1.7-2.4,1.7c-0.9,0-1.5,0-1.5-0.9c0-0.5,0.3-0.8,0.7-0.8
				c0.2,0,0.9,0,1.1,0c0.4,0,0.5-0.2,0.5-0.6v-2.3H169.9z M168.3,361.8v-2.3h-2.8c-0.4,0-0.6,0.2-0.6,0.6v1.7H168.3z M168.3,363.2
				h-3.4v2.4h3.4V363.2z M169.9,361.8h3.7v-1.7c0-0.4-0.2-0.6-0.6-0.6h-3.1V361.8z M173.5,363.2h-3.7v2.4h3.7V363.2z"/>
			<path class="st1" d="M180,359.2c0,0.2-0.1,1-0.1,1.1c-0.1,0.7-0.2,1.9-0.2,3.1c0,0.5,0,3.6,0.8,4.9c0.2,0.3,0.6,0.6,1,0.6
				c0.9,0,1.5-1,1.9-2.2c0.2-0.7,0.3-0.9,0.8-0.9c0.5,0,0.9,0.3,0.9,0.8c0,0.4-0.2,1-0.7,2c-0.5,0.9-1.3,2.2-2.9,2.2
				c-3.5,0-3.5-6-3.5-7.5c0-1.6,0.2-4.1,0.2-4.4c0.2-0.6,0.6-0.6,0.9-0.6C179.4,358.4,180,358.4,180,359.2 M189.5,368.8
				c0-0.3,0-1.8,0-2.1c-0.1-2-0.4-4.5-1.5-5.4c-0.3-0.2-0.6-0.3-1.2-0.4c-0.4,0-0.9-0.1-0.9-0.9c0-0.2,0.1-0.8,0.9-0.8
				c0.2,0,2.2,0.1,3.3,1.9c0.7,1.2,0.9,3.1,1,3.9c0.1,1,0.2,2.3,0.2,3.3c0,0.7,0,1.4-0.9,1.4C189.5,369.8,189.5,369.1,189.5,368.8"
				/>
			<path class="st1" d="M194.8,361.5c-0.7,0-1.2,0-1.2-0.8c0-0.6,0.4-0.8,0.9-0.8h2.1c0.2-1.3,0.2-1.4,0.3-1.6
				c0.1-0.5,0.5-0.5,0.7-0.5c0.6,0,0.9,0.3,0.9,0.7c0,0.2,0,0.4-0.2,1.3c1.9,0,2.6-0.1,4.4-0.1c0.2,0,1-0.1,1.2-0.1
				c0.2,0,0.9,0,0.9,0.8c0,0.8-0.6,0.8-0.9,0.8c-3,0.2-4.5,0.2-5.9,0.2c-0.4,1.9-0.6,2.7-1.4,5.4c-0.4,1.2-1.1,3.3-1.4,3.9
				c-0.1,0.3-0.4,0.4-0.7,0.4c-0.3,0-0.9-0.2-0.9-0.8c0-0.2,0-0.3,0.3-1c0.4-0.9,1.3-3.1,1.8-5.2c0.2-0.9,0.5-1.8,0.6-2.7H194.8z
				 M206.1,370.9c-0.3,0.1-1.1,0.2-2.6,0.2c-3.6,0-5.2-0.6-5.2-2.4c0-0.7,0.3-1.7,1.2-1.7c0.3,0,0.8,0.2,0.8,0.6
				c0,0.2-0.1,0.3-0.1,0.4c-0.1,0.2-0.2,0.3-0.2,0.5c0,0.5,0.4,0.7,0.9,0.8c0.3,0.1,0.9,0.2,1.8,0.2c0.7,0,1.5,0,2.2-0.1
				c0.7-0.1,0.8-0.1,0.9-0.1c0.6,0,0.8,0.3,0.8,0.8C206.8,370.6,206.5,370.8,206.1,370.9 M206.1,364.7c-0.2,0.1-0.4,0.1-0.5,0.1
				c-0.1,0-0.8-0.1-1.2-0.1c-0.2,0-0.4,0-0.8,0c-0.7,0-1.5,0-2.2,0.1c-0.2,0-1.3,0.1-1.4,0.1c-0.7,0-0.7-0.7-0.7-0.8
				c0-0.6,0.4-0.8,1.4-0.9c1-0.1,2.5-0.2,3.2-0.2c0,0,1.7,0,2.2,0.2c0.3,0.2,0.3,0.5,0.3,0.8C206.3,364.2,206.2,364.5,206.1,364.7"
				/>
			<path class="st1" d="M210.4,361.5c-0.7,0-1.2,0-1.2-0.8c0-0.6,0.3-0.7,0.4-0.7c0.2,0,0.4,0,2.6-0.1c0.2-1.3,0.2-1.4,0.3-1.5
				c0.1-0.5,0.5-0.5,0.7-0.5c0.7,0,0.9,0.3,0.9,0.8c0,0.2,0,0.3-0.2,1.3c0.9,0,1.9,0,3.7-0.1c0.2,0,1-0.1,1.2-0.1
				c0.3,0,0.9,0,0.9,0.8c0,0.8-0.6,0.8-0.9,0.8c-2.8,0.1-4.2,0.2-5.2,0.2c-0.6,3.1-1.8,6.5-2.2,7.7c-0.6,1.7-0.8,2.1-1.4,2.1
				c-0.3,0-0.9-0.2-0.9-0.8c0-0.2,0-0.3,0.3-1c0.4-0.9,1.3-3.1,1.8-5.2c0.2-0.9,0.5-1.8,0.7-2.8H210.4z M221.8,370.9
				c-0.3,0.1-1.1,0.2-2.6,0.2c-3.6,0-5.2-0.6-5.2-2.4c0-0.7,0.3-1.7,1.2-1.7c0.3,0,0.8,0.2,0.8,0.6c0,0.2-0.1,0.3-0.1,0.4
				c-0.1,0.2-0.2,0.3-0.2,0.5c0,0.5,0.4,0.7,0.9,0.8c0.3,0.1,0.9,0.2,1.8,0.2c0.7,0,1.5,0,2.2-0.1c0.7-0.1,0.8-0.1,0.9-0.1
				c0.6,0,0.8,0.3,0.8,0.8C222.4,370.6,222.2,370.8,221.8,370.9 M221.7,364.7c-0.2,0.1-0.4,0.1-0.5,0.1c-0.1,0-0.8-0.1-1.2-0.1
				c-0.2,0-0.4,0-0.8,0c-0.7,0-1.5,0-2.2,0.1c-0.2,0-1.3,0.1-1.4,0.1c-0.7,0-0.7-0.7-0.7-0.8c0-0.6,0.4-0.8,1.4-0.9
				c1-0.1,2.5-0.2,3.2-0.2c0,0,1.7,0,2.2,0.2c0.3,0.2,0.3,0.5,0.3,0.8C222,364.2,221.9,364.5,221.7,364.7 M219.5,358.4
				c0-0.1,0-0.2,0-0.3c0-0.3,0.3-0.4,0.5-0.4c0.3,0,0.3,0.1,0.6,0.7c0.3,0.6,0.5,1.1,0.5,1.4c0,0.4-0.5,0.5-0.6,0.5
				c-0.2,0-0.3-0.1-0.4-0.3c-0.1-0.3-0.3-0.7-0.3-0.8C219.8,359,219.5,358.5,219.5,358.4 M221.3,358c0-0.1-0.1-0.2-0.1-0.2
				c0-0.4,0.4-0.4,0.5-0.4c0.2,0,0.4,0.1,0.7,0.8c0.1,0.3,0.5,1,0.5,1.2c0,0.4-0.4,0.4-0.5,0.4c-0.2,0-0.3-0.1-0.4-0.3
				c0-0.1-0.3-0.6-0.3-0.7C221.6,358.7,221.3,358.1,221.3,358"/>
			<path class="st1" d="M227.2,358.7c0,0.3-0.3,1.8-0.3,2.1c-0.1,0.5-0.3,2.5-0.3,4.4c0,1.3,0.1,3,0.3,4.2c0,0.2,0.1,0.6,0.1,0.8
				c0,0.7-0.6,0.7-0.9,0.7c-0.4,0-0.6-0.1-0.8-0.6c-0.4-1.2-0.4-3.8-0.4-5.1c0-3.1,0.4-5.9,0.5-6.5c0.2-0.6,0.5-0.7,1-0.7
				C226.6,358,227.2,358.1,227.2,358.7 M235.5,364.8v0.4c0,2,0,4.4-3,5.6c-0.7,0.3-2,0.5-2.7,0.5c-0.7,0-0.8-0.6-0.8-0.9
				c0-0.5,0.3-0.7,0.9-0.7c0.9-0.1,2.2-0.2,3.1-1.2c0.6-0.6,0.8-1.6,0.8-3.5c0-0.3,0-1.7,0-2c-1.6,0-2.7,0.1-3.9,0.1
				c-1.2,0-1.3,0-1.4-0.1c-0.3-0.2-0.3-0.4-0.3-0.7c0-0.8,0.5-0.8,1.1-0.8c2.6,0,2.9,0,4.4,0c0-0.4-0.1-2.2-0.1-2.5c0-0.5,0-1,0.9-1
				c0.6,0,0.9,0.2,0.9,1c0,1.2,0,1.3,0,2.5c0.2,0,1.3-0.1,1.5-0.1c0.2,0,0.3,0,0.4,0c0.3,0,0.9,0,0.9,0.8c0,0.8-0.4,0.8-1.2,0.8
				c-0.2,0-1.3,0-1.5,0.1C235.5,363.9,235.5,364,235.5,364.8"/>
			<path class="st1" d="M247.8,362.6c0.4,0,4.2-0.1,4.2-0.1c0.2,0,0.8,0,0.8,0.7c0,0.7-0.5,0.7-1.2,0.7c-0.6,0-3.3,0.1-3.8,0.1l0,2
				c2,0.7,3.8,2,4.4,2.5c0.7,0.6,0.7,0.8,0.7,1c0,0.5-0.4,1-0.9,1c-0.4,0-0.6-0.2-1.1-0.6c-0.5-0.5-1.3-1-2-1.5
				c-0.5-0.3-0.8-0.5-1.2-0.6c0,1.5-0.1,3.4-3.3,3.4c-2.2,0-4.2-0.8-4.2-2.8c0-1.6,1.5-2.8,4.2-2.8c0.8,0,1.3,0.1,1.7,0.1l0-1.6
				c-1.2,0-3.2,0-4.4,0c-0.9,0-1.4,0-1.4-0.7c0-0.7,0.5-0.7,0.8-0.7c1.4,0,3.6,0,5,0l0-1.6c-0.7,0-3.9,0-4.5,0c-0.9,0-1.4,0-1.4-0.7
				c0-0.7,0.5-0.7,0.9-0.7c0.1,0,0.7,0,0.8,0c0.7,0,3.5,0,4.1,0l0-1.1c0-0.6,0.4-0.8,0.8-0.8c0.5,0,0.8,0.2,0.9,0.8l0,1
				c0.6,0,3.1-0.1,3.6-0.1c0.1,0,0.7,0,0.8,0c0.2,0,0.8,0,0.8,0.7c0,0.7-0.6,0.7-0.8,0.7c-1.2,0-3.2,0.1-4.4,0.1L247.8,362.6z
				 M244.5,366.9c-0.6,0-2.5,0.1-2.5,1.4c0,0.9,1.1,1.4,2.4,1.4c1.2,0,1.7-0.4,1.8-1.2c0-0.3,0-0.5,0-1.4
				C245.9,367.1,245.4,366.9,244.5,366.9"/>
			<path class="st1" d="M265.5,364.2c0.2,0.4,0.4,1.1,0.4,2.1c0,3.3-2.3,4.4-4.6,4.7c-1.1,0.1-2,0.2-2.2,0.2c-0.3,0-1.1,0-1.1-0.9
				c0-0.7,0.4-0.7,1.5-0.7c3.7,0,4.4-1.4,4.7-2.9c-0.3,0.4-0.9,1.3-2.8,1.3c-2.4,0-3.7-1.3-3.7-3c0-1.6,1.3-3,3.7-3
				c0.8,0,1.7,0.1,2.4,0.5l0-1.6c-2.5,0-3.8,0.1-5.8,0.1c-0.3,0-1.7,0-1.9,0c-0.2,0-0.6-0.1-0.6-0.8c0-0.8,0.5-0.8,1.2-0.8
				c3.9,0,4.3,0,7.1,0l0-0.9c0-0.2,0-0.9,0.9-0.9c0.9,0,0.9,0.7,0.9,0.9v0.9c2.3-0.1,2.5-0.1,2.6-0.1c0.3,0,0.9,0,0.9,0.8
				c0,0.8-0.5,0.8-1.3,0.8c-0.3,0-1.8,0-2.1,0V364.2z M263.2,366.3c0.4-0.3,0.6-0.8,0.6-1.3c0-1.3-1.4-1.6-2.1-1.6
				c-1.1,0-2.3,0.5-2.3,1.7c0,1.2,1.3,1.6,2.2,1.6C261.8,366.7,262.7,366.7,263.2,366.3"/>
			<path class="st1" d="M276,368.6c0,1.4-1.2,2.5-2.6,2.6c-1.4,0-2.6-1.1-2.6-2.6c0-1.4,1.2-2.6,2.6-2.6
				C274.8,366,276,367.1,276,368.6 M271.9,368.6c0,0.8,0.7,1.5,1.5,1.5c0.8,0,1.5-0.6,1.5-1.5c0-0.8-0.7-1.5-1.5-1.5
				C272.6,367.1,271.9,367.8,271.9,368.6"/>
		</g>
	</g>
</g>
</svg>
