<?xml version="1.0" encoding="UTF-8"?><svg id="Layer_1" xmlns="http://www.w3.org/2000/svg" viewBox="0 0 99.74 99.74"><defs><style>.cls-1{fill:#fff;}.cls-2{fill:#ef7911;}</style></defs><circle class="cls-1" cx="49.87" cy="49.87" r="49.87"/><g id="CX5fzg"><path class="cls-2" d="M50.25,20.93c1.75-2.42,4.03-3.88,6.97-4.23,4.1-.48,8.05,1.67,9.81,5.42,.29,.61,.6,.77,1.25,.81,6.71,.41,10.61,7.21,7.59,13.2-.07,.14-.14,.29-.16,.33,1.01,1,2.08,1.88,2.93,2.92,4.53,5.53,4.33,13.37-.44,18.71-.38,.42-.48,.78-.36,1.34,1.39,7.07-2.75,13.8-9.67,15.85-.29,.09-.65,.39-.73,.67-1.12,3.83-3.59,6.28-7.51,6.99-3.97,.71-7.21-.73-9.63-3.95-.12-.17-.25-.33-.42-.57-.17,.25-.3,.43-.44,.62-2.28,3.2-5.41,4.72-9.3,4.25-3.81-.46-6.5-2.61-7.98-6.17-.26-.63-.6-.96-1.22-1.21-6.67-2.69-10.47-9.81-9-16.84,.1-.5-.02-.78-.34-1.13-5.39-5.81-4.95-14.56,1-19.79,.38-.33,.47-.59,.34-1.08-1.63-5.92,2.08-11.83,8.1-12.91,.49-.09,.66-.31,.81-.71,1.35-3.78,5.52-7.61,10.85-7.03,3.16,.34,5.67,1.82,7.55,4.51Zm13.17,47.94c-.95,.42-1.8,.88-2.71,1.18-1.71,.56-3.44,.48-5.13-.11-.63-.22-.95-.69-.78-1.38,.16-.65,.72-.95,1.44-.8,.21,.04,.41,.12,.62,.17,3,.76,6.09-.81,7.17-3.71,.27-.71,.33-1.51,.45-2.27,.11-.65,.58-1.14,1.18-1.08,.64,.06,1.05,.43,1.09,1.08,.03,.4,.04,.83-.08,1.2-.44,1.38-.94,2.74-1.45,4.23,1.39,1.45,2.2,3.39,2.44,5.64,.3-.1,.53-.16,.75-.24,5.37-1.98,8.46-7.74,7.06-13.29-.27-1.06-.1-1.75,.68-2.56,2.88-3,4.02-6.62,3.2-10.71-.91-4.57-3.68-7.62-8.06-9.23-.85-.31-1.2-.9-.94-1.58,.25-.64,.87-.87,1.69-.59,.52,.18,1.03,.4,1.54,.59,1.43-2.15,1.4-5.06-.13-7.24-1.65-2.35-3.97-3.29-6.79-2.85-2.4,.38-4.6,2.36-5.04,4.44,.22,.13,.45,.25,.67,.39,1.85,1.15,3.01,2.78,3.39,4.94,.15,.83-.18,1.42-.85,1.56-.66,.15-1.27-.28-1.38-1.11-.43-3.05-3.89-5.14-7-3.57-.24,.12-.64,.23-.83,.12-.35-.21-.84-.59-.85-.91,0-.41,.31-1.07,.65-1.2,1.23-.46,2.54-.74,3.73-1.06,.76-1.08,1.41-2.34,2.37-3.3,.98-.98,2.25-1.65,3.42-2.48-1.23-2.97-4.83-4.8-8.16-4.05-3.59,.8-5.84,3.68-5.88,7.6-.03,2.92-.03,5.84,.02,8.76,0,.48,.24,1.05,.56,1.4,1.56,1.71,3.51,2.68,5.82,2.94,.92,.1,1.35,.6,1.26,1.33-.09,.71-.68,1.05-1.58,.95-2.02-.23-3.84-.94-5.47-2.15-.16-.12-.33-.21-.55-.34v11.75c4.23,.29,7.88-.66,10.47-4.23,.56-.77,1.16-.95,1.76-.54,.62,.43,.66,1.1,.09,1.9-.34,.47-.7,.92-1.05,1.37,2.1,1.94,5.28,1.82,7.3-.22,.24-.24,.52-.62,.79-.63,.43-.01,.99,.12,1.26,.41,.47,.5,.25,1.08-.18,1.58-2.54,2.93-7.05,3.39-10.19,1.04-.27-.21-.54-.42-.81-.63,.01,.07,.03,.14,.04,.21-1.52,.58-2.99,1.33-4.56,1.7-1.59,.38-3.26,.39-4.97,.57,0,1.26,0,2.59,0,3.93,0,.18,.04,.36,.06,.59,.37-.12,.69-.24,1.02-.34,2.55-.77,5.3,.59,6.22,3.07,.31,.82,.09,1.5-.58,1.75-.65,.25-1.19-.06-1.54-.88-.35-.84-.93-1.44-1.79-1.72-1.54-.51-3.38,.48-3.39,1.84-.02,3.89-.08,7.77,.02,11.66,.13,4.96,5.01,8.32,9.65,6.68,5.4-1.91,6.09-8.46,2.83-11.56Zm-14.85-22.54c-.89-.16-1.76-.4-2.63-.44-.4-.02-.91,.26-1.21,.57-.62,.63-1.11,1.37-1.68,2.05-2.33,2.78-4.78,5.44-7.78,7.52-1.37,.95-2.82,1.76-4.53,1.96-.79,.09-1.35-.26-1.46-.91-.12-.7,.31-1.26,1.13-1.36,1.61-.2,2.87-1.1,4.21-2.04-1.4-1.15-2.74-2.25-4.08-3.35-.81-.66-1.63-1.31-2.42-2-.55-.48-.6-1.14-.19-1.64,.4-.48,1.08-.53,1.66-.11,.13,.09,.25,.2,.37,.31,2.13,1.75,4.27,3.49,6.43,5.26,.22-.2,.44-.36,.61-.55,1.92-2.13,3.9-4.2,5.73-6.41,1.15-1.38,2.44-1.92,4.17-1.52,.54,.12,1.08,.19,1.64,.29v-15.26c-.39,.2-.69,.37-1,.51-2.08,.93-4.67,.42-5.88-1.16-.45-.58-.43-1.24,.07-1.65,.54-.45,1.07-.39,1.59,.07,1.72,1.55,4.09,1.03,4.97-1.11,.64-1.56,.42-3.01-.79-4.22-2.11-2.1-4.64-3-7.56-2.23-3.21,.84-5.3,2.95-6.15,6.17-.92,3.52,.64,6.7,4,8.03,1.04,.42,2.22,.52,3.36,.67,.86,.11,1.35,.45,1.35,1.16,0,.73-.46,1.12-1.35,1.14-1.86,.02-3.62-.41-5.24-1.31-.46-.25-.76-.21-1.11,.16-1.19,1.24-1.63,2.69-1.22,4.36,.4,1.64,1.47,2.69,3.06,3.24,.76,.26,1.06,.84,.85,1.49-.2,.63-.82,.89-1.59,.68-.13-.04-.25-.09-.38-.14-4.47-1.7-5.84-7.43-2.61-10.96,.19-.21,.39-.42,.61-.66-1.61-1.85-2.32-4-2.32-6.47-.32,.08-.57,.12-.82,.2-4.37,1.38-6.66,6.18-5.01,10.48,.49,1.26,.44,1.41-.63,2.21-5.73,4.28-6.2,12.64-.96,17.5,.63,.59,.8,1.14,.58,1.98-1.53,5.64,1.05,11.58,6.19,14.37,.25,.13,.51,.25,.69,.33,.34-1.24,.53-2.48,1.01-3.58,.5-1.13,1.29-2.13,1.99-3.24-.85-.42-1.74-.85-2.62-1.29-.79-.4-1.05-.97-.76-1.61,.31-.67,.96-.84,1.78-.45,.97,.46,1.93,.93,2.88,1.43,.4,.21,.66,.16,.97-.17,.74-.81,1.52-1.59,2.28-2.38,.55-.57,1.19-.65,1.7-.2,.51,.46,.53,1.09,.02,1.71-.29,.35-.6,.68-.92,1.01-1.29,1.33-2.66,2.58-3.83,4-.75,.91-1.42,2-1.74,3.11-1.09,3.75,1.39,7.78,5.31,8.9,3.82,1.09,8.01-1.13,9.1-4.87,.19-.65,.22-1.38,.18-2.06-.07-1.2-1.1-2.09-2.26-1.79-.81,.21-1.57,.74-2.27,1.25-.7,.51-1.28,.61-1.78,.09-.48-.5-.41-1.17,.2-1.77,1.72-1.68,3.7-2.41,6.12-1.54v-23.79Z"/></g></svg>