<?xml version="1.0" encoding="UTF-8"?><svg id="Layer_1" xmlns="http://www.w3.org/2000/svg" viewBox="0 0 99.74 99.74"><defs><style>.cls-1{fill:#fff;}.cls-2{fill:#ef7911;}</style></defs><circle class="cls-1" cx="49.87" cy="49.87" r="49.87"/><path class="cls-2" d="M49.9,76.64c-1.87,0-3.74-.46-5.61-1.37-3.56-1.74-6.89-4.19-10.49-7.7-3.51-3.43-6.51-7.24-8.92-11.34-2.31-3.92-3.31-8.31-2.98-13.04,.23-3.32,1.12-6.15,2.7-8.63,2.51-3.92,5.9-6.33,10.09-7.17,3.46-.69,6.89-.16,10.22,1.56,1.84,.96,3.5,2.19,4.95,3.68,2.51-2.65,5.52-4.37,8.97-5.12,6.52-1.42,12.57,1.15,16.18,6.88,2.16,3.43,3.1,7.31,2.87,11.85-.22,4.4-1.81,8.56-4.99,13.09-3.39,4.83-7.07,8.75-11.25,11.98-2.08,1.61-4.38,3.25-7.12,4.38-1.52,.63-3.07,.95-4.62,.95Zm-12.27-44.54c-.65,0-1.31,.07-1.97,.2-2.84,.56-5.08,2.19-6.85,4.95-1.12,1.76-1.75,3.82-1.93,6.28-.26,3.76,.49,7.08,2.3,10.15,2.19,3.72,4.91,7.18,8.1,10.3,3.21,3.13,6.13,5.29,9.19,6.79,2.14,1.05,4.08,1.14,6.12,.3,2.19-.91,4.17-2.33,5.98-3.72,3.77-2.91,7.11-6.47,10.21-10.89,2.62-3.73,3.91-7.05,4.09-10.47h0c.18-3.48-.51-6.4-2.1-8.93-2.48-3.93-6.44-5.63-10.89-4.66-2.73,.59-4.99,1.99-6.93,4.27-.26,.31-.52,.61-.81,.93l-2.34,2.69-2.02-2.39c-.12-.14-.22-.26-.32-.39-1.34-1.75-2.98-3.14-4.87-4.12-1.67-.87-3.31-1.3-4.97-1.3Z"/></svg>