<?xml version="1.0" encoding="UTF-8"?><svg id="Layer_1" xmlns="http://www.w3.org/2000/svg" viewBox="0 0 99.74 99.74"><defs><style>.cls-1{fill:#fff;}.cls-2{fill:#ef7911;}</style></defs><circle class="cls-1" cx="49.87" cy="49.87" r="49.87"/><g><path class="cls-2" d="M64.53,56.74l-12.16-8.2V29.19c0-1.38-1.12-2.5-2.5-2.5s-2.5,1.12-2.5,2.5v22.01l14.36,9.69c.43,.29,.91,.43,1.4,.43,.8,0,1.59-.39,2.08-1.1,.77-1.15,.47-2.7-.67-3.47Z"/><path class="cls-2" d="M49.87,17.71c-17.74,0-32.17,14.43-32.17,32.17s14.43,32.17,32.17,32.17,32.17-14.43,32.17-32.17-14.43-32.17-32.17-32.17Zm0,59.33c-14.98,0-27.17-12.19-27.17-27.17s12.19-27.17,27.17-27.17,27.17,12.19,27.17,27.17-12.19,27.17-27.17,27.17Z"/></g></svg>