<?xml version="1.0" encoding="UTF-8"?><svg id="Layer_1" xmlns="http://www.w3.org/2000/svg" viewBox="0 0 99.74 99.74"><defs><style>.cls-1{fill:#fff;}.cls-2{fill:#ef7911;}</style></defs><circle class="cls-1" cx="49.87" cy="49.87" r="49.87"/><path class="cls-2" d="M64.34,72.87c-2.06,.22-3.74,.39-3.74,3.37,0,1.93,.95,3.55,3.65,3.55,6.06,0,14.7-2.85,14.7-13.14,0-2.76-.6-7.05-4.86-10.33-2.19-1.66-5.16-3.24-12.25-3.24-2.19,0-3.65,.22-4.34,.31,0-.26,.09-1.49,.09-1.79,3.48-.09,15-.35,17.45-.7,1.93-.31,2.71-1.62,2.71-3.42,0-3.63-2.84-3.63-3.78-3.63-.86,0-7.95,.44-9.46,.48-2.84,.13-4.77,.13-6.53,.18,.01-.3,.02-.62,.02-.93l11.41-11.18c.42-.41,.43-1.08,.03-1.5-.4-.42-1.06-.44-1.47-.03l-16.69,16.35V31.13c0-11.18-11.91-11.18-14.28-11.18-12.96,0-15.28,7.81-15.28,10.33,0,3.37,3.42,3.76,4.91,3.76,1.88,0,3.81-.56,4.74-2.19,1.6-2.81,2.15-3.76,5.51-3.76,4.14,0,4.47,2.36,4.47,3.03,0,2.13-1.71,2.36-7.11,3.15-5.74,.84-13.46,2.02-13.46,10.9,0,3.48,1.38,11.12,10.97,11.12,5.85,0,8.38-2.36,9.65-3.71,.28,1.28,.68,2.21,1.51,2.82l-15.99,15.67c-.42,.41-.43,1.08-.03,1.5,.2,.22,.48,.33,.75,.33s.52-.1,.72-.3l21.31-20.88h.61c0,.53-.09,3.11-.09,3.72-3.61,1.71-9.63,5.78-9.63,13.84,0,5.82,3.48,9.24,7.65,9.24,2.24,0,4.81-1.01,6.32-2.01,.39,.35,.86,.83,2.15,.83,2.15,0,3.83-1.84,3.83-3.72,0-.83-.3-1.49-.43-1.8,2.79-3.02,5.29-7.22,7.05-11.6,.9,.26,1.93,.57,2.97,1.88,.69,.92,1.29,2.19,1.29,4.25,0,4.6-2.84,6.13-7.05,6.52Zm-23.16-30.79c0,5.73-4.85,6.8-6.51,6.8s-3.42-.62-3.42-3.37c0-3.03,1.82-3.76,5.35-4.55,2.15-.45,3.36-.67,4.58-1.24v2.36Zm8.03,29.74c-1.81,0-1.98-1.93-1.98-2.8,0-3.68,2.41-5.78,3.1-6.35,.09,2.19,.52,5.25,1.46,8.19-1.03,.66-1.98,.96-2.58,.96Zm8.43-7.05c-.13-1.01-.3-2.36-.3-5.34,.69-.17,1.2-.26,3.1-.31-.56,1.36-1.5,3.77-2.79,5.65Z"/></svg>