<?xml version="1.0" encoding="UTF-8"?><svg id="Layer_1" xmlns="http://www.w3.org/2000/svg" xmlns:xlink="http://www.w3.org/1999/xlink" viewBox="0 0 157.23 47.33"><defs><style>.cls-1,.cls-2{fill:#fff;}.cls-2{fill-rule:evenodd;}.cls-3{clip-path:url(#clippath-1);}.cls-4{clip-path:url(#clippath);}.cls-5{fill:#7fc4de;}.cls-6{fill:none;}.cls-7{fill:#ee7402;}</style><clipPath id="clippath"><rect class="cls-6" width="157.23" height="47.33"/></clipPath><clipPath id="clippath-1"><rect class="cls-6" width="157.23" height="47.33"/></clipPath></defs><g id="Artwork_8"><g class="cls-4"><g class="cls-3"><path class="cls-2" d="M73.97,7.53c-.05,.14-.04,.55-.02,.72,.03,.04,.12,.34,.16,.42,.11,.26,.28,.51,.47,.68,.09,.08,.2,.18,.31,.25l.03,.02s.03,0,.05,.03c.06,.01,.13,.04,.2,.07,.07,.02,.15,.04,.23,.05,.19,.03,.32,.02,.5,.03,.02-.02,.03-.02,.07-.02,.09-.01,.17-.06,.22-.1,.08-.08,.08-.06,.14-.19,.15-.34-.09-.31-.16-.42-.02-.03-.07-.17-.1-.22-.09-.16-.17-.26-.29-.37-.06-.06-.1-.1-.17-.16-.04-.03-.04-.04-.08-.08-.03-.03-.06-.04-.09-.07-.14-.13-.58-.5-.75-.57-.1-.04-.26-.03-.27-.04-.06-.03-.06-.11-.21-.11-.12,0-.17,.06-.24,.09"/><path class="cls-2" d="M74.18,6.75c.05,.03,.02,.05,.06,.13,.02,.05,.05,.06,.09,.09,.08,.05,.25,.3,.51,.14,.2-.12,.1-.1,.21-.17,.23-.14,.28-.15,.43-.33,.3-.36,.2-.4,.44-.69,.05-.06,.11-.19,.16-.22,.04-.03,.08-.03,.12-.06,.04-.03,.06-.07,.09-.11,.17-.18,.2-.33,.45-.2,.1,.06,.34,.26,.52,.04,.08-.09,.1-.13,.09-.28v-.12c-.22-.09-.87-.07-1.15,0-.5,.13-1.07,.44-1.41,.8-.03,.03-.05,.05-.07,.08-.2,.23-.3,.38-.45,.66-.04,.08-.06,.15-.09,.23"/><path class="cls-2" d="M77.47,10.55c-.55,0-.71,0-1.25-.23-.21-.09-.54-.26-.75-.37-.07-.04-.19-.11-.25-.13-.04-.01,0,0-.04-.02l-.02-.02s.04,0,.06,.02c.32,.07,.34,.05,.66,0h0c-.18-.01-.31,0-.5-.03-.08-.01-.15-.03-.23-.05-.07-.02-.13-.06-.2-.07-.01,0-.05,.04-.04,0-.01,0-.01,0-.02-.01,0,0,0,0,0,0,0,0,0,0,0,0-.2-.11-.38-.27-.51-.42-.08-.09-.14-.15-.2-.26-.03-.05-.13-.29-.15-.31,.06,.35,.3,.73,.47,.95,.21,.3,.38,.54,.68,.73,.25,.16,.72,.3,1.08,.35,.44,.05,.86,.03,1.24-.11"/><path class="cls-2" d="M73.98,6.81s.18-.37,.22-.44c.42-.77,1-1.23,1.86-1.5,.5-.16,.69-.06,1.2-.06-.05-.14-.34-.21-.48-.23-.79-.12-1.52,.3-2.04,.81-.11,.1-.23,.26-.32,.4-.15,.23-.36,.69-.43,1.02"/><path class="cls-2" d="M78.51,5.5h0s-.02-.02-.05-.05c-.03-.02-.02-.03-.06-.04,.01,.02,.02,.03,.04,.05,.03,.02,.02,.01,.06,.04"/><path class="cls-2" d="M77.71,5.3c-.05,.08-.12,.15-.18,.22-.12,.17-.1,.25-.27,.36-.06,.04-.06,.05-.11,.1-.17,.18-.03,.07-.26,.16-.38,.16-.5,.41-.59,.45-.05,.03-.09,.04-.13,.08-.05,.04-.04,.07-.09,.12-.04,.05-.07,.05-.1,.11-.08,.16,.02,.54,.09,.68,.05,.09,.1,.17,.16,.27,.06,.11,.11,.13,.22,.2,.32,.19,.35,.06,.49-.18,.04-.07,.06-.05,.11-.1,.13-.1,.21-.31,.27-.36,.07,.06,.16,.13,.28,.16-.01,.1-.09,.23-.13,.5-.03,.2,0,.4,0,.61-.26-.03-.35-.1-.54,.24-.03,.05-.12,.12-.19,.22-.06,.08-.1,.18-.13,.3-.12,.59,.35,.85,.85,.6,.08-.04,.31-.18,.38-.24,.17-.15,.16-.18,.38-.25,.12-.03,.16-.11,.3-.12,.31-.02,.41-.13,.53-.3,.06-.09,.11-.15,.16-.26,.04-.08,.07-.25,.12-.3,.13-.17,.16-.67,.14-.92-.04-.57-.23-1.13-.51-1.59-.08-.13-.37-.52-.48-.56-.04-.03-.03-.02-.06-.04-.03-.02-.03-.03-.04-.05l-.19-.12c-.06-.03-.13-.07-.2-.1-.05,.02-.1,.03-.16,.04-.05,.02-.1,.04-.15,.06"/><path class="cls-1" d="M117.06,11.8h0c1.45,0,2.63,1.17,2.63,2.62v12.51c0,1.69,.2,2.93,.6,3.71,.63,1.38,1.99,2.07,4.09,2.07s3.45-.69,4.07-2.07c.4-.78,.6-2.01,.6-3.71V14.41c0-1.44,1.18-2.62,2.63-2.62s2.63,1.17,2.63,2.62v12.52c0,2.62-.41,4.66-1.23,6.12-1.52,2.67-4.43,4.01-8.72,4.01s-7.2-1.34-8.73-4.01c-.82-1.46-1.23-3.5-1.23-6.12V14.41c0-1.44,1.18-2.62,2.63-2.62"/><path class="cls-1" d="M155.03,25.91c-1.47,1.22-3.57,1.83-6.31,1.83h-2.62c-1.44,0-2.61,1.16-2.61,2.59v3.8c0,1.43-1.17,2.59-2.61,2.59s-2.61-1.16-2.61-2.59V14.34c0-1.43,1.17-2.59,2.61-2.59h8.18c2.49,0,4.47,.64,5.95,1.93,1.48,1.29,2.22,3.28,2.22,5.98,0,2.95-.74,5.03-2.21,6.25m-4.01-9c-.67-.55-1.6-.83-2.8-.83h-2.12c-1.44,0-2.61,1.16-2.61,2.59v2.17c0,1.43,1.17,2.59,2.61,2.59h2.12c1.2,0,2.13-.3,2.8-.9,.67-.6,1-1.55,1-2.85s-.33-2.22-1-2.78"/><path class="cls-1" d="M66.78,15.6c-2.77,3.8-4.83,6.92-6.17,9.34l-.66,1.28-.07,.1,.03,.33c.11,0,.22,.01,.33,.03,.24,.02,.57,.05,.99,.1,.37,.04,.62,.07,.73,.07,.84,.15,1.68,.34,2.52,.57,.85,.23,1.52,.43,2.03,.59,.51,.16,1.25,.43,2.24,.79,.99,.36,1.7,.61,2.15,.74,.22,.09,.38,.23,.48,.43,.1,.2,.11,.4,.03,.62-.08,.22-.21,.38-.41,.48-.2,.1-.41,.11-.63,.05l-2.18-.79-2.18-.75c-.48-.17-1.13-.37-1.93-.57-.8-.21-1.6-.38-2.39-.51-.07-.02-.26-.04-.59-.07-.44-.04-.78-.08-1.02-.1l-.1-.03c.15,3.1,.25,5.37,.3,6.79,0,.22-.08,.42-.23,.59-.15,.18-.34,.26-.56,.26s-.42-.08-.59-.23c-.18-.15-.26-.34-.26-.56-.04-1.38-.15-3.79-.33-7.25-.13-.09-.24-.19-.33-.3-.13-.15-.19-.34-.17-.56,0-.07,.01-.13,.03-.2,.02-.04,.04-.1,.07-.16,.02-.09,.07-.2,.13-.33l.2-.39c-.07-1.44-.12-2.71-.16-3.8-.02-.81,0-2.68,.07-5.61,.04-2.36-.01-4.17-.16-5.44-.02-.22,.04-.42,.18-.61,.14-.19,.32-.29,.54-.31,.22-.02,.42,.04,.61,.18,.19,.14,.29,.32,.31,.54,.18,1.36,.23,3.25,.17,5.67-.07,2.89-.09,4.72-.07,5.51l.03,1.02c1.3-2.23,3.2-5.06,5.71-8.49,.13-.17,.31-.28,.53-.31,.22-.03,.42,.02,.61,.15,.19,.13,.3,.31,.33,.52,.03,.22-.02,.43-.15,.62"/><path class="cls-1" d="M77.6,13.27c.53,5.68,.79,13.28,.79,22.79,0,.22-.08,.41-.25,.57-.16,.16-.36,.25-.58,.25s-.41-.08-.58-.25c-.16-.16-.25-.35-.25-.57,0-9.53-.26-17.08-.79-22.66-.02-.22,.04-.41,.18-.59,.14-.17,.33-.27,.56-.3,.23-.02,.43,.04,.61,.18,.18,.14,.28,.33,.3,.57"/><path class="cls-1" d="M92.68,10.16c.07,.74,.11,1.5,.13,2.28,.02,.78,.02,1.72,0,2.82-.02,1.1-.03,1.83-.03,2.18,0,2.03-.06,7.61-.18,11.69-.12,4.08-.18,4.61-.18,6.64,0,.22-.08,.41-.25,.57-.17,.16-.36,.25-.58,.25s-.41-.08-.58-.25c-.17-.16-.25-.35-.25-.57,0-1.35,.02-.35,.07-2.03-1.39,.57-2.9,.62-4.55,.16-1.1-.31-2.01-.79-2.72-1.46-.72-.67-1.19-1.4-1.44-2.2-.24-.8-.32-1.61-.23-2.44,.09-.83,.33-1.6,.73-2.29,.4-.72,.94-1.31,1.63-1.77,.69-.46,1.47-.7,2.33-.72,1.5-.04,2.99,.61,4.49,1.97,.04-1.88,.07-6.07,.07-7.54,0-.42,.01-1.16,.03-2.23,.02-1.07,.03-1.98,.02-2.72-.01-.74-.06-1.45-.15-2.13-.02-.24,.04-.45,.18-.62,.14-.17,.33-.27,.56-.3,.23-.02,.43,.04,.61,.18,.18,.14,.27,.32,.3,.54m-1.75,17.01c-1.52-1.73-2.96-2.57-4.32-2.52-1.1,.02-1.96,.58-2.57,1.67-.29,.5-.46,1.05-.53,1.66-.07,.6,0,1.18,.18,1.74,.19,.56,.54,1.08,1.06,1.56s1.18,.83,2,1.05c1.54,.44,2.88,.31,4.03-.39,.04,0,.08-.01,.1-.03,.02-.59,.05-1.42,.08-2.49,.03-1.07,.05-1.79,.05-2.16l-.07-.07Z"/><path class="cls-1" d="M104.37,16.81c-.37-1.14-.92-1.97-1.63-2.51-.72-.54-1.45-.78-2.21-.72-.76,.05-1.45,.4-2.06,1.03-.62,.63-1.01,1.56-1.19,2.79-.24,1.46-.2,2.6,.13,3.41,.22,.52,.51,1.07,.87,1.64,.36,.57,.87,1.29,1.52,2.16,.65,.87,1.11,1.51,1.37,1.9,.86,1.25,1.51,2.43,1.95,3.54,.44,1.11,.57,2.26,.4,3.44-.2,1.27-.88,2.23-2.05,2.89-.86,.48-1.67,.62-2.44,.43-.66-.17-1.24-.59-1.75-1.25-.7-.92-1.19-2.2-1.45-3.84-.02-.22,.03-.42,.17-.61,.13-.19,.31-.29,.53-.33,.22-.03,.42,.02,.61,.15,.19,.13,.3,.31,.35,.52,.22,1.38,.59,2.42,1.12,3.11,.26,.35,.54,.56,.82,.62,.35,.09,.77,0,1.25-.26,.68-.39,1.08-.96,1.19-1.71,.13-.87,.02-1.78-.35-2.7-.36-.93-.93-1.96-1.7-3.1-.2-.28-.64-.89-1.32-1.8-.68-.92-1.23-1.7-1.63-2.34-.41-.64-.73-1.27-.97-1.89-.44-1.07-.53-2.49-.26-4.26,.24-1.53,.8-2.76,1.68-3.69,.88-.93,1.91-1.44,3.1-1.52,1.17-.09,2.26,.26,3.28,1.03s1.78,1.88,2.26,3.33c.07,.22,.05,.43-.05,.62-.1,.2-.26,.33-.48,.41-.22,.08-.43,.07-.63-.03-.2-.1-.34-.26-.43-.48"/><path class="cls-1" d="M0,23.66c0,13.07,10.91,23.66,24.37,23.66s24.37-10.6,24.37-23.66S37.83,0,24.37,0,0,10.6,0,23.66"/><path class="cls-7" d="M24.37,45.86c12.62,0,22.85-9.94,22.85-22.19S36.99,1.47,24.37,1.47"/><path class="cls-5" d="M24.37,1.47C11.75,1.47,1.51,11.41,1.51,23.66s10.23,22.19,22.85,22.19"/><path class="cls-1" d="M24.38,3.54s0,0,0,0c0,0,0,0,0,0C13.08,2.82,3.15,12.17,3.23,23.5c-.08,11.31,9.83,20.99,21.1,20.29,0,0,0,0,0,0,0,0,0,0,0,0,.01,0,.03,0,.04,0,0,0,0,.02,0,.03,0,0,0-.02,0-.03,.01,0,.03,0,.04,0,0,0,0,0,0,0,0,0,0,0,0,0,11.27,.7,21.18-8.98,21.1-20.29,.08-11.32-9.85-20.67-21.13-19.95m19.59,19.96c-2.39-.23-4.82-.38-7.26-.49-.07-3.6-.92-7.18-2.56-10.39,1.55-.73,2.99-1.64,4.25-2.75,3.83,3.86,5.61,8.77,5.57,13.63M24.37,3.54s0,0,0,0c3.62,2,6.33,5.01,8.13,8.53-2.44,.7-4.99,1.08-7.56,1.14-.11-3.25-.29-6.49-.58-9.66m-.76,19.21c-3.32,.02-6.7,.07-10.07,.2,.07-3.38,.79-6.74,2.15-9.78,2.51,.97,5.27,1.49,8.04,1.55-.07,2.69-.11,5.38-.13,8.04m0,1.51c.01,2.04,.04,4.1,.08,6.17-2.99,.07-5.97,.67-8.63,1.81-.95-2.6-1.45-5.38-1.51-8.17,3.37,.13,6.74,.18,10.07,.2m1.52,0c3.32-.02,6.7-.07,10.07-.2-.06,2.82-.57,5.62-1.54,8.23-2.65-1.16-5.62-1.78-8.61-1.87,.04-2.07,.07-4.13,.08-6.17m0-1.51c-.02-2.65-.05-5.34-.13-8.04,2.77-.08,5.52-.61,8.01-1.6,1.38,3.06,2.11,6.44,2.18,9.84-3.37-.13-6.74-.18-10.07-.2M31.96,5.39c2.5,1.18,4.59,2.65,6.29,4.32-1.45,.81-2.99,1.47-4.58,2-.04-.07-.08-.14-.11-.2-2.07-3.55-5.28-6.59-9.17-7.96,2.64,.18,5.21,.78,7.58,1.84m-7.59-1.85s0,0,0,0h0c-.3,3.18-.47,6.42-.58,9.67-2.57-.04-5.13-.4-7.59-1.08,1.81-3.54,4.53-6.58,8.17-8.59,0,0,0,0,0,0h0s0,0,0,0m-.01,0c-3.9,1.37-7.1,4.41-9.17,7.96-.05,.09-.1,.19-.16,.28-1.61-.52-3.17-1.18-4.65-1.99,3.33-3.44,8.06-5.84,13.98-6.26m-14.12,6.4c1.28,1.11,2.73,2.02,4.31,2.75-1.61,3.19-2.45,6.75-2.52,10.32-2.44,.11-4.87,.27-7.26,.49,.04-4.94,1.95-9.85,5.47-13.56m6.54,31.66c-8.31-3.91-12.06-11.04-12.01-18.09,2.39,.22,4.82,.38,7.26,.49,.06,3.02,.67,6.02,1.82,8.8-1.56,.79-3,1.78-4.23,2.97,1.46-.85,3-1.56,4.6-2.13,.29,.62,.6,1.23,.95,1.82,2.06,3.55,5.26,6.94,9.15,8.32-2.62-.18-5.18-1.12-7.53-2.18m7.54,2.18c-3.58-1.96-6.32-5.39-8.11-8.89-.28-.54-.53-1.1-.76-1.66,2.67-.82,5.47-1.25,8.28-1.3,.1,3.86,.29,8.08,.64,11.85-.02,0-.04,0-.05,0m.06,0c.35-3.78,.54-7.98,.64-11.85,2.81,.07,5.6,.52,8.25,1.36-.23,.54-.47,1.07-.73,1.59-1.79,3.51-4.53,6.94-8.11,8.89-.02,0-.03,0-.05,0m.06,0c3.89-1.38,7.09-4.77,9.15-8.32,.33-.57,.63-1.15,.91-1.74,1.62,.59,3.17,1.33,4.64,2.22-1.23-1.23-2.68-2.25-4.26-3.07,1.17-2.8,1.79-5.83,1.85-8.87,2.44-.11,4.87-.27,7.26-.49-.08,9.6-7.23,19.37-19.54,20.27"/><path class="cls-1" d="M37,24.18s.85,1.26,2.07,1.16c1.18-.09,2.15-1.47,2.45-1.93,.06-.1,.17-.17,.28-.2,.28-.07,.52-.1,.77-.31,.72-.63,.66-1.88-.19-2.23-.61-.25-.82,.58-1.32,1.09-.29,.3-.28,.61-.24,.8,.03,.13,0,.26-.08,.37-.22,.3-.7,.81-1.47,.88-.87,.08-1.23-.41-1.34-.61-.03-.05-.04-.12-.05-.18-.13-2.5-2.13-3-2.1-3.32,.02-.19,.19-.18,.19-.18,4.74-.6,3.85-3.81,3.85-3.81-.36-1.11-.14-2.03-.12-2.11,0,0,0-.01,0-.02,1.15-4.49-4.81-4.96-6.4-3.99-.17,.1-.39,.08-.54-.05-.14-.13-.33-.2-.54-.2-.15,0-.28,.04-.4,.11-.15,.09-.34,.08-.49-.02-.5-.36-1.6-.81-2.92,.73-1.81,2.11-1.2,4.28,.12,6.09,.34,.47,.45,.82,.44,1.06,0,0,0,0,0,0,0,.07-.02,.13-.05,.18-.07,.14-.19,.2-.32,.2,0,0,0,0,0,0,0,0,0,0,0,0-.04,0-.07,0-.1-.02-.02,0-.03,0-.04-.01,0,0,0,0,0,0-.06-.03-.11-.08-.15-.14,0-.01-.02-.02-.03-.04,0-.01,0-.03-.01-.04-.06-.17-.05-.41,.13-.72,0,0-.44,.24-.64,.65-.25,.5,.22,.99,.22,.99-.96-.15-.38-1.09-.38-1.09,0,0-.3,.13-.46,.28-.72,.65-.33,1.53,.2,1.71,.65,.21,1.07,.14,1.27,.07,.09-.03,.18-.03,.27,0,1.55,.41,1.84-.95,1.9-1.46h0s0,0,0,0c0,0,.02-.08,.09-.08,.06,0,.08,.07,.08,.07,.19,.51,.41,1.59,2.02,1.54,.02,0,.02,0,.04,0,.01,0,.03,0,.04,0,.13,0,.23,.1,.23,.23,0,.1-.06,.18-.15,.22,0,0,0,0,0,0,0,0-1.5-.27-3.26,.4-.59,.22-2.06,1.01-2.92,1.97-.55,.62-.91,1.44-.95,1.56-.01,.03-.04,.05-.07,.06-.81,.15-1.22,.96-1.32,1.18-.02,.03-.05,.06-.09,.05-.26-.05-.46,.04-.6,.17-.19,.17-.49,.19-.67,0-.52-.54-1.75-.65-2.43-1.68-.91-1.38-1.11-3.34-2.34-3.75-.63-.21-.79-.03-.8-.2-.03-.26,.88-.35,1.01-.36,.01,0,.02,0,.03,0l.84-.14c3.71-.83,2.77-4.03,2.77-4.03,0,0-.4-2.91-.03-2.98,.36-.06,1.16-.69,1.3-1.39,.16-.78-.53-.54-.53-.54,0,0-1.63,.66-1.68-.43-.06-1.09-1.4-.47-1.19-.79,.21-.32,.04-.6,.04-.6,0,0-.14-.27-.48-.01-.2,.15-.84,.52-.84,.52-.07,.03-.14-.03-.12-.1,.03-.14,.06-.39,.07-.84,.02-.74-1.45,.33-1.99,.75-.06,.05-.15,0-.15-.08,.03-.72-1.63,.12-1.63,.12-3.76,1.56-3.5,5.97-3.39,7.45,.11,1.48,.86,2.23,1.2,2.16,.34-.06,.32-.48,.32-.48,.28,.83,2.36,.96,2.55,1.42,.21,.48-.53,.12-2.4,.17-1.29,.04-3.3,.76-4.32,1.94-.3,.35-.3,.55-.53,.83-.22,.26-.73,.36-1.04,.36-.21,0-.43,.02-.62,.1-1.96,.76-.96,2.22-.96,2.22,0,0,.43,.81,1.3,.62,.63-.14,.27-.51,1.02-1.03,.13-.09,.67,.06,1.05-.36,.04-.04,1.77-1.46,3.25-1.37,.4,.03,.74,.39,.71,.79-.05,.81-.7,1.88-.97,2.22-1,1.25-.48,2.5-.48,2.72,0,.02,0,.03,0,.04-.1,.2-.93,1.82-2.28,2.24-1.43,.44-2.6-1.61-2.61-1.62,0-.02,.5-1.21-.89-1.46-1.91-.34-2.1,4.43-2.1,4.52,0,.49,.4,.92,.66,.92,.78,.09,1.05-1.82,1.17-1.98,.13-.18,.33-.17,.46,.01,1.06,1.54,3.15,1.97,3.19,1.98,0,0,0,0,0,0,3.44,.66,4.87-2.93,5.08-3.52,.02-.05,.07-.07,.11-.06,3.36,.95,3.6,4.84,3.49,6.67-.12,1.84,1.02,1.39,2.77,.88,1.75-.51,1.98-.62,1.56-1.43-.34-.65-1.36-.33-1.73-.19-.06,.03-.13-.03-.12-.1,.4-3.81-1.11-5.73-2.33-7.6-.54-.82,.12-2.83,.22-2.99,.04-.07,.14-.05,.16,.03,.32,.99,1.89,2.16,3.38,2.6,1.02,.3,1.83,.1,2.24-.06,.17-.06,.34-.02,.48,.09,.61,.48,1.69,0,2.07-.54,.04-.06,.37-.27-.09-1.3-.28-.63,.41-1.26,.41-1.26,3.12-3.07,4.06-1.81,4.07-1.8,0,0,0,0,0,0,.56,5.44-3.7,6.59-4.63,6.77-.07,.01-.1,.1-.04,.16,1.35,1.31,1.71,2.44,.4,2.85-.42,.13-.87-.1-1.17-.67-.26-.5-.37-1.33-.66-1.57-.45-.37-1.12,.45-1.63,1.16-1.21,1.72-.83,3.2-.11,3.34,.71,.13,.92-.57,1.14-1.46,.16-.63,.13-.34,.83,.59,.77,1.01,2.05,1.25,2.5,.38,.91-1.81,2.44-1.29,2.53-1.26,0,0,0,0,.01,0,2.76,1.59,5.14,.95,6.03,.61,.29-.11,.61-.02,.78,.24,.31,.47,.5,1.2,.6,1.69,.06,.27,.04,.54-.04,.8-.06,.19-.11,.44-.08,.65,.24,1.6,2.93,.81,4.18-.16,.75-.58,.49-1.24,.24-1.47-.68-.61-1.79-.1-2.22,.1-.44,.2-.36-.22-.36-.22,.36-2.52-.68-3.41-.98-3.78-.3-.37-.02-.45-.02-.45,0,0,.33-.02,.66-.4,.33-.38,.02-.49,.02-.49,0,0-.99-.42-2.45-1.81-1.46-1.39-.3-3.06-.05-3.67,.25-.61,.4-.3,.4-.3"/></g></g></g></svg>