<?xml version="1.0" encoding="UTF-8"?><svg id="Layer_1" xmlns="http://www.w3.org/2000/svg" viewBox="0 0 157.23 47.33"><defs><style>.cls-1{fill:#fff;}</style></defs><g><path class="cls-1" d="M18.68,29.75c.98,1.18,2.16,2.19,6.92,3.37,1.03,.27,2.04,.59,2.04,2.01,0,.92-.56,2.6-2.34,2.6s-8.37-2.19-11.14-6.98c-1.33,2.01-3.19,3.49-5.08,4.61-1.65,.95-4.4,2.34-6.15,2.34s-2.31-1.77-2.31-2.66c0-.56,.18-1.01,.53-1.33,.47-.44,.68-.5,3.64-1.33,.53-.15,2.99-.98,4.67-2.63H2.16c-1.63,0-2.16-.74-2.16-2.22,0-1.92,1.54-1.98,2.16-1.98h.95v-3.1c0-2.84,1.33-3.58,3.58-3.58h5.2c0-1.54,.3-2.39,2.36-2.39s2.01,1.54,2.01,2.39h5.17c2.22,0,3.58,.71,3.58,3.58v3.1h.92c1.63,0,2.16,.74,2.16,2.25,0,1.89-1.51,1.95-2.16,1.95h-7.24Zm-.74-17.85v-.71c0-1.48,1.45-1.6,2.04-1.6,1.06,0,2.39,.12,2.39,1.6v.71h3.58c.65,0,2.16,.06,2.16,1.95,0,1.51-.53,2.25-2.16,2.25h-3.58v.65c0,1.36-.98,1.74-2.13,1.74-1.33,0-2.31-.38-2.31-1.74v-.65h-7.83v.65c0,1.39-1.18,1.74-2.07,1.74s-2.25-.24-2.25-1.74v-.65H2.19c-.65,0-2.16-.06-2.16-1.98,0-1.48,.5-2.22,2.16-2.22h3.61v-.71c0-1.48,1.42-1.6,1.98-1.6,.92,0,2.34,.09,2.34,1.6v.71h7.83Zm-6.06,10.85h-3.64c-.5,0-.83,.27-.83,.8v2.01h4.29c.09-.38,.18-.98,.18-1.83v-.98Zm4.37,.68c0,.62-.06,1.45-.15,2.13h4.43v-2.01c0-.53-.3-.8-.8-.8h-3.49v.68Z"/><path class="cls-1" d="M40.46,14.8c.5,0,1.8,0,1.8,1.69,0,1.27-.41,1.92-1.8,1.92h-8.19c-.56,0-1.83-.03-1.83-1.8,0-1.6,.95-1.8,1.83-1.8h8.19Zm-.83-4.23c.5,0,1.8,.03,1.8,1.66,0,1.51-1.03,1.66-1.8,1.66h-6.65c-.56,0-1.8-.03-1.8-1.63,0-1.48,.98-1.69,1.8-1.69h6.65Zm-.18,8.72c.53,0,1.83,0,1.83,1.74,0,1.57-1.01,1.74-1.83,1.74h-6.44c-.5,0-1.83,0-1.83-1.74,0-1.6,1.09-1.74,1.83-1.74h6.44Zm0,4.4c.47,0,1.83,0,1.83,1.71s-1.3,1.74-1.95,1.74h-6.33c-.47,0-1.83,0-1.83-1.71s1.18-1.74,1.83-1.74h6.44Zm1.8,10.08c0,2.78-.47,3.37-3.31,3.37h-3.31c-2.81,0-3.31-.56-3.31-3.37v-2.36c0-2.87,.53-3.37,3.34-3.37h3.22c2.78,0,3.37,.47,3.37,3.37v2.36Zm-3.61-2.01c0-.32-.18-.53-.53-.53h-1.24c-.38,0-.56,.21-.56,.53v1.57c0,.36,.21,.56,.56,.56h1.24c.35,0,.53-.24,.53-.56v-1.57Zm15.46-16.14c2.87,0,3.52,.74,3.52,3.55v2.13h.44c1.33,0,1.63,.95,1.63,1.74,0,1.74-1.06,1.86-1.83,1.86h-13.57c-.47,0-1.86,0-1.86-1.71,0-1.48,.71-1.89,1.86-1.89h1.6c.03-.06,.32-1.03,.62-2.42h-1.01c-.41,0-1.8,0-1.8-1.6s1.36-1.65,1.8-1.65h1.74c.12-.56,.15-.89,.24-1.51h-2.51c-.47,0-1.86,0-1.86-1.77s1.36-1.8,1.86-1.8h12.41c.47,0,1.86,0,1.86,1.77s-1.36,1.8-1.86,1.8h-5.59c-.12,.68-.15,.74-.3,1.51h2.6Zm4.17,17.77c0,3.13-.59,3.75-3.72,3.75h-6.92c-3.13,0-3.75-.59-3.75-3.75v-3.31c0-3.13,.59-3.72,3.75-3.72h6.92c3.1,0,3.72,.56,3.72,3.72v3.31Zm-4.23-2.66c0-.53-.44-.74-.71-.74h-4.52c-.3,0-.74,.21-.74,.74v1.98c0,.47,.41,.74,.74,.74h4.52c.24,0,.71-.18,.71-.74v-1.98Zm-3.25-11.85c-.12,.59-.3,1.3-.59,2.42h3.13v-1.71c0-.62-.5-.71-.71-.71h-1.83Z"/><path class="cls-1" d="M18.68,29.75c.98,1.18,2.16,2.19,6.92,3.37,1.03,.27,2.04,.59,2.04,2.01,0,.92-.56,2.6-2.34,2.6s-8.37-2.19-11.14-6.98c-1.33,2.01-3.19,3.49-5.08,4.61-1.65,.95-4.4,2.34-6.15,2.34s-2.31-1.77-2.31-2.66c0-.56,.18-1.01,.53-1.33,.47-.44,.68-.5,3.64-1.33,.53-.15,2.99-.98,4.67-2.63H2.16c-1.63,0-2.16-.74-2.16-2.22,0-1.92,1.54-1.98,2.16-1.98h.95v-3.1c0-2.84,1.33-3.58,3.58-3.58h5.2c0-1.54,.3-2.39,2.36-2.39s2.01,1.54,2.01,2.39h5.17c2.22,0,3.58,.71,3.58,3.58v3.1h.92c1.63,0,2.16,.74,2.16,2.25,0,1.89-1.51,1.95-2.16,1.95h-7.24Zm-.74-17.85v-.71c0-1.48,1.45-1.6,2.04-1.6,1.06,0,2.39,.12,2.39,1.6v.71h3.58c.65,0,2.16,.06,2.16,1.95,0,1.51-.53,2.25-2.16,2.25h-3.58v.65c0,1.36-.98,1.74-2.13,1.74-1.33,0-2.31-.38-2.31-1.74v-.65h-7.83v.65c0,1.39-1.18,1.74-2.07,1.74s-2.25-.24-2.25-1.74v-.65H2.19c-.65,0-2.16-.06-2.16-1.98,0-1.48,.5-2.22,2.16-2.22h3.61v-.71c0-1.48,1.42-1.6,1.98-1.6,.92,0,2.34,.09,2.34,1.6v.71h7.83Zm-6.06,10.85h-3.64c-.5,0-.83,.27-.83,.8v2.01h4.29c.09-.38,.18-.98,.18-1.83v-.98Zm4.37,.68c0,.62-.06,1.45-.15,2.13h4.43v-2.01c0-.53-.3-.8-.8-.8h-3.49v.68Z"/><path class="cls-1" d="M40.46,14.8c.5,0,1.8,0,1.8,1.69,0,1.27-.41,1.92-1.8,1.92h-8.19c-.56,0-1.83-.03-1.83-1.8,0-1.6,.95-1.8,1.83-1.8h8.19Zm-.83-4.23c.5,0,1.8,.03,1.8,1.66,0,1.51-1.03,1.66-1.8,1.66h-6.65c-.56,0-1.8-.03-1.8-1.63,0-1.48,.98-1.69,1.8-1.69h6.65Zm-.18,8.72c.53,0,1.83,0,1.83,1.74,0,1.57-1.01,1.74-1.83,1.74h-6.44c-.5,0-1.83,0-1.83-1.74,0-1.6,1.09-1.74,1.83-1.74h6.44Zm0,4.4c.47,0,1.83,0,1.83,1.71s-1.3,1.74-1.95,1.74h-6.33c-.47,0-1.83,0-1.83-1.71s1.18-1.74,1.83-1.74h6.44Zm1.8,10.08c0,2.78-.47,3.37-3.31,3.37h-3.31c-2.81,0-3.31-.56-3.31-3.37v-2.36c0-2.87,.53-3.37,3.34-3.37h3.22c2.78,0,3.37,.47,3.37,3.37v2.36Zm-3.61-2.01c0-.32-.18-.53-.53-.53h-1.24c-.38,0-.56,.21-.56,.53v1.57c0,.36,.21,.56,.56,.56h1.24c.35,0,.53-.24,.53-.56v-1.57Zm15.46-16.14c2.87,0,3.52,.74,3.52,3.55v2.13h.44c1.33,0,1.63,.95,1.63,1.74,0,1.74-1.06,1.86-1.83,1.86h-13.57c-.47,0-1.86,0-1.86-1.71,0-1.48,.71-1.89,1.86-1.89h1.6c.03-.06,.32-1.03,.62-2.42h-1.01c-.41,0-1.8,0-1.8-1.6s1.36-1.65,1.8-1.65h1.74c.12-.56,.15-.89,.24-1.51h-2.51c-.47,0-1.86,0-1.86-1.77s1.36-1.8,1.86-1.8h12.41c.47,0,1.86,0,1.86,1.77s-1.36,1.8-1.86,1.8h-5.59c-.12,.68-.15,.74-.3,1.51h2.6Zm4.17,17.77c0,3.13-.59,3.75-3.72,3.75h-6.92c-3.13,0-3.75-.59-3.75-3.75v-3.31c0-3.13,.59-3.72,3.75-3.72h6.92c3.1,0,3.72,.56,3.72,3.72v3.31Zm-4.23-2.66c0-.53-.44-.74-.71-.74h-4.52c-.3,0-.74,.21-.74,.74v1.98c0,.47,.41,.74,.74,.74h4.52c.24,0,.71-.18,.71-.74v-1.98Zm-3.25-11.85c-.12,.59-.3,1.3-.59,2.42h3.13v-1.71c0-.62-.5-.71-.71-.71h-1.83Z"/><path class="cls-1" d="M79.87,22.08c.82,0,1.65,.31,1.65,1.57,0,1.03-.51,1.6-1.65,1.6h-6.67v6.64c0,1.05-.49,1.65-1.54,1.65-.72,0-1.6-.23-1.6-1.65v-6.64h-6.67c-.85,0-1.65-.33-1.65-1.57,0-1.06,.51-1.6,1.65-1.6h6.67v-6.67c0-1.06,.51-1.62,1.54-1.62,.67,0,1.6,.18,1.6,1.62v6.67h6.67Z"/></g><g><path class="cls-1" d="M89.71,11.88c-.06-.14-.11-.29-.2-.48-.13-.29-.2-.46-.2-.67,0-.81,1.09-.91,1.37-.91,.39,0,.81,.06,1.23,1.23,.08,.21,.2,.6,.17,.83h1.09c.2-.38,.32-.63,.49-1.07,.22-.57,.39-.91,1.09-.91,.48,0,1.35,.22,1.35,1.01,0,.27-.08,.41-.42,.98,.76,.13,1.32,.45,1.32,1.74v.92c0,.92-.46,1.14-1.15,1.14-.17,0-.38-.01-.55-.07-.04,.69-.45,.97-.84,1.22-.83,.52-1.23,.7-1.71,.91h3.53c.25,0,1.12,0,1.12,1.04,0,.97-.7,1.06-1.12,1.06h-4.36v1.57c0,1.74-.83,1.84-2.54,1.84-.57,0-1.42,0-1.72-.07-.57-.14-.69-.81-.69-1.12,0-.97,.73-1.05,1.08-1.05,.15,0,.8,.01,.94,.01,.42-.01,.45-.17,.45-.56v-.62h-4.39c-.32,0-1.14-.03-1.14-1.05,0-.87,.55-1.05,1.14-1.05h4.39c0-.2,0-.48,.53-.63,.2-.06,.83-.32,.83-.46,0-.11-.1-.11-.14-.11h-3.74c-.31,0-.88,0-.95-.91-.1,.03-.22,.06-.45,.06-.77,0-1.2-.25-1.2-1.11v-.95c0-1.22,.49-1.67,1.47-1.74-.03-.06-.17-.29-.2-.35-.2-.36-.24-.53-.24-.67,0-.55,.64-.95,1.35-.95,.42,0,.76,.08,1.22,1.07,.13,.25,.27,.6,.29,.9h1.49Zm-3.08,2.7c.07-.01,.2-.06,.34-.06h6.96c.2,0,.57,0,.77,.06v-.48c0-.13-.07-.21-.21-.21h-7.64c-.14,0-.22,.08-.22,.21v.48Z"/><path class="cls-1" d="M115.62,10.62c.18,0,.94,0,.94,.84s-.76,.83-.94,.83h-.85c-.08,.22-.14,.41-.22,.6h1.88c.22,0,.92,0,.92,.78,0,.83-.63,.84-.92,.84h-11.55c-.2,0-.94,0-.94-.8s.73-.83,.94-.83h1.96c-.06-.27-.1-.41-.15-.6h-1.01c-.21,0-.92,0-.92-.83s.67-.84,.92-.84h3.8c0-.36,.1-.87,1.08-.87,.87,0,1.29,.18,1.29,.87h3.78Zm-3.85,8.86h4.05c.36,0,.74,.07,.74,.67,0,.53-.25,.7-.74,.7h-4.05v.34h4.65c.25,0,.92,0,.92,.81s-.6,.84-.92,.84h-11.55c-.21,0-.94,0-.94-.83s.67-.83,.94-.83h4.67v-.34h-4.05c-.21,0-.74,0-.74-.64,0-.48,.17-.73,.74-.73h4.05v-.34h-2.63c-1.56,0-1.84-.27-1.84-1.84v-.62c0-1.56,.27-1.84,1.84-1.84h7.51c1.56,0,1.84,.27,1.84,1.84v.62c0,1.56-.27,1.84-1.84,1.84h-2.65v.34Zm-2.23-3.01v-.45h-1.92c-.15,0-.22,.08-.22,.22v.22h2.14Zm0,1.06h-2.14v.24c0,.14,.08,.22,.22,.22h1.92v-.46Zm-.41-5.23c.07,.24,.08,.28,.18,.59h2.7c.1-.27,.1-.29,.18-.59h-3.07Zm2.63,4.16h2.17v-.22c0-.14-.07-.22-.22-.22h-1.95v.45Zm0,1.06v.46h1.95c.15,0,.22-.08,.22-.22v-.24h-2.17Z"/><path class="cls-1" d="M127.28,22.15c0,.27,0,1.14-1.09,1.14-1.02,0-1.12-.7-1.12-1.14v-4.85c-.78,.14-1.42-.59-1.42-1.37,0-.48,.17-.74,.49-1.22,1.01-1.51,1.36-3.14,1.51-3.85,.1-.48,.24-.95,1.06-.95,.45,0,1.22,.13,1.22,.94,0,.32-.18,1.43-.66,2.84v8.46Zm1.37-4.05c-.24,0-1.12,0-1.12-1.01,0-.8,.38-1.11,1.12-1.11h2.62v-.74h-1.26c-1.11,0-1.75-.38-1.75-1.74v-1.5c0-1.36,.64-1.75,1.75-1.75h4.78c1.11,0,1.74,.39,1.74,1.75v1.5c0,1.36-.64,1.74-1.74,1.74h-1.33v.74h2.61c.25,0,1.14,0,1.14,1.01,0,.84-.42,1.11-1.14,1.11h-1.54c.8,1.14,1.25,1.54,2.24,2.44,.39,.35,.43,.6,.43,.78,0,.63-.59,1.29-1.22,1.29-.43,0-.67-.21-1.23-.87-.64-.73-1.08-1.43-1.29-1.79v2.19c0,.27,0,1.12-1.04,1.12-.81,0-1.15-.34-1.15-1.12v-2.09c-.32,.42-.91,1.22-1.93,2.13-.35,.31-.59,.41-.84,.41-.67,0-1.19-.66-1.19-1.29,0-.46,.28-.7,.71-1.01,.9-.64,1.39-1.01,2.27-2.19h-1.64Zm5.58-5.59c0-.22-.11-.34-.34-.34h-3.01c-.22,0-.34,.11-.34,.34v.52c0,.22,.11,.34,.34,.34h3.01c.22,0,.34-.11,.34-.34v-.52Z"/><path class="cls-1" d="M154.07,15.48c.49,0,.77,.07,1.01,.18-.18-.14-.22-.17-.9-.74-.46,.06-1.22,.13-3.12,.24-.88,.04-5.59,.24-5.82,.24-.78,0-1.11-.27-1.11-1.04,0-.69,.34-.91,.99-.94,.22-.01,1.26-.01,1.5-.01,.04-.06,.27-.36,.55-.84h-2.44c-.7,0-.95-.29-.95-1.01,0-.9,.69-.9,.95-.9h4.53c-.04-.66,.35-.87,1.27-.87s1.19,.28,1.19,.87h4.55c.7,0,.95,.29,.95,1.01,0,.9-.7,.9-.95,.9h-1.57c2.05,1.32,2.17,1.67,2.17,2.03,0,.56-.55,1.23-1.23,1.23-.22,0-.36-.07-.46-.11,.49,.32,.63,.78,.63,1.51v4.26c0,.49-.06,1.11-.59,1.49-.24,.17-.43,.28-2.17,.28-1.44,0-2.13,0-2.13-1.09,0-.95,.79-.95,1.01-.95,.07,0,1.12,.03,1.18,.03,.21,0,.35-.01,.35-.25v-.25h-5.91v1.42c0,.71-.28,1.14-1.25,1.14-1.12,0-1.12-.85-1.12-1.14v-4.92c0-1.37,.64-1.75,1.75-1.75h7.13Zm-6.52,2.06h5.91v-.24c0-.13-.08-.21-.22-.21h-5.48c-.14,0-.21,.08-.21,.21v.24Zm5.91,1.39h-5.91v.45h5.91v-.45Zm-3.71-6.36c-.08,.13-.49,.7-.57,.81,.03,0,1.61-.03,2.98-.08-.03-.07-.07-.15-.07-.32,0-.2,.06-.32,.08-.41h-2.42Z"/></g><g><path class="cls-1" d="M85.04,36.5c-.8,0-1.09-.69-1.09-1.25,0-.64,.41-.9,.85-.98,.55-.85,.73-1.14,1.47-2.37-.5-.57-.73-.83-1.39-1.5-.71-.74-.9-.97-.9-1.44,0-.74,.52-1.21,.97-1.21,.13,0,.22,.04,.28,.07,.39-.8,.69-1.54,.94-2.16,.38-.91,.6-1.3,1.22-1.3,.69,0,1.26,.5,1.26,1.14,0,.71-1.27,2.9-1.79,3.8,.13,.14,.21,.22,.55,.6,.24-.46,.6-1.23,.85-1.7,.11-.21,.32-.57,.88-.57,.27,0,.45,.08,.56,.13,.13-.59,.45-.85,1.18-.85h.52v-1.5c0-.42,.07-1.14,1.04-1.14,.81,0,1.22,.25,1.22,1.14v1.5h1.16c1.2,0,2.19,0,2.19,1.79,0,2.13-.03,4.26-.25,6.38-.25,2.37-.77,2.62-2.93,2.62-.22,0-.63,0-.97-.08-.52-.11-.81-.63-.81-1.19,0-.67,.36-1.19,.98-1.19,.13,0,.7,.04,.83,.04,.45,0,.59-.07,.7-1.42,.08-.92,.13-3.38,.13-4.37,0-.28-.1-.28-.35-.28h-.69c-.08,4.46-1.56,6.53-2.14,7.31-.8,1.04-1.09,1.12-1.47,1.12-.63,0-1.32-.42-1.32-1.11,0-.35,.11-.45,.42-.87-1.81,.45-3.84,.84-4.09,.84Zm2.34-2.62c.49-.07,.99-.17,1.36-.24-.08-.36-.27-1.15-.27-1.28,0-.07,0-.15,.01-.22-.56,.9-.66,1.04-1.11,1.74Zm3.5-4.68c-.11,0-.43,0-.69-.13-.11,.27-.57,1.19-1.42,2.59,.32-.28,.69-.28,.78-.28,.7,0,.83,.36,1.18,1.79,.48-1.26,.63-2.62,.66-3.98h-.52Z"/><path class="cls-1" d="M100.04,35.28c.97-.34,1.86-.64,2.34-2.1,.34-1.06,.35-1.08,.5-1.23,.24-.21,.6-.22,.74-.22,.25,0,.64,.06,.95,.28,.18,.14,.28,.34,.28,.63,0,.45-.32,2.02-1.26,3.19-1.04,1.3-2.54,1.85-3.28,1.85-1.05,0-1.16-1.14-1.16-1.29,0-.63,.21-.88,.88-1.11Zm2.16-4.3c0,.29,0,1.15-1.12,1.15-.97,0-1.26-.39-1.26-1.15v-5.53c0-.28,0-1.14,1.11-1.14,.99,0,1.27,.41,1.27,1.14v5.53Zm9.63-1.11c0,1.37-.64,1.75-1.75,1.75h-5.03c-1.11,0-1.75-.38-1.75-1.75v-3.45c0-1.36,.64-1.74,1.75-1.74h5.03c1.11,0,1.75,.38,1.75,1.74v3.45Zm-6.21-2.62h3.91v-.43c0-.13-.07-.21-.21-.21h-3.49c-.14,0-.21,.08-.21,.21v.43Zm0,1.77v.48c0,.13,.07,.21,.21,.21h3.49c.14,0,.21-.08,.21-.21v-.48h-3.91Zm2.96,5.97c0,.34,.2,.34,.42,.34h.71c.45,0,.45-.21,.49-1.05,.01-.49,.04-1.15,1.01-1.15,1.2,0,1.2,.77,1.2,1.28,0,.7-.08,1.84-.38,2.44-.36,.71-.66,.74-3.07,.74-1.75,0-2.73,0-2.73-1.77v-2.96c0-.27,0-1.13,1.11-1.13,.98,0,1.23,.43,1.23,1.13v2.13Z"/><path class="cls-1" d="M124.98,26.51c1.43,0,1.54,.85,1.54,1.39,0,.67-.53,4.55-3.7,7.03-2.03,1.6-5.16,2.28-5.82,2.28-.8,0-1.19-.66-1.19-1.32,0-.8,.42-.9,1.32-1.09,2.09-.46,4.6-1.22,5.98-4.08,.36-.76,.6-1.61,.6-1.75,0-.2-.11-.2-.41-.2h-3.7c-.91,1.15-1.75,1.89-2.24,2.26-.32,.25-.67,.42-1.04,.42-.74,0-1.25-.67-1.25-1.25,0-.46,.08-.52,1.11-1.32,.18-.14,1.44-1.15,2.48-3.15,.34-.66,.55-1.05,1.3-1.05,.49,0,1.36,.25,1.36,.94,0,.25-.06,.43-.28,.88h3.92Z"/><path class="cls-1" d="M131.11,31.03c-.24,0-1.15,0-1.15-1.12,0-.92,.57-1.15,1.15-1.15h9.26c.69,0,1.42,.21,1.42,1.32,0,.55-.53,4.11-3.8,5.86-2.07,1.11-4.41,1.28-4.74,1.28-.27,0-.66-.01-.97-.39-.2-.25-.29-.6-.29-.9,0-.85,.63-.98,.98-1.02,2.23-.29,4.34-.57,5.55-2.56,.27-.43,.46-.94,.46-1.09,0-.18-.1-.21-.32-.21h-7.55Zm8.8-5.75c.25,0,1.14,0,1.14,1.14s-.76,1.16-1.14,1.16h-7.74c-.25,0-1.14,0-1.14-1.14s.8-1.16,1.14-1.16h7.74Z"/><path class="cls-1" d="M146.78,27.61c-.53,0-1.21-.21-1.21-1.18,0-.78,.43-1.19,1.21-1.19h6.73c.57,0,1.72,.04,1.72,1.37,0,.97-.91,3.07-2.14,4.81,1.29,.91,2.24,1.71,3.28,2.63,.53,.48,.83,.8,.83,1.35,0,.78-.69,1.4-1.43,1.4-.55,0-.83-.31-1.16-.69-.76-.85-2.03-2.12-2.96-2.91-1.6,1.74-4.3,3.74-5.34,3.74-.66,0-1.19-.67-1.19-1.36,0-.56,.25-.7,1.14-1.19,4.62-2.56,5.97-6.46,5.97-6.63,0-.15-.15-.15-.29-.15h-5.14Z"/></g></svg>