<?xml version="1.0" encoding="UTF-8"?><svg id="Layer_1" xmlns="http://www.w3.org/2000/svg" xmlns:xlink="http://www.w3.org/1999/xlink" viewBox="0 0 157.27 80.93"><defs><style>.cls-1,.cls-2{fill:#fff;}.cls-2{fill-rule:evenodd;}.cls-3{clip-path:url(#clippath-1);}.cls-4{clip-path:url(#clippath);}.cls-5{fill:#7fc4de;}.cls-6{fill:none;}.cls-7{fill:#ee7402;}</style><clipPath id="clippath"><rect class="cls-6" width="157.23" height="47.33"/></clipPath><clipPath id="clippath-1"><rect class="cls-6" width="157.23" height="47.33"/></clipPath></defs><g id="Artwork_8"><g class="cls-4"><g class="cls-3"><path class="cls-2" d="M73.97,7.53c-.05,.14-.04,.55-.02,.72,.03,.04,.12,.34,.16,.42,.11,.26,.28,.51,.47,.68,.09,.08,.2,.18,.31,.25l.03,.02s.03,0,.05,.03c.06,.01,.13,.04,.2,.07,.07,.02,.15,.04,.23,.05,.19,.03,.32,.02,.5,.03,.02-.02,.03-.02,.07-.02,.09-.01,.17-.06,.22-.1,.08-.08,.08-.06,.14-.19,.15-.34-.09-.31-.16-.42-.02-.03-.07-.17-.1-.22-.09-.16-.17-.26-.29-.37-.06-.06-.1-.1-.17-.16-.04-.03-.04-.04-.08-.08-.03-.03-.06-.04-.09-.07-.14-.13-.58-.5-.75-.57-.1-.04-.26-.03-.27-.04-.06-.03-.06-.11-.21-.11-.12,0-.17,.06-.24,.09"/><path class="cls-2" d="M74.18,6.75c.05,.03,.02,.05,.06,.13,.02,.05,.05,.06,.09,.09,.08,.05,.25,.3,.51,.14,.2-.12,.1-.1,.21-.17,.23-.14,.28-.15,.43-.33,.3-.36,.2-.4,.44-.69,.05-.06,.11-.19,.16-.22,.04-.03,.08-.03,.12-.06,.04-.03,.06-.07,.09-.11,.17-.18,.2-.33,.45-.2,.1,.06,.34,.26,.52,.04,.08-.09,.1-.13,.09-.28v-.12c-.22-.09-.87-.07-1.15,0-.5,.13-1.07,.44-1.41,.8-.03,.03-.05,.05-.07,.08-.2,.23-.3,.38-.45,.66-.04,.08-.06,.15-.09,.23"/><path class="cls-2" d="M77.47,10.55c-.55,0-.71,0-1.25-.23-.21-.09-.54-.26-.75-.37-.07-.04-.19-.11-.25-.13-.04-.01,0,0-.04-.02l-.02-.02s.04,0,.06,.02c.32,.07,.34,.05,.66,0h0c-.18-.01-.31,0-.5-.03-.08-.01-.15-.03-.23-.05-.07-.02-.13-.06-.2-.07-.01,0-.05,.04-.04,0-.01,0-.01,0-.02-.01,0,0,0,0,0,0,0,0,0,0,0,0-.2-.11-.38-.27-.51-.42-.08-.09-.14-.15-.2-.26-.03-.05-.13-.29-.15-.31,.06,.35,.3,.73,.47,.95,.21,.3,.38,.54,.68,.73,.25,.16,.72,.3,1.08,.35,.44,.05,.86,.03,1.24-.11"/><path class="cls-2" d="M73.98,6.81s.18-.37,.22-.44c.42-.77,1-1.23,1.86-1.5,.5-.16,.69-.06,1.2-.06-.05-.14-.34-.21-.48-.23-.79-.12-1.52,.3-2.04,.81-.11,.1-.23,.26-.32,.4-.15,.23-.36,.69-.43,1.02"/><path class="cls-2" d="M78.51,5.5h0s-.02-.02-.05-.05c-.03-.02-.02-.03-.06-.04,.01,.02,.02,.03,.04,.05,.03,.02,.02,.01,.06,.04"/><path class="cls-2" d="M77.71,5.3c-.05,.08-.12,.15-.18,.22-.12,.17-.1,.25-.27,.36-.06,.04-.06,.05-.11,.1-.17,.18-.03,.07-.26,.16-.38,.16-.5,.41-.59,.45-.05,.03-.09,.04-.13,.08-.05,.04-.04,.07-.09,.12-.04,.05-.07,.05-.1,.11-.08,.16,.02,.54,.09,.68,.05,.09,.1,.17,.16,.27,.06,.11,.11,.13,.22,.2,.32,.19,.35,.06,.49-.18,.04-.07,.06-.05,.11-.1,.13-.1,.21-.31,.27-.36,.07,.06,.16,.13,.28,.16-.01,.1-.09,.23-.13,.5-.03,.2,0,.4,0,.61-.26-.03-.35-.1-.54,.24-.03,.05-.12,.12-.19,.22-.06,.08-.1,.18-.13,.3-.12,.59,.35,.85,.85,.6,.08-.04,.31-.18,.38-.24,.17-.15,.16-.18,.38-.25,.12-.03,.16-.11,.3-.12,.31-.02,.41-.13,.53-.3,.06-.09,.11-.15,.16-.26,.04-.08,.07-.25,.12-.3,.13-.17,.16-.67,.14-.92-.04-.57-.23-1.13-.51-1.59-.08-.13-.37-.52-.48-.56-.04-.03-.03-.02-.06-.04-.03-.02-.03-.03-.04-.05l-.19-.12c-.06-.03-.13-.07-.2-.1-.05,.02-.1,.03-.16,.04-.05,.02-.1,.04-.15,.06"/><path class="cls-1" d="M117.06,11.8h0c1.45,0,2.63,1.17,2.63,2.62v12.51c0,1.69,.2,2.93,.6,3.71,.63,1.38,1.99,2.07,4.09,2.07s3.45-.69,4.07-2.07c.4-.78,.6-2.01,.6-3.71V14.41c0-1.44,1.18-2.62,2.63-2.62s2.63,1.17,2.63,2.62v12.52c0,2.62-.41,4.66-1.23,6.12-1.52,2.67-4.43,4.01-8.72,4.01s-7.2-1.34-8.73-4.01c-.82-1.46-1.23-3.5-1.23-6.12V14.41c0-1.44,1.18-2.62,2.63-2.62"/><path class="cls-1" d="M155.03,25.91c-1.47,1.22-3.57,1.83-6.31,1.83h-2.62c-1.44,0-2.61,1.16-2.61,2.59v3.8c0,1.43-1.17,2.59-2.61,2.59s-2.61-1.16-2.61-2.59V14.34c0-1.43,1.17-2.59,2.61-2.59h8.18c2.49,0,4.47,.64,5.95,1.93,1.48,1.29,2.22,3.28,2.22,5.98,0,2.95-.74,5.03-2.21,6.25m-4.01-9c-.67-.55-1.6-.83-2.8-.83h-2.12c-1.44,0-2.61,1.16-2.61,2.59v2.17c0,1.43,1.17,2.59,2.61,2.59h2.12c1.2,0,2.13-.3,2.8-.9,.67-.6,1-1.55,1-2.85s-.33-2.22-1-2.78"/><path class="cls-1" d="M66.78,15.6c-2.77,3.8-4.83,6.92-6.17,9.34l-.66,1.28-.07,.1,.03,.33c.11,0,.22,.01,.33,.03,.24,.02,.57,.05,.99,.1,.37,.04,.62,.07,.73,.07,.84,.15,1.68,.34,2.52,.57,.85,.23,1.52,.43,2.03,.59,.51,.16,1.25,.43,2.24,.79,.99,.36,1.7,.61,2.15,.74,.22,.09,.38,.23,.48,.43,.1,.2,.11,.4,.03,.62-.08,.22-.21,.38-.41,.48-.2,.1-.41,.11-.63,.05l-2.18-.79-2.18-.75c-.48-.17-1.13-.37-1.93-.57-.8-.21-1.6-.38-2.39-.51-.07-.02-.26-.04-.59-.07-.44-.04-.78-.08-1.02-.1l-.1-.03c.15,3.1,.25,5.37,.3,6.79,0,.22-.08,.42-.23,.59-.15,.18-.34,.26-.56,.26s-.42-.08-.59-.23c-.18-.15-.26-.34-.26-.56-.04-1.38-.15-3.79-.33-7.25-.13-.09-.24-.19-.33-.3-.13-.15-.19-.34-.17-.56,0-.07,.01-.13,.03-.2,.02-.04,.04-.1,.07-.16,.02-.09,.07-.2,.13-.33l.2-.39c-.07-1.44-.12-2.71-.16-3.8-.02-.81,0-2.68,.07-5.61,.04-2.36-.01-4.17-.16-5.44-.02-.22,.04-.42,.18-.61,.14-.19,.32-.29,.54-.31,.22-.02,.42,.04,.61,.18,.19,.14,.29,.32,.31,.54,.18,1.36,.23,3.25,.17,5.67-.07,2.89-.09,4.72-.07,5.51l.03,1.02c1.3-2.23,3.2-5.06,5.71-8.49,.13-.17,.31-.28,.53-.31,.22-.03,.42,.02,.61,.15,.19,.13,.3,.31,.33,.52,.03,.22-.02,.43-.15,.62"/><path class="cls-1" d="M77.6,13.27c.53,5.68,.79,13.28,.79,22.79,0,.22-.08,.41-.25,.57-.16,.16-.36,.25-.58,.25s-.41-.08-.58-.25c-.16-.16-.25-.35-.25-.57,0-9.53-.26-17.08-.79-22.66-.02-.22,.04-.41,.18-.59,.14-.17,.33-.27,.56-.3,.23-.02,.43,.04,.61,.18,.18,.14,.28,.33,.3,.57"/><path class="cls-1" d="M92.68,10.16c.07,.74,.11,1.5,.13,2.28,.02,.78,.02,1.72,0,2.82-.02,1.1-.03,1.83-.03,2.18,0,2.03-.06,7.61-.18,11.69-.12,4.08-.18,4.61-.18,6.64,0,.22-.08,.41-.25,.57-.17,.16-.36,.25-.58,.25s-.41-.08-.58-.25c-.17-.16-.25-.35-.25-.57,0-1.35,.02-.35,.07-2.03-1.39,.57-2.9,.62-4.55,.16-1.1-.31-2.01-.79-2.72-1.46-.72-.67-1.19-1.4-1.44-2.2-.24-.8-.32-1.61-.23-2.44,.09-.83,.33-1.6,.73-2.29,.4-.72,.94-1.31,1.63-1.77,.69-.46,1.47-.7,2.33-.72,1.5-.04,2.99,.61,4.49,1.97,.04-1.88,.07-6.07,.07-7.54,0-.42,.01-1.16,.03-2.23,.02-1.07,.03-1.98,.02-2.72-.01-.74-.06-1.45-.15-2.13-.02-.24,.04-.45,.18-.62,.14-.17,.33-.27,.56-.3,.23-.02,.43,.04,.61,.18,.18,.14,.27,.32,.3,.54m-1.75,17.01c-1.52-1.73-2.96-2.57-4.32-2.52-1.1,.02-1.96,.58-2.57,1.67-.29,.5-.46,1.05-.53,1.66-.07,.6,0,1.18,.18,1.74,.19,.56,.54,1.08,1.06,1.56s1.18,.83,2,1.05c1.54,.44,2.88,.31,4.03-.39,.04,0,.08-.01,.1-.03,.02-.59,.05-1.42,.08-2.49,.03-1.07,.05-1.79,.05-2.16l-.07-.07Z"/><path class="cls-1" d="M104.37,16.81c-.37-1.14-.92-1.97-1.63-2.51-.72-.54-1.45-.78-2.21-.72-.76,.05-1.45,.4-2.06,1.03-.62,.63-1.01,1.56-1.19,2.79-.24,1.46-.2,2.6,.13,3.41,.22,.52,.51,1.07,.87,1.64,.36,.57,.87,1.29,1.52,2.16,.65,.87,1.11,1.51,1.37,1.9,.86,1.25,1.51,2.43,1.95,3.54,.44,1.11,.57,2.26,.4,3.44-.2,1.27-.88,2.23-2.05,2.89-.86,.48-1.67,.62-2.44,.43-.66-.17-1.24-.59-1.75-1.25-.7-.92-1.19-2.2-1.45-3.84-.02-.22,.03-.42,.17-.61,.13-.19,.31-.29,.53-.33,.22-.03,.42,.02,.61,.15,.19,.13,.3,.31,.35,.52,.22,1.38,.59,2.42,1.12,3.11,.26,.35,.54,.56,.82,.62,.35,.09,.77,0,1.25-.26,.68-.39,1.08-.96,1.19-1.71,.13-.87,.02-1.78-.35-2.7-.36-.93-.93-1.96-1.7-3.1-.2-.28-.64-.89-1.32-1.8-.68-.92-1.23-1.7-1.63-2.34-.41-.64-.73-1.27-.97-1.89-.44-1.07-.53-2.49-.26-4.26,.24-1.53,.8-2.76,1.68-3.69,.88-.93,1.91-1.44,3.1-1.52,1.17-.09,2.26,.26,3.28,1.03s1.78,1.88,2.26,3.33c.07,.22,.05,.43-.05,.62-.1,.2-.26,.33-.48,.41-.22,.08-.43,.07-.63-.03-.2-.1-.34-.26-.43-.48"/><path class="cls-1" d="M0,23.66c0,13.07,10.91,23.66,24.37,23.66s24.37-10.6,24.37-23.66S37.83,0,24.37,0,0,10.6,0,23.66"/><path class="cls-7" d="M24.37,45.86c12.62,0,22.85-9.94,22.85-22.19S36.99,1.47,24.37,1.47"/><path class="cls-5" d="M24.37,1.47C11.75,1.47,1.51,11.41,1.51,23.66s10.23,22.19,22.85,22.19"/><path class="cls-1" d="M24.38,3.54s0,0,0,0c0,0,0,0,0,0C13.08,2.82,3.15,12.17,3.23,23.5c-.08,11.31,9.83,20.99,21.1,20.29,0,0,0,0,0,0,0,0,0,0,0,0,.01,0,.03,0,.04,0,0,0,0,.02,0,.03,0,0,0-.02,0-.03,.01,0,.03,0,.04,0,0,0,0,0,0,0,0,0,0,0,0,0,11.27,.7,21.18-8.98,21.1-20.29,.08-11.32-9.85-20.67-21.13-19.95m19.59,19.96c-2.39-.23-4.82-.38-7.26-.49-.07-3.6-.92-7.18-2.56-10.39,1.55-.73,2.99-1.64,4.25-2.75,3.83,3.86,5.61,8.77,5.57,13.63M24.37,3.54s0,0,0,0c3.62,2,6.33,5.01,8.13,8.53-2.44,.7-4.99,1.08-7.56,1.14-.11-3.25-.29-6.49-.58-9.66m-.76,19.21c-3.32,.02-6.7,.07-10.07,.2,.07-3.38,.79-6.74,2.15-9.78,2.51,.97,5.27,1.49,8.04,1.55-.07,2.69-.11,5.38-.13,8.04m0,1.51c.01,2.04,.04,4.1,.08,6.17-2.99,.07-5.97,.67-8.63,1.81-.95-2.6-1.45-5.38-1.51-8.17,3.37,.13,6.74,.18,10.07,.2m1.52,0c3.32-.02,6.7-.07,10.07-.2-.06,2.82-.57,5.62-1.54,8.23-2.65-1.16-5.62-1.78-8.61-1.87,.04-2.07,.07-4.13,.08-6.17m0-1.51c-.02-2.65-.05-5.34-.13-8.04,2.77-.08,5.52-.61,8.01-1.6,1.38,3.06,2.11,6.44,2.18,9.84-3.37-.13-6.74-.18-10.07-.2M31.96,5.39c2.5,1.18,4.59,2.65,6.29,4.32-1.45,.81-2.99,1.47-4.58,2-.04-.07-.08-.14-.11-.2-2.07-3.55-5.28-6.59-9.17-7.96,2.64,.18,5.21,.78,7.58,1.84m-7.59-1.85s0,0,0,0h0c-.3,3.18-.47,6.42-.58,9.67-2.57-.04-5.13-.4-7.59-1.08,1.81-3.54,4.53-6.58,8.17-8.59,0,0,0,0,0,0h0s0,0,0,0m-.01,0c-3.9,1.37-7.1,4.41-9.17,7.96-.05,.09-.1,.19-.16,.28-1.61-.52-3.17-1.18-4.65-1.99,3.33-3.44,8.06-5.84,13.98-6.26m-14.12,6.4c1.28,1.11,2.73,2.02,4.31,2.75-1.61,3.19-2.45,6.75-2.52,10.32-2.44,.11-4.87,.27-7.26,.49,.04-4.94,1.95-9.85,5.47-13.56m6.54,31.66c-8.31-3.91-12.06-11.04-12.01-18.09,2.39,.22,4.82,.38,7.26,.49,.06,3.02,.67,6.02,1.82,8.8-1.56,.79-3,1.78-4.23,2.97,1.46-.85,3-1.56,4.6-2.13,.29,.62,.6,1.23,.95,1.82,2.06,3.55,5.26,6.94,9.15,8.32-2.62-.18-5.18-1.12-7.53-2.18m7.54,2.18c-3.58-1.96-6.32-5.39-8.11-8.89-.28-.54-.53-1.1-.76-1.66,2.67-.82,5.47-1.25,8.28-1.3,.1,3.86,.29,8.08,.64,11.85-.02,0-.04,0-.05,0m.06,0c.35-3.78,.54-7.98,.64-11.85,2.81,.07,5.6,.52,8.25,1.36-.23,.54-.47,1.07-.73,1.59-1.79,3.51-4.53,6.94-8.11,8.89-.02,0-.03,0-.05,0m.06,0c3.89-1.38,7.09-4.77,9.15-8.32,.33-.57,.63-1.15,.91-1.74,1.62,.59,3.17,1.33,4.64,2.22-1.23-1.23-2.68-2.25-4.26-3.07,1.17-2.8,1.79-5.83,1.85-8.87,2.44-.11,4.87-.27,7.26-.49-.08,9.6-7.23,19.37-19.54,20.27"/><path class="cls-1" d="M37,24.18s.85,1.26,2.07,1.16c1.18-.09,2.15-1.47,2.45-1.93,.06-.1,.17-.17,.28-.2,.28-.07,.52-.1,.77-.31,.72-.63,.66-1.88-.19-2.23-.61-.25-.82,.58-1.32,1.09-.29,.3-.28,.61-.24,.8,.03,.13,0,.26-.08,.37-.22,.3-.7,.81-1.47,.88-.87,.08-1.23-.41-1.34-.61-.03-.05-.04-.12-.05-.18-.13-2.5-2.13-3-2.1-3.32,.02-.19,.19-.18,.19-.18,4.74-.6,3.85-3.81,3.85-3.81-.36-1.11-.14-2.03-.12-2.11,0,0,0-.01,0-.02,1.15-4.49-4.81-4.96-6.4-3.99-.17,.1-.39,.08-.54-.05-.14-.13-.33-.2-.54-.2-.15,0-.28,.04-.4,.11-.15,.09-.34,.08-.49-.02-.5-.36-1.6-.81-2.92,.73-1.81,2.11-1.2,4.28,.12,6.09,.34,.47,.45,.82,.44,1.06,0,0,0,0,0,0,0,.07-.02,.13-.05,.18-.07,.14-.19,.2-.32,.2,0,0,0,0,0,0,0,0,0,0,0,0-.04,0-.07,0-.1-.02-.02,0-.03,0-.04-.01,0,0,0,0,0,0-.06-.03-.11-.08-.15-.14,0-.01-.02-.02-.03-.04,0-.01,0-.03-.01-.04-.06-.17-.05-.41,.13-.72,0,0-.44,.24-.64,.65-.25,.5,.22,.99,.22,.99-.96-.15-.38-1.09-.38-1.09,0,0-.3,.13-.46,.28-.72,.65-.33,1.53,.2,1.71,.65,.21,1.07,.14,1.27,.07,.09-.03,.18-.03,.27,0,1.55,.41,1.84-.95,1.9-1.46h0s0,0,0,0c0,0,.02-.08,.09-.08,.06,0,.08,.07,.08,.07,.19,.51,.41,1.59,2.02,1.54,.02,0,.02,0,.04,0,.01,0,.03,0,.04,0,.13,0,.23,.1,.23,.23,0,.1-.06,.18-.15,.22,0,0,0,0,0,0,0,0-1.5-.27-3.26,.4-.59,.22-2.06,1.01-2.92,1.97-.55,.62-.91,1.44-.95,1.56-.01,.03-.04,.05-.07,.06-.81,.15-1.22,.96-1.32,1.18-.02,.03-.05,.06-.09,.05-.26-.05-.46,.04-.6,.17-.19,.17-.49,.19-.67,0-.52-.54-1.75-.65-2.43-1.68-.91-1.38-1.11-3.34-2.34-3.75-.63-.21-.79-.03-.8-.2-.03-.26,.88-.35,1.01-.36,.01,0,.02,0,.03,0l.84-.14c3.71-.83,2.77-4.03,2.77-4.03,0,0-.4-2.91-.03-2.98,.36-.06,1.16-.69,1.3-1.39,.16-.78-.53-.54-.53-.54,0,0-1.63,.66-1.68-.43-.06-1.09-1.4-.47-1.19-.79,.21-.32,.04-.6,.04-.6,0,0-.14-.27-.48-.01-.2,.15-.84,.52-.84,.52-.07,.03-.14-.03-.12-.1,.03-.14,.06-.39,.07-.84,.02-.74-1.45,.33-1.99,.75-.06,.05-.15,0-.15-.08,.03-.72-1.63,.12-1.63,.12-3.76,1.56-3.5,5.97-3.39,7.45,.11,1.48,.86,2.23,1.2,2.16,.34-.06,.32-.48,.32-.48,.28,.83,2.36,.96,2.55,1.42,.21,.48-.53,.12-2.4,.17-1.29,.04-3.3,.76-4.32,1.94-.3,.35-.3,.55-.53,.83-.22,.26-.73,.36-1.04,.36-.21,0-.43,.02-.62,.1-1.96,.76-.96,2.22-.96,2.22,0,0,.43,.81,1.3,.62,.63-.14,.27-.51,1.02-1.03,.13-.09,.67,.06,1.05-.36,.04-.04,1.77-1.46,3.25-1.37,.4,.03,.74,.39,.71,.79-.05,.81-.7,1.88-.97,2.22-1,1.25-.48,2.5-.48,2.72,0,.02,0,.03,0,.04-.1,.2-.93,1.82-2.28,2.24-1.43,.44-2.6-1.61-2.61-1.62,0-.02,.5-1.21-.89-1.46-1.91-.34-2.1,4.43-2.1,4.52,0,.49,.4,.92,.66,.92,.78,.09,1.05-1.82,1.17-1.98,.13-.18,.33-.17,.46,.01,1.06,1.54,3.15,1.97,3.19,1.98,0,0,0,0,0,0,3.44,.66,4.87-2.93,5.08-3.52,.02-.05,.07-.07,.11-.06,3.36,.95,3.6,4.84,3.49,6.67-.12,1.84,1.02,1.39,2.77,.88,1.75-.51,1.98-.62,1.56-1.43-.34-.65-1.36-.33-1.73-.19-.06,.03-.13-.03-.12-.1,.4-3.81-1.11-5.73-2.33-7.6-.54-.82,.12-2.83,.22-2.99,.04-.07,.14-.05,.16,.03,.32,.99,1.89,2.16,3.38,2.6,1.02,.3,1.83,.1,2.24-.06,.17-.06,.34-.02,.48,.09,.61,.48,1.69,0,2.07-.54,.04-.06,.37-.27-.09-1.3-.28-.63,.41-1.26,.41-1.26,3.12-3.07,4.06-1.81,4.07-1.8,0,0,0,0,0,0,.56,5.44-3.7,6.59-4.63,6.77-.07,.01-.1,.1-.04,.16,1.35,1.31,1.71,2.44,.4,2.85-.42,.13-.87-.1-1.17-.67-.26-.5-.37-1.33-.66-1.57-.45-.37-1.12,.45-1.63,1.16-1.21,1.72-.83,3.2-.11,3.34,.71,.13,.92-.57,1.14-1.46,.16-.63,.13-.34,.83,.59,.77,1.01,2.05,1.25,2.5,.38,.91-1.81,2.44-1.29,2.53-1.26,0,0,0,0,.01,0,2.76,1.59,5.14,.95,6.03,.61,.29-.11,.61-.02,.78,.24,.31,.47,.5,1.2,.6,1.69,.06,.27,.04,.54-.04,.8-.06,.19-.11,.44-.08,.65,.24,1.6,2.93,.81,4.18-.16,.75-.58,.49-1.24,.24-1.47-.68-.61-1.79-.1-2.22,.1-.44,.2-.36-.22-.36-.22,.36-2.52-.68-3.41-.98-3.78-.3-.37-.02-.45-.02-.45,0,0,.33-.02,.66-.4,.33-.38,.02-.49,.02-.49,0,0-.99-.42-2.45-1.81-1.46-1.39-.3-3.06-.05-3.67,.25-.61,.4-.3,.4-.3"/></g></g></g><g><g><path class="cls-1" d="M18.69,72.95c.98,1.18,2.16,2.19,6.92,3.37,1.03,.27,2.04,.59,2.04,2.01,0,.92-.56,2.6-2.34,2.6s-8.37-2.19-11.15-6.98c-1.33,2.01-3.19,3.49-5.09,4.61-1.66,.95-4.41,2.34-6.15,2.34s-2.31-1.77-2.31-2.66c0-.56,.18-1.01,.53-1.33,.47-.44,.68-.5,3.64-1.33,.53-.15,2.99-.98,4.67-2.63H2.16c-1.63,0-2.16-.74-2.16-2.22,0-1.92,1.54-1.98,2.16-1.98h.95v-3.1c0-2.84,1.33-3.58,3.58-3.58h5.2c0-1.54,.3-2.39,2.37-2.39s2.01,1.54,2.01,2.39h5.17c2.22,0,3.58,.71,3.58,3.58v3.1h.92c1.63,0,2.16,.74,2.16,2.25,0,1.89-1.51,1.95-2.16,1.95h-7.24Zm-.74-17.86v-.71c0-1.48,1.45-1.6,2.04-1.6,1.06,0,2.4,.12,2.4,1.6v.71h3.58c.65,0,2.16,.06,2.16,1.95,0,1.51-.53,2.25-2.16,2.25h-3.58v.65c0,1.36-.98,1.74-2.13,1.74-1.33,0-2.31-.38-2.31-1.74v-.65h-7.84v.65c0,1.39-1.18,1.74-2.07,1.74s-2.25-.24-2.25-1.74v-.65H2.19c-.65,0-2.16-.06-2.16-1.98,0-1.48,.5-2.22,2.16-2.22h3.61v-.71c0-1.48,1.42-1.6,1.98-1.6,.92,0,2.34,.09,2.34,1.6v.71h7.84Zm-6.06,10.85h-3.64c-.5,0-.83,.27-.83,.8v2.01h4.29c.09-.38,.18-.98,.18-1.83v-.98Zm4.38,.68c0,.62-.06,1.45-.15,2.13h4.44v-2.01c0-.53-.3-.8-.8-.8h-3.49v.68Z"/><path class="cls-1" d="M40.47,57.99c.5,0,1.8,0,1.8,1.69,0,1.27-.41,1.92-1.8,1.92h-8.19c-.56,0-1.83-.03-1.83-1.8,0-1.6,.95-1.8,1.83-1.8h8.19Zm-.83-4.23c.5,0,1.8,.03,1.8,1.66,0,1.51-1.04,1.66-1.8,1.66h-6.65c-.56,0-1.8-.03-1.8-1.63,0-1.48,.98-1.69,1.8-1.69h6.65Zm-.18,8.72c.53,0,1.83,0,1.83,1.74,0,1.57-1.01,1.74-1.83,1.74h-6.45c-.5,0-1.83,0-1.83-1.74,0-1.6,1.09-1.74,1.83-1.74h6.45Zm0,4.41c.47,0,1.83,0,1.83,1.71s-1.3,1.74-1.95,1.74h-6.33c-.47,0-1.83,0-1.83-1.71s1.18-1.74,1.83-1.74h6.45Zm1.8,10.08c0,2.78-.47,3.37-3.31,3.37h-3.31c-2.81,0-3.31-.56-3.31-3.37v-2.37c0-2.87,.53-3.37,3.34-3.37h3.22c2.78,0,3.37,.47,3.37,3.37v2.37Zm-3.61-2.01c0-.33-.18-.53-.53-.53h-1.24c-.38,0-.56,.21-.56,.53v1.57c0,.36,.21,.56,.56,.56h1.24c.35,0,.53-.24,.53-.56v-1.57Zm15.46-16.14c2.87,0,3.52,.74,3.52,3.55v2.13h.44c1.33,0,1.63,.95,1.63,1.74,0,1.74-1.06,1.86-1.83,1.86h-13.57c-.47,0-1.86,0-1.86-1.71,0-1.48,.71-1.89,1.86-1.89h1.6c.03-.06,.32-1.03,.62-2.42h-1.01c-.41,0-1.8,0-1.8-1.6s1.36-1.66,1.8-1.66h1.74c.12-.56,.15-.89,.24-1.51h-2.51c-.47,0-1.86,0-1.86-1.77s1.36-1.8,1.86-1.8h12.42c.47,0,1.86,0,1.86,1.77s-1.36,1.8-1.86,1.8h-5.59c-.12,.68-.15,.74-.3,1.51h2.6Zm4.17,17.77c0,3.13-.59,3.75-3.73,3.75h-6.92c-3.13,0-3.75-.59-3.75-3.75v-3.31c0-3.13,.59-3.73,3.75-3.73h6.92c3.1,0,3.73,.56,3.73,3.73v3.31Zm-4.23-2.66c0-.53-.44-.74-.71-.74h-4.52c-.3,0-.74,.21-.74,.74v1.98c0,.47,.41,.74,.74,.74h4.52c.24,0,.71-.18,.71-.74v-1.98Zm-3.25-11.86c-.12,.59-.3,1.3-.59,2.42h3.13v-1.71c0-.62-.5-.71-.71-.71h-1.83Z"/><path class="cls-1" d="M18.69,72.95c.98,1.18,2.16,2.19,6.92,3.37,1.03,.27,2.04,.59,2.04,2.01,0,.92-.56,2.6-2.34,2.6s-8.37-2.19-11.15-6.98c-1.33,2.01-3.19,3.49-5.09,4.61-1.66,.95-4.41,2.34-6.15,2.34s-2.31-1.77-2.31-2.66c0-.56,.18-1.01,.53-1.33,.47-.44,.68-.5,3.64-1.33,.53-.15,2.99-.98,4.67-2.63H2.16c-1.63,0-2.16-.74-2.16-2.22,0-1.92,1.54-1.98,2.16-1.98h.95v-3.1c0-2.84,1.33-3.58,3.58-3.58h5.2c0-1.54,.3-2.39,2.37-2.39s2.01,1.54,2.01,2.39h5.17c2.22,0,3.58,.71,3.58,3.58v3.1h.92c1.63,0,2.16,.74,2.16,2.25,0,1.89-1.51,1.95-2.16,1.95h-7.24Zm-.74-17.86v-.71c0-1.48,1.45-1.6,2.04-1.6,1.06,0,2.4,.12,2.4,1.6v.71h3.58c.65,0,2.16,.06,2.16,1.95,0,1.51-.53,2.25-2.16,2.25h-3.58v.65c0,1.36-.98,1.74-2.13,1.74-1.33,0-2.31-.38-2.31-1.74v-.65h-7.84v.65c0,1.39-1.18,1.74-2.07,1.74s-2.25-.24-2.25-1.74v-.65H2.19c-.65,0-2.16-.06-2.16-1.98,0-1.48,.5-2.22,2.16-2.22h3.61v-.71c0-1.48,1.42-1.6,1.98-1.6,.92,0,2.34,.09,2.34,1.6v.71h7.84Zm-6.06,10.85h-3.64c-.5,0-.83,.27-.83,.8v2.01h4.29c.09-.38,.18-.98,.18-1.83v-.98Zm4.38,.68c0,.62-.06,1.45-.15,2.13h4.44v-2.01c0-.53-.3-.8-.8-.8h-3.49v.68Z"/><path class="cls-1" d="M40.47,57.99c.5,0,1.8,0,1.8,1.69,0,1.27-.41,1.92-1.8,1.92h-8.19c-.56,0-1.83-.03-1.83-1.8,0-1.6,.95-1.8,1.83-1.8h8.19Zm-.83-4.23c.5,0,1.8,.03,1.8,1.66,0,1.51-1.04,1.66-1.8,1.66h-6.65c-.56,0-1.8-.03-1.8-1.63,0-1.48,.98-1.69,1.8-1.69h6.65Zm-.18,8.72c.53,0,1.83,0,1.83,1.74,0,1.57-1.01,1.74-1.83,1.74h-6.45c-.5,0-1.83,0-1.83-1.74,0-1.6,1.09-1.74,1.83-1.74h6.45Zm0,4.41c.47,0,1.83,0,1.83,1.71s-1.3,1.74-1.95,1.74h-6.33c-.47,0-1.83,0-1.83-1.71s1.18-1.74,1.83-1.74h6.45Zm1.8,10.08c0,2.78-.47,3.37-3.31,3.37h-3.31c-2.81,0-3.31-.56-3.31-3.37v-2.37c0-2.87,.53-3.37,3.34-3.37h3.22c2.78,0,3.37,.47,3.37,3.37v2.37Zm-3.61-2.01c0-.33-.18-.53-.53-.53h-1.24c-.38,0-.56,.21-.56,.53v1.57c0,.36,.21,.56,.56,.56h1.24c.35,0,.53-.24,.53-.56v-1.57Zm15.46-16.14c2.87,0,3.52,.74,3.52,3.55v2.13h.44c1.33,0,1.63,.95,1.63,1.74,0,1.74-1.06,1.86-1.83,1.86h-13.57c-.47,0-1.86,0-1.86-1.71,0-1.48,.71-1.89,1.86-1.89h1.6c.03-.06,.32-1.03,.62-2.42h-1.01c-.41,0-1.8,0-1.8-1.6s1.36-1.66,1.8-1.66h1.74c.12-.56,.15-.89,.24-1.51h-2.51c-.47,0-1.86,0-1.86-1.77s1.36-1.8,1.86-1.8h12.42c.47,0,1.86,0,1.86,1.77s-1.36,1.8-1.86,1.8h-5.59c-.12,.68-.15,.74-.3,1.51h2.6Zm4.17,17.77c0,3.13-.59,3.75-3.73,3.75h-6.92c-3.13,0-3.75-.59-3.75-3.75v-3.31c0-3.13,.59-3.73,3.75-3.73h6.92c3.1,0,3.73,.56,3.73,3.73v3.31Zm-4.23-2.66c0-.53-.44-.74-.71-.74h-4.52c-.3,0-.74,.21-.74,.74v1.98c0,.47,.41,.74,.74,.74h4.52c.24,0,.71-.18,.71-.74v-1.98Zm-3.25-11.86c-.12,.59-.3,1.3-.59,2.42h3.13v-1.71c0-.62-.5-.71-.71-.71h-1.83Z"/><path class="cls-1" d="M79.89,65.27c.82,0,1.65,.31,1.65,1.57,0,1.03-.52,1.6-1.65,1.6h-6.67v6.64c0,1.06-.49,1.65-1.54,1.65-.72,0-1.6-.23-1.6-1.65v-6.64h-6.67c-.85,0-1.65-.33-1.65-1.57,0-1.06,.52-1.6,1.65-1.6h6.67v-6.67c0-1.06,.51-1.62,1.54-1.62,.67,0,1.6,.18,1.6,1.62v6.67h6.67Z"/></g><g><path class="cls-1" d="M89.73,55.07c-.06-.14-.11-.29-.2-.48-.13-.29-.2-.46-.2-.67,0-.81,1.09-.91,1.37-.91,.39,0,.81,.06,1.23,1.23,.08,.21,.2,.6,.17,.83h1.09c.2-.38,.32-.63,.49-1.07,.22-.57,.39-.91,1.09-.91,.48,0,1.35,.22,1.35,1.01,0,.27-.08,.41-.42,.98,.76,.13,1.32,.45,1.32,1.74v.93c0,.93-.46,1.14-1.15,1.14-.17,0-.38-.01-.55-.07-.04,.69-.45,.97-.84,1.22-.83,.52-1.23,.7-1.71,.91h3.53c.25,0,1.12,0,1.12,1.04,0,.97-.7,1.07-1.12,1.07h-4.36v1.57c0,1.74-.83,1.84-2.54,1.84-.57,0-1.42,0-1.72-.07-.58-.14-.69-.81-.69-1.12,0-.97,.73-1.05,1.08-1.05,.15,0,.8,.01,.94,.01,.42-.01,.45-.17,.45-.56v-.62h-4.39c-.32,0-1.14-.03-1.14-1.05,0-.87,.55-1.05,1.14-1.05h4.39c0-.2,0-.48,.53-.63,.2-.06,.83-.32,.83-.46,0-.11-.1-.11-.14-.11h-3.74c-.31,0-.88,0-.95-.91-.1,.03-.22,.06-.45,.06-.77,0-1.21-.25-1.21-1.11v-.95c0-1.22,.49-1.67,1.47-1.74-.03-.06-.17-.29-.2-.35-.2-.36-.24-.53-.24-.67,0-.55,.64-.95,1.35-.95,.42,0,.76,.08,1.22,1.07,.13,.25,.27,.6,.29,.9h1.49Zm-3.08,2.71c.07-.01,.2-.06,.34-.06h6.97c.2,0,.57,0,.77,.06v-.48c0-.13-.07-.21-.21-.21h-7.64c-.14,0-.22,.08-.22,.21v.48Z"/><path class="cls-1" d="M115.65,53.8c.18,0,.94,0,.94,.84s-.76,.83-.94,.83h-.85c-.08,.22-.14,.41-.22,.6h1.88c.22,0,.93,0,.93,.79,0,.83-.63,.84-.93,.84h-11.55c-.2,0-.94,0-.94-.8s.73-.83,.94-.83h1.96c-.06-.27-.1-.41-.15-.6h-1.01c-.21,0-.93,0-.93-.83s.67-.84,.93-.84h3.8c0-.36,.1-.87,1.08-.87,.87,0,1.29,.18,1.29,.87h3.78Zm-3.85,8.86h4.05c.36,0,.74,.07,.74,.67,0,.53-.25,.7-.74,.7h-4.05v.34h4.65c.25,0,.93,0,.93,.81s-.6,.84-.93,.84h-11.55c-.21,0-.94,0-.94-.83s.67-.83,.94-.83h4.67v-.34h-4.05c-.21,0-.74,0-.74-.64,0-.48,.17-.73,.74-.73h4.05v-.34h-2.64c-1.56,0-1.84-.27-1.84-1.84v-.62c0-1.56,.27-1.84,1.84-1.84h7.51c1.56,0,1.84,.27,1.84,1.84v.62c0,1.56-.27,1.84-1.84,1.84h-2.65v.34Zm-2.23-3.01v-.45h-1.92c-.15,0-.22,.08-.22,.22v.22h2.14Zm0,1.07h-2.14v.24c0,.14,.08,.22,.22,.22h1.92v-.46Zm-.41-5.23c.07,.24,.08,.28,.18,.59h2.71c.1-.27,.1-.29,.18-.59h-3.07Zm2.64,4.16h2.17v-.22c0-.14-.07-.22-.22-.22h-1.95v.45Zm0,1.07v.46h1.95c.15,0,.22-.08,.22-.22v-.24h-2.17Z"/><path class="cls-1" d="M127.31,65.34c0,.27,0,1.14-1.09,1.14-1.02,0-1.12-.7-1.12-1.14v-4.85c-.78,.14-1.42-.59-1.42-1.37,0-.48,.17-.74,.49-1.22,1.01-1.51,1.36-3.14,1.51-3.85,.1-.48,.24-.95,1.06-.95,.45,0,1.22,.13,1.22,.94,0,.32-.18,1.43-.66,2.85v8.47Zm1.37-4.05c-.24,0-1.12,0-1.12-1.01,0-.8,.38-1.11,1.12-1.11h2.62v-.74h-1.26c-1.11,0-1.75-.38-1.75-1.74v-1.5c0-1.36,.64-1.75,1.75-1.75h4.78c1.11,0,1.74,.39,1.74,1.75v1.5c0,1.36-.64,1.74-1.74,1.74h-1.33v.74h2.61c.25,0,1.14,0,1.14,1.01,0,.84-.42,1.11-1.14,1.11h-1.54c.8,1.14,1.25,1.54,2.24,2.44,.39,.35,.43,.6,.43,.78,0,.63-.59,1.29-1.22,1.29-.43,0-.67-.21-1.23-.87-.64-.73-1.08-1.43-1.29-1.79v2.19c0,.27,0,1.12-1.04,1.12-.81,0-1.15-.34-1.15-1.12v-2.09c-.32,.42-.91,1.22-1.93,2.13-.35,.31-.59,.41-.84,.41-.67,0-1.19-.66-1.19-1.29,0-.46,.28-.7,.71-1.01,.9-.64,1.39-1.01,2.27-2.19h-1.64Zm5.58-5.59c0-.22-.11-.34-.34-.34h-3.01c-.22,0-.34,.11-.34,.34v.52c0,.22,.11,.34,.34,.34h3.01c.22,0,.34-.11,.34-.34v-.52Z"/><path class="cls-1" d="M154.11,58.67c.49,0,.77,.07,1.01,.18-.18-.14-.22-.17-.9-.74-.46,.06-1.22,.13-3.13,.24-.88,.04-5.59,.24-5.82,.24-.78,0-1.11-.27-1.11-1.04,0-.69,.34-.91,1-.94,.22-.01,1.26-.01,1.5-.01,.04-.06,.27-.36,.55-.84h-2.44c-.7,0-.95-.29-.95-1.01,0-.9,.69-.9,.95-.9h4.53c-.04-.66,.35-.87,1.28-.87s1.19,.28,1.19,.87h4.56c.7,0,.95,.29,.95,1.01,0,.9-.7,.9-.95,.9h-1.57c2.05,1.32,2.17,1.67,2.17,2.03,0,.56-.55,1.23-1.23,1.23-.22,0-.36-.07-.46-.11,.49,.32,.63,.78,.63,1.51v4.26c0,.49-.06,1.11-.59,1.49-.24,.17-.43,.28-2.17,.28-1.44,0-2.13,0-2.13-1.09,0-.95,.79-.95,1.01-.95,.07,0,1.12,.03,1.18,.03,.21,0,.35-.01,.35-.25v-.25h-5.92v1.42c0,.71-.28,1.14-1.25,1.14-1.12,0-1.12-.85-1.12-1.14v-4.92c0-1.37,.64-1.75,1.75-1.75h7.13Zm-6.52,2.06h5.92v-.24c0-.13-.08-.21-.22-.21h-5.48c-.14,0-.21,.08-.21,.21v.24Zm5.92,1.39h-5.92v.45h5.92v-.45Zm-3.71-6.36c-.08,.13-.49,.7-.57,.81,.03,0,1.61-.03,2.99-.08-.03-.07-.07-.15-.07-.32,0-.2,.06-.32,.08-.41h-2.42Z"/></g><g><path class="cls-1" d="M85.07,79.69c-.8,0-1.09-.69-1.09-1.25,0-.64,.41-.9,.86-.98,.55-.85,.73-1.14,1.47-2.37-.5-.57-.73-.83-1.39-1.5-.71-.74-.9-.97-.9-1.44,0-.74,.52-1.21,.97-1.21,.13,0,.22,.04,.28,.07,.39-.8,.69-1.54,.94-2.16,.38-.91,.6-1.3,1.22-1.3,.69,0,1.26,.5,1.26,1.14,0,.71-1.28,2.9-1.79,3.8,.13,.14,.21,.22,.55,.6,.24-.46,.6-1.23,.85-1.7,.11-.21,.32-.57,.88-.57,.27,0,.45,.08,.56,.13,.13-.59,.45-.85,1.18-.85h.52v-1.5c0-.42,.07-1.14,1.04-1.14,.81,0,1.22,.25,1.22,1.14v1.5h1.16c1.21,0,2.19,0,2.19,1.79,0,2.13-.03,4.26-.25,6.38-.25,2.37-.77,2.62-2.93,2.62-.22,0-.63,0-.97-.08-.52-.11-.81-.63-.81-1.19,0-.67,.36-1.19,.98-1.19,.13,0,.7,.04,.83,.04,.45,0,.59-.07,.7-1.42,.08-.93,.13-3.38,.13-4.37,0-.28-.1-.28-.35-.28h-.69c-.08,4.46-1.56,6.53-2.14,7.32-.8,1.04-1.09,1.12-1.47,1.12-.63,0-1.32-.42-1.32-1.11,0-.35,.11-.45,.42-.87-1.81,.45-3.84,.84-4.09,.84Zm2.34-2.62c.49-.07,1-.17,1.36-.24-.08-.36-.27-1.15-.27-1.28,0-.07,0-.15,.01-.22-.56,.9-.66,1.04-1.11,1.74Zm3.5-4.68c-.11,0-.43,0-.69-.13-.11,.27-.57,1.19-1.42,2.59,.32-.28,.69-.28,.78-.28,.7,0,.83,.36,1.18,1.79,.48-1.26,.63-2.62,.66-3.98h-.52Z"/><path class="cls-1" d="M100.06,78.47c.97-.34,1.86-.64,2.34-2.1,.34-1.07,.35-1.08,.5-1.23,.24-.21,.6-.22,.74-.22,.25,0,.64,.06,.95,.28,.18,.14,.28,.34,.28,.63,0,.45-.32,2.02-1.26,3.2-1.04,1.3-2.54,1.85-3.28,1.85-1.05,0-1.16-1.14-1.16-1.29,0-.63,.21-.88,.88-1.11Zm2.16-4.3c0,.29,0,1.15-1.12,1.15-.97,0-1.26-.39-1.26-1.15v-5.54c0-.28,0-1.14,1.11-1.14,1,0,1.28,.41,1.28,1.14v5.54Zm9.63-1.11c0,1.37-.64,1.75-1.75,1.75h-5.03c-1.11,0-1.75-.38-1.75-1.75v-3.45c0-1.36,.64-1.74,1.75-1.74h5.03c1.11,0,1.75,.38,1.75,1.74v3.45Zm-6.21-2.62h3.91v-.43c0-.13-.07-.21-.21-.21h-3.49c-.14,0-.21,.08-.21,.21v.43Zm0,1.77v.48c0,.13,.07,.21,.21,.21h3.49c.14,0,.21-.08,.21-.21v-.48h-3.91Zm2.96,5.97c0,.34,.2,.34,.42,.34h.71c.45,0,.45-.21,.49-1.05,.01-.49,.04-1.15,1.01-1.15,1.21,0,1.21,.77,1.21,1.28,0,.7-.08,1.84-.38,2.44-.36,.71-.66,.74-3.07,.74-1.75,0-2.73,0-2.73-1.77v-2.96c0-.27,0-1.14,1.11-1.14,.98,0,1.23,.43,1.23,1.14v2.13Z"/><path class="cls-1" d="M125.01,69.7c1.43,0,1.54,.85,1.54,1.39,0,.67-.53,4.56-3.7,7.04-2.03,1.6-5.16,2.28-5.82,2.28-.8,0-1.19-.66-1.19-1.32,0-.8,.42-.9,1.32-1.09,2.09-.46,4.6-1.22,5.98-4.08,.36-.76,.6-1.61,.6-1.75,0-.2-.11-.2-.41-.2h-3.7c-.91,1.15-1.75,1.89-2.24,2.26-.32,.25-.67,.42-1.04,.42-.74,0-1.25-.67-1.25-1.25,0-.46,.08-.52,1.11-1.32,.18-.14,1.44-1.15,2.48-3.15,.34-.66,.55-1.05,1.3-1.05,.49,0,1.36,.25,1.36,.94,0,.25-.06,.43-.28,.88h3.92Z"/><path class="cls-1" d="M131.15,74.23c-.24,0-1.15,0-1.15-1.12,0-.93,.57-1.15,1.15-1.15h9.27c.69,0,1.42,.21,1.42,1.32,0,.55-.53,4.11-3.8,5.86-2.07,1.11-4.42,1.28-4.74,1.28-.27,0-.66-.01-.97-.39-.2-.25-.29-.6-.29-.9,0-.85,.63-.98,.98-1.02,2.23-.29,4.34-.57,5.55-2.56,.27-.43,.46-.94,.46-1.09,0-.18-.1-.21-.32-.21h-7.56Zm8.8-5.75c.25,0,1.14,0,1.14,1.14s-.76,1.16-1.14,1.16h-7.74c-.25,0-1.14,0-1.14-1.14s.8-1.16,1.14-1.16h7.74Z"/><path class="cls-1" d="M146.82,70.81c-.53,0-1.21-.21-1.21-1.18,0-.78,.43-1.19,1.21-1.19h6.73c.57,0,1.72,.04,1.72,1.37,0,.97-.91,3.07-2.14,4.81,1.29,.91,2.24,1.71,3.28,2.64,.53,.48,.83,.8,.83,1.35,0,.79-.69,1.4-1.43,1.4-.55,0-.83-.31-1.16-.69-.76-.85-2.03-2.12-2.96-2.92-1.6,1.74-4.3,3.74-5.34,3.74-.66,0-1.19-.67-1.19-1.36,0-.56,.25-.7,1.14-1.19,4.63-2.57,5.97-6.46,5.97-6.63,0-.15-.15-.15-.29-.15h-5.14Z"/></g></g></svg>