<?xml version="1.0" encoding="UTF-8"?><svg id="Layer_1" xmlns="http://www.w3.org/2000/svg" viewBox="0 0 228.17 79.65"><defs><style>.cls-1,.cls-2{fill:#fff;}.cls-3{letter-spacing:-.02em;}.cls-4{letter-spacing:-.26em;}.cls-2{font-family:ShinMGoPro-DeBold-90ms-RKSJ-H, 'A-OTF Shin Maru Go Pro';font-size:27.24px;font-weight:700;}.cls-5{letter-spacing:-.28em;}.cls-6{letter-spacing:-.02em;}.cls-7{letter-spacing:-.04em;}</style></defs><g><path class="cls-1" d="M39.58,23.72c0,5.45,4.28,8.09,7.74,8.09s7.74-2.64,7.74-8.09c0-4.24-4.19-7.61-7.74-9.64-3.56,2.02-7.74,5.4-7.74,9.64Z"/><path class="cls-1" d="M8.09,23.81c0,5.45,4.29,8.09,7.74,8.09s7.75-2.64,7.75-8.09c0-4.23-4.19-7.61-7.75-9.63-3.56,2.02-7.74,5.4-7.74,9.63Z"/><path class="cls-1" d="M0,0V41.13H63.01V0H0ZM63,10c-3.79,0-8.39,.71-11.99,2.28,3.89,2.6,7.66,6.55,7.66,11.53,0,6.59-5.52,11.61-11.6,11.61s-11.41-5.02-11.41-11.61c0-4.98,3.58-8.92,7.47-11.53-3.6-1.57-7.85-2.28-11.64-2.28s-8.03,.71-11.64,2.28c3.9,2.6,7.47,6.55,7.47,11.53,0,6.59-5.33,11.61-11.41,11.61s-11.68-5.02-11.68-11.61c0-4.98,3.85-8.92,7.74-11.53C8.38,10.71,3.79,10,0,10v-3.6c6.4,0,12.06,1.59,15.92,3.6,3.85-2,9.17-3.6,15.58-3.6s11.72,1.59,15.58,3.6c3.85-2,9.52-3.6,15.93-3.6v3.6Z"/></g><g><text class="cls-2" transform="translate(63.64 30.91)"><tspan x="0" y="0">10:00-20:00</tspan></text><text class="cls-2" transform="translate(0 74.4)"><tspan class="cls-6" x="0" y="0">土</tspan><tspan class="cls-5" x="26.75" y="0">日</tspan><tspan class="cls-4" x="46.47" y="0">・</tspan><tspan class="cls-6" x="66.71" y="0">祝</tspan><tspan class="cls-7" x="93.46" y="0">日</tspan><tspan class="cls-3" x="119.7" y="0">も</tspan><tspan x="146.45" y="0">受付中</tspan></text></g></svg>