<?xml version="1.0" encoding="UTF-8"?><svg id="Layer_1" xmlns="http://www.w3.org/2000/svg" viewBox="0 0 298.1 30.73"><defs><style>.cls-1{letter-spacing:-.02em;}.cls-2,.cls-3{fill:#fff;}.cls-4{letter-spacing:-.26em;}.cls-5{letter-spacing:-.28em;}.cls-6{letter-spacing:-.02em;}.cls-7{letter-spacing:0em;}.cls-8{letter-spacing:-.04em;}.cls-3{font-family:ShinMGoPro-DeBold-90ms-RKSJ-H, 'A-OTF Shin Maru Go Pro';font-size:16.7px;font-weight:700;}</style></defs><g><path class="cls-2" d="M26.53,16.82c0,3.49,2.45,5.05,4.88,5.05s4.96-1.58,4.96-5.05c0-2.91-2.11-4.92-4.97-6.22-.03,.01-.05,.02-.08,.04-3.18,1.45-4.79,3.53-4.79,6.19Z"/><path class="cls-2" d="M6.24,16.82c0,1.57,.53,2.88,1.53,3.79,.89,.8,2.14,1.26,3.43,1.26,2.43,0,4.88-1.56,4.88-5.05,0-2.65-1.61-4.73-4.79-6.19-.03-.01-.05-.02-.08-.04-2.86,1.3-4.97,3.31-4.97,6.22Z"/><path class="cls-2" d="M42.61,8.74h0s-1.34-.01-1.34-.01c-1.85,0-3.68,.18-5.39,.51-.35,.07-.71,.13-1.05,.21,0,0,0,0,0,0,0,0-.01,0-.02,0,2.78,1.89,4.23,4.39,4.23,7.36s-1.31,4.79-2.42,5.78c-1.39,1.26-3.25,1.95-5.23,1.95-3.76,0-7.56-2.65-7.56-7.73,0-.16,0-.32,.02-.48,0-.06,0-.13,.01-.19,.03-.34,.07-.68,.13-1,0-.02,0-.04,.01-.07,.28-1.38,.89-2.59,1.76-3.64,.06-.08,.13-.16,.2-.23,.11-.13,.22-.25,.34-.37,.2-.2,.41-.4,.64-.6,.03-.03,.06-.05,.09-.08,.3-.25,.61-.48,.95-.71,0,0,0,0-.01,0,0,0,0,0,.01-.01-2.26-.56-4.64-.81-6.69-.81-1.62,0-3.45,.16-5.27,.51-.48,.09-.96,.18-1.41,.29,0,0,0,0,0,0,0,0-.01,0-.02,0,.14,.1,.28,.2,.42,.3,.03,.02,.06,.05,.1,.07,1.78,1.36,3.03,3.11,3.46,5.27,0,.02,0,.04,.01,.05,.06,.33,.11,.67,.13,1.01,0,.06,0,.12,.01,.18,0,.16,.02,.32,.02,.49,0,5.07-3.8,7.73-7.56,7.73s-7.65-2.65-7.65-7.73c0-2.33,.91-4.38,2.65-6.07,.47-.45,.99-.89,1.57-1.28,0,0,0,0-.01,0,0,0,0,0,.01-.01-1.99-.47-4.21-.73-6.45-.73H0V30.73H42.61V8.74h0Z"/><path class="cls-2" d="M11.23,7.7c2.93-1.12,6.52-1.75,10.07-1.75s7.15,.63,10.07,1.75c2.93-1.12,6.42-1.65,9.89-1.65h1.34V0H0V6.05H1.34c3.47,0,6.96,.53,9.89,1.65Z"/></g><text class="cls-3" transform="translate(49.66 21.72)"><tspan x="0" y="0">10:00-20:00 </tspan><tspan class="cls-1" x="108.58" y="0">土</tspan><tspan class="cls-5" x="124.98" y="0">日</tspan><tspan class="cls-4" x="137.07" y="0">・</tspan><tspan class="cls-1" x="149.47" y="0">祝</tspan><tspan class="cls-8" x="165.87" y="0">日</tspan><tspan class="cls-6" x="181.95" y="0">も</tspan><tspan class="cls-7" x="198.35" y="0">受付中</tspan></text></svg>