<?xml version="1.0" encoding="UTF-8"?><svg id="Layer_1" xmlns="http://www.w3.org/2000/svg" viewBox="0 0 278.96 176.15"><defs><style>.cls-1{fill:#06425c;}</style></defs><g><path class="cls-1" d="M25.49,78.09c-1.92-1.01-4.75-1.53-8.42-1.53-4.06,.05-6.54-.01-7.37-.18-1.94-.4-3.3-1.3-4.04-2.68-.77-1.49-.98-3.01-.63-4.5,.35-1.5,1.05-2.74,2.06-3.67,1.02-.93,2.3-1.53,3.82-1.77,1.51-.24,2.98,.03,4.37,.79,.59,.37,1.21,.47,1.83,.27,.62-.19,1.11-.56,1.45-1.11,.35-.56,.43-1.16,.24-1.79-.19-.62-.55-1.1-1.08-1.43-1.83-1.04-3.79-1.55-5.84-1.53-2.05,.02-3.93,.51-5.57,1.47-1.63,.95-3.06,2.18-4.25,3.64-1.2,1.48-1.88,3.31-2.03,5.43-.15,2.12,.32,4.24,1.4,6.31,1.45,2.83,3.93,4.58,7.37,5.21,1.17,.2,3.94,.31,8.24,.31,2.89,0,5.01,.34,6.29,.99,1.59,.81,2.61,2.55,3.04,5.15,.45,2.72,.12,5.04-1,6.89-1.12,1.85-2.66,3.1-4.59,3.72-1.93,.63-3.85,.54-5.72-.25-1.87-.79-3.34-2.32-4.38-4.56-.25-.61-.68-1.04-1.29-1.27-.61-.23-1.22-.2-1.83,.07-.61,.27-1.03,.72-1.26,1.33-.23,.61-.19,1.22,.1,1.82,1.47,3.37,3.73,5.7,6.73,6.94,2.64,1.09,5.32,1.34,8,.74,.36-.08,.72-.17,1.07-.28,3.07-.99,5.5-2.93,7.23-5.78,1.73-2.85,2.27-6.29,1.6-10.23-.71-4.11-2.57-6.98-5.55-8.54Z"/><path class="cls-1" d="M39.62,70.34c-.53-.38-1.12-.53-1.77-.44-.65,.09-1.17,.4-1.56,.93-.38,.53-.53,1.12-.44,1.77,.41,2.75,1.26,6.84,2.54,12.16,1.38,5.75,2.23,9.7,2.53,11.74,.09,.65,.4,1.17,.93,1.56,.53,.38,1.12,.53,1.77,.44,.07,0,.14-.02,.21-.04,.55-.12,1.01-.42,1.35-.9,.38-.53,.53-1.12,.44-1.77-.35-2.25-1.23-6.33-2.62-12.14-1.25-5.16-2.07-9.12-2.46-11.76-.09-.65-.4-1.17-.93-1.56Z"/><path class="cls-1" d="M36.17,64.48c.64-.14,1.14-.49,1.49-1.04,.35-.55,.46-1.15,.32-1.79s-.49-1.14-1.04-1.49h0c-.55-.35-1.15-.46-1.79-.32s-1.14,.49-1.49,1.04c-.35,.55-.46,1.15-.32,1.79,.14,.64,.49,1.14,1.04,1.49,.55,.35,1.15,.46,1.79,.32Z"/><path class="cls-1" d="M72.4,85.19c-.61-2.08-1.01-3.55-1.19-4.33l-.08-1.04c-.08-1.25-.18-2.29-.3-3.07-.07-.56-.17-1.01-.3-1.35-.13-.34-.28-.63-.45-.88-.58-.71-1.31-1.04-2.17-.99-.15-.2-.35-.37-.57-.52-3.43-2.02-6.81-2.26-10.02-.72-2.66,1.21-4.77,3.44-6.27,6.65-.82,1.82-1.32,3.77-1.49,5.8-.16,2.04,.19,4.07,1.07,6.04,.88,1.98,2.35,3.46,4.37,4.41,3.39,1.57,6.89,1.09,10.4-1.44,1.38-.96,2.57-2.14,3.55-3.53,.1,.4,.21,.77,.32,1.11,.75,2.7,1.28,4.95,1.56,6.7,.32,1.91,.39,3.22,.21,3.88-.17,.51-.66,1.2-1.46,2.04-.8,.85-1.77,1.6-2.87,2.25-2.33,1.45-4.04,1.94-5.09,1.47-.13-.07-.43-.35-.94-1.5-.17-.35-.54-1.41-1.07-3.15-.2-.63-.59-1.09-1.19-1.38-.59-.28-1.2-.33-1.82-.14-.63,.19-1.09,.59-1.38,1.19-.28,.59-.33,1.2-.14,1.83,.61,1.84,1.02,3.01,1.23,3.47,.86,2.03,1.96,3.37,3.25,3.98,1.41,.64,3.01,.77,4.78,.37,1.5-.33,3.12-1.03,4.86-2.1,1.44-.88,2.77-1.95,3.95-3.18,1.19-1.24,1.99-2.52,2.38-3.8,.43-1.34,.42-3.37-.01-6.03-.29-1.76-.85-4.18-1.67-7.18-.34-1.29-.83-2.92-1.46-4.86Zm-5.97-3.62l.03,1.49c.05,1.14,.03,1.34,.02,1.38-.23,.94-.69,1.91-1.36,2.9-.67,.99-1.51,1.85-2.48,2.56-1.98,1.41-3.86,1.74-5.58,.96-1.43-.59-2.32-1.87-2.65-3.78-.33-1.95,0-4.03,1.02-6.19,.96-2.13,2.28-3.6,3.92-4.36,.36-.17,.73-.3,1.11-.38,1.4-.31,2.89,0,4.44,.92h.02c.18,.09,.35,.16,.49,.22,.06,.25,.15,.55,.27,.88l.09,.42c.11,.74,.33,1.73,.66,2.97Z"/><path class="cls-1" d="M93.42,58.61c-1.26-.55-2.4-.81-3.38-.77-.97,.04-2.1,.25-3.34,.62-2.76,.85-4.92,2.5-6.43,4.89-.15-.59-.5-1.06-1.02-1.39-.55-.35-1.15-.46-1.79-.32s-1.14,.49-1.49,1.04c-.35,.55-.46,1.15-.32,1.79,.36,1.63,.82,4.26,1.36,7.82,.54,3.57,1.02,6.41,1.42,8.44,.4,2.04,1.19,4.77,2.33,8.11h0c.25,.62,.68,1.06,1.29,1.32,.47,.2,.96,.24,1.44,.14,.14-.03,.27-.07,.41-.13,.56-.24,.98-.65,1.24-1.24,.25-.55,.29-1.13,.12-1.72,.31-.66,.31-1.34,0-2.02-1.95-4.27-2.84-8.73-2.63-13.23,.2-4.89,2.03-7.9,5.43-8.95,.83-.28,1.46-.44,1.89-.46,.41-.02,.89,.1,1.43,.36,2.42,1.1,4.6,3.66,6.48,7.64,1.18,2.36,2.47,6,3.84,10.83,.19,.62,.58,1.1,1.15,1.42,.57,.32,1.18,.38,1.81,.19,.62-.19,1.1-.58,1.42-1.15,.32-.57,.38-1.18,.19-1.8-1.47-5.03-2.85-8.94-4.1-11.6-2.37-4.93-5.3-8.23-8.73-9.83Z"/><path class="cls-1" d="M139.41,54.98v-.36c-.09-.6-.38-1.11-.89-1.52-.51-.41-1.08-.6-1.71-.54-.63,.06-1.16,.34-1.58,.85-.41,.51-.6,1.09-.56,1.78l.09,.39c-.02,.12-.02,.24,0,.33,.36,3.02,1.01,6.41,1.93,10.09,.05,.22,.08,.46,.08,.7,.05,4.24-.78,6.85-2.45,7.75-.07,.03-.32,.1-1.22,.05-.66-.1-1.27-.26-1.81-.49-2.31-.91-3.94-3.33-4.84-7.19-.72-2.79-1.03-6.39-.93-10.69,.02-.67-.19-1.24-.63-1.7-.44-.46-1-.7-1.67-.72-.67-.02-1.24,.19-1.7,.63-.46,.44-.7,1-.72,1.67-.11,4.74,.24,8.75,1.04,11.92,1.3,5.39,3.85,8.93,7.61,10.52,.95,.35,2.02,.61,3.19,.76,.99,.1,1.89,.07,2.67-.11,.47-.1,.9-.26,1.29-.46,1.25-.65,2.27-1.65,3.04-2.99,.21,.51,.59,.9,1.11,1.15,.59,.28,1.2,.33,1.82,.14,.63-.19,1.09-.59,1.38-1.19,.28-.59,.33-1.2,.14-1.83-1.11-3.43-1.99-6.35-2.6-8.65-.24-3.84-.93-7.3-2.05-10.3Z"/><path class="cls-1" d="M162.74,51.59c-2.2-2.28-4.72-3.67-7.5-4.14-.6-.06-1.15,.04-1.74,.31-2.2,1.29-3.86,2.49-4.95,3.57-.21-.73-.44-1.45-.68-2.13-.2-.63-.6-1.09-1.19-1.38-.59-.28-1.2-.33-1.82-.14-.63,.2-1.09,.6-1.38,1.19-.28,.59-.33,1.2-.14,1.83,.81,2.5,1.61,5.23,2.4,8.11,.05,.67,.31,2.08,.81,4.32,.37,1.65,.81,3.08,1.31,4.2l.77,3.48c2.63,11.87,4.16,18.63,4.65,20.65,.14,.64,.51,1.13,1.08,1.45,.57,.32,1.17,.4,1.81,.26s1.13-.51,1.45-1.08c.32-.57,.4-1.17,.26-1.81-.79-3.09-2.06-8.74-3.8-16.78,1.66,.52,3.56,.53,5.64,.02,3.57-.84,6.02-2.75,7.29-5.67,1.04-2.49,1.11-5.35,.21-8.48-.79-2.89-2.31-5.51-4.5-7.78Zm-10.35,14.25c-.68-2.86-1.34-5.49-1.96-7.81,0-.86,.2-1.62,.58-2.28,.55-.99,1.95-2.14,4.15-3.41,1.63,.43,3.17,1.43,4.55,2.97,1.42,1.58,2.44,3.39,3.03,5.39,.55,2.05,.52,3.82-.08,5.27-.65,1.45-1.98,2.43-3.97,2.92-2.17,.53-3.84,.22-4.95-.92-.5-.52-.96-1.23-1.35-2.12Z"/><path class="cls-1" d="M196.08,35.84c-1.26-.55-2.4-.81-3.38-.77-.97,.04-2.1,.25-3.34,.62-2.76,.85-4.92,2.5-6.43,4.89-.15-.59-.5-1.06-1.02-1.39-.55-.35-1.15-.46-1.79-.32s-1.14,.49-1.49,1.04c-.35,.55-.46,1.15-.32,1.79,.36,1.63,.82,4.26,1.36,7.82,.54,3.57,1.02,6.41,1.42,8.44,.4,2.04,1.19,4.77,2.33,8.11h0c.25,.62,.68,1.06,1.29,1.32,.47,.2,.96,.24,1.44,.14,.14-.03,.27-.07,.41-.13,.56-.24,.98-.65,1.24-1.24,.25-.55,.29-1.13,.12-1.72,.31-.66,.31-1.34,0-2.02-1.95-4.27-2.84-8.73-2.63-13.23,.2-4.89,2.03-7.9,5.43-8.95,.83-.28,1.46-.44,1.89-.46,.41-.02,.89,.1,1.43,.36,2.42,1.1,4.6,3.66,6.48,7.64,1.18,2.36,2.47,6,3.84,10.83,.19,.62,.58,1.1,1.15,1.42,.57,.32,1.18,.38,1.81,.19,.62-.19,1.1-.58,1.42-1.15,.32-.57,.38-1.18,.19-1.8-1.47-5.03-2.85-8.94-4.1-11.6-2.37-4.93-5.3-8.23-8.73-9.83Z"/><path class="cls-1" d="M223.46,31.43c-.27-.42-.64-.72-1.1-.88-.5-.19-.99-.34-1.47-.44-.35-.18-.72-.31-1.08-.37-.52-.15-1.04-.15-1.54,0-2.2,.08-4.1,.93-5.66,2.51-2.07,2.05-3.26,5.02-3.54,8.82-.09,1.66,.04,3.35,.38,5.03,.35,1.68,.91,3.33,1.66,4.9,.76,1.58,1.86,2.98,3.28,4.15,1.42,1.18,3.07,1.99,4.91,2.4,2.27,.52,4.28,.59,6.02,.2,1.75-.39,3.23-1.24,4.42-2.54,1.98-2.24,2.78-5.37,2.37-9.28-.35-2.73-1.3-5.48-2.81-8.17-1.51-2.68-3.47-4.81-5.84-6.33Zm3.91,15.05c.26,2.5-.14,4.35-1.2,5.51-1.12,1.26-3.09,1.58-5.87,.98-2.06-.47-3.73-1.86-4.94-4.13-1.23-2.28-1.75-4.8-1.55-7.48,.16-2.61,.88-4.54,2.13-5.74,.53-.52,1.12-.85,1.78-1,.53-.12,1.1-.12,1.72,0,2.02,.89,3.78,2.48,5.25,4.73,1.47,2.26,2.37,4.67,2.67,7.14Z"/><path class="cls-1" d="M262.9,24.26c-.63-.08-1.22,.08-1.74,.47-.53,.4-.83,.92-.91,1.53-.1,.48-.6,5.03-1.54,13.92l-.08-.09c-1.19-1.71-2.24-3.12-3.14-4.19-1.4-1.72-2.61-3-3.61-3.8-.75-.61-1.46-1.03-2.09-1.26-1.23-.43-2.31-.27-3.22,.47-.42,.31-.76,.74-1.03,1.31-.09,.28-.18,.62-.25,.98-.14,.55-.24,1.27-.29,2.12-.01,.06-.05,.18-.4,5.45l-.16,1.65c-.4-.83-.96-1.92-1.67-3.26-.86-1.6-1.35-2.54-1.46-2.83-1.25-2.48-2.25-4.66-2.95-6.47h0c-.24-.57-.67-.99-1.28-1.27-.62-.28-1.23-.3-1.82-.06-.58,.24-1.02,.67-1.3,1.29-.28,.62-.3,1.24-.05,1.86,.77,1.9,1.85,4.2,3.19,6.83,.1,.23,.53,1.1,1.39,2.83l1.95,3.67,1.37,2.79,.24,1.06c.15,.66,.37,1.18,.67,1.55,.73,.9,1.64,1.23,2.72,.99,.15-.03,.3-.08,.45-.13,.89-.36,1.59-1.11,2.08-2.22,.29-.58,.53-1.37,.73-2.34,.21-1.12,.41-3.01,.59-5.63,.22-3.07,.33-4.4,.38-4.93,.62,.61,1.33,1.4,2.13,2.35,.82,1.01,1.83,2.35,3.01,3.96,1.26,1.7,1.92,2.57,2.06,2.75l.09,.11c.25,.56,.29,.68,.3,.7l.03,.06c.33,.56,.67,.97,1,1.22,1.05,.81,2.15,.84,3.25,.1,.97-.7,1.53-1.79,1.69-3.27,0-.2,0-.56,0-1.05,.03-.31,.03-.55,0-.71,.14-1.03,.39-3.43,.76-7.14,.39-3.86,.7-6.71,.95-8.73,.08-.63-.08-1.22-.47-1.74-.4-.52-.92-.83-1.55-.92Z"/><path class="cls-1" d="M277.86,42.11c-.55-.35-1.15-.46-1.79-.32-.64,.14-1.14,.49-1.49,1.04-.35,.55-.46,1.15-.32,1.79s.49,1.14,1.04,1.49c.55,.35,1.15,.46,1.79,.32s1.14-.49,1.49-1.04c.35-.55,.46-1.15,.32-1.79s-.49-1.14-1.04-1.49h0Z"/><path class="cls-1" d="M273.7,36.24c.51,.28,1.05,.37,1.6,.24,.07-.02,.14-.03,.21-.06,.62-.19,1.1-.58,1.42-1.15,.32-.57,.38-1.18,.19-1.8-.69-2.44-2.06-7.79-4.06-15.9-1.66-6.8-3.19-12.2-4.55-16.05h0c-.24-.57-.65-1-1.24-1.28-.59-.29-1.2-.32-1.79-.11-.59,.22-1.04,.62-1.32,1.21-.28,.59-.33,1.2-.13,1.83,1.32,3.69,2.82,8.93,4.44,15.58,2.01,8.16,3.39,13.57,4.1,16.07,.19,.62,.58,1.1,1.15,1.42Z"/></g><path class="cls-1" d="M127.81,105.82c2.15,13.57,9.56,25.56,19.51,34.84,11.32,10.56,25.71,17,40.56,20.87,9.31,2.43,18.83,3.88,28.38,4.9-.01-1.19-.02-2.39-.03-3.58-5.95,1.62-11.05,5.16-14.4,10.38-.93,1.45,.38,3.53,2.14,2.76,4.89-2.13,9.27-5.47,12.4-9.81,1.5-2.08,2.09-4.05,1.03-6.48-1.4-3.2-3.23-6.27-4.83-9.37-1.06-2.05-4.39-.65-3.32,1.42,1.17,2.27,2.34,4.53,3.51,6.8,.47,.91,1.38,2.12,1.57,3.16,.23,1.27-.95,2.49-1.68,3.38-2.7,3.34-6.18,5.87-10.1,7.58,.71,.92,1.43,1.84,2.14,2.76,2.81-4.37,7.01-7.63,12.05-9,1.83-.5,2.16-3.35-.03-3.58-28.83-3.07-60.18-11.15-77.16-36.79-4.15-6.27-7-13.32-8.18-20.75-.36-2.29-3.94-1.79-3.58,.52h0Z"/></svg>