<?xml version="1.0" encoding="UTF-8"?><svg id="Layer_1" xmlns="http://www.w3.org/2000/svg" viewBox="0 0 154.44 113.08"><defs><style>.cls-1{fill:#e3dbcf;}</style></defs><g><path class="cls-1" d="M14.11,43.23c-1.06-.56-2.63-.84-4.66-.85-2.25,.03-3.62,0-4.08-.1-1.08-.22-1.83-.72-2.24-1.49-.43-.83-.54-1.66-.35-2.49,.2-.83,.58-1.51,1.14-2.03,.56-.52,1.27-.85,2.11-.98,.84-.13,1.65,.02,2.42,.44,.32,.21,.67,.26,1.02,.15,.34-.11,.61-.31,.8-.61,.2-.31,.24-.64,.13-.99-.11-.34-.3-.61-.6-.79-1.01-.57-2.1-.86-3.24-.85-1.14,.01-2.17,.28-3.08,.81-.9,.53-1.69,1.21-2.35,2.02-.66,.82-1.04,1.83-1.12,3.01-.08,1.17,.18,2.35,.77,3.5,.8,1.57,2.18,2.54,4.08,2.88,.65,.11,2.18,.17,4.56,.17,1.6,0,2.77,.19,3.48,.55,.88,.45,1.44,1.41,1.68,2.85,.25,1.51,.07,2.79-.55,3.81-.62,1.02-1.47,1.72-2.54,2.06-1.07,.35-2.13,.3-3.17-.14-1.03-.44-1.85-1.28-2.43-2.52-.14-.34-.38-.57-.71-.7-.34-.13-.68-.11-1.01,.04-.34,.15-.57,.4-.69,.73-.13,.34-.11,.68,.06,1.01,.81,1.87,2.06,3.16,3.72,3.84,1.46,.6,2.95,.74,4.43,.41,.2-.04,.4-.1,.59-.16,1.7-.55,3.04-1.62,4-3.2,.96-1.58,1.25-3.48,.88-5.67-.39-2.27-1.42-3.86-3.07-4.73Z"/><path class="cls-1" d="M21.93,38.94c-.29-.21-.62-.29-.98-.24-.36,.05-.65,.22-.86,.52-.21,.29-.29,.62-.24,.98,.22,1.52,.7,3.79,1.41,6.73,.76,3.18,1.23,5.37,1.4,6.5,.05,.36,.22,.65,.52,.86,.29,.21,.62,.29,.98,.25,.04,0,.08-.01,.11-.02,.31-.07,.56-.23,.75-.5,.21-.29,.29-.62,.24-.98-.19-1.24-.68-3.5-1.45-6.72-.69-2.86-1.15-5.05-1.36-6.51-.05-.36-.22-.65-.52-.86Z"/><path class="cls-1" d="M20.02,35.7c.35-.08,.63-.27,.82-.58,.19-.3,.25-.64,.17-.99s-.27-.63-.58-.82h0c-.31-.19-.64-.25-.99-.17s-.63,.27-.82,.58c-.19,.3-.25,.64-.17,.99s.27,.63,.58,.82c.3,.19,.64,.25,.99,.17Z"/><path class="cls-1" d="M40.08,47.16c-.34-1.15-.56-1.96-.66-2.4l-.04-.58c-.04-.69-.1-1.27-.17-1.7-.04-.31-.1-.56-.17-.75-.07-.19-.15-.35-.25-.49-.32-.39-.72-.58-1.2-.55-.09-.11-.19-.21-.32-.29-1.9-1.12-3.77-1.25-5.55-.4-1.47,.67-2.64,1.91-3.47,3.68-.46,1.01-.73,2.09-.82,3.21-.09,1.13,.11,2.25,.59,3.34,.49,1.1,1.3,1.92,2.42,2.44,1.88,.87,3.82,.6,5.76-.8,.76-.53,1.42-1.19,1.97-1.95,.06,.22,.11,.43,.17,.61,.41,1.49,.71,2.74,.87,3.71,.18,1.06,.22,1.78,.12,2.15-.1,.29-.37,.67-.81,1.13-.44,.47-.98,.89-1.59,1.24-1.29,.8-2.24,1.08-2.82,.81-.07-.04-.24-.19-.52-.83-.1-.19-.3-.78-.59-1.74-.11-.35-.33-.6-.66-.76-.33-.16-.67-.18-1.01-.08-.35,.11-.6,.33-.76,.66-.16,.33-.18,.67-.08,1.01,.34,1.02,.57,1.67,.68,1.92,.48,1.13,1.08,1.87,1.8,2.2,.78,.36,1.67,.42,2.65,.21,.83-.18,1.73-.57,2.69-1.16,.8-.49,1.53-1.08,2.19-1.76,.66-.69,1.1-1.4,1.32-2.1,.24-.74,.23-1.86,0-3.34-.16-.98-.47-2.31-.92-3.98-.19-.71-.46-1.62-.81-2.69Zm-3.3-2.01l.02,.83c.03,.63,.02,.74,.01,.76-.13,.52-.38,1.06-.75,1.61-.37,.55-.83,1.02-1.38,1.42-1.1,.78-2.13,.96-3.09,.53-.79-.33-1.28-1.03-1.46-2.09-.18-1.08,0-2.23,.56-3.43,.53-1.18,1.26-1.99,2.17-2.41,.2-.1,.4-.17,.61-.21,.77-.17,1.6,0,2.46,.51h.01c.1,.05,.19,.09,.27,.12,.03,.14,.08,.3,.15,.49l.05,.23c.06,.41,.18,.96,.36,1.64Z"/><path class="cls-1" d="M51.72,32.45c-.7-.3-1.33-.45-1.87-.43-.54,.02-1.16,.14-1.85,.35-1.53,.47-2.72,1.38-3.56,2.71-.09-.33-.27-.58-.56-.77-.31-.19-.64-.25-.99-.17s-.63,.27-.82,.58c-.19,.3-.25,.64-.17,.99,.2,.9,.45,2.36,.75,4.33,.3,1.97,.56,3.55,.78,4.67,.22,1.13,.66,2.64,1.29,4.49h0c.14,.34,.38,.59,.72,.73,.26,.11,.53,.13,.79,.08,.08-.02,.15-.04,.23-.07,.31-.13,.54-.36,.68-.68,.14-.31,.16-.63,.07-.95,.17-.37,.17-.74,0-1.12-1.08-2.37-1.57-4.83-1.46-7.33,.11-2.71,1.12-4.37,3.01-4.95,.46-.16,.81-.24,1.05-.25,.23-.01,.49,.06,.79,.2,1.34,.61,2.55,2.03,3.59,4.23,.65,1.3,1.37,3.32,2.13,5.99,.11,.34,.32,.61,.64,.78,.32,.18,.65,.21,1,.1,.34-.11,.61-.32,.78-.64,.18-.32,.21-.65,.1-1-.81-2.79-1.58-4.95-2.27-6.42-1.31-2.73-2.94-4.56-4.83-5.44Z"/><path class="cls-1" d="M77.18,30.44v-.2c-.05-.33-.21-.61-.49-.84-.28-.23-.6-.33-.95-.3-.35,.03-.64,.19-.87,.47-.23,.28-.33,.61-.31,.99l.05,.21c-.01,.07-.01,.13,0,.18,.2,1.67,.56,3.55,1.07,5.59,.03,.12,.04,.25,.05,.39,.03,2.35-.43,3.79-1.36,4.29-.04,.02-.18,.06-.68,.03-.37-.05-.7-.14-1-.27-1.28-.5-2.18-1.84-2.68-3.98-.4-1.55-.57-3.54-.52-5.92,0-.37-.11-.69-.35-.94-.24-.25-.55-.39-.92-.4-.37,0-.69,.11-.94,.35-.26,.24-.39,.55-.4,.92-.06,2.62,.13,4.84,.58,6.6,.72,2.98,2.13,4.94,4.21,5.82,.53,.2,1.12,.34,1.76,.42,.55,.06,1.04,.04,1.48-.06,.26-.06,.5-.14,.71-.26,.69-.36,1.26-.92,1.68-1.65,.12,.28,.32,.5,.61,.64,.33,.16,.67,.18,1.01,.08,.35-.11,.6-.33,.76-.66,.16-.33,.18-.66,.08-1.01-.62-1.9-1.1-3.52-1.44-4.79-.14-2.13-.52-4.04-1.13-5.7Z"/><path class="cls-1" d="M90.09,28.56c-1.22-1.26-2.61-2.03-4.15-2.29-.33-.03-.63,.02-.97,.17-1.22,.71-2.14,1.38-2.74,1.98-.12-.4-.24-.8-.37-1.18-.11-.35-.33-.6-.66-.76-.33-.16-.67-.18-1.01-.08-.35,.11-.6,.33-.76,.66-.16,.33-.18,.67-.08,1.01,.45,1.38,.89,2.89,1.33,4.49,.03,.37,.17,1.15,.45,2.39,.2,.92,.45,1.71,.73,2.32l.43,1.93c1.46,6.57,2.3,10.31,2.58,11.43,.08,.35,.28,.62,.6,.8,.31,.17,.65,.22,1,.15s.62-.28,.8-.6c.17-.31,.22-.65,.15-1-.43-1.71-1.14-4.84-2.1-9.29,.92,.29,1.97,.29,3.12,.01,1.98-.47,3.34-1.52,4.04-3.14,.58-1.38,.62-2.96,.12-4.69-.44-1.6-1.28-3.05-2.49-4.31Zm-5.73,7.89c-.38-1.58-.74-3.04-1.08-4.33,0-.47,.11-.9,.32-1.26,.3-.55,1.08-1.18,2.3-1.89,.9,.24,1.75,.79,2.52,1.64,.79,.87,1.35,1.88,1.68,2.98,.31,1.13,.29,2.12-.04,2.92-.36,.8-1.1,1.35-2.2,1.62-1.2,.3-2.12,.12-2.74-.51-.28-.29-.53-.68-.75-1.17Z"/><path class="cls-1" d="M108.55,19.84c-.7-.3-1.33-.45-1.87-.43-.54,.02-1.16,.14-1.85,.35-1.53,.47-2.72,1.38-3.56,2.71-.09-.33-.27-.58-.56-.77-.31-.19-.64-.25-.99-.17s-.63,.27-.82,.58c-.19,.3-.25,.64-.17,.99,.2,.9,.45,2.36,.75,4.33,.3,1.97,.56,3.55,.78,4.67,.22,1.13,.66,2.64,1.29,4.49h0c.14,.34,.38,.59,.72,.73,.26,.11,.53,.13,.79,.08,.08-.02,.15-.04,.23-.07,.31-.13,.54-.36,.68-.68,.14-.31,.16-.63,.07-.95,.17-.37,.17-.74,0-1.12-1.08-2.37-1.57-4.83-1.46-7.33,.11-2.71,1.12-4.37,3.01-4.95,.46-.16,.81-.24,1.05-.25,.23-.01,.49,.06,.79,.2,1.34,.61,2.55,2.03,3.59,4.23,.65,1.3,1.37,3.32,2.13,5.99,.11,.34,.32,.61,.64,.78,.32,.18,.65,.21,1,.1,.34-.11,.61-.32,.78-.64,.18-.32,.21-.65,.1-1-.81-2.79-1.58-4.95-2.27-6.42-1.31-2.73-2.94-4.56-4.83-5.44Z"/><path class="cls-1" d="M123.71,17.4c-.15-.23-.35-.4-.61-.49-.28-.11-.55-.19-.81-.24-.2-.1-.4-.17-.6-.21-.29-.09-.58-.09-.85,0-1.22,.05-2.27,.51-3.13,1.39-1.14,1.14-1.8,2.78-1.96,4.89-.05,.92,.02,1.85,.21,2.78,.19,.93,.5,1.84,.92,2.71,.42,.87,1.03,1.65,1.82,2.3,.79,.65,1.7,1.1,2.72,1.33,1.26,.29,2.37,.33,3.33,.11,.97-.21,1.79-.68,2.45-1.41,1.1-1.24,1.54-2.97,1.31-5.14-.19-1.51-.72-3.03-1.56-4.52-.84-1.49-1.92-2.67-3.23-3.51Zm2.16,8.33c.14,1.39-.08,2.41-.66,3.05-.62,.7-1.71,.88-3.25,.54-1.14-.26-2.06-1.03-2.74-2.28-.68-1.26-.97-2.66-.86-4.14,.09-1.44,.49-2.51,1.18-3.18,.29-.29,.62-.47,.99-.55,.29-.06,.61-.06,.95,0,1.12,.49,2.1,1.37,2.91,2.62,.82,1.25,1.31,2.58,1.48,3.95Z"/><path class="cls-1" d="M145.55,13.43c-.35-.05-.67,.04-.96,.26-.29,.22-.46,.51-.51,.85-.05,.26-.33,2.79-.85,7.71l-.04-.05c-.66-.94-1.24-1.72-1.74-2.32-.77-.95-1.45-1.66-2-2.11-.42-.34-.81-.57-1.16-.7-.68-.24-1.28-.15-1.78,.26-.23,.17-.42,.41-.57,.72-.05,.16-.1,.34-.14,.54-.08,.3-.13,.7-.16,1.17,0,.03-.03,.1-.22,3.01l-.09,.92c-.22-.46-.53-1.06-.93-1.8-.47-.88-.75-1.41-.81-1.56-.69-1.37-1.24-2.58-1.63-3.58h0c-.13-.31-.37-.55-.71-.7-.34-.16-.68-.17-1.01-.03-.32,.13-.57,.37-.72,.71-.16,.34-.16,.69-.03,1.03,.43,1.05,1.02,2.32,1.77,3.78,.06,.13,.29,.61,.77,1.56l1.08,2.03,.76,1.54,.13,.59c.08,.37,.21,.65,.37,.86,.4,.5,.91,.68,1.51,.55,.08-.02,.16-.04,.25-.07,.49-.2,.88-.61,1.15-1.23,.16-.32,.29-.76,.4-1.3,.12-.62,.23-1.67,.32-3.12,.12-1.7,.18-2.44,.21-2.73,.34,.34,.74,.78,1.18,1.3,.46,.56,1.01,1.3,1.66,2.19,.7,.94,1.06,1.43,1.14,1.52l.05,.06c.14,.31,.16,.38,.16,.39v.04c.2,.31,.38,.54,.57,.68,.58,.45,1.19,.47,1.8,.06,.54-.39,.85-.99,.93-1.81,0-.11,0-.31,0-.58,.02-.17,.02-.3,0-.4,.08-.57,.22-1.9,.42-3.95,.21-2.14,.39-3.72,.53-4.83,.05-.35-.04-.67-.26-.96-.22-.29-.51-.46-.86-.51Z"/><path class="cls-1" d="M153.82,23.31c-.31-.19-.64-.25-.99-.17s-.63,.27-.82,.58c-.19,.3-.25,.64-.17,.99s.27,.63,.58,.82c.3,.19,.64,.25,.99,.17s.63-.27,.82-.58c.19-.3,.25-.64,.17-.99s-.27-.63-.58-.82h0Z"/><path class="cls-1" d="M151.52,20.06c.28,.16,.58,.2,.89,.13,.04,0,.08-.02,.11-.03,.34-.11,.61-.32,.78-.64,.18-.32,.21-.65,.1-1-.38-1.35-1.14-4.31-2.25-8.8-.92-3.76-1.77-6.75-2.52-8.89h0c-.13-.32-.36-.55-.69-.71-.33-.16-.66-.18-.99-.06-.33,.12-.57,.35-.73,.67-.16,.33-.18,.67-.07,1.01,.73,2.05,1.56,4.95,2.46,8.62,1.11,4.52,1.88,7.51,2.27,8.9,.11,.34,.32,.61,.64,.78Z"/></g><path class="cls-1" d="M59.62,59.35c-7.31,2.12-13.38,7.01-17.79,13.12-5.02,6.95-7.56,15.3-8.66,23.72-.69,5.28-.83,10.61-.73,15.93l1.96-.27c-1.3-3.16-3.6-5.71-6.69-7.2-.86-.41-1.91,.45-1.37,1.37,1.51,2.54,3.64,4.72,6.25,6.14,1.25,.68,2.37,.87,3.63,.12,1.66-.99,3.22-2.21,4.81-3.3,1.05-.72,.06-2.46-1.01-1.73-1.16,.8-2.33,1.6-3.49,2.4-.47,.32-1.07,.91-1.63,1.08-.68,.22-1.43-.35-1.97-.69-2.02-1.25-3.65-2.99-4.86-5.03l-1.37,1.37c2.6,1.24,4.67,3.32,5.78,6,.4,.97,1.99,.96,1.96-.27-.3-16.05,1.97-33.83,14.88-44.92,3.16-2.71,6.83-4.76,10.84-5.93,1.23-.36,.71-2.29-.53-1.93h0Z"/><path class="cls-1" d="M126.21,41.76c-13.43,.45-26.62,4.29-38.18,11.15-1.11,.66-.1,2.39,1.01,1.73,11.26-6.68,24.08-10.44,37.17-10.88,1.28-.04,1.29-2.04,0-2h0Z"/></svg>