<?xml version="1.0" encoding="UTF-8"?><svg id="Layer_1" xmlns="http://www.w3.org/2000/svg" viewBox="0 0 92.02 29.98"><defs><style>.cls-1{fill:#06425c;}</style></defs><path class="cls-1" d="M8.08,17.48c-.59-.39-1.5-.66-2.7-.78-1.33-.12-2.14-.22-2.4-.3-.62-.19-1.04-.54-1.23-1.01-.2-.51-.22-1.01-.06-1.49,.17-.48,.43-.86,.8-1.13,.36-.27,.8-.42,1.31-.45,.5-.03,.97,.11,1.4,.4,.18,.14,.38,.19,.59,.15,.21-.04,.38-.15,.51-.31,.13-.17,.18-.36,.14-.58-.04-.21-.14-.38-.3-.5-.56-.4-1.19-.63-1.86-.7-.67-.06-1.3,.04-1.87,.29-.57,.26-1.07,.61-1.51,1.05-.44,.44-.72,1.02-.84,1.71-.12,.69-.04,1.4,.25,2.11,.38,.97,1.13,1.63,2.23,1.95,.38,.1,1.28,.23,2.68,.38,.94,.1,1.62,.28,2.02,.53,.49,.32,.77,.92,.82,1.78,.06,.9-.13,1.65-.56,2.22-.43,.57-.97,.92-1.62,1.06-.65,.14-1.28,.05-1.86-.27-.58-.32-1.01-.87-1.28-1.63-.06-.21-.19-.36-.38-.46-.19-.09-.39-.11-.6-.04-.21,.07-.36,.2-.45,.39-.09,.19-.1,.39-.03,.6,.37,1.15,1.03,1.99,1.97,2.49,.83,.44,1.69,.61,2.59,.51,.12-.01,.24-.03,.36-.06,1.03-.22,1.89-.77,2.55-1.65,.66-.87,.95-1.98,.86-3.29-.09-1.37-.61-2.37-1.53-2.97Z"/><path class="cls-1" d="M12.96,15.42c-.16-.14-.35-.21-.56-.2-.22,0-.4,.09-.54,.25-.14,.16-.21,.35-.2,.56,.04,.91,.18,2.28,.42,4.06,.26,1.92,.4,3.24,.43,3.92,0,.22,.09,.4,.25,.54,.16,.14,.35,.21,.56,.2,.02,0,.05,0,.07,0,.19-.02,.34-.1,.47-.25,.14-.16,.21-.35,.2-.56-.04-.75-.19-2.11-.45-4.05-.23-1.73-.37-3.05-.41-3.92,0-.21-.09-.4-.25-.54Z"/><path class="cls-1" d="M12.03,13.39c.21-.02,.39-.12,.52-.29,.13-.17,.19-.36,.16-.57s-.12-.39-.29-.52h0c-.17-.13-.36-.19-.57-.16s-.39,.12-.52,.29c-.13,.17-.19,.36-.16,.57s.12,.39,.29,.52c.17,.13,.36,.19,.57,.16Z"/><path class="cls-1" d="M23.17,21.36c-.13-.7-.21-1.19-.24-1.45v-.34c.03-.41,.03-.75,.01-1.01,0-.18-.02-.34-.05-.45-.03-.12-.07-.22-.12-.3-.16-.25-.39-.38-.67-.4-.04-.07-.1-.13-.17-.19-1.05-.77-2.15-.97-3.25-.57-.91,.31-1.67,.97-2.27,1.96-.33,.57-.56,1.19-.68,1.84-.12,.66-.07,1.34,.15,2.01,.22,.68,.65,1.21,1.28,1.59,1.06,.63,2.22,.58,3.45-.12,.48-.27,.91-.61,1.28-1.03,.02,.13,.04,.26,.07,.37,.15,.91,.25,1.66,.29,2.24,.04,.64,.02,1.07-.06,1.27-.07,.16-.26,.37-.54,.62-.29,.25-.63,.46-1.01,.64-.81,.4-1.39,.5-1.71,.31-.04-.03-.13-.13-.26-.52-.05-.12-.13-.48-.25-1.06-.04-.21-.16-.38-.34-.49-.18-.11-.38-.15-.59-.11-.21,.04-.38,.16-.49,.34-.11,.18-.15,.38-.11,.59,.14,.62,.23,1.02,.29,1.18,.21,.69,.53,1.17,.93,1.41,.44,.26,.96,.35,1.55,.28,.5-.06,1.05-.23,1.66-.52,.5-.24,.97-.55,1.4-.91,.43-.37,.74-.76,.91-1.16,.18-.42,.25-1.09,.2-1.97-.04-.59-.14-1.39-.31-2.4-.07-.43-.17-.98-.31-1.64Zm-1.83-1.38l-.04,.49c-.02,.37-.04,.44-.04,.45-.11,.3-.29,.6-.54,.9-.25,.3-.55,.55-.9,.75-.69,.4-1.32,.44-1.85,.13-.45-.24-.7-.69-.74-1.32-.04-.65,.14-1.32,.54-1.99,.38-.67,.86-1.1,1.43-1.29,.12-.04,.25-.07,.37-.09,.47-.05,.94,.1,1.42,.45h0c.06,.04,.11,.07,.15,.09,.01,.08,.03,.18,.06,.3l.02,.14c.01,.24,.05,.58,.12,.99Z"/><path class="cls-1" d="M30.92,13.38c-.39-.22-.76-.34-1.08-.37-.32-.02-.69,.01-1.11,.09-.93,.19-1.69,.65-2.26,1.38-.03-.2-.13-.36-.29-.49-.17-.13-.36-.19-.57-.16s-.39,.12-.52,.29c-.13,.17-.19,.36-.16,.57,.06,.54,.12,1.42,.18,2.6,.06,1.18,.12,2.13,.18,2.81,.06,.68,.23,1.6,.49,2.73h0c.06,.21,.19,.37,.38,.47,.15,.08,.3,.11,.46,.09,.05,0,.09-.01,.14-.03,.19-.06,.34-.18,.44-.36,.1-.17,.13-.36,.1-.56,.12-.21,.15-.43,.07-.66-.49-1.46-.64-2.95-.42-4.41,.23-1.59,.93-2.51,2.07-2.74,.28-.06,.49-.09,.63-.09,.13,0,.29,.06,.45,.17,.75,.44,1.38,1.35,1.86,2.71,.31,.81,.61,2.04,.89,3.67,.04,.21,.15,.38,.33,.5,.18,.12,.37,.16,.58,.12,.21-.04,.38-.15,.5-.33,.12-.18,.16-.37,.12-.58-.31-1.69-.63-3.01-.95-3.93-.61-1.69-1.46-2.87-2.52-3.5Z"/><path class="cls-1" d="M46.07,13.73v-.12c0-.2-.08-.38-.23-.53-.15-.15-.33-.23-.54-.23-.21,0-.39,.07-.54,.23-.15,.15-.23,.34-.24,.56l.02,.13s-.02,.08-.01,.11c.02,1,.12,2.13,.29,3.36,0,.07,0,.15,0,.23-.13,1.39-.48,2.21-1.06,2.45-.02,0-.11,.02-.4-.02-.21-.05-.41-.13-.58-.22-.72-.37-1.17-1.22-1.34-2.51-.14-.94-.12-2.12,.05-3.52,.03-.22-.02-.41-.15-.58-.13-.16-.3-.26-.52-.29-.22-.03-.41,.02-.58,.15-.17,.13-.26,.3-.29,.52-.2,1.54-.22,2.87-.06,3.93,.24,1.8,.96,3.05,2.13,3.69,.3,.15,.64,.27,1.02,.36,.32,.07,.61,.08,.87,.05,.16-.02,.3-.05,.44-.11,.43-.17,.8-.46,1.09-.87,.05,.18,.16,.31,.32,.41,.18,.11,.38,.15,.59,.11,.21-.04,.38-.16,.49-.34,.11-.18,.15-.38,.11-.59-.25-1.16-.44-2.14-.56-2.91,.05-1.26-.06-2.42-.33-3.43Z"/><path class="cls-1" d="M53.8,13.4c-.64-.82-1.42-1.36-2.31-1.6-.2-.04-.38-.02-.58,.04-.76,.35-1.34,.68-1.74,1-.04-.25-.1-.49-.15-.72-.04-.21-.16-.38-.34-.49-.18-.11-.38-.15-.59-.11-.21,.04-.38,.16-.49,.34-.11,.18-.15,.38-.11,.59,.18,.84,.35,1.76,.51,2.73,0,.22,.03,.69,.12,1.44,.06,.55,.16,1.03,.29,1.41l.14,1.16c.46,3.97,.74,6.22,.83,6.9,.02,.21,.13,.39,.3,.51,.17,.12,.37,.17,.58,.15s.39-.13,.51-.3c.12-.17,.17-.37,.15-.58-.15-1.04-.38-2.92-.68-5.61,.52,.23,1.15,.29,1.84,.19,1.2-.16,2.06-.7,2.57-1.61,.42-.78,.54-1.71,.35-2.76-.16-.97-.57-1.88-1.21-2.69Zm-3.86,4.31c-.13-.96-.26-1.84-.38-2.62,.03-.28,.12-.52,.26-.73,.21-.3,.71-.63,1.47-.98,.52,.2,.99,.57,1.39,1.12,.41,.56,.68,1.19,.81,1.86,.11,.69,.04,1.27-.2,1.72-.26,.45-.73,.73-1.39,.82-.73,.1-1.26-.06-1.59-.47-.15-.19-.27-.43-.37-.74Z"/><path class="cls-1" d="M65.22,9.37c-.39-.22-.76-.34-1.08-.37-.32-.02-.69,.01-1.11,.09-.93,.19-1.69,.65-2.26,1.38-.03-.2-.13-.36-.29-.49-.17-.13-.36-.19-.57-.16s-.39,.12-.52,.29c-.13,.17-.19,.36-.16,.57,.06,.54,.12,1.42,.18,2.6,.06,1.18,.12,2.13,.18,2.81,.06,.68,.23,1.6,.49,2.73h0c.06,.21,.19,.37,.38,.47,.15,.08,.3,.11,.46,.09,.05,0,.09-.01,.14-.03,.19-.06,.34-.18,.44-.36,.1-.17,.13-.36,.1-.56,.12-.21,.15-.43,.07-.66-.49-1.46-.64-2.95-.42-4.41,.23-1.59,.93-2.51,2.07-2.74,.28-.06,.49-.09,.63-.09,.13,0,.29,.06,.45,.17,.75,.44,1.38,1.35,1.86,2.71,.31,.81,.61,2.04,.89,3.67,.04,.21,.15,.38,.33,.5,.18,.12,.37,.16,.58,.12,.21-.04,.38-.15,.5-.33,.12-.18,.16-.37,.12-.58-.31-1.69-.63-3.01-.95-3.93-.61-1.69-1.46-2.87-2.52-3.5Z"/><path class="cls-1" d="M74.31,8.84c-.07-.15-.18-.26-.33-.33-.16-.08-.31-.14-.47-.19-.11-.07-.23-.12-.34-.16-.16-.07-.33-.08-.5-.05-.72-.05-1.37,.17-1.93,.63-.74,.6-1.23,1.53-1.45,2.76-.09,.54-.1,1.1-.04,1.66,.06,.56,.18,1.12,.38,1.66,.2,.54,.51,1.03,.93,1.47,.42,.43,.94,.75,1.52,.95,.72,.25,1.38,.34,1.96,.27s1.1-.3,1.53-.68c.72-.67,1.09-1.66,1.08-2.95-.02-.9-.24-1.83-.65-2.76-.4-.93-.97-1.69-1.69-2.26Zm.77,5.05c0,.83-.19,1.42-.57,1.76-.41,.37-1.06,.41-1.95,.12-.66-.22-1.15-.73-1.48-1.51-.32-.79-.41-1.63-.26-2.5,.14-.85,.44-1.45,.89-1.81,.19-.15,.39-.24,.61-.27,.18-.02,.36,0,.56,.06,.63,.36,1.15,.94,1.56,1.72,.41,.79,.62,1.6,.63,2.42Z"/><path class="cls-1" d="M87.44,7.82c-.2-.05-.4-.02-.58,.09-.18,.11-.3,.27-.35,.47-.05,.15-.36,1.62-.97,4.5l-.02-.03c-.33-.6-.63-1.09-.89-1.47-.4-.61-.75-1.07-1.05-1.36-.23-.22-.44-.39-.64-.48-.39-.18-.75-.16-1.07,.05-.15,.09-.27,.22-.38,.39-.04,.09-.08,.2-.11,.31-.06,.17-.12,.41-.17,.68,0,.02-.02,.06-.31,1.77l-.11,.53c-.1-.28-.25-.66-.44-1.12-.23-.55-.36-.87-.38-.97-.33-.85-.58-1.6-.75-2.21h0c-.06-.19-.18-.35-.38-.46-.19-.11-.39-.14-.59-.08-.2,.06-.36,.19-.47,.38-.11,.19-.14,.4-.08,.6,.19,.65,.46,1.43,.81,2.34,.03,.08,.14,.38,.36,.97l.52,1.26,.36,.96,.04,.35c.03,.22,.08,.4,.17,.53,.21,.32,.49,.46,.86,.42,.05,0,.1-.01,.15-.03,.3-.09,.56-.31,.75-.65,.11-.18,.22-.43,.32-.74,.11-.36,.23-.97,.38-1.82,.17-1,.25-1.43,.29-1.6,.18,.22,.39,.5,.62,.84,.23,.36,.52,.83,.85,1.4,.36,.6,.54,.9,.58,.97l.02,.04c.06,.19,.07,.23,.07,.24v.02c.1,.19,.19,.34,.29,.43,.32,.3,.67,.35,1.06,.14,.34-.19,.56-.53,.66-1.01,0-.07,.02-.18,.03-.34,.02-.1,.03-.18,.03-.23,.08-.33,.24-1.11,.49-2.31,.25-1.25,.45-2.17,.6-2.82,.05-.2,.02-.4-.09-.58-.11-.18-.27-.3-.48-.35Z"/><path class="cls-1" d="M91.73,14.15c-.17-.13-.36-.19-.57-.16s-.39,.12-.52,.29c-.13,.17-.19,.36-.16,.57s.12,.39,.29,.52c.17,.13,.36,.19,.57,.16s.39-.12,.52-.29c.13-.17,.19-.36,.16-.57s-.12-.39-.29-.52h0Z"/><path class="cls-1" d="M90.56,12.09c.16,.11,.33,.15,.51,.13,.02,0,.05,0,.07-.01,.21-.04,.38-.15,.5-.33,.12-.18,.16-.37,.12-.58-.15-.82-.41-2.61-.79-5.33-.31-2.28-.63-4.09-.95-5.4h0c-.06-.19-.18-.35-.36-.46-.18-.11-.38-.14-.58-.09-.2,.05-.36,.17-.47,.35-.11,.18-.15,.38-.11,.59,.31,1.25,.62,3.01,.93,5.24,.38,2.73,.65,4.55,.8,5.39,.04,.21,.15,.38,.33,.5Z"/></svg>