<?xml version="1.0" encoding="UTF-8"?><svg xmlns="http://www.w3.org/2000/svg" viewBox="0 0 1919.89 2399.24"><defs><style>.cls-1{isolation:isolate;}.cls-2{mix-blend-mode:multiply;opacity:.76;}.cls-3{fill:none;}.cls-4{fill:#f7eddf;}</style></defs><g class="cls-1"><g id="Layer_1"><rect class="cls-4" width="1919.89" height="2399.24"/><g id="Artwork_9" class="cls-2"><path class="cls-4" d="M1787.98-237.67c-.09-.02-.2-.07-.29-.1-.09,.03-.2,.08-.29,.1-361.3-23.04-679.37,276.39-676.89,639.02-2.53,362.3,314.8,672.36,675.75,649.95,.03,.02,.07,.03,.12,.05-.03-.01-.06-.02-.08-.05,.44-.02,.88-.01,1.32-.05,.02,.29,.05,.58,.07,.87,.03-.29,.05-.58,.08-.87,.44,.03,.87,.02,1.31,.05-.02,.02-.05,.03-.07,.05,.03-.01,.07-.02,.12-.05,360.83,22.34,678.23-287.71,675.74-649.95,2.54-362.7-315.46-662.13-676.89-639.02m627.56,639.28c-76.55-7.25-154.3-12.31-232.42-15.85-2.3-115.34-29.6-230.11-81.91-332.71,49.78-23.32,95.82-52.59,136.06-88.01,122.7,123.71,179.57,280.79,178.28,436.57M1787.69-237.66c.08,.01,.16,.02,.24,.02,115.9,64.06,202.68,160.55,260.51,273.08-78.28,22.39-159.96,34.53-242.03,36.44-3.54-104.05-9.24-207.91-18.73-309.54m-24.25,615.22c-106.34,.73-214.53,2.31-322.41,6.36,2.25-108.22,25.28-215.88,68.95-313.32,80.45,31.13,168.71,47.68,257.54,49.59-2.39,86.25-3.51,172.37-4.08,257.37m-.01,48.46c.41,65.29,1.13,131.26,2.52,197.48-95.93,2.26-191.14,21.6-276.49,57.92-30.32-83.27-46.52-172.3-48.43-261.78,107.87,4.06,216.02,5.64,322.4,6.37m48.53,.01c106.32-.69,214.51-2.24,322.39-6.31-1.94,90.18-18.39,179.9-49.18,263.71-84.94-37-179.91-56.89-275.75-59.78,1.39-66.25,2.11-132.26,2.53-197.62m-.01-48.48c-.57-85.01-1.68-171.18-4.09-257.49,88.68-2.5,176.65-19.58,256.68-51.28,44.19,97.91,67.53,206.19,69.81,315.08-107.86-4.06-216.02-5.61-322.4-6.31m218.88-556.18c80.15,37.76,146.99,84.92,201.33,138.48-46.54,25.87-95.72,47.2-146.6,64.13-1.24-2.17-2.42-4.38-3.67-6.54-66.27-113.74-168.96-211.12-293.78-255.07,84.41,5.68,167.02,24.92,242.72,58.99m-243.14-59.14c.07,.03,.13,.08,.2,.12h-.2c-9.49,101.75-15.19,205.63-18.73,309.7-82.24-1.22-164.31-12.73-243.13-34.51,57.82-113.42,144.99-210.7,261.62-275.17,.08,0,.16-.01,.24-.02h-.2c.07-.03,.13-.08,.2-.12m-.42,.16c-124.82,43.93-227.51,141.32-293.77,255.05-1.73,2.96-3.36,5.98-5.04,8.98-51.67-16.66-101.67-37.83-149.08-63.59,106.6-110.22,258.09-187,447.89-200.44M1335.05-32.78c40.86,35.45,87.52,64.78,138.03,87.94-51.61,102.08-78.54,216.1-80.82,330.68-78.16,3.53-155.92,8.57-232.43,15.77,1.17-158.37,62.33-315.37,175.22-434.39m209.51,1014.11c-266.05-125.34-386.29-353.72-384.75-579.36,76.56,7.2,154.31,12.24,232.45,15.77,1.94,96.58,21.4,192.75,58.4,281.72-50.08,25.38-96.01,56.96-135.46,95,46.61-27.37,96.02-50.08,147.22-68.32,9.23,19.9,19.28,39.43,30.32,58.43,65.99,113.77,168.35,222.23,292.93,266.53-83.84-5.81-165.89-35.89-241.1-69.75m241.38,69.78c-114.71-62.65-202.32-172.55-259.73-284.84-8.88-17.34-16.9-35.13-24.4-53.15,85.52-26.15,175.3-39.98,265.32-41.48,3.26,123.77,9.17,258.7,20.49,379.6-.56-.03-1.13-.1-1.68-.14m1.83,.14c11.32-120.93,17.22-255.74,20.48-379.42,89.92,2.25,179.37,16.79,264.32,43.65-7.22,17.21-14.9,34.22-23.4,50.79-57.41,112.29-145.01,222.19-259.72,284.83-.57,.05-1.11,.12-1.68,.15m1.97-.17c124.57-44.29,226.93-152.74,292.91-266.52,10.54-18.13,20.16-36.74,29.03-55.69,51.81,19.04,101.67,42.71,148.5,71.24-39.52-39.41-85.82-72.06-136.46-98.29,37.62-89.6,57.42-186.59,59.39-283.99,78.16-3.54,155.92-8.6,232.42-15.85-2.71,307.48-231.53,620.36-625.8,649.1"/></g><g id="Artwork_9-2" class="cls-2"><path class="cls-4" d="M377.44,825.91c-.09-.02-.2-.07-.29-.1-.09,.03-.2,.08-.29,.1-361.3-23.04-679.37,276.39-676.89,639.02-2.53,362.3,314.8,672.36,675.75,649.95,.03,.02,.07,.03,.12,.05-.03-.01-.06-.02-.08-.05,.44-.02,.88-.01,1.32-.05,.02,.29,.05,.58,.07,.87,.03-.29,.05-.58,.08-.87,.44,.03,.87,.02,1.31,.05-.02,.02-.05,.03-.07,.05,.03-.01,.07-.02,.12-.05,360.83,22.34,678.23-287.71,675.74-649.95,2.54-362.7-315.46-662.13-676.89-639.02m627.56,639.28c-76.55-7.25-154.3-12.31-232.42-15.85-2.3-115.34-29.6-230.11-81.91-332.71,49.78-23.32,95.82-52.59,136.06-88.01,122.7,123.71,179.57,280.79,178.28,436.57M377.15,825.92c.08,.01,.16,.02,.24,.02,115.9,64.06,202.68,160.55,260.51,273.08-78.28,22.39-159.96,34.53-242.03,36.44-3.54-104.05-9.24-207.91-18.73-309.54m-24.25,615.22c-106.34,.73-214.53,2.31-322.41,6.36,2.25-108.22,25.28-215.88,68.95-313.32,80.45,31.13,168.71,47.68,257.54,49.59-2.39,86.25-3.51,172.37-4.08,257.37m-.01,48.46c.41,65.29,1.13,131.26,2.52,197.48-95.93,2.26-191.14,21.6-276.49,57.92-30.32-83.27-46.52-172.3-48.43-261.78,107.87,4.06,216.02,5.64,322.4,6.37m48.53,.01c106.32-.69,214.51-2.24,322.39-6.31-1.94,90.18-18.39,179.9-49.18,263.71-84.94-37-179.91-56.89-275.75-59.78,1.39-66.25,2.11-132.26,2.53-197.62m-.01-48.48c-.57-85.01-1.68-171.18-4.09-257.49,88.68-2.5,176.65-19.58,256.68-51.28,44.19,97.91,67.53,206.19,69.81,315.08-107.86-4.06-216.02-5.61-322.4-6.31m218.88-556.18c80.15,37.76,146.99,84.92,201.33,138.48-46.54,25.87-95.72,47.2-146.6,64.13-1.24-2.17-2.42-4.38-3.67-6.54-66.27-113.74-168.96-211.12-293.78-255.07,84.41,5.68,167.02,24.92,242.72,58.99m-243.14-59.14c.07,.03,.13,.08,.2,.12h-.2c-9.49,101.75-15.19,205.63-18.73,309.7-82.24-1.22-164.31-12.73-243.13-34.51,57.82-113.42,144.99-210.7,261.62-275.17,.08,0,.16-.01,.24-.02h-.2c.07-.03,.13-.08,.2-.12m-.42,.16c-124.82,43.93-227.51,141.32-293.77,255.05-1.73,2.96-3.36,5.98-5.04,8.98-51.67-16.66-101.67-37.83-149.08-63.59,106.6-110.22,258.09-187,447.89-200.44m-452.22,204.83c40.86,35.45,87.52,64.78,138.03,87.94-51.61,102.08-78.54,216.1-80.82,330.68-78.16,3.53-155.92,8.57-232.43,15.77,1.17-158.37,62.33-315.37,175.22-434.39m209.51,1014.11c-266.05-125.34-386.29-353.72-384.75-579.36,76.56,7.2,154.31,12.24,232.45,15.77,1.94,96.58,21.4,192.75,58.4,281.72-50.08,25.38-96.01,56.96-135.46,95,46.61-27.37,96.02-50.08,147.22-68.32,9.23,19.9,19.28,39.43,30.32,58.43,65.99,113.77,168.35,222.23,292.93,266.53-83.84-5.81-165.89-35.89-241.1-69.75m241.38,69.78c-114.71-62.65-202.32-172.55-259.73-284.84-8.88-17.34-16.9-35.13-24.4-53.15,85.52-26.15,175.3-39.98,265.32-41.48,3.26,123.77,9.17,258.7,20.49,379.6-.56-.03-1.13-.1-1.68-.14m1.83,.14c11.32-120.93,17.22-255.74,20.48-379.42,89.92,2.25,179.37,16.79,264.32,43.65-7.22,17.21-14.9,34.22-23.4,50.79-57.41,112.29-145.01,222.19-259.72,284.83-.57,.05-1.11,.12-1.68,.15m1.97-.17c124.57-44.29,226.93-152.74,292.91-266.52,10.54-18.13,20.16-36.74,29.03-55.69,51.81,19.04,101.67,42.71,148.5,71.24-39.52-39.41-85.82-72.06-136.46-98.29,37.62-89.6,57.42-186.59,59.39-283.99,78.16-3.54,155.92-8.6,232.42-15.85-2.71,307.48-231.53,620.36-625.8,649.1"/></g><rect class="cls-3" width="1919.89" height="1538.75"/></g></g></svg>